<?xml version="1.0" encoding="UTF-8" standalone="no"?>
<!DOCTYPE svg PUBLIC "-//W3C//DTD SVG 1.1//EN"
 "http://www.w3.org/Graphics/SVG/1.1/DTD/svg11.dtd">
<!-- Generated by graphviz version 11.0.0 (20240428.1522)
 -->
<!-- Title: TSet.h Pages: 1 -->
<svg width="330pt" height="196pt"
 viewBox="0.00 0.00 330.12 196.00" xmlns="http://www.w3.org/2000/svg" xmlns:xlink="http://www.w3.org/1999/xlink">
<g id="graph0" class="graph" transform="scale(1 1) rotate(0) translate(4 192)">
<title>TSet.h</title>
<!-- Node1 -->
<g id="Node000001" class="node">
<title>Node1</title>
<g id="a_Node000001"><a xlink:title="Definice typu Set &#45; (realizace množiny pomocí nesetříděného flexibilního dynamicky alokovaného pole).">
<polygon fill="#999999" stroke="#666666" points="120.12,-188 75.62,-188 75.62,-168 120.12,-168 120.12,-188"/>
<text text-anchor="middle" x="97.88" y="-174.5" font-family="Helvetica,sans-Serif" font-size="10.00">TSet.h</text>
</a>
</g>
</g>
<!-- Node2 -->
<g id="Node000002" class="node">
<title>Node2</title>
<g id="a_Node000002"><a xlink:title=" ">
<polygon fill="#e0e0e0" stroke="#999999" points="55.75,-20 0,-20 0,0 55.75,0 55.75,-20"/>
<text text-anchor="middle" x="27.88" y="-6.5" font-family="Helvetica,sans-Serif" font-size="10.00">stdbool.h</text>
</a>
</g>
</g>
<!-- Node1&#45;&gt;Node2 -->
<g id="edge1_Node000001_Node000002" class="edge">
<title>Node1&#45;&gt;Node2</title>
<g id="a_edge1_Node000001_Node000002"><a xlink:title=" ">
<path fill="none" stroke="#63b8ff" d="M87.86,-167.61C71.07,-151.05 37.98,-114.73 26.88,-76 22.73,-61.53 23.17,-44.49 24.55,-31.49"/>
<polygon fill="#63b8ff" stroke="#63b8ff" points="27.96,-32.36 25.84,-21.98 21.03,-31.42 27.96,-32.36"/>
</a>
</g>
</g>
<!-- Node3 -->
<g id="Node000003" class="node">
<title>Node3</title>
<g id="a_Node000003"><a xlink:title=" ">
<polygon fill="#e0e0e0" stroke="#999999" points="86.12,-76 35.62,-76 35.62,-56 86.12,-56 86.12,-76"/>
<text text-anchor="middle" x="60.88" y="-62.5" font-family="Helvetica,sans-Serif" font-size="10.00">stddef.h</text>
</a>
</g>
</g>
<!-- Node1&#45;&gt;Node3 -->
<g id="edge2_Node000001_Node000003" class="edge">
<title>Node1&#45;&gt;Node3</title>
<g id="a_edge2_Node000001_Node000003"><a xlink:title=" ">
<path fill="none" stroke="#63b8ff" d="M91.26,-167.83C85.26,-159.06 76.65,-145.24 71.88,-132 66.7,-117.63 63.93,-100.57 62.46,-87.53"/>
<polygon fill="#63b8ff" stroke="#63b8ff" points="65.95,-87.23 61.53,-77.59 58.98,-87.88 65.95,-87.23"/>
</a>
</g>
</g>
<!-- Node4 -->
<g id="Node000004" class="node">
<title>Node4</title>
<g id="a_Node000004"><a xlink:href="_t_set_unsorted_flex_array_8h.html" target="_top" xlink:title="Deklarace typu SetUnsortedFlexArray a jeho API pro realizaci množiny pomocí nesetříděného flexibilníh...">
<polygon fill="white" stroke="#666666" points="206.62,-132 81.12,-132 81.12,-112 206.62,-112 206.62,-132"/>
<text text-anchor="middle" x="143.88" y="-118.5" font-family="Helvetica,sans-Serif" font-size="10.00">TSetUnsortedFlexArray.h</text>
</a>
</g>
</g>
<!-- Node1&#45;&gt;Node4 -->
<g id="edge3_Node000001_Node000004" class="edge">
<title>Node1&#45;&gt;Node4</title>
<g id="a_edge3_Node000001_Node000004"><a xlink:title=" ">
<path fill="none" stroke="#63b8ff" d="M105.89,-167.59C112.15,-160.24 121.05,-149.8 128.66,-140.87"/>
<polygon fill="#63b8ff" stroke="#63b8ff" points="131.15,-143.33 134.97,-133.45 125.82,-138.79 131.15,-143.33"/>
</a>
</g>
</g>
<!-- Node9 -->
<g id="Node000009" class="node">
<title>Node9</title>
<g id="a_Node000009"><a xlink:title=" ">
<polygon fill="#e0e0e0" stroke="#999999" points="322.12,-20 271.62,-20 271.62,0 322.12,0 322.12,-20"/>
<text text-anchor="middle" x="296.88" y="-6.5" font-family="Helvetica,sans-Serif" font-size="10.00">check.h</text>
</a>
</g>
</g>
<!-- Node1&#45;&gt;Node9 -->
<g id="edge12_Node000001_Node000009" class="edge">
<title>Node1&#45;&gt;Node9</title>
<g id="a_edge12_Node000001_Node000009"><a xlink:title=" ">
<path fill="none" stroke="#63b8ff" d="M120.36,-172.74C145.75,-167.01 187.23,-154.81 215.88,-132 250.84,-104.15 276.15,-57.04 288.46,-30.57"/>
<polygon fill="#63b8ff" stroke="#63b8ff" points="291.55,-32.24 292.44,-21.68 285.16,-29.38 291.55,-32.24"/>
</a>
</g>
</g>
<!-- Node4&#45;&gt;Node2 -->
<g id="edge4_Node000004_Node000002" class="edge">
<title>Node4&#45;&gt;Node2</title>
<g id="a_edge4_Node000004_Node000002"><a xlink:title=" ">
<path fill="none" stroke="#63b8ff" d="M138.37,-111.84C130.07,-98.52 113.35,-73.49 94.88,-56 82.91,-44.67 67.81,-34.26 54.97,-26.31"/>
<polygon fill="#63b8ff" stroke="#63b8ff" points="56.93,-23.41 46.56,-21.27 53.34,-29.41 56.93,-23.41"/>
</a>
</g>
</g>
<!-- Node4&#45;&gt;Node3 -->
<g id="edge5_Node000004_Node000003" class="edge">
<title>Node4&#45;&gt;Node3</title>
<g id="a_edge5_Node000004_Node000003"><a xlink:title=" ">
<path fill="none" stroke="#63b8ff" d="M129.42,-111.59C117.12,-103.59 99.2,-91.93 84.77,-82.54"/>
<polygon fill="#63b8ff" stroke="#63b8ff" points="87,-79.82 76.71,-77.3 83.19,-85.69 87,-79.82"/>
</a>
</g>
</g>
<!-- Node5 -->
<g id="Node000005" class="node">
<title>Node5</title>
<g id="a_Node000005"><a xlink:href="_t_set_element_8h.html" target="_top" xlink:title="Definice typu Basic SetElement a implementace API.">
<polygon fill="white" stroke="#666666" points="222.12,-76 141.62,-76 141.62,-56 222.12,-56 222.12,-76"/>
<text text-anchor="middle" x="181.88" y="-62.5" font-family="Helvetica,sans-Serif" font-size="10.00">TSetElement.h</text>
</a>
</g>
</g>
<!-- Node4&#45;&gt;Node5 -->
<g id="edge6_Node000004_Node000005" class="edge">
<title>Node4&#45;&gt;Node5</title>
<g id="a_edge6_Node000004_Node000005"><a xlink:title=" ">
<path fill="none" stroke="#63b8ff" d="M150.49,-111.59C155.56,-104.39 162.71,-94.23 168.9,-85.43"/>
<polygon fill="#63b8ff" stroke="#63b8ff" points="171.57,-87.73 174.46,-77.54 165.84,-83.7 171.57,-87.73"/>
</a>
</g>
</g>
<!-- Node5&#45;&gt;Node2 -->
<g id="edge9_Node000005_Node000002" class="edge">
<title>Node5&#45;&gt;Node2</title>
<g id="a_edge9_Node000005_Node000002"><a xlink:title=" ">
<path fill="none" stroke="#63b8ff" d="M155.05,-55.59C130.25,-46.9 93.15,-33.89 65.41,-24.16"/>
<polygon fill="#63b8ff" stroke="#63b8ff" points="66.93,-20.99 56.34,-20.98 64.62,-27.59 66.93,-20.99"/>
</a>
</g>
</g>
<!-- Node6 -->
<g id="Node000006" class="node">
<title>Node6</title>
<g id="a_Node000006"><a xlink:title=" ">
<polygon fill="#e0e0e0" stroke="#999999" points="119.5,-20 74.25,-20 74.25,0 119.5,0 119.5,-20"/>
<text text-anchor="middle" x="96.88" y="-6.5" font-family="Helvetica,sans-Serif" font-size="10.00">stdio.h</text>
</a>
</g>
</g>
<!-- Node5&#45;&gt;Node6 -->
<g id="edge7_Node000005_Node000006" class="edge">
<title>Node5&#45;&gt;Node6</title>
<g id="a_edge7_Node000005_Node000006"><a xlink:title=" ">
<path fill="none" stroke="#63b8ff" d="M167.07,-55.59C154.47,-47.59 136.12,-35.93 121.34,-26.54"/>
<polygon fill="#63b8ff" stroke="#63b8ff" points="123.39,-23.7 113.07,-21.29 119.64,-29.61 123.39,-23.7"/>
</a>
</g>
</g>
<!-- Node7 -->
<g id="Node000007" class="node">
<title>Node7</title>
<g id="a_Node000007"><a xlink:title=" ">
<polygon fill="#e0e0e0" stroke="#999999" points="184.62,-20 137.12,-20 137.12,0 184.62,0 184.62,-20"/>
<text text-anchor="middle" x="160.88" y="-6.5" font-family="Helvetica,sans-Serif" font-size="10.00">stdlib.h</text>
</a>
</g>
</g>
<!-- Node5&#45;&gt;Node7 -->
<g id="edge8_Node000005_Node000007" class="edge">
<title>Node5&#45;&gt;Node7</title>
<g id="a_edge8_Node000005_Node000007"><a xlink:title=" ">
<path fill="none" stroke="#63b8ff" d="M178.22,-55.59C175.57,-48.78 171.89,-39.32 168.6,-30.86"/>
<polygon fill="#63b8ff" stroke="#63b8ff" points="171.93,-29.76 165.04,-21.71 165.4,-32.3 171.93,-29.76"/>
</a>
</g>
</g>
<!-- Node8 -->
<g id="Node000008" class="node">
<title>Node8</title>
<g id="a_Node000008"><a xlink:title=" ">
<polygon fill="#e0e0e0" stroke="#999999" points="253.5,-20 202.25,-20 202.25,0 253.5,0 253.5,-20"/>
<text text-anchor="middle" x="227.88" y="-6.5" font-family="Helvetica,sans-Serif" font-size="10.00">assert.h</text>
</a>
</g>
</g>
<!-- Node5&#45;&gt;Node8 -->
<g id="edge10_Node000005_Node000008" class="edge">
<title>Node5&#45;&gt;Node8</title>
<g id="a_edge10_Node000005_Node000008"><a xlink:title=" ">
<path fill="none" stroke="#63b8ff" d="M189.89,-55.59C196.15,-48.24 205.05,-37.8 212.66,-28.87"/>
<polygon fill="#63b8ff" stroke="#63b8ff" points="215.15,-31.33 218.97,-21.45 209.82,-26.79 215.15,-31.33"/>
</a>
</g>
</g>
<!-- Node5&#45;&gt;Node9 -->
<g id="edge11_Node000005_Node000009" class="edge">
<title>Node5&#45;&gt;Node9</title>
<g id="a_edge11_Node000005_Node000009"><a xlink:title=" ">
<path fill="none" stroke="#63b8ff" d="M201.91,-55.59C219.69,-47.24 245.94,-34.92 266.34,-25.34"/>
<polygon fill="#63b8ff" stroke="#63b8ff" points="267.75,-28.54 275.32,-21.12 264.78,-22.21 267.75,-28.54"/>
</a>
</g>
</g>
</g>
</svg>
