<?xml version="1.0" encoding="UTF-8" standalone="no"?>
<!DOCTYPE svg PUBLIC "-//W3C//DTD SVG 1.1//EN"
 "http://www.w3.org/Graphics/SVG/1.1/DTD/svg11.dtd">
<!-- Generated by graphviz version 11.0.0 (20240428.1522)
 -->
<!-- Title: TSet.c Pages: 1 -->
<svg width="330pt" height="252pt"
 viewBox="0.00 0.00 330.12 252.00" xmlns="http://www.w3.org/2000/svg" xmlns:xlink="http://www.w3.org/1999/xlink">
<g id="graph0" class="graph" transform="scale(1 1) rotate(0) translate(4 248)">
<title>TSet.c</title>
<!-- Node1 -->
<g id="Node000001" class="node">
<title>Node1</title>
<g id="a_Node000001"><a xlink:title="Implementace API pro typ Set (realizace množiny pomocí nesetříděného flexibilního dynamicky alokované...">
<polygon fill="#999999" stroke="#666666" points="251.12,-244 206.62,-244 206.62,-224 251.12,-224 251.12,-244"/>
<text text-anchor="middle" x="228.88" y="-230.5" font-family="Helvetica,sans-Serif" font-size="10.00">TSet.c</text>
</a>
</g>
</g>
<!-- Node2 -->
<g id="Node000002" class="node">
<title>Node2</title>
<g id="a_Node000002"><a xlink:href="_t_set_8h.html" target="_top" xlink:title="Definice typu Set &#45; (realizace množiny pomocí nesetříděného flexibilního dynamicky alokovaného pole).">
<polygon fill="white" stroke="#666666" points="183.12,-188 138.62,-188 138.62,-168 183.12,-168 183.12,-188"/>
<text text-anchor="middle" x="160.88" y="-174.5" font-family="Helvetica,sans-Serif" font-size="10.00">TSet.h</text>
</a>
</g>
</g>
<!-- Node1&#45;&gt;Node2 -->
<g id="edge1_Node000001_Node000002" class="edge">
<title>Node1&#45;&gt;Node2</title>
<g id="a_edge1_Node000001_Node000002"><a xlink:title=" ">
<path fill="none" stroke="#63b8ff" d="M217.03,-223.59C207.18,-215.77 192.94,-204.46 181.27,-195.19"/>
<polygon fill="#63b8ff" stroke="#63b8ff" points="183.78,-192.72 173.77,-189.24 179.42,-198.2 183.78,-192.72"/>
</a>
</g>
</g>
<!-- Node10 -->
<g id="Node000010" class="node">
<title>Node10</title>
<g id="a_Node000010"><a xlink:title=" ">
<polygon fill="#e0e0e0" stroke="#999999" points="322.12,-20 271.62,-20 271.62,0 322.12,0 322.12,-20"/>
<text text-anchor="middle" x="296.88" y="-6.5" font-family="Helvetica,sans-Serif" font-size="10.00">check.h</text>
</a>
</g>
</g>
<!-- Node1&#45;&gt;Node10 -->
<g id="edge14_Node000001_Node000010" class="edge">
<title>Node1&#45;&gt;Node10</title>
<g id="a_edge14_Node000001_Node000010"><a xlink:title=" ">
<path fill="none" stroke="#63b8ff" d="M232.56,-223.57C241.93,-199.36 267.02,-132.92 282.88,-76 286.96,-61.32 290.56,-44.5 293.08,-31.65"/>
<polygon fill="#63b8ff" stroke="#63b8ff" points="296.52,-32.31 294.94,-21.83 289.64,-31 296.52,-32.31"/>
</a>
</g>
</g>
<!-- Node3 -->
<g id="Node000003" class="node">
<title>Node3</title>
<g id="a_Node000003"><a xlink:title=" ">
<polygon fill="#e0e0e0" stroke="#999999" points="55.75,-20 0,-20 0,0 55.75,0 55.75,-20"/>
<text text-anchor="middle" x="27.88" y="-6.5" font-family="Helvetica,sans-Serif" font-size="10.00">stdbool.h</text>
</a>
</g>
</g>
<!-- Node2&#45;&gt;Node3 -->
<g id="edge2_Node000002_Node000003" class="edge">
<title>Node2&#45;&gt;Node3</title>
<g id="a_edge2_Node000002_Node000003"><a xlink:title=" ">
<path fill="none" stroke="#63b8ff" d="M138.29,-168.95C119.54,-161.47 92.95,-148.93 73.88,-132 51.38,-112.03 46.45,-104.16 35.88,-76 30.54,-61.79 28.59,-44.72 27.95,-31.65"/>
<polygon fill="#63b8ff" stroke="#63b8ff" points="31.45,-31.57 27.71,-21.66 24.45,-31.75 31.45,-31.57"/>
</a>
</g>
</g>
<!-- Node4 -->
<g id="Node000004" class="node">
<title>Node4</title>
<g id="a_Node000004"><a xlink:title=" ">
<polygon fill="#e0e0e0" stroke="#999999" points="95.12,-76 44.62,-76 44.62,-56 95.12,-56 95.12,-76"/>
<text text-anchor="middle" x="69.88" y="-62.5" font-family="Helvetica,sans-Serif" font-size="10.00">stddef.h</text>
</a>
</g>
</g>
<!-- Node2&#45;&gt;Node4 -->
<g id="edge3_Node000002_Node000004" class="edge">
<title>Node2&#45;&gt;Node4</title>
<g id="a_edge3_Node000002_Node000004"><a xlink:title=" ">
<path fill="none" stroke="#63b8ff" d="M138.28,-168.1C122.28,-160.71 101.51,-148.68 88.88,-132 79.09,-119.08 74.34,-101.24 72.03,-87.51"/>
<polygon fill="#63b8ff" stroke="#63b8ff" points="75.53,-87.27 70.73,-77.82 68.59,-88.2 75.53,-87.27"/>
</a>
</g>
</g>
<!-- Node5 -->
<g id="Node000005" class="node">
<title>Node5</title>
<g id="a_Node000005"><a xlink:href="_t_set_unsorted_flex_array_8h.html" target="_top" xlink:title="Deklarace typu SetUnsortedFlexArray a jeho API pro realizaci množiny pomocí nesetříděného flexibilníh...">
<polygon fill="white" stroke="#666666" points="223.62,-132 98.12,-132 98.12,-112 223.62,-112 223.62,-132"/>
<text text-anchor="middle" x="160.88" y="-118.5" font-family="Helvetica,sans-Serif" font-size="10.00">TSetUnsortedFlexArray.h</text>
</a>
</g>
</g>
<!-- Node2&#45;&gt;Node5 -->
<g id="edge4_Node000002_Node000005" class="edge">
<title>Node2&#45;&gt;Node5</title>
<g id="a_edge4_Node000002_Node000005"><a xlink:title=" ">
<path fill="none" stroke="#63b8ff" d="M160.88,-167.59C160.88,-161.01 160.88,-151.96 160.88,-143.73"/>
<polygon fill="#63b8ff" stroke="#63b8ff" points="164.38,-143.81 160.88,-133.81 157.38,-143.81 164.38,-143.81"/>
</a>
</g>
</g>
<!-- Node2&#45;&gt;Node10 -->
<g id="edge13_Node000002_Node000010" class="edge">
<title>Node2&#45;&gt;Node10</title>
<g id="a_edge13_Node000002_Node000010"><a xlink:title=" ">
<path fill="none" stroke="#63b8ff" d="M181.86,-167.62C197.44,-159.84 218.42,-147.54 232.88,-132 261.1,-101.66 280.57,-56.51 290.12,-30.8"/>
<polygon fill="#63b8ff" stroke="#63b8ff" points="293.33,-32.21 293.39,-21.61 286.74,-29.86 293.33,-32.21"/>
</a>
</g>
</g>
<!-- Node5&#45;&gt;Node3 -->
<g id="edge5_Node000005_Node000003" class="edge">
<title>Node5&#45;&gt;Node3</title>
<g id="a_edge5_Node000005_Node000003"><a xlink:title=" ">
<path fill="none" stroke="#63b8ff" d="M154.28,-111.78C144.4,-98.38 124.66,-73.25 103.88,-56 89.73,-44.26 72.16,-33.64 57.48,-25.68"/>
<polygon fill="#63b8ff" stroke="#63b8ff" points="59.21,-22.63 48.73,-21.07 55.95,-28.83 59.21,-22.63"/>
</a>
</g>
</g>
<!-- Node5&#45;&gt;Node4 -->
<g id="edge6_Node000005_Node000004" class="edge">
<title>Node5&#45;&gt;Node4</title>
<g id="a_edge6_Node000005_Node000004"><a xlink:title=" ">
<path fill="none" stroke="#63b8ff" d="M145.02,-111.59C131.41,-103.51 111.51,-91.71 95.61,-82.27"/>
<polygon fill="#63b8ff" stroke="#63b8ff" points="97.54,-79.35 87.15,-77.25 93.97,-85.37 97.54,-79.35"/>
</a>
</g>
</g>
<!-- Node6 -->
<g id="Node000006" class="node">
<title>Node6</title>
<g id="a_Node000006"><a xlink:href="_t_set_element_8h.html" target="_top" xlink:title="Definice typu Basic SetElement a implementace API.">
<polygon fill="white" stroke="#666666" points="231.12,-76 150.62,-76 150.62,-56 231.12,-56 231.12,-76"/>
<text text-anchor="middle" x="190.88" y="-62.5" font-family="Helvetica,sans-Serif" font-size="10.00">TSetElement.h</text>
</a>
</g>
</g>
<!-- Node5&#45;&gt;Node6 -->
<g id="edge7_Node000005_Node000006" class="edge">
<title>Node5&#45;&gt;Node6</title>
<g id="a_edge7_Node000005_Node000006"><a xlink:title=" ">
<path fill="none" stroke="#63b8ff" d="M166.1,-111.59C169.97,-104.63 175.38,-94.89 180.16,-86.29"/>
<polygon fill="#63b8ff" stroke="#63b8ff" points="183.18,-88.06 184.97,-77.62 177.06,-84.66 183.18,-88.06"/>
</a>
</g>
</g>
<!-- Node6&#45;&gt;Node3 -->
<g id="edge10_Node000006_Node000003" class="edge">
<title>Node6&#45;&gt;Node3</title>
<g id="a_edge10_Node000006_Node000003"><a xlink:title=" ">
<path fill="none" stroke="#63b8ff" d="M162.48,-55.59C136.03,-46.83 96.37,-33.69 66.94,-23.94"/>
<polygon fill="#63b8ff" stroke="#63b8ff" points="68.25,-20.69 57.65,-20.86 66.04,-27.33 68.25,-20.69"/>
</a>
</g>
</g>
<!-- Node7 -->
<g id="Node000007" class="node">
<title>Node7</title>
<g id="a_Node000007"><a xlink:title=" ">
<polygon fill="#e0e0e0" stroke="#999999" points="119.5,-20 74.25,-20 74.25,0 119.5,0 119.5,-20"/>
<text text-anchor="middle" x="96.88" y="-6.5" font-family="Helvetica,sans-Serif" font-size="10.00">stdio.h</text>
</a>
</g>
</g>
<!-- Node6&#45;&gt;Node7 -->
<g id="edge8_Node000006_Node000007" class="edge">
<title>Node6&#45;&gt;Node7</title>
<g id="a_edge8_Node000006_Node000007"><a xlink:title=" ">
<path fill="none" stroke="#63b8ff" d="M174.5,-55.59C160.3,-47.44 139.49,-35.48 122.99,-26"/>
<polygon fill="#63b8ff" stroke="#63b8ff" points="125.1,-23.18 114.69,-21.23 121.62,-29.25 125.1,-23.18"/>
</a>
</g>
</g>
<!-- Node8 -->
<g id="Node000008" class="node">
<title>Node8</title>
<g id="a_Node000008"><a xlink:title=" ">
<polygon fill="#e0e0e0" stroke="#999999" points="184.62,-20 137.12,-20 137.12,0 184.62,0 184.62,-20"/>
<text text-anchor="middle" x="160.88" y="-6.5" font-family="Helvetica,sans-Serif" font-size="10.00">stdlib.h</text>
</a>
</g>
</g>
<!-- Node6&#45;&gt;Node8 -->
<g id="edge9_Node000006_Node000008" class="edge">
<title>Node6&#45;&gt;Node8</title>
<g id="a_edge9_Node000006_Node000008"><a xlink:title=" ">
<path fill="none" stroke="#63b8ff" d="M185.65,-55.59C181.78,-48.63 176.37,-38.89 171.59,-30.29"/>
<polygon fill="#63b8ff" stroke="#63b8ff" points="174.69,-28.66 166.78,-21.62 168.57,-32.06 174.69,-28.66"/>
</a>
</g>
</g>
<!-- Node9 -->
<g id="Node000009" class="node">
<title>Node9</title>
<g id="a_Node000009"><a xlink:title=" ">
<polygon fill="#e0e0e0" stroke="#999999" points="253.5,-20 202.25,-20 202.25,0 253.5,0 253.5,-20"/>
<text text-anchor="middle" x="227.88" y="-6.5" font-family="Helvetica,sans-Serif" font-size="10.00">assert.h</text>
</a>
</g>
</g>
<!-- Node6&#45;&gt;Node9 -->
<g id="edge11_Node000006_Node000009" class="edge">
<title>Node6&#45;&gt;Node9</title>
<g id="a_edge11_Node000006_Node000009"><a xlink:title=" ">
<path fill="none" stroke="#63b8ff" d="M197.32,-55.59C202.2,-48.47 209.07,-38.45 215.05,-29.72"/>
<polygon fill="#63b8ff" stroke="#63b8ff" points="217.88,-31.77 220.65,-21.55 212.11,-27.82 217.88,-31.77"/>
</a>
</g>
</g>
<!-- Node6&#45;&gt;Node10 -->
<g id="edge12_Node000006_Node000010" class="edge">
<title>Node6&#45;&gt;Node10</title>
<g id="a_edge12_Node000006_Node000010"><a xlink:title=" ">
<path fill="none" stroke="#63b8ff" d="M209.34,-55.59C225.58,-47.32 249.48,-35.14 268.21,-25.6"/>
<polygon fill="#63b8ff" stroke="#63b8ff" points="269.6,-28.82 276.92,-21.17 266.42,-22.59 269.6,-28.82"/>
</a>
</g>
</g>
</g>
</svg>
