<?xml version="1.0" encoding="UTF-8" standalone="no"?>
<!DOCTYPE svg PUBLIC "-//W3C//DTD SVG 1.1//EN"
 "http://www.w3.org/Graphics/SVG/1.1/DTD/svg11.dtd">
<!-- Generated by graphviz version 11.0.0 (20240428.1522)
 -->
<!-- Title: TSetUnsortedFlexArray.h Pages: 1 -->
<svg width="246pt" height="196pt"
 viewBox="0.00 0.00 246.00 196.00" xmlns="http://www.w3.org/2000/svg" xmlns:xlink="http://www.w3.org/1999/xlink">
<g id="graph0" class="graph" transform="scale(1 1) rotate(0) translate(4 192)">
<title>TSetUnsortedFlexArray.h</title>
<!-- Node1 -->
<g id="Node000001" class="node">
<title>Node1</title>
<g id="a_Node000001"><a xlink:title="Deklarace typu SetUnsortedFlexArray a jeho API pro realizaci množiny pomocí nesetříděného flexibilníh...">
<polygon fill="#999999" stroke="#666666" points="186,-188 60.5,-188 60.5,-168 186,-168 186,-188"/>
<text text-anchor="middle" x="123.25" y="-174.5" font-family="Helvetica,sans-Serif" font-size="10.00">TSetUnsortedFlexArray.h</text>
</a>
</g>
</g>
<!-- Node2 -->
<g id="Node000002" class="node">
<title>Node2</title>
<g id="a_Node000002"><a xlink:href="_t_set_8h.html" target="_top" xlink:title="Definice typu Set &#45; (realizace množiny pomocí nesetříděného flexibilního dynamicky alokovaného pole).">
<polygon fill="white" stroke="#666666" points="94.5,-132 50,-132 50,-112 94.5,-112 94.5,-132"/>
<text text-anchor="middle" x="72.25" y="-118.5" font-family="Helvetica,sans-Serif" font-size="10.00">TSet.h</text>
</a>
</g>
</g>
<!-- Node1&#45;&gt;Node2 -->
<g id="edge1_Node000001_Node000002" class="edge">
<title>Node1&#45;&gt;Node2</title>
<g id="a_edge1_Node000001_Node000002"><a xlink:title=" ">
<path fill="none" stroke="#63b8ff" d="M106.52,-159.29C98.01,-150.28 88.02,-139.7 81.03,-132.3"/>
<polygon fill="#63b8ff" stroke="#63b8ff" points="103.92,-161.63 113.33,-166.49 109.01,-156.82 103.92,-161.63"/>
</a>
</g>
</g>
<!-- Node7 -->
<g id="Node000007" class="node">
<title>Node7</title>
<g id="a_Node000007"><a xlink:href="_t_set_unsorted_flex_array_8c.html" target="_top" xlink:title="Implementace API pro typ SetUnsortedFlexArray (Flexibilní, tzv. otevřené, pole pro realizaci množiny ...">
<polygon fill="white" stroke="#666666" points="238,-132 112.5,-132 112.5,-112 238,-112 238,-132"/>
<text text-anchor="middle" x="175.25" y="-118.5" font-family="Helvetica,sans-Serif" font-size="10.00">TSetUnsortedFlexArray.c</text>
</a>
</g>
</g>
<!-- Node1&#45;&gt;Node7 -->
<g id="edge7_Node000001_Node000007" class="edge">
<title>Node1&#45;&gt;Node7</title>
<g id="a_edge7_Node000001_Node000007"><a xlink:title=" ">
<path fill="none" stroke="#63b8ff" d="M140.04,-159.57C148.77,-150.5 159.09,-139.78 166.3,-132.3"/>
<polygon fill="#63b8ff" stroke="#63b8ff" points="137.77,-156.87 133.36,-166.5 142.82,-161.73 137.77,-156.87"/>
</a>
</g>
</g>
<!-- Node3 -->
<g id="Node000003" class="node">
<title>Node3</title>
<g id="a_Node000003"><a xlink:href="_t_set_8c.html" target="_top" xlink:title="Implementace API pro typ Set (realizace množiny pomocí nesetříděného flexibilního dynamicky alokované...">
<polygon fill="white" stroke="#666666" points="44.5,-76 0,-76 0,-56 44.5,-56 44.5,-76"/>
<text text-anchor="middle" x="22.25" y="-62.5" font-family="Helvetica,sans-Serif" font-size="10.00">TSet.c</text>
</a>
</g>
</g>
<!-- Node2&#45;&gt;Node3 -->
<g id="edge2_Node000002_Node000003" class="edge">
<title>Node2&#45;&gt;Node3</title>
<g id="a_edge2_Node000002_Node000003"><a xlink:title=" ">
<path fill="none" stroke="#63b8ff" d="M55.85,-103.29C47.51,-94.28 37.71,-83.7 30.86,-76.3"/>
<polygon fill="#63b8ff" stroke="#63b8ff" points="53.15,-105.52 62.51,-110.48 58.29,-100.77 53.15,-105.52"/>
</a>
</g>
</g>
<!-- Node4 -->
<g id="Node000004" class="node">
<title>Node4</title>
<g id="a_Node000004"><a xlink:href="main_8c.html" target="_top" xlink:title="Hlavní program pro testování ADT TSet &#45; (realizace množiny pomocí nesetříděného pole).">
<polygon fill="white" stroke="#666666" points="94.88,-20 49.62,-20 49.62,0 94.88,0 94.88,-20"/>
<text text-anchor="middle" x="72.25" y="-6.5" font-family="Helvetica,sans-Serif" font-size="10.00">main.c</text>
</a>
</g>
</g>
<!-- Node2&#45;&gt;Node4 -->
<g id="edge3_Node000002_Node000004" class="edge">
<title>Node2&#45;&gt;Node4</title>
<g id="a_edge3_Node000002_Node000004"><a xlink:title=" ">
<path fill="none" stroke="#63b8ff" d="M72.25,-100.31C72.25,-76.36 72.25,-37.95 72.25,-20.35"/>
<polygon fill="#63b8ff" stroke="#63b8ff" points="68.75,-100.11 72.25,-110.11 75.75,-100.11 68.75,-100.11"/>
</a>
</g>
</g>
<!-- Node5 -->
<g id="Node000005" class="node">
<title>Node5</title>
<g id="a_Node000005"><a xlink:href="testbench_8h.html" target="_top" xlink:title="Definice testbench API pro testování operací zvoleného ADT.">
<polygon fill="white" stroke="#666666" points="167.75,-76 100.75,-76 100.75,-56 167.75,-56 167.75,-76"/>
<text text-anchor="middle" x="134.25" y="-62.5" font-family="Helvetica,sans-Serif" font-size="10.00">testbench.h</text>
</a>
</g>
</g>
<!-- Node2&#45;&gt;Node5 -->
<g id="edge4_Node000002_Node000005" class="edge">
<title>Node2&#45;&gt;Node5</title>
<g id="a_edge4_Node000002_Node000005"><a xlink:title=" ">
<path fill="none" stroke="#63b8ff" d="M91.62,-104.13C102.17,-94.94 114.81,-83.93 123.57,-76.3"/>
<polygon fill="#63b8ff" stroke="#63b8ff" points="89.43,-101.39 84.19,-110.6 94.03,-106.67 89.43,-101.39"/>
</a>
</g>
</g>
<!-- Node5&#45;&gt;Node4 -->
<g id="edge5_Node000005_Node000004" class="edge">
<title>Node5&#45;&gt;Node4</title>
<g id="a_edge5_Node000005_Node000004"><a xlink:title=" ">
<path fill="none" stroke="#63b8ff" d="M114.88,-48.13C104.33,-38.94 91.69,-27.93 82.93,-20.3"/>
<polygon fill="#63b8ff" stroke="#63b8ff" points="112.47,-50.67 122.31,-54.6 117.07,-45.39 112.47,-50.67"/>
</a>
</g>
</g>
<!-- Node6 -->
<g id="Node000006" class="node">
<title>Node6</title>
<g id="a_Node000006"><a xlink:href="testbench_8c.html" target="_top" xlink:title="Implementace testbench API pro testování operací zvoleného ADT.">
<polygon fill="white" stroke="#666666" points="179.75,-20 112.75,-20 112.75,0 179.75,0 179.75,-20"/>
<text text-anchor="middle" x="146.25" y="-6.5" font-family="Helvetica,sans-Serif" font-size="10.00">testbench.c</text>
</a>
</g>
</g>
<!-- Node5&#45;&gt;Node6 -->
<g id="edge6_Node000005_Node000006" class="edge">
<title>Node5&#45;&gt;Node6</title>
<g id="a_edge6_Node000005_Node000006"><a xlink:title=" ">
<path fill="none" stroke="#63b8ff" d="M138.82,-44.43C140.67,-36.11 142.71,-26.93 144.18,-20.3"/>
<polygon fill="#63b8ff" stroke="#63b8ff" points="135.42,-43.6 136.67,-54.12 142.25,-45.11 135.42,-43.6"/>
</a>
</g>
</g>
</g>
</svg>
