<?xml version="1.0" encoding="UTF-8" standalone="no"?>
<!DOCTYPE svg PUBLIC "-//W3C//DTD SVG 1.1//EN"
 "http://www.w3.org/Graphics/SVG/1.1/DTD/svg11.dtd">
<!-- Generated by graphviz version 11.0.0 (20240428.1522)
 -->
<!-- Title: TSetElement.h Pages: 1 -->
<svg width="283pt" height="252pt"
 viewBox="0.00 0.00 283.00 252.00" xmlns="http://www.w3.org/2000/svg" xmlns:xlink="http://www.w3.org/1999/xlink">
<g id="graph0" class="graph" transform="scale(1 1) rotate(0) translate(4 248)">
<title>TSetElement.h</title>
<!-- Node1 -->
<g id="Node000001" class="node">
<title>Node1</title>
<g id="a_Node000001"><a xlink:title="Definice typu Basic SetElement a implementace API.">
<polygon fill="#999999" stroke="#666666" points="140.5,-244 60,-244 60,-224 140.5,-224 140.5,-244"/>
<text text-anchor="middle" x="100.25" y="-230.5" font-family="Helvetica,sans-Serif" font-size="10.00">TSetElement.h</text>
</a>
</g>
</g>
<!-- Node2 -->
<g id="Node000002" class="node">
<title>Node2</title>
<g id="a_Node000002"><a xlink:href="_t_set_element_8c.html" target="_top" xlink:title="Definice globální proměnné realizující počítadlo operací porovnání dvou hodnot typu SetElement.">
<polygon fill="white" stroke="#666666" points="80.5,-188 0,-188 0,-168 80.5,-168 80.5,-188"/>
<text text-anchor="middle" x="40.25" y="-174.5" font-family="Helvetica,sans-Serif" font-size="10.00">TSetElement.c</text>
</a>
</g>
</g>
<!-- Node1&#45;&gt;Node2 -->
<g id="edge1_Node000001_Node000002" class="edge">
<title>Node1&#45;&gt;Node2</title>
<g id="a_edge1_Node000001_Node000002"><a xlink:title=" ">
<path fill="none" stroke="#63b8ff" d="M81.5,-216.13C71.3,-206.94 59.06,-195.93 50.58,-188.3"/>
<polygon fill="#63b8ff" stroke="#63b8ff" points="78.9,-218.49 88.67,-222.58 83.58,-213.29 78.9,-218.49"/>
</a>
</g>
</g>
<!-- Node3 -->
<g id="Node000003" class="node">
<title>Node3</title>
<g id="a_Node000003"><a xlink:href="_t_set_unsorted_flex_array_8h.html" target="_top" xlink:title="Deklarace typu SetUnsortedFlexArray a jeho API pro realizaci množiny pomocí nesetříděného flexibilníh...">
<polygon fill="white" stroke="#666666" points="224,-188 98.5,-188 98.5,-168 224,-168 224,-188"/>
<text text-anchor="middle" x="161.25" y="-174.5" font-family="Helvetica,sans-Serif" font-size="10.00">TSetUnsortedFlexArray.h</text>
</a>
</g>
</g>
<!-- Node1&#45;&gt;Node3 -->
<g id="edge2_Node000001_Node000003" class="edge">
<title>Node1&#45;&gt;Node3</title>
<g id="a_edge2_Node000001_Node000003"><a xlink:title=" ">
<path fill="none" stroke="#63b8ff" d="M119.31,-216.13C129.69,-206.94 142.12,-195.93 150.75,-188.3"/>
<polygon fill="#63b8ff" stroke="#63b8ff" points="117.18,-213.34 112.01,-222.59 121.82,-218.58 117.18,-213.34"/>
</a>
</g>
</g>
<!-- Node4 -->
<g id="Node000004" class="node">
<title>Node4</title>
<g id="a_Node000004"><a xlink:href="_t_set_8h.html" target="_top" xlink:title="Definice typu Set &#45; (realizace množiny pomocí nesetříděného flexibilního dynamicky alokovaného pole).">
<polygon fill="white" stroke="#666666" points="131.5,-132 87,-132 87,-112 131.5,-112 131.5,-132"/>
<text text-anchor="middle" x="109.25" y="-118.5" font-family="Helvetica,sans-Serif" font-size="10.00">TSet.h</text>
</a>
</g>
</g>
<!-- Node3&#45;&gt;Node4 -->
<g id="edge3_Node000003_Node000004" class="edge">
<title>Node3&#45;&gt;Node4</title>
<g id="a_edge3_Node000003_Node000004"><a xlink:title=" ">
<path fill="none" stroke="#63b8ff" d="M144.46,-159.57C135.73,-150.5 125.41,-139.78 118.2,-132.3"/>
<polygon fill="#63b8ff" stroke="#63b8ff" points="141.68,-161.73 151.14,-166.5 146.73,-156.87 141.68,-161.73"/>
</a>
</g>
</g>
<!-- Node9 -->
<g id="Node000009" class="node">
<title>Node9</title>
<g id="a_Node000009"><a xlink:href="_t_set_unsorted_flex_array_8c.html" target="_top" xlink:title="Implementace API pro typ SetUnsortedFlexArray (Flexibilní, tzv. otevřené, pole pro realizaci množiny ...">
<polygon fill="white" stroke="#666666" points="275,-132 149.5,-132 149.5,-112 275,-112 275,-132"/>
<text text-anchor="middle" x="212.25" y="-118.5" font-family="Helvetica,sans-Serif" font-size="10.00">TSetUnsortedFlexArray.c</text>
</a>
</g>
</g>
<!-- Node3&#45;&gt;Node9 -->
<g id="edge9_Node000003_Node000009" class="edge">
<title>Node3&#45;&gt;Node9</title>
<g id="a_edge9_Node000003_Node000009"><a xlink:title=" ">
<path fill="none" stroke="#63b8ff" d="M177.98,-159.29C186.49,-150.28 196.48,-139.7 203.47,-132.3"/>
<polygon fill="#63b8ff" stroke="#63b8ff" points="175.49,-156.82 171.17,-166.49 180.58,-161.63 175.49,-156.82"/>
</a>
</g>
</g>
<!-- Node5 -->
<g id="Node000005" class="node">
<title>Node5</title>
<g id="a_Node000005"><a xlink:href="_t_set_8c.html" target="_top" xlink:title="Implementace API pro typ Set (realizace množiny pomocí nesetříděného flexibilního dynamicky alokované...">
<polygon fill="white" stroke="#666666" points="81.5,-76 37,-76 37,-56 81.5,-56 81.5,-76"/>
<text text-anchor="middle" x="59.25" y="-62.5" font-family="Helvetica,sans-Serif" font-size="10.00">TSet.c</text>
</a>
</g>
</g>
<!-- Node4&#45;&gt;Node5 -->
<g id="edge4_Node000004_Node000005" class="edge">
<title>Node4&#45;&gt;Node5</title>
<g id="a_edge4_Node000004_Node000005"><a xlink:title=" ">
<path fill="none" stroke="#63b8ff" d="M92.85,-103.29C84.51,-94.28 74.71,-83.7 67.86,-76.3"/>
<polygon fill="#63b8ff" stroke="#63b8ff" points="90.15,-105.52 99.51,-110.48 95.29,-100.77 90.15,-105.52"/>
</a>
</g>
</g>
<!-- Node6 -->
<g id="Node000006" class="node">
<title>Node6</title>
<g id="a_Node000006"><a xlink:href="main_8c.html" target="_top" xlink:title="Hlavní program pro testování ADT TSet &#45; (realizace množiny pomocí nesetříděného pole).">
<polygon fill="white" stroke="#666666" points="131.88,-20 86.62,-20 86.62,0 131.88,0 131.88,-20"/>
<text text-anchor="middle" x="109.25" y="-6.5" font-family="Helvetica,sans-Serif" font-size="10.00">main.c</text>
</a>
</g>
</g>
<!-- Node4&#45;&gt;Node6 -->
<g id="edge5_Node000004_Node000006" class="edge">
<title>Node4&#45;&gt;Node6</title>
<g id="a_edge5_Node000004_Node000006"><a xlink:title=" ">
<path fill="none" stroke="#63b8ff" d="M109.25,-100.31C109.25,-76.36 109.25,-37.95 109.25,-20.35"/>
<polygon fill="#63b8ff" stroke="#63b8ff" points="105.75,-100.11 109.25,-110.11 112.75,-100.11 105.75,-100.11"/>
</a>
</g>
</g>
<!-- Node7 -->
<g id="Node000007" class="node">
<title>Node7</title>
<g id="a_Node000007"><a xlink:href="testbench_8h.html" target="_top" xlink:title="Definice testbench API pro testování operací zvoleného ADT.">
<polygon fill="white" stroke="#666666" points="204.75,-76 137.75,-76 137.75,-56 204.75,-56 204.75,-76"/>
<text text-anchor="middle" x="171.25" y="-62.5" font-family="Helvetica,sans-Serif" font-size="10.00">testbench.h</text>
</a>
</g>
</g>
<!-- Node4&#45;&gt;Node7 -->
<g id="edge6_Node000004_Node000007" class="edge">
<title>Node4&#45;&gt;Node7</title>
<g id="a_edge6_Node000004_Node000007"><a xlink:title=" ">
<path fill="none" stroke="#63b8ff" d="M128.62,-104.13C139.17,-94.94 151.81,-83.93 160.57,-76.3"/>
<polygon fill="#63b8ff" stroke="#63b8ff" points="126.43,-101.39 121.19,-110.6 131.03,-106.67 126.43,-101.39"/>
</a>
</g>
</g>
<!-- Node7&#45;&gt;Node6 -->
<g id="edge7_Node000007_Node000006" class="edge">
<title>Node7&#45;&gt;Node6</title>
<g id="a_edge7_Node000007_Node000006"><a xlink:title=" ">
<path fill="none" stroke="#63b8ff" d="M151.88,-48.13C141.33,-38.94 128.69,-27.93 119.93,-20.3"/>
<polygon fill="#63b8ff" stroke="#63b8ff" points="149.47,-50.67 159.31,-54.6 154.07,-45.39 149.47,-50.67"/>
</a>
</g>
</g>
<!-- Node8 -->
<g id="Node000008" class="node">
<title>Node8</title>
<g id="a_Node000008"><a xlink:href="testbench_8c.html" target="_top" xlink:title="Implementace testbench API pro testování operací zvoleného ADT.">
<polygon fill="white" stroke="#666666" points="216.75,-20 149.75,-20 149.75,0 216.75,0 216.75,-20"/>
<text text-anchor="middle" x="183.25" y="-6.5" font-family="Helvetica,sans-Serif" font-size="10.00">testbench.c</text>
</a>
</g>
</g>
<!-- Node7&#45;&gt;Node8 -->
<g id="edge8_Node000007_Node000008" class="edge">
<title>Node7&#45;&gt;Node8</title>
<g id="a_edge8_Node000007_Node000008"><a xlink:title=" ">
<path fill="none" stroke="#63b8ff" d="M175.82,-44.43C177.67,-36.11 179.71,-26.93 181.18,-20.3"/>
<polygon fill="#63b8ff" stroke="#63b8ff" points="172.42,-43.6 173.67,-54.12 179.25,-45.11 172.42,-43.6"/>
</a>
</g>
</g>
</g>
</svg>
