<?xml version="1.0" encoding="UTF-8" standalone="no"?>
<!DOCTYPE svg PUBLIC "-//W3C//DTD SVG 1.1//EN"
 "http://www.w3.org/Graphics/SVG/1.1/DTD/svg11.dtd">
<!-- Generated by graphviz version 11.0.0 (20240428.1522)
 -->
<!-- Title: TSetUnsortedFlexArray.h Pages: 1 -->
<svg width="331pt" height="140pt"
 viewBox="0.00 0.00 331.12 140.00" xmlns="http://www.w3.org/2000/svg" xmlns:xlink="http://www.w3.org/1999/xlink">
<g id="graph0" class="graph" transform="scale(1 1) rotate(0) translate(4 136)">
<title>TSetUnsortedFlexArray.h</title>
<!-- Node1 -->
<g id="Node000001" class="node">
<title>Node1</title>
<g id="a_Node000001"><a xlink:title="Deklarace typu SetUnsortedFlexArray a jeho API pro realizaci množiny pomocí nesetříděného flexibilníh...">
<polygon fill="#999999" stroke="#666666" points="141.62,-132 16.12,-132 16.12,-112 141.62,-112 141.62,-132"/>
<text text-anchor="middle" x="78.88" y="-118.5" font-family="Helvetica,sans-Serif" font-size="10.00">TSetUnsortedFlexArray.h</text>
</a>
</g>
</g>
<!-- Node2 -->
<g id="Node000002" class="node">
<title>Node2</title>
<g id="a_Node000002"><a xlink:title=" ">
<polygon fill="#e0e0e0" stroke="#999999" points="55.75,-20 0,-20 0,0 55.75,0 55.75,-20"/>
<text text-anchor="middle" x="27.88" y="-6.5" font-family="Helvetica,sans-Serif" font-size="10.00">stdbool.h</text>
</a>
</g>
</g>
<!-- Node1&#45;&gt;Node2 -->
<g id="edge1_Node000001_Node000002" class="edge">
<title>Node1&#45;&gt;Node2</title>
<g id="a_edge1_Node000001_Node000002"><a xlink:title=" ">
<path fill="none" stroke="#63b8ff" d="M70.12,-111.72C62.42,-103.1 51.45,-89.57 44.88,-76 38.01,-61.84 33.66,-44.56 31.08,-31.37"/>
<polygon fill="#63b8ff" stroke="#63b8ff" points="34.56,-30.96 29.39,-21.71 27.67,-32.17 34.56,-30.96"/>
</a>
</g>
</g>
<!-- Node3 -->
<g id="Node000003" class="node">
<title>Node3</title>
<g id="a_Node000003"><a xlink:title=" ">
<polygon fill="#e0e0e0" stroke="#999999" points="104.12,-76 53.62,-76 53.62,-56 104.12,-56 104.12,-76"/>
<text text-anchor="middle" x="78.88" y="-62.5" font-family="Helvetica,sans-Serif" font-size="10.00">stddef.h</text>
</a>
</g>
</g>
<!-- Node1&#45;&gt;Node3 -->
<g id="edge2_Node000001_Node000003" class="edge">
<title>Node1&#45;&gt;Node3</title>
<g id="a_edge2_Node000001_Node000003"><a xlink:title=" ">
<path fill="none" stroke="#63b8ff" d="M78.88,-111.59C78.88,-105.01 78.88,-95.96 78.88,-87.73"/>
<polygon fill="#63b8ff" stroke="#63b8ff" points="82.38,-87.81 78.88,-77.81 75.38,-87.81 82.38,-87.81"/>
</a>
</g>
</g>
<!-- Node4 -->
<g id="Node000004" class="node">
<title>Node4</title>
<g id="a_Node000004"><a xlink:href="_t_set_element_8h.html" target="_top" xlink:title="Definice typu Basic SetElement a implementace API.">
<polygon fill="white" stroke="#666666" points="203.12,-76 122.62,-76 122.62,-56 203.12,-56 203.12,-76"/>
<text text-anchor="middle" x="162.88" y="-62.5" font-family="Helvetica,sans-Serif" font-size="10.00">TSetElement.h</text>
</a>
</g>
</g>
<!-- Node1&#45;&gt;Node4 -->
<g id="edge3_Node000001_Node000004" class="edge">
<title>Node1&#45;&gt;Node4</title>
<g id="a_edge3_Node000001_Node000004"><a xlink:title=" ">
<path fill="none" stroke="#63b8ff" d="M93.51,-111.59C105.96,-103.59 124.09,-91.93 138.7,-82.54"/>
<polygon fill="#63b8ff" stroke="#63b8ff" points="140.34,-85.65 146.86,-77.3 136.55,-79.76 140.34,-85.65"/>
</a>
</g>
</g>
<!-- Node4&#45;&gt;Node2 -->
<g id="edge6_Node000004_Node000002" class="edge">
<title>Node4&#45;&gt;Node2</title>
<g id="a_edge6_Node000004_Node000002"><a xlink:title=" ">
<path fill="none" stroke="#63b8ff" d="M139.36,-55.59C118,-47.05 86.24,-34.35 62.08,-24.68"/>
<polygon fill="#63b8ff" stroke="#63b8ff" points="63.56,-21.51 52.98,-21.04 60.96,-28.01 63.56,-21.51"/>
</a>
</g>
</g>
<!-- Node5 -->
<g id="Node000005" class="node">
<title>Node5</title>
<g id="a_Node000005"><a xlink:title=" ">
<polygon fill="#e0e0e0" stroke="#999999" points="120.5,-20 75.25,-20 75.25,0 120.5,0 120.5,-20"/>
<text text-anchor="middle" x="97.88" y="-6.5" font-family="Helvetica,sans-Serif" font-size="10.00">stdio.h</text>
</a>
</g>
</g>
<!-- Node4&#45;&gt;Node5 -->
<g id="edge4_Node000004_Node000005" class="edge">
<title>Node4&#45;&gt;Node5</title>
<g id="a_edge4_Node000004_Node000005"><a xlink:title=" ">
<path fill="none" stroke="#63b8ff" d="M151.55,-55.59C142.23,-47.85 128.8,-36.69 117.7,-27.47"/>
<polygon fill="#63b8ff" stroke="#63b8ff" points="120.16,-24.96 110.23,-21.27 115.69,-30.35 120.16,-24.96"/>
</a>
</g>
</g>
<!-- Node6 -->
<g id="Node000006" class="node">
<title>Node6</title>
<g id="a_Node000006"><a xlink:title=" ">
<polygon fill="#e0e0e0" stroke="#999999" points="185.62,-20 138.12,-20 138.12,0 185.62,0 185.62,-20"/>
<text text-anchor="middle" x="161.88" y="-6.5" font-family="Helvetica,sans-Serif" font-size="10.00">stdlib.h</text>
</a>
</g>
</g>
<!-- Node4&#45;&gt;Node6 -->
<g id="edge5_Node000004_Node000006" class="edge">
<title>Node4&#45;&gt;Node6</title>
<g id="a_edge5_Node000004_Node000006"><a xlink:title=" ">
<path fill="none" stroke="#63b8ff" d="M162.7,-55.59C162.58,-49.01 162.41,-39.96 162.26,-31.73"/>
<polygon fill="#63b8ff" stroke="#63b8ff" points="165.76,-31.75 162.08,-21.81 158.76,-31.87 165.76,-31.75"/>
</a>
</g>
</g>
<!-- Node7 -->
<g id="Node000007" class="node">
<title>Node7</title>
<g id="a_Node000007"><a xlink:title=" ">
<polygon fill="#e0e0e0" stroke="#999999" points="254.5,-20 203.25,-20 203.25,0 254.5,0 254.5,-20"/>
<text text-anchor="middle" x="228.88" y="-6.5" font-family="Helvetica,sans-Serif" font-size="10.00">assert.h</text>
</a>
</g>
</g>
<!-- Node4&#45;&gt;Node7 -->
<g id="edge7_Node000004_Node000007" class="edge">
<title>Node4&#45;&gt;Node7</title>
<g id="a_edge7_Node000004_Node000007"><a xlink:title=" ">
<path fill="none" stroke="#63b8ff" d="M174.37,-55.59C183.84,-47.85 197.48,-36.69 208.75,-27.47"/>
<polygon fill="#63b8ff" stroke="#63b8ff" points="210.82,-30.3 216.34,-21.26 206.38,-24.88 210.82,-30.3"/>
</a>
</g>
</g>
<!-- Node8 -->
<g id="Node000008" class="node">
<title>Node8</title>
<g id="a_Node000008"><a xlink:title=" ">
<polygon fill="#e0e0e0" stroke="#999999" points="323.12,-20 272.62,-20 272.62,0 323.12,0 323.12,-20"/>
<text text-anchor="middle" x="297.88" y="-6.5" font-family="Helvetica,sans-Serif" font-size="10.00">check.h</text>
</a>
</g>
</g>
<!-- Node4&#45;&gt;Node8 -->
<g id="edge8_Node000004_Node000008" class="edge">
<title>Node4&#45;&gt;Node8</title>
<g id="a_edge8_Node000004_Node000008"><a xlink:title=" ">
<path fill="none" stroke="#63b8ff" d="M186.39,-55.59C207.75,-47.05 239.51,-34.35 263.67,-24.68"/>
<polygon fill="#63b8ff" stroke="#63b8ff" points="264.79,-28.01 272.77,-21.04 262.19,-21.51 264.79,-28.01"/>
</a>
</g>
</g>
</g>
</svg>
