<?xml version="1.0" encoding="UTF-8" standalone="no"?>
<!DOCTYPE svg PUBLIC "-//W3C//DTD SVG 1.1//EN"
 "http://www.w3.org/Graphics/SVG/1.1/DTD/svg11.dtd">
<!-- Generated by graphviz version 11.0.0 (20240428.1522)
 -->
<!-- Title: TSetUnsortedFlexArray.c Pages: 1 -->
<svg width="347pt" height="196pt"
 viewBox="0.00 0.00 347.00 196.00" xmlns="http://www.w3.org/2000/svg" xmlns:xlink="http://www.w3.org/1999/xlink">
<g id="graph0" class="graph" transform="scale(1 1) rotate(0) translate(4 192)">
<title>TSetUnsortedFlexArray.c</title>
<!-- Node1 -->
<g id="Node000001" class="node">
<title>Node1</title>
<g id="a_Node000001"><a xlink:title="Implementace API pro typ SetUnsortedFlexArray (Flexibilní, tzv. otevřené, pole pro realizaci množiny ...">
<polygon fill="#999999" stroke="#666666" points="219.5,-188 94,-188 94,-168 219.5,-168 219.5,-188"/>
<text text-anchor="middle" x="156.75" y="-174.5" font-family="Helvetica,sans-Serif" font-size="10.00">TSetUnsortedFlexArray.c</text>
</a>
</g>
</g>
<!-- Node2 -->
<g id="Node000002" class="node">
<title>Node2</title>
<g id="a_Node000002"><a xlink:title=" ">
<polygon fill="#e0e0e0" stroke="#999999" points="47.5,-20 0,-20 0,0 47.5,0 47.5,-20"/>
<text text-anchor="middle" x="23.75" y="-6.5" font-family="Helvetica,sans-Serif" font-size="10.00">stdlib.h</text>
</a>
</g>
</g>
<!-- Node1&#45;&gt;Node2 -->
<g id="edge1_Node000001_Node000002" class="edge">
<title>Node1&#45;&gt;Node2</title>
<g id="a_edge1_Node000001_Node000002"><a xlink:title=" ">
<path fill="none" stroke="#63b8ff" d="M147.96,-167.52C139.72,-158.53 127.14,-144.57 116.75,-132 87.35,-96.45 54.92,-53.28 37.18,-29.3"/>
<polygon fill="#63b8ff" stroke="#63b8ff" points="40.18,-27.47 31.43,-21.5 34.55,-31.63 40.18,-27.47"/>
</a>
</g>
</g>
<!-- Node3 -->
<g id="Node000003" class="node">
<title>Node3</title>
<g id="a_Node000003"><a xlink:title=" ">
<polygon fill="#e0e0e0" stroke="#999999" points="116.38,-20 65.12,-20 65.12,0 116.38,0 116.38,-20"/>
<text text-anchor="middle" x="90.75" y="-6.5" font-family="Helvetica,sans-Serif" font-size="10.00">assert.h</text>
</a>
</g>
</g>
<!-- Node1&#45;&gt;Node3 -->
<g id="edge2_Node000001_Node000003" class="edge">
<title>Node1&#45;&gt;Node3</title>
<g id="a_edge2_Node000001_Node000003"><a xlink:title=" ">
<path fill="none" stroke="#63b8ff" d="M150.79,-167.55C145.26,-158.58 136.96,-144.63 130.75,-132 118.88,-107.85 116.28,-101.52 107.75,-76 102.82,-61.25 98.41,-44.22 95.32,-31.3"/>
<polygon fill="#63b8ff" stroke="#63b8ff" points="98.8,-30.8 93.13,-21.85 91.98,-32.38 98.8,-30.8"/>
</a>
</g>
</g>
<!-- Node4 -->
<g id="Node000004" class="node">
<title>Node4</title>
<g id="a_Node000004"><a xlink:href="_t_set_unsorted_flex_array_8h.html" target="_top" xlink:title="Deklarace typu SetUnsortedFlexArray a jeho API pro realizaci množiny pomocí nesetříděného flexibilníh...">
<polygon fill="white" stroke="#666666" points="265.5,-132 140,-132 140,-112 265.5,-112 265.5,-132"/>
<text text-anchor="middle" x="202.75" y="-118.5" font-family="Helvetica,sans-Serif" font-size="10.00">TSetUnsortedFlexArray.h</text>
</a>
</g>
</g>
<!-- Node1&#45;&gt;Node4 -->
<g id="edge3_Node000001_Node000004" class="edge">
<title>Node1&#45;&gt;Node4</title>
<g id="a_edge3_Node000001_Node000004"><a xlink:title=" ">
<path fill="none" stroke="#63b8ff" d="M164.76,-167.59C171.03,-160.24 179.92,-149.8 187.53,-140.87"/>
<polygon fill="#63b8ff" stroke="#63b8ff" points="190.03,-143.33 193.85,-133.45 184.7,-138.79 190.03,-143.33"/>
</a>
</g>
</g>
<!-- Node9 -->
<g id="Node000009" class="node">
<title>Node9</title>
<g id="a_Node000009"><a xlink:title=" ">
<polygon fill="#e0e0e0" stroke="#999999" points="339,-20 288.5,-20 288.5,0 339,0 339,-20"/>
<text text-anchor="middle" x="313.75" y="-6.5" font-family="Helvetica,sans-Serif" font-size="10.00">check.h</text>
</a>
</g>
</g>
<!-- Node1&#45;&gt;Node9 -->
<g id="edge12_Node000001_Node000009" class="edge">
<title>Node1&#45;&gt;Node9</title>
<g id="a_edge12_Node000001_Node000009"><a xlink:title=" ">
<path fill="none" stroke="#63b8ff" d="M199.89,-167.5C223.81,-160.62 253.02,-149.41 274.75,-132 298.03,-113.34 302.73,-104.43 311.75,-76 316.31,-61.63 316.66,-44.57 315.95,-31.54"/>
<polygon fill="#63b8ff" stroke="#63b8ff" points="319.44,-31.28 315.12,-21.6 312.46,-31.85 319.44,-31.28"/>
</a>
</g>
</g>
<!-- Node5 -->
<g id="Node000005" class="node">
<title>Node5</title>
<g id="a_Node000005"><a xlink:title=" ">
<polygon fill="#e0e0e0" stroke="#999999" points="253.62,-20 197.88,-20 197.88,0 253.62,0 253.62,-20"/>
<text text-anchor="middle" x="225.75" y="-6.5" font-family="Helvetica,sans-Serif" font-size="10.00">stdbool.h</text>
</a>
</g>
</g>
<!-- Node4&#45;&gt;Node5 -->
<g id="edge4_Node000004_Node000005" class="edge">
<title>Node4&#45;&gt;Node5</title>
<g id="a_edge4_Node000004_Node000005"><a xlink:title=" ">
<path fill="none" stroke="#63b8ff" d="M204.71,-111.62C208.41,-93.92 216.5,-55.24 221.5,-31.32"/>
<polygon fill="#63b8ff" stroke="#63b8ff" points="224.86,-32.34 223.48,-21.84 218.01,-30.91 224.86,-32.34"/>
</a>
</g>
</g>
<!-- Node6 -->
<g id="Node000006" class="node">
<title>Node6</title>
<g id="a_Node000006"><a xlink:title=" ">
<polygon fill="#e0e0e0" stroke="#999999" points="303,-76 252.5,-76 252.5,-56 303,-56 303,-76"/>
<text text-anchor="middle" x="277.75" y="-62.5" font-family="Helvetica,sans-Serif" font-size="10.00">stddef.h</text>
</a>
</g>
</g>
<!-- Node4&#45;&gt;Node6 -->
<g id="edge5_Node000004_Node000006" class="edge">
<title>Node4&#45;&gt;Node6</title>
<g id="a_edge5_Node000004_Node000006"><a xlink:title=" ">
<path fill="none" stroke="#63b8ff" d="M215.81,-111.59C226.72,-103.74 242.5,-92.38 255.41,-83.09"/>
<polygon fill="#63b8ff" stroke="#63b8ff" points="257.29,-86.05 263.36,-77.36 253.2,-80.37 257.29,-86.05"/>
</a>
</g>
</g>
<!-- Node7 -->
<g id="Node000007" class="node">
<title>Node7</title>
<g id="a_Node000007"><a xlink:href="_t_set_element_8h.html" target="_top" xlink:title="Definice typu Basic SetElement a implementace API.">
<polygon fill="white" stroke="#666666" points="197,-76 116.5,-76 116.5,-56 197,-56 197,-76"/>
<text text-anchor="middle" x="156.75" y="-62.5" font-family="Helvetica,sans-Serif" font-size="10.00">TSetElement.h</text>
</a>
</g>
</g>
<!-- Node4&#45;&gt;Node7 -->
<g id="edge6_Node000004_Node000007" class="edge">
<title>Node4&#45;&gt;Node7</title>
<g id="a_edge6_Node000004_Node000007"><a xlink:title=" ">
<path fill="none" stroke="#63b8ff" d="M194.74,-111.59C188.47,-104.24 179.58,-93.8 171.97,-84.87"/>
<polygon fill="#63b8ff" stroke="#63b8ff" points="174.8,-82.79 165.65,-77.45 169.47,-87.33 174.8,-82.79"/>
</a>
</g>
</g>
<!-- Node7&#45;&gt;Node2 -->
<g id="edge8_Node000007_Node000002" class="edge">
<title>Node7&#45;&gt;Node2</title>
<g id="a_edge8_Node000007_Node000002"><a xlink:title=" ">
<path fill="none" stroke="#63b8ff" d="M133.58,-55.59C112.54,-47.05 81.25,-34.35 57.45,-24.68"/>
<polygon fill="#63b8ff" stroke="#63b8ff" points="59.08,-21.57 48.5,-21.05 56.45,-28.05 59.08,-21.57"/>
</a>
</g>
</g>
<!-- Node7&#45;&gt;Node3 -->
<g id="edge10_Node000007_Node000003" class="edge">
<title>Node7&#45;&gt;Node3</title>
<g id="a_edge10_Node000007_Node000003"><a xlink:title=" ">
<path fill="none" stroke="#63b8ff" d="M145.25,-55.59C135.79,-47.85 122.15,-36.69 110.88,-27.47"/>
<polygon fill="#63b8ff" stroke="#63b8ff" points="113.24,-24.88 103.29,-21.26 108.81,-30.3 113.24,-24.88"/>
</a>
</g>
</g>
<!-- Node7&#45;&gt;Node5 -->
<g id="edge9_Node000007_Node000005" class="edge">
<title>Node7&#45;&gt;Node5</title>
<g id="a_edge9_Node000007_Node000005"><a xlink:title=" ">
<path fill="none" stroke="#63b8ff" d="M168.77,-55.59C178.76,-47.77 193.21,-36.46 205.06,-27.19"/>
<polygon fill="#63b8ff" stroke="#63b8ff" points="206.96,-30.15 212.68,-21.23 202.64,-24.64 206.96,-30.15"/>
</a>
</g>
</g>
<!-- Node8 -->
<g id="Node000008" class="node">
<title>Node8</title>
<g id="a_Node000008"><a xlink:title=" ">
<polygon fill="#e0e0e0" stroke="#999999" points="179.38,-20 134.12,-20 134.12,0 179.38,0 179.38,-20"/>
<text text-anchor="middle" x="156.75" y="-6.5" font-family="Helvetica,sans-Serif" font-size="10.00">stdio.h</text>
</a>
</g>
</g>
<!-- Node7&#45;&gt;Node8 -->
<g id="edge7_Node000007_Node000008" class="edge">
<title>Node7&#45;&gt;Node8</title>
<g id="a_edge7_Node000007_Node000008"><a xlink:title=" ">
<path fill="none" stroke="#63b8ff" d="M156.75,-55.59C156.75,-49.01 156.75,-39.96 156.75,-31.73"/>
<polygon fill="#63b8ff" stroke="#63b8ff" points="160.25,-31.81 156.75,-21.81 153.25,-31.81 160.25,-31.81"/>
</a>
</g>
</g>
<!-- Node7&#45;&gt;Node9 -->
<g id="edge11_Node000007_Node000009" class="edge">
<title>Node7&#45;&gt;Node9</title>
<g id="a_edge11_Node000007_Node000009"><a xlink:title=" ">
<path fill="none" stroke="#63b8ff" d="M184.1,-55.59C209.92,-46.71 248.84,-33.33 277.29,-23.54"/>
<polygon fill="#63b8ff" stroke="#63b8ff" points="278.27,-26.91 286.59,-20.34 275.99,-20.29 278.27,-26.91"/>
</a>
</g>
</g>
</g>
</svg>
