<?xml version="1.0" encoding="UTF-8" standalone="no"?>
<!DOCTYPE svg PUBLIC "-//W3C//DTD SVG 1.1//EN"
 "http://www.w3.org/Graphics/SVG/1.1/DTD/svg11.dtd">
<!-- Generated by graphviz version 11.0.0 (20240428.1522)
 -->
<!-- Title: set_iterator_is_valid Pages: 1 -->
<svg width="694pt" height="386pt"
 viewBox="0.00 0.00 693.50 386.00" xmlns="http://www.w3.org/2000/svg" xmlns:xlink="http://www.w3.org/1999/xlink">
<g id="graph0" class="graph" transform="scale(1 1) rotate(0) translate(4 382)">
<title>set_iterator_is_valid</title>
<!-- Node1 -->
<g id="Node000001" class="node">
<title>Node1</title>
<g id="a_Node000001"><a xlink:title="Zjištění platnosti iterátoru.">
<polygon fill="#999999" stroke="#666666" points="685.5,-170 584,-170 584,-150 685.5,-150 685.5,-170"/>
<text text-anchor="middle" x="634.75" y="-156.5" font-family="Helvetica,sans-Serif" font-size="10.00">set_iterator_is_valid</text>
</a>
</g>
</g>
<!-- Node2 -->
<g id="Node000002" class="node">
<title>Node2</title>
<g id="a_Node000002"><a xlink:href="group___iterator_algorithms.html#ga1785c6060679dcab5e6781b66659dbf3" target="_top" xlink:title="Vyhledání prvního elementu množiny splňujícího zadaný predikát.">
<polygon fill="white" stroke="#666666" points="394.75,-208 335.25,-208 335.25,-188 394.75,-188 394.75,-208"/>
<text text-anchor="middle" x="365" y="-194.5" font-family="Helvetica,sans-Serif" font-size="10.00">set_find_if</text>
</a>
</g>
</g>
<!-- Node1&#45;&gt;Node2 -->
<g id="edge1_Node000001_Node000002" class="edge">
<title>Node1&#45;&gt;Node2</title>
<g id="a_edge1_Node000001_Node000002"><a xlink:title=" ">
<path fill="none" stroke="#63b8ff" d="M579.97,-172.9C569.41,-175.15 558.39,-177.31 548,-179 494.38,-187.71 431.19,-193.26 395.13,-195.99"/>
<polygon fill="#63b8ff" stroke="#63b8ff" points="580.7,-176.32 589.71,-170.76 579.19,-169.49 580.7,-176.32"/>
</a>
</g>
</g>
<!-- Node3 -->
<g id="Node000003" class="node">
<title>Node3</title>
<g id="a_Node000003"><a xlink:href="group___iterator_algorithms.html#ga8ca52ed8ac7c0be83a19c7ed10f813cd" target="_top" xlink:title="Vyhledání prvního elementu množiny nesplňujícího zadaný predikát.">
<polygon fill="white" stroke="#666666" points="404.12,-114 325.88,-114 325.88,-94 404.12,-94 404.12,-114"/>
<text text-anchor="middle" x="365" y="-100.5" font-family="Helvetica,sans-Serif" font-size="10.00">set_find_if_not</text>
</a>
</g>
</g>
<!-- Node1&#45;&gt;Node3 -->
<g id="edge3_Node000001_Node000003" class="edge">
<title>Node1&#45;&gt;Node3</title>
<g id="a_edge3_Node000001_Node000003"><a xlink:title=" ">
<path fill="none" stroke="#63b8ff" d="M576.5,-147.17C566.99,-145.08 557.22,-142.96 548,-141 498.48,-130.48 441.25,-118.95 404.39,-111.6"/>
<polygon fill="#63b8ff" stroke="#63b8ff" points="575.5,-150.53 586.02,-149.27 577.01,-143.7 575.5,-150.53"/>
</a>
</g>
</g>
<!-- Node4 -->
<g id="Node000004" class="node">
<title>Node4</title>
<g id="a_Node000004"><a xlink:href="group___iterator_algorithms.html#gab8ba369b42eda61d010f35df73be73db" target="_top" xlink:title="Zavolání zvolené funkce na každý element množiny od pozice určené iterátorem až do posledního element...">
<polygon fill="white" stroke="#666666" points="400.75,-264 329.25,-264 329.25,-244 400.75,-244 400.75,-264"/>
<text text-anchor="middle" x="365" y="-250.5" font-family="Helvetica,sans-Serif" font-size="10.00">set_for_each</text>
</a>
</g>
</g>
<!-- Node1&#45;&gt;Node4 -->
<g id="edge5_Node000001_Node000004" class="edge">
<title>Node1&#45;&gt;Node4</title>
<g id="a_edge5_Node000001_Node000004"><a xlink:title=" ">
<path fill="none" stroke="#63b8ff" d="M602.97,-175.2C586.82,-182.87 566.58,-192 548,-199 497.8,-217.9 438,-234.97 401.01,-244.91"/>
<polygon fill="#63b8ff" stroke="#63b8ff" points="604.08,-178.56 611.57,-171.07 601.04,-172.25 604.08,-178.56"/>
</a>
</g>
</g>
<!-- Node8 -->
<g id="Node000008" class="node">
<title>Node8</title>
<g id="a_Node000008"><a xlink:href="group___main_program.html#ga59363e824664d6f3ebb09b0cd5c44a28" target="_top" xlink:title=" ">
<polygon fill="white" stroke="#666666" points="288,-302 186.5,-302 186.5,-282 288,-282 288,-302"/>
<text text-anchor="middle" x="237.25" y="-288.5" font-family="Helvetica,sans-Serif" font-size="10.00">testset2_hardcoded</text>
</a>
</g>
</g>
<!-- Node1&#45;&gt;Node8 -->
<g id="edge28_Node000001_Node000008" class="edge">
<title>Node1&#45;&gt;Node8</title>
<g id="a_edge28_Node000001_Node000008"><a xlink:title=" ">
<path fill="none" stroke="#63b8ff" d="M615.45,-178.19C599.02,-193.62 573.62,-215.37 548,-229 464.19,-273.6 352.2,-286.69 288.39,-290.49"/>
<polygon fill="#63b8ff" stroke="#63b8ff" points="617.72,-180.86 622.5,-171.41 612.87,-175.82 617.72,-180.86"/>
</a>
</g>
</g>
<!-- Node9 -->
<g id="Node000009" class="node">
<title>Node9</title>
<g id="a_Node000009"><a xlink:href="group___iterator_algorithms.html#ga8ac257b3b58d1df45282efff565eb78f" target="_top" xlink:title="Zavolání zvolené funkce na prvních N elementů množiny od pozice určené iterátorem.">
<polygon fill="white" stroke="#666666" points="406,-58 324,-58 324,-38 406,-38 406,-58"/>
<text text-anchor="middle" x="365" y="-44.5" font-family="Helvetica,sans-Serif" font-size="10.00">set_for_each_n</text>
</a>
</g>
</g>
<!-- Node1&#45;&gt;Node9 -->
<g id="edge11_Node000001_Node000009" class="edge">
<title>Node1&#45;&gt;Node9</title>
<g id="a_edge11_Node000001_Node000009"><a xlink:title=" ">
<path fill="none" stroke="#63b8ff" d="M606.08,-144.3C589.5,-135.19 567.85,-123.82 548,-115 496.77,-92.24 435.19,-70.75 398.39,-58.5"/>
<polygon fill="#63b8ff" stroke="#63b8ff" points="603.93,-147.11 614.37,-148.9 607.32,-140.99 603.93,-147.11"/>
</a>
</g>
</g>
<!-- Node10 -->
<g id="Node000010" class="node">
<title>Node10</title>
<g id="a_Node000010"><a xlink:href="group___iterator_algorithms.html#ga7dd39e89482104c1886a0c46fd5ec018" target="_top" xlink:title="Zavolání zvolené funkce na každý element množiny v zadaném rozsahu pozic určených dvěma iterátory.">
<polygon fill="white" stroke="#666666" points="402.25,-20 327.75,-20 327.75,0 402.25,0 402.25,-20"/>
<text text-anchor="middle" x="365" y="-6.5" font-family="Helvetica,sans-Serif" font-size="10.00">set_for_range</text>
</a>
</g>
</g>
<!-- Node1&#45;&gt;Node10 -->
<g id="edge13_Node000001_Node000010" class="edge">
<title>Node1&#45;&gt;Node10</title>
<g id="a_edge13_Node000001_Node000010"><a xlink:title=" ">
<path fill="none" stroke="#63b8ff" d="M626.92,-139.08C615.77,-108.59 590.5,-52.8 548,-27 503.65,-0.07 441.71,-0.61 402.74,-4.51"/>
<polygon fill="#63b8ff" stroke="#63b8ff" points="623.55,-140.02 630.13,-148.32 630.16,-137.72 623.55,-140.02"/>
</a>
</g>
</g>
<!-- Node11 -->
<g id="Node000011" class="node">
<title>Node11</title>
<g id="a_Node000011"><a xlink:href="group___t_set_iterator.html#ga9897d99975ad2adadb6ed86c9018560e" target="_top" xlink:title="Test shodnosti dvou iterátorů">
<polygon fill="white" stroke="#666666" points="548,-56 442,-56 442,-36 548,-36 548,-56"/>
<text text-anchor="middle" x="495" y="-42.5" font-family="Helvetica,sans-Serif" font-size="10.00">set_iterator_is_equal</text>
</a>
</g>
</g>
<!-- Node1&#45;&gt;Node11 -->
<g id="edge14_Node000001_Node000011" class="edge">
<title>Node1&#45;&gt;Node11</title>
<g id="a_edge14_Node000001_Node000011"><a xlink:title=" ">
<path fill="none" stroke="#63b8ff" d="M618.96,-140.62C603.12,-120.86 576.38,-90.3 548,-70 540.64,-64.74 531.94,-60.18 523.79,-56.5"/>
<polygon fill="#63b8ff" stroke="#63b8ff" points="616.16,-142.71 625.09,-148.42 621.66,-138.39 616.16,-142.71"/>
</a>
</g>
</g>
<!-- Node12 -->
<g id="Node000012" class="node">
<title>Node12</title>
<g id="a_Node000012"><a xlink:href="group___t_set_iterator.html#ga6723a05c864198597ff49718020bd0d6" target="_top" xlink:title="Posunutí iterátoru vpřed.">
<polygon fill="white" stroke="#666666" points="546.12,-170 443.88,-170 443.88,-150 546.12,-150 546.12,-170"/>
<text text-anchor="middle" x="495" y="-156.5" font-family="Helvetica,sans-Serif" font-size="10.00">set_iterator_to_next</text>
</a>
</g>
</g>
<!-- Node1&#45;&gt;Node12 -->
<g id="edge16_Node000001_Node000012" class="edge">
<title>Node1&#45;&gt;Node12</title>
<g id="a_edge16_Node000001_Node000012"><a xlink:title=" ">
<path fill="none" stroke="#63b8ff" d="M572.33,-160C563.63,-160 554.77,-160 546.31,-160"/>
<polygon fill="#63b8ff" stroke="#63b8ff" points="572.12,-163.5 582.12,-160 572.12,-156.5 572.12,-163.5"/>
</a>
</g>
</g>
<!-- Node13 -->
<g id="Node000013" class="node">
<title>Node13</title>
<g id="a_Node000013"><a xlink:href="group___t_set_iterator.html#ga3928a980e2759ba130ce333e77f15fab" target="_top" xlink:title="Přečtení hodnoty elementu z množiny pomocí iterátoru.">
<polygon fill="white" stroke="#666666" points="540.88,-340 449.12,-340 449.12,-320 540.88,-320 540.88,-340"/>
<text text-anchor="middle" x="495" y="-326.5" font-family="Helvetica,sans-Serif" font-size="10.00">set_iterator_value</text>
</a>
</g>
</g>
<!-- Node1&#45;&gt;Node13 -->
<g id="edge23_Node000001_Node000013" class="edge">
<title>Node1&#45;&gt;Node13</title>
<g id="a_edge23_Node000001_Node000013"><a xlink:title=" ">
<path fill="none" stroke="#63b8ff" d="M626.29,-180.65C614.2,-211.58 587.6,-270.12 548,-306 541.88,-311.54 534.27,-316.01 526.77,-319.52"/>
<polygon fill="#63b8ff" stroke="#63b8ff" points="629.42,-182.27 629.68,-171.67 622.88,-179.79 629.42,-182.27"/>
</a>
</g>
</g>
<!-- Node2&#45;&gt;Node2 -->
<g id="edge2_Node000002_Node000002" class="edge">
<title>Node2&#45;&gt;Node2</title>
<g id="a_edge2_Node000002_Node000002"><a xlink:title=" ">
<path fill="none" stroke="#63b8ff" d="M387.58,-219.44C384.67,-223.3 377.14,-226 365,-226 342.79,-226 336.03,-216.98 344.7,-208.34"/>
<polygon fill="#63b8ff" stroke="#63b8ff" points="391.04,-218.91 385.6,-209.82 384.19,-220.32 391.04,-218.91"/>
</a>
</g>
</g>
<!-- Node3&#45;&gt;Node3 -->
<g id="edge4_Node000003_Node000003" class="edge">
<title>Node3&#45;&gt;Node3</title>
<g id="a_edge4_Node000003_Node000003"><a xlink:title=" ">
<path fill="none" stroke="#63b8ff" d="M387.58,-125.44C384.67,-129.3 377.14,-132 365,-132 342.79,-132 336.03,-122.98 344.7,-114.34"/>
<polygon fill="#63b8ff" stroke="#63b8ff" points="391.04,-124.91 385.6,-115.82 384.19,-126.32 391.04,-124.91"/>
</a>
</g>
</g>
<!-- Node5 -->
<g id="Node000005" class="node">
<title>Node5</title>
<g id="a_Node000005"><a xlink:href="testbench_8c.html#a068734a4e1d6209769e0c6b1675ca02b" target="_top" xlink:title="Provedení jednoho test z testovacího plánu na předaném ADT.">
<polygon fill="white" stroke="#666666" points="262.88,-340 211.62,-340 211.62,-320 262.88,-320 262.88,-340"/>
<text text-anchor="middle" x="237.25" y="-326.5" font-family="Helvetica,sans-Serif" font-size="10.00">test_run</text>
</a>
</g>
</g>
<!-- Node4&#45;&gt;Node5 -->
<g id="edge6_Node000004_Node000005" class="edge">
<title>Node4&#45;&gt;Node5</title>
<g id="a_edge6_Node000004_Node000005"><a xlink:title=" ">
<path fill="none" stroke="#63b8ff" d="M343.61,-271.78C328.89,-283.97 308.14,-299.89 288,-311 280.23,-315.29 271.29,-319.03 263.15,-322.04"/>
<polygon fill="#63b8ff" stroke="#63b8ff" points="345.81,-274.5 351.19,-265.37 341.29,-269.15 345.81,-274.5"/>
</a>
</g>
</g>
<!-- Node4&#45;&gt;Node8 -->
<g id="edge9_Node000004_Node000008" class="edge">
<title>Node4&#45;&gt;Node8</title>
<g id="a_edge9_Node000004_Node000008"><a xlink:title=" ">
<path fill="none" stroke="#63b8ff" d="M318.63,-267.71C303.53,-272.27 286.98,-277.28 272.83,-281.55"/>
<polygon fill="#63b8ff" stroke="#63b8ff" points="319.3,-271.17 327.86,-264.92 317.27,-264.46 319.3,-271.17"/>
</a>
</g>
</g>
<!-- Node6 -->
<g id="Node000006" class="node">
<title>Node6</title>
<g id="a_Node000006"><a xlink:href="testbench_8c.html#a2fa1559684d267665b1c2433208511d3" target="_top" xlink:title="Provedení všech testů zadaného testovacího plánu na předaném ADT.">
<polygon fill="white" stroke="#666666" points="150.5,-340 73,-340 73,-320 150.5,-320 150.5,-340"/>
<text text-anchor="middle" x="111.75" y="-326.5" font-family="Helvetica,sans-Serif" font-size="10.00">testbench_run</text>
</a>
</g>
</g>
<!-- Node5&#45;&gt;Node6 -->
<g id="edge7_Node000005_Node000006" class="edge">
<title>Node5&#45;&gt;Node6</title>
<g id="a_edge7_Node000005_Node000006"><a xlink:title=" ">
<path fill="none" stroke="#63b8ff" d="M200.02,-330C184.56,-330 166.51,-330 150.85,-330"/>
<polygon fill="#63b8ff" stroke="#63b8ff" points="199.74,-333.5 209.74,-330 199.74,-326.5 199.74,-333.5"/>
</a>
</g>
</g>
<!-- Node7 -->
<g id="Node000007" class="node">
<title>Node7</title>
<g id="a_Node000007"><a xlink:href="group___main_program.html#ga0ddf1224851353fc92bfbff6f499fa97" target="_top" xlink:title=" ">
<polygon fill="white" stroke="#666666" points="37,-321 0,-321 0,-301 37,-301 37,-321"/>
<text text-anchor="middle" x="18.5" y="-307.5" font-family="Helvetica,sans-Serif" font-size="10.00">main</text>
</a>
</g>
</g>
<!-- Node6&#45;&gt;Node7 -->
<g id="edge8_Node000006_Node000007" class="edge">
<title>Node6&#45;&gt;Node7</title>
<g id="a_edge8_Node000006_Node000007"><a xlink:title=" ">
<path fill="none" stroke="#63b8ff" d="M61.52,-319.75C52.79,-317.93 44.23,-316.15 37.14,-314.67"/>
<polygon fill="#63b8ff" stroke="#63b8ff" points="60.6,-323.13 71.1,-321.74 62.02,-316.28 60.6,-323.13"/>
</a>
</g>
</g>
<!-- Node8&#45;&gt;Node7 -->
<g id="edge10_Node000008_Node000007" class="edge">
<title>Node8&#45;&gt;Node7</title>
<g id="a_edge10_Node000008_Node000007"><a xlink:title=" ">
<path fill="none" stroke="#63b8ff" d="M175.02,-297.37C128.31,-301.46 67.08,-306.83 37.31,-309.44"/>
<polygon fill="#63b8ff" stroke="#63b8ff" points="175.09,-300.87 184.74,-296.52 174.48,-293.9 175.09,-300.87"/>
</a>
</g>
</g>
<!-- Node9&#45;&gt;Node9 -->
<g id="edge12_Node000009_Node000009" class="edge">
<title>Node9&#45;&gt;Node9</title>
<g id="a_edge12_Node000009_Node000009"><a xlink:title=" ">
<path fill="none" stroke="#63b8ff" d="M387.58,-69.44C384.67,-73.3 377.14,-76 365,-76 342.79,-76 336.03,-66.98 344.7,-58.34"/>
<polygon fill="#63b8ff" stroke="#63b8ff" points="391.04,-68.91 385.6,-59.82 384.19,-70.32 391.04,-68.91"/>
</a>
</g>
</g>
<!-- Node11&#45;&gt;Node10 -->
<g id="edge15_Node000011_Node000010" class="edge">
<title>Node11&#45;&gt;Node10</title>
<g id="a_edge15_Node000011_Node000010"><a xlink:title=" ">
<path fill="none" stroke="#63b8ff" d="M446.2,-32.56C431.74,-28.49 416.1,-24.09 402.5,-20.26"/>
<polygon fill="#63b8ff" stroke="#63b8ff" points="444.95,-35.84 455.52,-35.18 446.84,-29.1 444.95,-35.84"/>
</a>
</g>
</g>
<!-- Node12&#45;&gt;Node2 -->
<g id="edge17_Node000012_Node000002" class="edge">
<title>Node12&#45;&gt;Node2</title>
<g id="a_edge17_Node000012_Node000002"><a xlink:title=" ">
<path fill="none" stroke="#63b8ff" d="M448.02,-173.65C430.39,-178.88 410.78,-184.71 395.15,-189.34"/>
<polygon fill="#63b8ff" stroke="#63b8ff" points="448.64,-177.12 457.23,-170.92 446.65,-170.41 448.64,-177.12"/>
</a>
</g>
</g>
<!-- Node12&#45;&gt;Node3 -->
<g id="edge18_Node000012_Node000003" class="edge">
<title>Node12&#45;&gt;Node3</title>
<g id="a_edge18_Node000012_Node000003"><a xlink:title=" ">
<path fill="none" stroke="#63b8ff" d="M459.9,-145.08C437.72,-135.38 409.37,-122.97 389.65,-114.35"/>
<polygon fill="#63b8ff" stroke="#63b8ff" points="458.27,-148.19 468.84,-148.99 461.08,-141.78 458.27,-148.19"/>
</a>
</g>
</g>
<!-- Node12&#45;&gt;Node4 -->
<g id="edge19_Node000012_Node000004" class="edge">
<title>Node12&#45;&gt;Node4</title>
<g id="a_edge19_Node000012_Node000004"><a xlink:title=" ">
<path fill="none" stroke="#63b8ff" d="M475.62,-178.19C458.57,-194.43 431.97,-218.18 406,-235 401.22,-238.09 395.87,-240.98 390.66,-243.53"/>
<polygon fill="#63b8ff" stroke="#63b8ff" points="477.78,-180.98 482.53,-171.51 472.91,-175.94 477.78,-180.98"/>
</a>
</g>
</g>
<!-- Node12&#45;&gt;Node8 -->
<g id="edge22_Node000012_Node000008" class="edge">
<title>Node12&#45;&gt;Node8</title>
<g id="a_edge22_Node000012_Node000008"><a xlink:title=" ">
<path fill="none" stroke="#63b8ff" d="M432.37,-155.43C398.38,-155.61 356.6,-160.49 324,-179 281.17,-203.32 252.92,-258.61 242.62,-281.64"/>
<polygon fill="#63b8ff" stroke="#63b8ff" points="432.02,-158.92 442.05,-155.52 432.09,-151.92 432.02,-158.92"/>
</a>
</g>
</g>
<!-- Node12&#45;&gt;Node9 -->
<g id="edge20_Node000012_Node000009" class="edge">
<title>Node12&#45;&gt;Node9</title>
<g id="a_edge20_Node000012_Node000009"><a xlink:title=" ">
<path fill="none" stroke="#63b8ff" d="M473.86,-142.37C446.82,-118.72 399.67,-77.46 377.78,-58.31"/>
<polygon fill="#63b8ff" stroke="#63b8ff" points="471.22,-144.72 481.05,-148.67 475.83,-139.45 471.22,-144.72"/>
</a>
</g>
</g>
<!-- Node12&#45;&gt;Node10 -->
<g id="edge21_Node000012_Node000010" class="edge">
<title>Node12&#45;&gt;Node10</title>
<g id="a_edge21_Node000012_Node000010"><a xlink:title=" ">
<path fill="none" stroke="#63b8ff" d="M484.65,-139.58C470.91,-111.47 442.85,-60.76 406,-29 402.16,-25.69 397.64,-22.82 393.04,-20.39"/>
<polygon fill="#63b8ff" stroke="#63b8ff" points="481.4,-140.89 488.85,-148.43 487.73,-137.89 481.4,-140.89"/>
</a>
</g>
</g>
<!-- Node13&#45;&gt;Node8 -->
<g id="edge27_Node000013_Node000008" class="edge">
<title>Node13&#45;&gt;Node8</title>
<g id="a_edge27_Node000013_Node000008"><a xlink:title=" ">
<path fill="none" stroke="#63b8ff" d="M437.57,-322.34C404.46,-317.78 361.83,-311.76 324,-306 312.37,-304.23 299.86,-302.24 288.1,-300.33"/>
<polygon fill="#63b8ff" stroke="#63b8ff" points="436.98,-325.8 447.36,-323.69 437.93,-318.86 436.98,-325.8"/>
</a>
</g>
</g>
<!-- Node14 -->
<g id="Node000014" class="node">
<title>Node14</title>
<g id="a_Node000014"><a xlink:href="testbench_8c.html#a68bb846e665ae25f0855b12907c6f7b0" target="_top" xlink:title="Vytisknutí hodnoty elementu v ADT pomocí iterátoru.">
<polygon fill="white" stroke="#666666" points="402.25,-378 327.75,-378 327.75,-358 402.25,-358 402.25,-378"/>
<text text-anchor="middle" x="365" y="-364.5" font-family="Helvetica,sans-Serif" font-size="10.00">print_element</text>
</a>
</g>
</g>
<!-- Node13&#45;&gt;Node14 -->
<g id="edge24_Node000013_Node000014" class="edge">
<title>Node13&#45;&gt;Node14</title>
<g id="a_edge24_Node000013_Node000014"><a xlink:title=" ">
<path fill="none" stroke="#63b8ff" d="M447.82,-343.71C432.45,-348.27 415.6,-353.28 401.2,-357.55"/>
<polygon fill="#63b8ff" stroke="#63b8ff" points="448.64,-347.12 457.23,-340.92 446.65,-340.41 448.64,-347.12"/>
</a>
</g>
</g>
<!-- Node14&#45;&gt;Node5 -->
<g id="edge25_Node000014_Node000005" class="edge">
<title>Node14&#45;&gt;Node5</title>
<g id="a_edge25_Node000014_Node000005"><a xlink:title=" ">
<path fill="none" stroke="#63b8ff" d="M318.37,-354.21C299.77,-348.59 279,-342.31 263.26,-337.56"/>
<polygon fill="#63b8ff" stroke="#63b8ff" points="317.27,-357.54 327.86,-357.08 319.3,-350.83 317.27,-357.54"/>
</a>
</g>
</g>
<!-- Node14&#45;&gt;Node8 -->
<g id="edge26_Node000014_Node000008" class="edge">
<title>Node14&#45;&gt;Node8</title>
<g id="a_edge26_Node000014_Node000008"><a xlink:title=" ">
<path fill="none" stroke="#63b8ff" d="M334.95,-351.52C331.19,-349.11 327.45,-346.57 324,-344 306.61,-331.02 306.47,-322.41 288,-311 282.73,-307.74 276.81,-304.89 270.94,-302.45"/>
<polygon fill="#63b8ff" stroke="#63b8ff" points="333.12,-354.51 343.48,-356.73 336.77,-348.53 333.12,-354.51"/>
</a>
</g>
</g>
</g>
</svg>
