<?xml version="1.0" encoding="UTF-8" standalone="no"?>
<!DOCTYPE svg PUBLIC "-//W3C//DTD SVG 1.1//EN"
 "http://www.w3.org/Graphics/SVG/1.1/DTD/svg11.dtd">
<!-- Generated by graphviz version 11.0.0 (20240428.1522)
 -->
<!-- Title: testset2_hardcoded Pages: 1 -->
<svg width="731pt" height="502pt"
 viewBox="0.00 0.00 730.75 502.00" xmlns="http://www.w3.org/2000/svg" xmlns:xlink="http://www.w3.org/1999/xlink">
<g id="graph0" class="graph" transform="scale(1 1) rotate(0) translate(4 498)">
<title>testset2_hardcoded</title>
<!-- Node1 -->
<g id="Node000001" class="node">
<title>Node1</title>
<g id="a_Node000001"><a xlink:title=" ">
<polygon fill="#999999" stroke="#666666" points="101.5,-266 0,-266 0,-246 101.5,-246 101.5,-266"/>
<text text-anchor="middle" x="50.75" y="-252.5" font-family="Helvetica,sans-Serif" font-size="10.00">testset2_hardcoded</text>
</a>
</g>
</g>
<!-- Node2 -->
<g id="Node000002" class="node">
<title>Node2</title>
<g id="a_Node000002"><a xlink:href="main__support_8h.html#a2d31e17cb6a745a38f21a15a8b9f6142" target="_top" xlink:title="Konverzní funkce z hodnoty typu bool na C&#45;řetězec.">
<polygon fill="white" stroke="#666666" points="225.88,-494 143.88,-494 143.88,-474 225.88,-474 225.88,-494"/>
<text text-anchor="middle" x="184.88" y="-480.5" font-family="Helvetica,sans-Serif" font-size="10.00">bool_to_cstring</text>
</a>
</g>
</g>
<!-- Node1&#45;&gt;Node2 -->
<g id="edge1_Node000001_Node000002" class="edge">
<title>Node1&#45;&gt;Node2</title>
<g id="a_edge1_Node000001_Node000002"><a xlink:title=" ">
<path fill="none" stroke="#63b8ff" d="M53.12,-266.24C58.1,-299.48 78.14,-405.67 137.5,-465 138.36,-465.86 139.27,-466.68 140.21,-467.47"/>
<polygon fill="#63b8ff" stroke="#63b8ff" points="137.97,-470.19 148.24,-472.8 141.84,-464.35 137.97,-470.19"/>
</a>
</g>
</g>
<!-- Node3 -->
<g id="Node000003" class="node">
<title>Node3</title>
<g id="a_Node000003"><a xlink:href="testbench_8c.html#a68bb846e665ae25f0855b12907c6f7b0" target="_top" xlink:title="Vytisknutí hodnoty elementu v ADT pomocí iterátoru.">
<polygon fill="white" stroke="#666666" points="222.12,-456 147.62,-456 147.62,-436 222.12,-436 222.12,-456"/>
<text text-anchor="middle" x="184.88" y="-442.5" font-family="Helvetica,sans-Serif" font-size="10.00">print_element</text>
</a>
</g>
</g>
<!-- Node1&#45;&gt;Node3 -->
<g id="edge2_Node000001_Node000003" class="edge">
<title>Node1&#45;&gt;Node3</title>
<g id="a_edge2_Node000001_Node000003"><a xlink:title=" ">
<path fill="none" stroke="#63b8ff" d="M54.63,-266.29C63.01,-294.52 89.81,-374.27 137.5,-422 140.43,-424.93 143.79,-427.58 147.33,-429.95"/>
<polygon fill="#63b8ff" stroke="#63b8ff" points="145.27,-432.8 155.67,-434.84 148.81,-426.76 145.27,-432.8"/>
</a>
</g>
</g>
<!-- Node5 -->
<g id="Node000005" class="node">
<title>Node5</title>
<g id="a_Node000005"><a xlink:href="group___t_set_iterator.html#ga3928a980e2759ba130ce333e77f15fab" target="_top" xlink:title="Přečtení hodnoty elementu z množiny pomocí iterátoru.">
<polygon fill="white" stroke="#666666" points="377.25,-418 285.5,-418 285.5,-398 377.25,-398 377.25,-418"/>
<text text-anchor="middle" x="331.38" y="-404.5" font-family="Helvetica,sans-Serif" font-size="10.00">set_iterator_value</text>
</a>
</g>
</g>
<!-- Node1&#45;&gt;Node5 -->
<g id="edge35_Node000001_Node000005" class="edge">
<title>Node1&#45;&gt;Node5</title>
<g id="a_edge35_Node000001_Node000005"><a xlink:title=" ">
<path fill="none" stroke="#63b8ff" d="M55.18,-266.16C64.17,-291.09 91.04,-355.38 137.5,-384 178.25,-409.1 233.05,-413.76 273.82,-412.92"/>
<polygon fill="#63b8ff" stroke="#63b8ff" points="273.8,-416.42 283.68,-412.58 273.57,-409.42 273.8,-416.42"/>
</a>
</g>
</g>
<!-- Node7 -->
<g id="Node000007" class="node">
<title>Node7</title>
<g id="a_Node000007"><a xlink:href="group___t_set_iterator.html#ga089f24c81ac3da7d1ac7ca24cc078dd8" target="_top" xlink:title="Zjištění platnosti iterátoru.">
<polygon fill="white" stroke="#666666" points="542.12,-358 440.62,-358 440.62,-338 542.12,-338 542.12,-358"/>
<text text-anchor="middle" x="491.38" y="-344.5" font-family="Helvetica,sans-Serif" font-size="10.00">set_iterator_is_valid</text>
</a>
</g>
</g>
<!-- Node1&#45;&gt;Node7 -->
<g id="edge33_Node000001_Node000007" class="edge">
<title>Node1&#45;&gt;Node7</title>
<g id="a_edge33_Node000001_Node000007"><a xlink:title=" ">
<path fill="none" stroke="#63b8ff" d="M57.14,-266.24C68.65,-286.88 97.84,-333.01 137.5,-351 237.33,-396.29 369.99,-376.8 440.83,-360.97"/>
<polygon fill="#63b8ff" stroke="#63b8ff" points="441.22,-364.47 450.17,-358.81 439.64,-357.65 441.22,-364.47"/>
</a>
</g>
</g>
<!-- Node9 -->
<g id="Node000009" class="node">
<title>Node9</title>
<g id="a_Node000009"><a xlink:href="group___t_set.html#ga8094d1ab68434b8413cd905895ff37ae" target="_top" xlink:title="Deinicializace množiny.">
<polygon fill="white" stroke="#666666" points="218.38,-266 151.38,-266 151.38,-246 218.38,-246 218.38,-266"/>
<text text-anchor="middle" x="184.88" y="-252.5" font-family="Helvetica,sans-Serif" font-size="10.00">set_destroy</text>
</a>
</g>
</g>
<!-- Node1&#45;&gt;Node9 -->
<g id="edge8_Node000001_Node000009" class="edge">
<title>Node1&#45;&gt;Node9</title>
<g id="a_edge8_Node000001_Node000009"><a xlink:title=" ">
<path fill="none" stroke="#63b8ff" d="M101.7,-256C114.22,-256 127.55,-256 139.76,-256"/>
<polygon fill="#63b8ff" stroke="#63b8ff" points="139.54,-259.5 149.54,-256 139.54,-252.5 139.54,-259.5"/>
</a>
</g>
</g>
<!-- Node11 -->
<g id="Node000011" class="node">
<title>Node11</title>
<g id="a_Node000011"><a xlink:href="group___t_set.html#ga2a711b02282ff309c0d6a4fdcfbac738" target="_top" xlink:title="Odstranění elementu z množiny.">
<polygon fill="white" stroke="#666666" points="214.25,-152 155.5,-152 155.5,-132 214.25,-132 214.25,-152"/>
<text text-anchor="middle" x="184.88" y="-138.5" font-family="Helvetica,sans-Serif" font-size="10.00">set_erase</text>
</a>
</g>
</g>
<!-- Node1&#45;&gt;Node11 -->
<g id="edge10_Node000001_Node000011" class="edge">
<title>Node1&#45;&gt;Node11</title>
<g id="a_edge10_Node000001_Node000011"><a xlink:title=" ">
<path fill="none" stroke="#63b8ff" d="M58.6,-245.76C71.82,-226.7 102.6,-185.53 137.5,-161 139.87,-159.34 142.4,-157.78 145.02,-156.34"/>
<polygon fill="#63b8ff" stroke="#63b8ff" points="146.53,-159.5 154,-151.99 143.47,-153.2 146.53,-159.5"/>
</a>
</g>
</g>
<!-- Node15 -->
<g id="Node000015" class="node">
<title>Node15</title>
<g id="a_Node000015"><a xlink:href="group___t_set.html#ga2f7fd9486a5c300158d70dc79c6c6c8f" target="_top" xlink:title="Zjištění, zda je množina prázdná">
<polygon fill="white" stroke="#666666" points="368.62,-114 294.12,-114 294.12,-94 368.62,-94 368.62,-114"/>
<text text-anchor="middle" x="331.38" y="-100.5" font-family="Helvetica,sans-Serif" font-size="10.00">set_is_empty</text>
</a>
</g>
</g>
<!-- Node1&#45;&gt;Node15 -->
<g id="edge29_Node000001_Node000015" class="edge">
<title>Node1&#45;&gt;Node15</title>
<g id="a_edge29_Node000001_Node000015"><a xlink:title=" ">
<path fill="none" stroke="#63b8ff" d="M54.88,-245.76C63.36,-219.98 89.43,-152.35 137.5,-123 181.11,-96.37 240.86,-94.65 282.25,-97.66"/>
<polygon fill="#63b8ff" stroke="#63b8ff" points="281.9,-101.14 292.16,-98.51 282.5,-94.16 281.9,-101.14"/>
</a>
</g>
</g>
<!-- Node17 -->
<g id="Node000017" class="node">
<title>Node17</title>
<g id="a_Node000017"><a xlink:href="group___iterator_algorithms.html#gab8ba369b42eda61d010f35df73be73db" target="_top" xlink:title="Zavolání zvolené funkce na každý element množiny od pozice určené iterátorem až do posledního element...">
<polygon fill="white" stroke="#666666" points="220.62,-342 149.12,-342 149.12,-322 220.62,-322 220.62,-342"/>
<text text-anchor="middle" x="184.88" y="-328.5" font-family="Helvetica,sans-Serif" font-size="10.00">set_for_each</text>
</a>
</g>
</g>
<!-- Node1&#45;&gt;Node17 -->
<g id="edge16_Node000001_Node000017" class="edge">
<title>Node1&#45;&gt;Node17</title>
<g id="a_edge16_Node000001_Node000017"><a xlink:title=" ">
<path fill="none" stroke="#63b8ff" d="M67.99,-266.3C85.1,-277.04 112.9,-294.2 137.5,-308 142.38,-310.74 147.61,-313.55 152.73,-316.25"/>
<polygon fill="#63b8ff" stroke="#63b8ff" points="151.11,-319.35 161.59,-320.85 154.33,-313.14 151.11,-319.35"/>
</a>
</g>
</g>
<!-- Node18 -->
<g id="Node000018" class="node">
<title>Node18</title>
<g id="a_Node000018"><a xlink:href="group___t_set_iterator.html#ga6723a05c864198597ff49718020bd0d6" target="_top" xlink:title="Posunutí iterátoru vpřed.">
<polygon fill="white" stroke="#666666" points="382.5,-304 280.25,-304 280.25,-284 382.5,-284 382.5,-304"/>
<text text-anchor="middle" x="331.38" y="-290.5" font-family="Helvetica,sans-Serif" font-size="10.00">set_iterator_to_next</text>
</a>
</g>
</g>
<!-- Node1&#45;&gt;Node18 -->
<g id="edge34_Node000001_Node000018" class="edge">
<title>Node1&#45;&gt;Node18</title>
<g id="a_edge34_Node000001_Node000018"><a xlink:title=" ">
<path fill="none" stroke="#63b8ff" d="M94.3,-266.48C108.02,-269.58 123.35,-272.74 137.5,-275 181.01,-281.94 230.48,-286.75 268.42,-289.8"/>
<polygon fill="#63b8ff" stroke="#63b8ff" points="268.06,-293.28 278.3,-290.57 268.6,-286.3 268.06,-293.28"/>
</a>
</g>
</g>
<!-- Node20 -->
<g id="Node000020" class="node">
<title>Node20</title>
<g id="a_Node000020"><a xlink:href="group___t_set.html#ga674fb4a9d4cac982bca65b8b264b04b5" target="_top" xlink:title="Inicializace prázdné množiny.">
<polygon fill="white" stroke="#666666" points="208.62,-76 161.12,-76 161.12,-56 208.62,-56 208.62,-76"/>
<text text-anchor="middle" x="184.88" y="-62.5" font-family="Helvetica,sans-Serif" font-size="10.00">set_init</text>
</a>
</g>
</g>
<!-- Node1&#45;&gt;Node20 -->
<g id="edge22_Node000001_Node000020" class="edge">
<title>Node1&#45;&gt;Node20</title>
<g id="a_edge22_Node000001_Node000020"><a xlink:title=" ">
<path fill="none" stroke="#63b8ff" d="M54.63,-245.71C63.01,-217.48 89.81,-137.73 137.5,-90 141.38,-86.12 146.02,-82.73 150.84,-79.82"/>
<polygon fill="#63b8ff" stroke="#63b8ff" points="152.3,-83.01 159.48,-75.22 149.01,-76.83 152.3,-83.01"/>
</a>
</g>
</g>
<!-- Node21 -->
<g id="Node000021" class="node">
<title>Node21</title>
<g id="a_Node000021"><a xlink:href="group___t_set.html#ga0d1464cea78691ff9ad3dd1e32b55c60" target="_top" xlink:title="Vložení elementu do množiny.">
<polygon fill="white" stroke="#666666" points="214.25,-228 155.5,-228 155.5,-208 214.25,-208 214.25,-228"/>
<text text-anchor="middle" x="184.88" y="-214.5" font-family="Helvetica,sans-Serif" font-size="10.00">set_insert</text>
</a>
</g>
</g>
<!-- Node1&#45;&gt;Node21 -->
<g id="edge23_Node000001_Node000021" class="edge">
<title>Node1&#45;&gt;Node21</title>
<g id="a_edge23_Node000001_Node000021"><a xlink:title=" ">
<path fill="none" stroke="#63b8ff" d="M88.2,-245.52C105.58,-240.52 126.4,-234.53 144.18,-229.42"/>
<polygon fill="#63b8ff" stroke="#63b8ff" points="144.97,-232.83 153.62,-226.7 143.04,-226.1 144.97,-232.83"/>
</a>
</g>
</g>
<!-- Node23 -->
<g id="Node000023" class="node">
<title>Node23</title>
<g id="a_Node000023"><a xlink:href="group___t_set.html#ga768d36614713a921e88985484ac63cc1" target="_top" xlink:title="Zjištění, zda množina obsahuje zadanou hodnotu elementu.">
<polygon fill="white" stroke="#666666" points="232.25,-190 137.5,-190 137.5,-170 232.25,-170 232.25,-190"/>
<text text-anchor="middle" x="184.88" y="-176.5" font-family="Helvetica,sans-Serif" font-size="10.00">set_is_element_of</text>
</a>
</g>
</g>
<!-- Node1&#45;&gt;Node23 -->
<g id="edge26_Node000001_Node000023" class="edge">
<title>Node1&#45;&gt;Node23</title>
<g id="a_edge26_Node000001_Node000023"><a xlink:title=" ">
<path fill="none" stroke="#63b8ff" d="M65.48,-245.63C81.99,-233.46 110.81,-213.16 137.5,-199 140.15,-197.6 142.92,-196.23 145.74,-194.91"/>
<polygon fill="#63b8ff" stroke="#63b8ff" points="146.88,-198.23 154.61,-190.99 144.05,-191.82 146.88,-198.23"/>
</a>
</g>
</g>
<!-- Node24 -->
<g id="Node000024" class="node">
<title>Node24</title>
<g id="a_Node000024"><a xlink:href="group___t_set_iterator.html#gab11bafbe7585e4bb0bd9ff2353d77765" target="_top" xlink:title="Vytvoření nového iterátoru ukazujícího na první element množiny.">
<polygon fill="white" stroke="#666666" points="231.5,-20 138.25,-20 138.25,0 231.5,0 231.5,-20"/>
<text text-anchor="middle" x="184.88" y="-6.5" font-family="Helvetica,sans-Serif" font-size="10.00">set_iterator_begin</text>
</a>
</g>
</g>
<!-- Node1&#45;&gt;Node24 -->
<g id="edge30_Node000001_Node000024" class="edge">
<title>Node1&#45;&gt;Node24</title>
<g id="a_edge30_Node000001_Node000024"><a xlink:title=" ">
<path fill="none" stroke="#63b8ff" d="M53.95,-245.95C61.3,-214.14 87.39,-113.84 137.5,-47 143.15,-39.47 150.67,-32.6 158.02,-26.88"/>
<polygon fill="#63b8ff" stroke="#63b8ff" points="159.82,-29.89 165.85,-21.17 155.7,-24.23 159.82,-29.89"/>
</a>
</g>
</g>
<!-- Node4 -->
<g id="Node000004" class="node">
<title>Node4</title>
<g id="a_Node000004"><a xlink:href="group___t_set_element.html#ga3473fca967dede884b1c910838f2d8df" target="_top" xlink:title="Uložení elementu do souboru.">
<polygon fill="white" stroke="#666666" points="388.12,-456 274.62,-456 274.62,-436 388.12,-436 388.12,-456"/>
<text text-anchor="middle" x="331.38" y="-442.5" font-family="Helvetica,sans-Serif" font-size="10.00">set_element_store_file</text>
</a>
</g>
</g>
<!-- Node3&#45;&gt;Node4 -->
<g id="edge3_Node000003_Node000004" class="edge">
<title>Node3&#45;&gt;Node4</title>
<g id="a_edge3_Node000003_Node000004"><a xlink:title=" ">
<path fill="none" stroke="#63b8ff" d="M222.34,-446C234.74,-446 249.03,-446 263.06,-446"/>
<polygon fill="#63b8ff" stroke="#63b8ff" points="262.71,-449.5 272.71,-446 262.71,-442.5 262.71,-449.5"/>
</a>
</g>
</g>
<!-- Node3&#45;&gt;Node5 -->
<g id="edge4_Node000003_Node000005" class="edge">
<title>Node3&#45;&gt;Node5</title>
<g id="a_edge4_Node000003_Node000005"><a xlink:title=" ">
<path fill="none" stroke="#63b8ff" d="M222.34,-436.41C239.66,-431.86 260.65,-426.34 279.51,-421.38"/>
<polygon fill="#63b8ff" stroke="#63b8ff" points="280.38,-424.77 289.16,-418.84 278.6,-418 280.38,-424.77"/>
</a>
</g>
</g>
<!-- Node6 -->
<g id="Node000006" class="node">
<title>Node6</title>
<g id="a_Node000006"><a xlink:href="group___t_set_unsorted_flex_array.html#ga9e462daa460e7e102258837658e80ceb" target="_top" xlink:title="Přečtení hodnoty elementu z flexibilního pole.">
<polygon fill="white" stroke="#666666" points="543.25,-424 439.5,-424 439.5,-392 543.25,-392 543.25,-424"/>
<text text-anchor="start" x="447.5" y="-410.5" font-family="Helvetica,sans-Serif" font-size="10.00">set_flex_array_value</text>
<text text-anchor="middle" x="491.38" y="-398.5" font-family="Helvetica,sans-Serif" font-size="10.00">_at_pos</text>
</a>
</g>
</g>
<!-- Node5&#45;&gt;Node6 -->
<g id="edge5_Node000005_Node000006" class="edge">
<title>Node5&#45;&gt;Node6</title>
<g id="a_edge5_Node000005_Node000006"><a xlink:title=" ">
<path fill="none" stroke="#63b8ff" d="M377.65,-408C393.28,-408 411.09,-408 427.85,-408"/>
<polygon fill="#63b8ff" stroke="#63b8ff" points="427.74,-411.5 437.74,-408 427.74,-404.5 427.74,-411.5"/>
</a>
</g>
</g>
<!-- Node5&#45;&gt;Node7 -->
<g id="edge6_Node000005_Node000007" class="edge">
<title>Node5&#45;&gt;Node7</title>
<g id="a_edge6_Node000005_Node000007"><a xlink:title=" ">
<path fill="none" stroke="#63b8ff" d="M359.9,-397.55C385.53,-387.81 423.98,-373.21 452.5,-362.38"/>
<polygon fill="#63b8ff" stroke="#63b8ff" points="453.38,-365.79 461.49,-358.97 450.9,-359.25 453.38,-365.79"/>
</a>
</g>
</g>
<!-- Node8 -->
<g id="Node000008" class="node">
<title>Node8</title>
<g id="a_Node000008"><a xlink:href="group___t_set_unsorted_flex_array.html#gad3346f67be35632c3b0fbd9ea616a0c1" target="_top" xlink:title="Zjištění platnosti pozice ve flexibilním poli.">
<polygon fill="white" stroke="#666666" points="722.75,-339 588.25,-339 588.25,-319 722.75,-319 722.75,-339"/>
<text text-anchor="middle" x="655.5" y="-325.5" font-family="Helvetica,sans-Serif" font-size="10.00">set_flex_array_is_valid_pos</text>
</a>
</g>
</g>
<!-- Node7&#45;&gt;Node8 -->
<g id="edge7_Node000007_Node000008" class="edge">
<title>Node7&#45;&gt;Node8</title>
<g id="a_edge7_Node000007_Node000008"><a xlink:title=" ">
<path fill="none" stroke="#63b8ff" d="M542.34,-342.14C553.27,-340.86 565.09,-339.48 576.81,-338.1"/>
<polygon fill="#63b8ff" stroke="#63b8ff" points="576.96,-341.61 586.49,-336.97 576.15,-334.66 576.96,-341.61"/>
</a>
</g>
</g>
<!-- Node10 -->
<g id="Node000010" class="node">
<title>Node10</title>
<g id="a_Node000010"><a xlink:href="group___t_set_unsorted_flex_array.html#gad077ee65d964556f86e5dfa4a680bd10" target="_top" xlink:title="Deinicializace flexibilního pole.">
<polygon fill="white" stroke="#666666" points="388.5,-266 274.25,-266 274.25,-246 388.5,-246 388.5,-266"/>
<text text-anchor="middle" x="331.38" y="-252.5" font-family="Helvetica,sans-Serif" font-size="10.00">set_flex_array_destroy</text>
</a>
</g>
</g>
<!-- Node9&#45;&gt;Node10 -->
<g id="edge9_Node000009_Node000010" class="edge">
<title>Node9&#45;&gt;Node10</title>
<g id="a_edge9_Node000009_Node000010"><a xlink:title=" ">
<path fill="none" stroke="#63b8ff" d="M218.66,-256C231.8,-256 247.44,-256 262.8,-256"/>
<polygon fill="#63b8ff" stroke="#63b8ff" points="262.38,-259.5 272.38,-256 262.38,-252.5 262.38,-259.5"/>
</a>
</g>
</g>
<!-- Node12 -->
<g id="Node000012" class="node">
<title>Node12</title>
<g id="a_Node000012"><a xlink:href="group___t_set_unsorted_flex_array.html#ga85a89d1ea648e9219f9c904727c8f7ef" target="_top" xlink:title="Odstranění elementu z flexibilního pole.">
<polygon fill="white" stroke="#666666" points="384.38,-152 278.38,-152 278.38,-132 384.38,-132 384.38,-152"/>
<text text-anchor="middle" x="331.38" y="-138.5" font-family="Helvetica,sans-Serif" font-size="10.00">set_flex_array_erase</text>
</a>
</g>
</g>
<!-- Node11&#45;&gt;Node12 -->
<g id="edge11_Node000011_Node000012" class="edge">
<title>Node11&#45;&gt;Node12</title>
<g id="a_edge11_Node000011_Node000012"><a xlink:title=" ">
<path fill="none" stroke="#63b8ff" d="M214.42,-142C229.34,-142 248.23,-142 266.42,-142"/>
<polygon fill="#63b8ff" stroke="#63b8ff" points="266.39,-145.5 276.39,-142 266.39,-138.5 266.39,-145.5"/>
</a>
</g>
</g>
<!-- Node11&#45;&gt;Node15 -->
<g id="edge14_Node000011_Node000015" class="edge">
<title>Node11&#45;&gt;Node15</title>
<g id="a_edge14_Node000011_Node000015"><a xlink:title=" ">
<path fill="none" stroke="#63b8ff" d="M214.42,-134.49C233.84,-129.39 260.01,-122.5 282.57,-116.57"/>
<polygon fill="#63b8ff" stroke="#63b8ff" points="283.4,-119.97 292.19,-114.04 281.62,-113.2 283.4,-119.97"/>
</a>
</g>
</g>
<!-- Node13 -->
<g id="Node000013" class="node">
<title>Node13</title>
<g id="a_Node000013"><a xlink:href="group___t_set_unsorted_flex_array.html#ga5d5631db0bf286d944f4e538a072c2eb" target="_top" xlink:title="Funkce zjišťující, zda flexibilní pole obsahuje element o zadané hodnotě">
<polygon fill="white" stroke="#666666" points="547,-190 435.75,-190 435.75,-170 547,-170 547,-190"/>
<text text-anchor="middle" x="491.38" y="-176.5" font-family="Helvetica,sans-Serif" font-size="10.00">set_flex_array_search</text>
</a>
</g>
</g>
<!-- Node12&#45;&gt;Node13 -->
<g id="edge12_Node000012_Node000013" class="edge">
<title>Node12&#45;&gt;Node13</title>
<g id="a_edge12_Node000012_Node000013"><a xlink:title=" ">
<path fill="none" stroke="#63b8ff" d="M375.97,-152.48C394.53,-156.95 416.39,-162.21 435.99,-166.92"/>
<polygon fill="#63b8ff" stroke="#63b8ff" points="434.91,-170.26 445.45,-169.2 436.55,-163.45 434.91,-170.26"/>
</a>
</g>
</g>
<!-- Node14 -->
<g id="Node000014" class="node">
<title>Node14</title>
<g id="a_Node000014"><a xlink:href="group___t_set_element.html#gad8cfc9a36f36c44c10b660c5b370f67e" target="_top" xlink:title="Porovnání dvou elementů">
<polygon fill="white" stroke="#666666" points="717.12,-190 593.88,-190 593.88,-170 717.12,-170 717.12,-190"/>
<text text-anchor="middle" x="655.5" y="-176.5" font-family="Helvetica,sans-Serif" font-size="10.00">set_element_comparator</text>
</a>
</g>
</g>
<!-- Node13&#45;&gt;Node14 -->
<g id="edge13_Node000013_Node000014" class="edge">
<title>Node13&#45;&gt;Node14</title>
<g id="a_edge13_Node000013_Node000014"><a xlink:title=" ">
<path fill="none" stroke="#63b8ff" d="M547.26,-180C558.54,-180 570.58,-180 582.36,-180"/>
<polygon fill="#63b8ff" stroke="#63b8ff" points="582.03,-183.5 592.03,-180 582.03,-176.5 582.03,-183.5"/>
</a>
</g>
</g>
<!-- Node16 -->
<g id="Node000016" class="node">
<title>Node16</title>
<g id="a_Node000016"><a xlink:href="group___t_set.html#ga213cfb714cece49d955fc452b2aeb186" target="_top" xlink:title="Přečtení počtu elementů množiny.">
<polygon fill="white" stroke="#666666" points="517.75,-114 465,-114 465,-94 517.75,-94 517.75,-114"/>
<text text-anchor="middle" x="491.38" y="-100.5" font-family="Helvetica,sans-Serif" font-size="10.00">set_size</text>
</a>
</g>
</g>
<!-- Node15&#45;&gt;Node16 -->
<g id="edge15_Node000015_Node000016" class="edge">
<title>Node15&#45;&gt;Node16</title>
<g id="a_edge15_Node000015_Node000016"><a xlink:title=" ">
<path fill="none" stroke="#63b8ff" d="M369.02,-104C394.36,-104 427.96,-104 453.37,-104"/>
<polygon fill="#63b8ff" stroke="#63b8ff" points="453.26,-107.5 463.26,-104 453.26,-100.5 453.26,-107.5"/>
</a>
</g>
</g>
<!-- Node17&#45;&gt;Node7 -->
<g id="edge17_Node000017_Node000007" class="edge">
<title>Node17&#45;&gt;Node7</title>
<g id="a_edge17_Node000017_Node000007"><a xlink:title=" ">
<path fill="none" stroke="#63b8ff" d="M221.1,-333.85C271.95,-336.52 366.64,-341.5 429.09,-344.78"/>
<polygon fill="#63b8ff" stroke="#63b8ff" points="428.68,-348.26 438.85,-345.29 429.04,-341.27 428.68,-348.26"/>
</a>
</g>
</g>
<!-- Node17&#45;&gt;Node18 -->
<g id="edge18_Node000017_Node000018" class="edge">
<title>Node17&#45;&gt;Node18</title>
<g id="a_edge18_Node000017_Node000018"><a xlink:title=" ">
<path fill="none" stroke="#63b8ff" d="M220.85,-322.8C238.45,-318.17 260.11,-312.48 279.5,-307.38"/>
<polygon fill="#63b8ff" stroke="#63b8ff" points="280.37,-310.77 289.15,-304.84 278.59,-304 280.37,-310.77"/>
</a>
</g>
</g>
<!-- Node18&#45;&gt;Node7 -->
<g id="edge21_Node000018_Node000007" class="edge">
<title>Node18&#45;&gt;Node7</title>
<g id="a_edge21_Node000018_Node000007"><a xlink:title=" ">
<path fill="none" stroke="#63b8ff" d="M362.84,-304.41C387.35,-312.79 422.04,-324.64 449.05,-333.88"/>
<polygon fill="#63b8ff" stroke="#63b8ff" points="447.71,-337.12 458.3,-337.04 449.97,-330.49 447.71,-337.12"/>
</a>
</g>
</g>
<!-- Node18&#45;&gt;Node8 -->
<g id="edge19_Node000018_Node000008" class="edge">
<title>Node18&#45;&gt;Node8</title>
<g id="a_edge19_Node000018_Node000008"><a xlink:title=" ">
<path fill="none" stroke="#63b8ff" d="M382.71,-299.47C434.57,-305.1 516.13,-313.97 576.38,-320.51"/>
<polygon fill="#63b8ff" stroke="#63b8ff" points="575.93,-323.98 586.25,-321.58 576.69,-317.02 575.93,-323.98"/>
</a>
</g>
</g>
<!-- Node19 -->
<g id="Node000019" class="node">
<title>Node19</title>
<g id="a_Node000019"><a xlink:href="group___t_set_unsorted_flex_array.html#ga8bc0de187146b066ae844c2278b6e198" target="_top" xlink:title="Výpočet následující platné pozice ve flexibilním poli.">
<polygon fill="white" stroke="#666666" points="552.25,-282 430.5,-282 430.5,-262 552.25,-262 552.25,-282"/>
<text text-anchor="middle" x="491.38" y="-268.5" font-family="Helvetica,sans-Serif" font-size="10.00">set_flex_array_next_pos</text>
</a>
</g>
</g>
<!-- Node18&#45;&gt;Node19 -->
<g id="edge20_Node000018_Node000019" class="edge">
<title>Node18&#45;&gt;Node19</title>
<g id="a_edge20_Node000018_Node000019"><a xlink:title=" ">
<path fill="none" stroke="#63b8ff" d="M382.8,-286.98C394.35,-285.37 406.84,-283.63 419.08,-281.93"/>
<polygon fill="#63b8ff" stroke="#63b8ff" points="419.29,-285.43 428.71,-280.59 418.33,-278.5 419.29,-285.43"/>
</a>
</g>
</g>
<!-- Node22 -->
<g id="Node000022" class="node">
<title>Node22</title>
<g id="a_Node000022"><a xlink:href="group___t_set_unsorted_flex_array.html#gadd504f9127a4e850da202073bddd6024" target="_top" xlink:title="Vložení elementu do flexibilního pole.">
<polygon fill="white" stroke="#666666" points="384.38,-228 278.38,-228 278.38,-208 384.38,-208 384.38,-228"/>
<text text-anchor="middle" x="331.38" y="-214.5" font-family="Helvetica,sans-Serif" font-size="10.00">set_flex_array_insert</text>
</a>
</g>
</g>
<!-- Node21&#45;&gt;Node22 -->
<g id="edge24_Node000021_Node000022" class="edge">
<title>Node21&#45;&gt;Node22</title>
<g id="a_edge24_Node000021_Node000022"><a xlink:title=" ">
<path fill="none" stroke="#63b8ff" d="M214.42,-218C229.34,-218 248.23,-218 266.42,-218"/>
<polygon fill="#63b8ff" stroke="#63b8ff" points="266.39,-221.5 276.39,-218 266.39,-214.5 266.39,-221.5"/>
</a>
</g>
</g>
<!-- Node22&#45;&gt;Node13 -->
<g id="edge25_Node000022_Node000013" class="edge">
<title>Node22&#45;&gt;Node13</title>
<g id="a_edge25_Node000022_Node000013"><a xlink:title=" ">
<path fill="none" stroke="#63b8ff" d="M375.97,-207.52C394.53,-203.05 416.39,-197.79 435.99,-193.08"/>
<polygon fill="#63b8ff" stroke="#63b8ff" points="436.55,-196.55 445.45,-190.8 434.91,-189.74 436.55,-196.55"/>
</a>
</g>
</g>
<!-- Node23&#45;&gt;Node13 -->
<g id="edge27_Node000023_Node000013" class="edge">
<title>Node23&#45;&gt;Node13</title>
<g id="a_edge27_Node000023_Node000013"><a xlink:title=" ">
<path fill="none" stroke="#63b8ff" d="M232.45,-180C283.61,-180 366.16,-180 424.06,-180"/>
<polygon fill="#63b8ff" stroke="#63b8ff" points="423.78,-183.5 433.78,-180 423.78,-176.5 423.78,-183.5"/>
</a>
</g>
</g>
<!-- Node23&#45;&gt;Node15 -->
<g id="edge28_Node000023_Node000015" class="edge">
<title>Node23&#45;&gt;Node15</title>
<g id="a_edge28_Node000023_Node000015"><a xlink:title=" ">
<path fill="none" stroke="#63b8ff" d="M216.76,-169.5C222.14,-167.08 227.51,-164.25 232.25,-161 251.44,-147.85 248.47,-135.25 268.25,-123 272.86,-120.14 277.93,-117.69 283.13,-115.59"/>
<polygon fill="#63b8ff" stroke="#63b8ff" points="284.2,-118.92 292.44,-112.26 281.84,-112.33 284.2,-118.92"/>
</a>
</g>
</g>
<!-- Node24&#45;&gt;Node24 -->
<g id="edge32_Node000024_Node000024" class="edge">
<title>Node24&#45;&gt;Node24</title>
<g id="a_edge32_Node000024_Node000024"><a xlink:title=" ">
<path fill="none" stroke="#63b8ff" d="M163.56,-20.34C154.46,-28.98 161.56,-38 184.88,-38 197.63,-38 205.53,-35.3 208.58,-31.44"/>
<polygon fill="#63b8ff" stroke="#63b8ff" points="212.03,-30.86 206.51,-21.82 205.19,-32.33 212.03,-30.86"/>
</a>
</g>
</g>
<!-- Node25 -->
<g id="Node000025" class="node">
<title>Node25</title>
<g id="a_Node000025"><a xlink:href="group___t_set_unsorted_flex_array.html#ga24753753dacb74f17de6ba082505440c" target="_top" xlink:title="Výpočet první platné pozice ve flexibilním poli.">
<polygon fill="white" stroke="#666666" points="394.5,-20 268.25,-20 268.25,0 394.5,0 394.5,-20"/>
<text text-anchor="middle" x="331.38" y="-6.5" font-family="Helvetica,sans-Serif" font-size="10.00">set_flex_array_begin_pos</text>
</a>
</g>
</g>
<!-- Node24&#45;&gt;Node25 -->
<g id="edge31_Node000024_Node000025" class="edge">
<title>Node24&#45;&gt;Node25</title>
<g id="a_edge31_Node000024_Node000025"><a xlink:title=" ">
<path fill="none" stroke="#63b8ff" d="M231.99,-10C239.83,-10 248.14,-10 256.48,-10"/>
<polygon fill="#63b8ff" stroke="#63b8ff" points="256.31,-13.5 266.31,-10 256.31,-6.5 256.31,-13.5"/>
</a>
</g>
</g>
</g>
</svg>
