<?xml version="1.0" encoding="UTF-8" standalone="no"?>
<!DOCTYPE svg PUBLIC "-//W3C//DTD SVG 1.1//EN"
 "http://www.w3.org/Graphics/SVG/1.1/DTD/svg11.dtd">
<!-- Generated by graphviz version 11.0.0 (20240428.1522)
 -->
<!-- Title: set_flex_array_next_pos Pages: 1 -->
<svg width="710pt" height="272pt"
 viewBox="0.00 0.00 710.00 272.00" xmlns="http://www.w3.org/2000/svg" xmlns:xlink="http://www.w3.org/1999/xlink">
<g id="graph0" class="graph" transform="scale(1 1) rotate(0) translate(4 268)">
<title>set_flex_array_next_pos</title>
<!-- Node1 -->
<g id="Node000001" class="node">
<title>Node1</title>
<g id="a_Node000001"><a xlink:title="Výpočet následující platné pozice ve flexibilním poli.">
<polygon fill="#999999" stroke="#666666" points="702,-133 580.25,-133 580.25,-113 702,-113 702,-133"/>
<text text-anchor="middle" x="641.12" y="-119.5" font-family="Helvetica,sans-Serif" font-size="10.00">set_flex_array_next_pos</text>
</a>
</g>
</g>
<!-- Node2 -->
<g id="Node000002" class="node">
<title>Node2</title>
<g id="a_Node000002"><a xlink:href="group___t_set_iterator.html#ga6723a05c864198597ff49718020bd0d6" target="_top" xlink:title="Posunutí iterátoru vpřed.">
<polygon fill="white" stroke="#666666" points="544.25,-133 442,-133 442,-113 544.25,-113 544.25,-133"/>
<text text-anchor="middle" x="493.12" y="-119.5" font-family="Helvetica,sans-Serif" font-size="10.00">set_iterator_to_next</text>
</a>
</g>
</g>
<!-- Node1&#45;&gt;Node2 -->
<g id="edge1_Node000001_Node000002" class="edge">
<title>Node1&#45;&gt;Node2</title>
<g id="a_edge1_Node000001_Node000002"><a xlink:title=" ">
<path fill="none" stroke="#63b8ff" d="M568.48,-123C560.36,-123 552.22,-123 544.46,-123"/>
<polygon fill="#63b8ff" stroke="#63b8ff" points="568.38,-126.5 578.38,-123 568.38,-119.5 568.38,-126.5"/>
</a>
</g>
</g>
<!-- Node3 -->
<g id="Node000003" class="node">
<title>Node3</title>
<g id="a_Node000003"><a xlink:href="group___iterator_algorithms.html#ga1785c6060679dcab5e6781b66659dbf3" target="_top" xlink:title="Vyhledání prvního elementu množiny splňujícího zadaný predikát.">
<polygon fill="white" stroke="#666666" points="394.75,-246 335.25,-246 335.25,-226 394.75,-226 394.75,-246"/>
<text text-anchor="middle" x="365" y="-232.5" font-family="Helvetica,sans-Serif" font-size="10.00">set_find_if</text>
</a>
</g>
</g>
<!-- Node2&#45;&gt;Node3 -->
<g id="edge2_Node000002_Node000003" class="edge">
<title>Node2&#45;&gt;Node3</title>
<g id="a_edge2_Node000002_Node000003"><a xlink:title=" ">
<path fill="none" stroke="#63b8ff" d="M478.1,-142.28C462.38,-162.86 435.22,-195.41 406,-217 401.67,-220.2 396.72,-223.07 391.81,-225.55"/>
<polygon fill="#63b8ff" stroke="#63b8ff" points="480.77,-144.56 483.96,-134.46 475.17,-140.37 480.77,-144.56"/>
</a>
</g>
</g>
<!-- Node4 -->
<g id="Node000004" class="node">
<title>Node4</title>
<g id="a_Node000004"><a xlink:href="group___iterator_algorithms.html#ga8ca52ed8ac7c0be83a19c7ed10f813cd" target="_top" xlink:title="Vyhledání prvního elementu množiny nesplňujícího zadaný predikát.">
<polygon fill="white" stroke="#666666" points="404.12,-190 325.88,-190 325.88,-170 404.12,-170 404.12,-190"/>
<text text-anchor="middle" x="365" y="-176.5" font-family="Helvetica,sans-Serif" font-size="10.00">set_find_if_not</text>
</a>
</g>
</g>
<!-- Node2&#45;&gt;Node4 -->
<g id="edge4_Node000002_Node000004" class="edge">
<title>Node2&#45;&gt;Node4</title>
<g id="a_edge4_Node000002_Node000004"><a xlink:title=" ">
<path fill="none" stroke="#63b8ff" d="M458.76,-138.08C436.75,-148.02 408.5,-160.79 388.99,-169.61"/>
<polygon fill="#63b8ff" stroke="#63b8ff" points="459.94,-141.39 467.61,-134.08 457.06,-135.01 459.94,-141.39"/>
</a>
</g>
</g>
<!-- Node5 -->
<g id="Node000005" class="node">
<title>Node5</title>
<g id="a_Node000005"><a xlink:href="group___iterator_algorithms.html#gab8ba369b42eda61d010f35df73be73db" target="_top" xlink:title="Zavolání zvolené funkce na každý element množiny od pozice určené iterátorem až do posledního element...">
<polygon fill="white" stroke="#666666" points="400.75,-152 329.25,-152 329.25,-132 400.75,-132 400.75,-152"/>
<text text-anchor="middle" x="365" y="-138.5" font-family="Helvetica,sans-Serif" font-size="10.00">set_for_each</text>
</a>
</g>
</g>
<!-- Node2&#45;&gt;Node5 -->
<g id="edge6_Node000002_Node000005" class="edge">
<title>Node2&#45;&gt;Node5</title>
<g id="a_edge6_Node000002_Node000005"><a xlink:title=" ">
<path fill="none" stroke="#63b8ff" d="M430.29,-132.31C420.26,-133.83 410.18,-135.34 401.08,-136.71"/>
<polygon fill="#63b8ff" stroke="#63b8ff" points="430.69,-135.79 440.06,-130.84 429.65,-128.87 430.69,-135.79"/>
</a>
</g>
</g>
<!-- Node9 -->
<g id="Node000009" class="node">
<title>Node9</title>
<g id="a_Node000009"><a xlink:href="group___main_program.html#ga59363e824664d6f3ebb09b0cd5c44a28" target="_top" xlink:title=" ">
<polygon fill="white" stroke="#666666" points="288,-114 186.5,-114 186.5,-94 288,-94 288,-114"/>
<text text-anchor="middle" x="237.25" y="-100.5" font-family="Helvetica,sans-Serif" font-size="10.00">testset2_hardcoded</text>
</a>
</g>
</g>
<!-- Node2&#45;&gt;Node9 -->
<g id="edge15_Node000002_Node000009" class="edge">
<title>Node2&#45;&gt;Node9</title>
<g id="a_edge15_Node000002_Node000009"><a xlink:title=" ">
<path fill="none" stroke="#63b8ff" d="M430.32,-118.37C386.67,-115.11 328.92,-110.79 288.18,-107.74"/>
<polygon fill="#63b8ff" stroke="#63b8ff" points="429.92,-121.85 440.15,-119.11 430.44,-114.87 429.92,-121.85"/>
</a>
</g>
</g>
<!-- Node10 -->
<g id="Node000010" class="node">
<title>Node10</title>
<g id="a_Node000010"><a xlink:href="group___iterator_algorithms.html#ga8ac257b3b58d1df45282efff565eb78f" target="_top" xlink:title="Zavolání zvolené funkce na prvních N elementů množiny od pozice určené iterátorem.">
<polygon fill="white" stroke="#666666" points="406,-58 324,-58 324,-38 406,-38 406,-58"/>
<text text-anchor="middle" x="365" y="-44.5" font-family="Helvetica,sans-Serif" font-size="10.00">set_for_each_n</text>
</a>
</g>
</g>
<!-- Node2&#45;&gt;Node10 -->
<g id="edge12_Node000002_Node000010" class="edge">
<title>Node2&#45;&gt;Node10</title>
<g id="a_edge12_Node000002_Node000010"><a xlink:title=" ">
<path fill="none" stroke="#63b8ff" d="M464.74,-106.71C440.02,-92.01 404.4,-70.84 383.39,-58.34"/>
<polygon fill="#63b8ff" stroke="#63b8ff" points="462.9,-109.7 473.29,-111.8 466.48,-103.68 462.9,-109.7"/>
</a>
</g>
</g>
<!-- Node11 -->
<g id="Node000011" class="node">
<title>Node11</title>
<g id="a_Node000011"><a xlink:href="group___iterator_algorithms.html#ga7dd39e89482104c1886a0c46fd5ec018" target="_top" xlink:title="Zavolání zvolené funkce na každý element množiny v zadaném rozsahu pozic určených dvěma iterátory.">
<polygon fill="white" stroke="#666666" points="402.25,-20 327.75,-20 327.75,0 402.25,0 402.25,-20"/>
<text text-anchor="middle" x="365" y="-6.5" font-family="Helvetica,sans-Serif" font-size="10.00">set_for_range</text>
</a>
</g>
</g>
<!-- Node2&#45;&gt;Node11 -->
<g id="edge14_Node000002_Node000011" class="edge">
<title>Node2&#45;&gt;Node11</title>
<g id="a_edge14_Node000002_Node000011"><a xlink:title=" ">
<path fill="none" stroke="#63b8ff" d="M478.1,-103.72C462.38,-83.14 435.22,-50.59 406,-29 401.67,-25.8 396.72,-22.93 391.81,-20.45"/>
<polygon fill="#63b8ff" stroke="#63b8ff" points="475.17,-105.63 483.96,-111.54 480.77,-101.44 475.17,-105.63"/>
</a>
</g>
</g>
<!-- Node3&#45;&gt;Node3 -->
<g id="edge3_Node000003_Node000003" class="edge">
<title>Node3&#45;&gt;Node3</title>
<g id="a_edge3_Node000003_Node000003"><a xlink:title=" ">
<path fill="none" stroke="#63b8ff" d="M387.58,-257.44C384.67,-261.3 377.14,-264 365,-264 342.79,-264 336.03,-254.98 344.7,-246.34"/>
<polygon fill="#63b8ff" stroke="#63b8ff" points="391.04,-256.91 385.6,-247.82 384.19,-258.32 391.04,-256.91"/>
</a>
</g>
</g>
<!-- Node4&#45;&gt;Node4 -->
<g id="edge5_Node000004_Node000004" class="edge">
<title>Node4&#45;&gt;Node4</title>
<g id="a_edge5_Node000004_Node000004"><a xlink:title=" ">
<path fill="none" stroke="#63b8ff" d="M387.58,-201.44C384.67,-205.3 377.14,-208 365,-208 342.79,-208 336.03,-198.98 344.7,-190.34"/>
<polygon fill="#63b8ff" stroke="#63b8ff" points="391.04,-200.91 385.6,-191.82 384.19,-202.32 391.04,-200.91"/>
</a>
</g>
</g>
<!-- Node6 -->
<g id="Node000006" class="node">
<title>Node6</title>
<g id="a_Node000006"><a xlink:href="testbench_8c.html#a068734a4e1d6209769e0c6b1675ca02b" target="_top" xlink:title="Provedení jednoho test z testovacího plánu na předaném ADT.">
<polygon fill="white" stroke="#666666" points="262.88,-152 211.62,-152 211.62,-132 262.88,-132 262.88,-152"/>
<text text-anchor="middle" x="237.25" y="-138.5" font-family="Helvetica,sans-Serif" font-size="10.00">test_run</text>
</a>
</g>
</g>
<!-- Node5&#45;&gt;Node6 -->
<g id="edge7_Node000005_Node000006" class="edge">
<title>Node5&#45;&gt;Node6</title>
<g id="a_edge7_Node000005_Node000006"><a xlink:title=" ">
<path fill="none" stroke="#63b8ff" d="M317.52,-142C299.09,-142 278.64,-142 263.13,-142"/>
<polygon fill="#63b8ff" stroke="#63b8ff" points="317.46,-145.5 327.46,-142 317.46,-138.5 317.46,-145.5"/>
</a>
</g>
</g>
<!-- Node5&#45;&gt;Node9 -->
<g id="edge10_Node000005_Node000009" class="edge">
<title>Node5&#45;&gt;Node9</title>
<g id="a_edge10_Node000005_Node000009"><a xlink:title=" ">
<path fill="none" stroke="#63b8ff" d="M318.63,-128.29C303.53,-123.73 286.98,-118.72 272.83,-114.45"/>
<polygon fill="#63b8ff" stroke="#63b8ff" points="317.27,-131.54 327.86,-131.08 319.3,-124.83 317.27,-131.54"/>
</a>
</g>
</g>
<!-- Node7 -->
<g id="Node000007" class="node">
<title>Node7</title>
<g id="a_Node000007"><a xlink:href="testbench_8c.html#a2fa1559684d267665b1c2433208511d3" target="_top" xlink:title="Provedení všech testů zadaného testovacího plánu na předaném ADT.">
<polygon fill="white" stroke="#666666" points="150.5,-152 73,-152 73,-132 150.5,-132 150.5,-152"/>
<text text-anchor="middle" x="111.75" y="-138.5" font-family="Helvetica,sans-Serif" font-size="10.00">testbench_run</text>
</a>
</g>
</g>
<!-- Node6&#45;&gt;Node7 -->
<g id="edge8_Node000006_Node000007" class="edge">
<title>Node6&#45;&gt;Node7</title>
<g id="a_edge8_Node000006_Node000007"><a xlink:title=" ">
<path fill="none" stroke="#63b8ff" d="M200.02,-142C184.56,-142 166.51,-142 150.85,-142"/>
<polygon fill="#63b8ff" stroke="#63b8ff" points="199.74,-145.5 209.74,-142 199.74,-138.5 199.74,-145.5"/>
</a>
</g>
</g>
<!-- Node8 -->
<g id="Node000008" class="node">
<title>Node8</title>
<g id="a_Node000008"><a xlink:href="group___main_program.html#ga0ddf1224851353fc92bfbff6f499fa97" target="_top" xlink:title=" ">
<polygon fill="white" stroke="#666666" points="37,-133 0,-133 0,-113 37,-113 37,-133"/>
<text text-anchor="middle" x="18.5" y="-119.5" font-family="Helvetica,sans-Serif" font-size="10.00">main</text>
</a>
</g>
</g>
<!-- Node7&#45;&gt;Node8 -->
<g id="edge9_Node000007_Node000008" class="edge">
<title>Node7&#45;&gt;Node8</title>
<g id="a_edge9_Node000007_Node000008"><a xlink:title=" ">
<path fill="none" stroke="#63b8ff" d="M61.52,-131.75C52.79,-129.93 44.23,-128.15 37.14,-126.67"/>
<polygon fill="#63b8ff" stroke="#63b8ff" points="60.6,-135.13 71.1,-133.74 62.02,-128.28 60.6,-135.13"/>
</a>
</g>
</g>
<!-- Node9&#45;&gt;Node8 -->
<g id="edge11_Node000009_Node000008" class="edge">
<title>Node9&#45;&gt;Node8</title>
<g id="a_edge11_Node000009_Node000008"><a xlink:title=" ">
<path fill="none" stroke="#63b8ff" d="M175.02,-109.37C128.31,-113.46 67.08,-118.83 37.31,-121.44"/>
<polygon fill="#63b8ff" stroke="#63b8ff" points="175.09,-112.87 184.74,-108.52 174.48,-105.9 175.09,-112.87"/>
</a>
</g>
</g>
<!-- Node10&#45;&gt;Node10 -->
<g id="edge13_Node000010_Node000010" class="edge">
<title>Node10&#45;&gt;Node10</title>
<g id="a_edge13_Node000010_Node000010"><a xlink:title=" ">
<path fill="none" stroke="#63b8ff" d="M387.58,-69.44C384.67,-73.3 377.14,-76 365,-76 342.79,-76 336.03,-66.98 344.7,-58.34"/>
<polygon fill="#63b8ff" stroke="#63b8ff" points="391.04,-68.91 385.6,-59.82 384.19,-70.32 391.04,-68.91"/>
</a>
</g>
</g>
</g>
</svg>
