<?xml version="1.0" encoding="UTF-8" standalone="no"?>
<!DOCTYPE svg PUBLIC "-//W3C//DTD SVG 1.1//EN"
 "http://www.w3.org/Graphics/SVG/1.1/DTD/svg11.dtd">
<!-- Generated by graphviz version 11.0.0 (20240428.1522)
 -->
<!-- Title: set_is_empty Pages: 1 -->
<svg width="424pt" height="160pt"
 viewBox="0.00 0.00 423.75 160.00" xmlns="http://www.w3.org/2000/svg" xmlns:xlink="http://www.w3.org/1999/xlink">
<g id="graph0" class="graph" transform="scale(1 1) rotate(0) translate(4 156)">
<title>set_is_empty</title>
<!-- Node1 -->
<g id="Node000001" class="node">
<title>Node1</title>
<g id="a_Node000001"><a xlink:title="Zjištění, zda je množina prázdná">
<polygon fill="#999999" stroke="#666666" points="415.75,-86 341.25,-86 341.25,-66 415.75,-66 415.75,-86"/>
<text text-anchor="middle" x="378.5" y="-72.5" font-family="Helvetica,sans-Serif" font-size="10.00">set_is_empty</text>
</a>
</g>
</g>
<!-- Node2 -->
<g id="Node000002" class="node">
<title>Node2</title>
<g id="a_Node000002"><a xlink:href="group___t_set.html#ga2a711b02282ff309c0d6a4fdcfbac738" target="_top" xlink:title="Odstranění elementu z množiny.">
<polygon fill="white" stroke="#666666" points="287.25,-152 228.5,-152 228.5,-132 287.25,-132 287.25,-152"/>
<text text-anchor="middle" x="257.88" y="-138.5" font-family="Helvetica,sans-Serif" font-size="10.00">set_erase</text>
</a>
</g>
</g>
<!-- Node1&#45;&gt;Node2 -->
<g id="edge1_Node000001_Node000002" class="edge">
<title>Node1&#45;&gt;Node2</title>
<g id="a_edge1_Node000001_Node000002"><a xlink:title=" ">
<path fill="none" stroke="#63b8ff" d="M350.48,-92.13C336.99,-100.07 320.35,-109.71 305.25,-118 296.83,-122.62 287.43,-127.53 279.31,-131.7"/>
<polygon fill="#63b8ff" stroke="#63b8ff" points="351.99,-95.3 358.81,-87.2 348.43,-89.28 351.99,-95.3"/>
</a>
</g>
</g>
<!-- Node3 -->
<g id="Node000003" class="node">
<title>Node3</title>
<g id="a_Node000003"><a xlink:href="group___main_program.html#ga59363e824664d6f3ebb09b0cd5c44a28" target="_top" xlink:title=" ">
<polygon fill="white" stroke="#666666" points="174.5,-114 73,-114 73,-94 174.5,-94 174.5,-114"/>
<text text-anchor="middle" x="123.75" y="-100.5" font-family="Helvetica,sans-Serif" font-size="10.00">testset2_hardcoded</text>
</a>
</g>
</g>
<!-- Node1&#45;&gt;Node3 -->
<g id="edge8_Node000001_Node000003" class="edge">
<title>Node1&#45;&gt;Node3</title>
<g id="a_edge8_Node000001_Node000003"><a xlink:title=" ">
<path fill="none" stroke="#63b8ff" d="M329.53,-82.11C321.43,-83.1 313.1,-84.1 305.25,-85 261.27,-90.05 211.19,-95.28 174.96,-98.97"/>
<polygon fill="#63b8ff" stroke="#63b8ff" points="329.77,-85.6 339.26,-80.9 328.9,-78.66 329.77,-85.6"/>
</a>
</g>
</g>
<!-- Node5 -->
<g id="Node000005" class="node">
<title>Node5</title>
<g id="a_Node000005"><a xlink:href="group___t_set.html#ga1dab52afdffe1147063314f7cdc5a7c8" target="_top" xlink:title="Získání nového iterátoru ukazujícího na první element se zadanou hodnotou v množině,...">
<polygon fill="white" stroke="#666666" points="282.75,-58 233,-58 233,-38 282.75,-38 282.75,-58"/>
<text text-anchor="middle" x="257.88" y="-44.5" font-family="Helvetica,sans-Serif" font-size="10.00">set_find</text>
</a>
</g>
</g>
<!-- Node1&#45;&gt;Node5 -->
<g id="edge4_Node000001_Node000005" class="edge">
<title>Node1&#45;&gt;Node5</title>
<g id="a_edge4_Node000001_Node000005"><a xlink:title=" ">
<path fill="none" stroke="#63b8ff" d="M330.05,-64.8C313.96,-61 296.65,-56.92 283.13,-53.73"/>
<polygon fill="#63b8ff" stroke="#63b8ff" points="328.93,-68.13 339.47,-67.02 330.54,-61.32 328.93,-68.13"/>
</a>
</g>
</g>
<!-- Node6 -->
<g id="Node000006" class="node">
<title>Node6</title>
<g id="a_Node000006"><a xlink:href="group___t_set.html#ga768d36614713a921e88985484ac63cc1" target="_top" xlink:title="Zjištění, zda množina obsahuje zadanou hodnotu elementu.">
<polygon fill="white" stroke="#666666" points="305.25,-20 210.5,-20 210.5,0 305.25,0 305.25,-20"/>
<text text-anchor="middle" x="257.88" y="-6.5" font-family="Helvetica,sans-Serif" font-size="10.00">set_is_element_of</text>
</a>
</g>
</g>
<!-- Node1&#45;&gt;Node6 -->
<g id="edge6_Node000001_Node000006" class="edge">
<title>Node1&#45;&gt;Node6</title>
<g id="a_edge6_Node000001_Node000006"><a xlink:title=" ">
<path fill="none" stroke="#63b8ff" d="M354.08,-59.16C340.26,-49.63 322.21,-37.89 305.25,-29 299.39,-25.93 292.93,-23.01 286.73,-20.42"/>
<polygon fill="#63b8ff" stroke="#63b8ff" points="351.88,-61.89 362.08,-64.76 355.9,-56.16 351.88,-61.89"/>
</a>
</g>
</g>
<!-- Node2&#45;&gt;Node3 -->
<g id="edge2_Node000002_Node000003" class="edge">
<title>Node2&#45;&gt;Node3</title>
<g id="a_edge2_Node000002_Node000003"><a xlink:title=" ">
<path fill="none" stroke="#63b8ff" d="M217.25,-130.6C199.36,-125.46 178.38,-119.42 160.92,-114.4"/>
<polygon fill="#63b8ff" stroke="#63b8ff" points="216.17,-133.94 226.75,-133.34 218.11,-127.21 216.17,-133.94"/>
</a>
</g>
</g>
<!-- Node4 -->
<g id="Node000004" class="node">
<title>Node4</title>
<g id="a_Node000004"><a xlink:href="group___main_program.html#ga0ddf1224851353fc92bfbff6f499fa97" target="_top" xlink:title=" ">
<polygon fill="white" stroke="#666666" points="37,-114 0,-114 0,-94 37,-94 37,-114"/>
<text text-anchor="middle" x="18.5" y="-100.5" font-family="Helvetica,sans-Serif" font-size="10.00">main</text>
</a>
</g>
</g>
<!-- Node3&#45;&gt;Node4 -->
<g id="edge3_Node000003_Node000004" class="edge">
<title>Node3&#45;&gt;Node4</title>
<g id="a_edge3_Node000003_Node000004"><a xlink:title=" ">
<path fill="none" stroke="#63b8ff" d="M61.34,-104C52.52,-104 44.1,-104 37.15,-104"/>
<polygon fill="#63b8ff" stroke="#63b8ff" points="61.12,-107.5 71.12,-104 61.12,-100.5 61.12,-107.5"/>
</a>
</g>
</g>
<!-- Node5&#45;&gt;Node5 -->
<g id="edge5_Node000005_Node000005" class="edge">
<title>Node5&#45;&gt;Node5</title>
<g id="a_edge5_Node000005_Node000005"><a xlink:title=" ">
<path fill="none" stroke="#63b8ff" d="M279.19,-69.44C276.45,-73.3 269.34,-76 257.88,-76 236.91,-76 230.52,-66.98 238.71,-58.34"/>
<polygon fill="#63b8ff" stroke="#63b8ff" points="282.67,-68.98 277.33,-59.82 275.8,-70.31 282.67,-68.98"/>
</a>
</g>
</g>
<!-- Node6&#45;&gt;Node3 -->
<g id="edge7_Node000006_Node000003" class="edge">
<title>Node6&#45;&gt;Node3</title>
<g id="a_edge7_Node000006_Node000003"><a xlink:title=" ">
<path fill="none" stroke="#63b8ff" d="M217.08,-25.26C214.81,-26.45 212.6,-27.7 210.5,-29 179.88,-47.93 149.46,-77.85 134.43,-93.57"/>
<polygon fill="#63b8ff" stroke="#63b8ff" points="218.32,-28.55 225.84,-21.09 215.31,-22.23 218.32,-28.55"/>
</a>
</g>
</g>
</g>
</svg>
