<?xml version="1.0" encoding="UTF-8" standalone="no"?>
<!DOCTYPE svg PUBLIC "-//W3C//DTD SVG 1.1//EN"
 "http://www.w3.org/Graphics/SVG/1.1/DTD/svg11.dtd">
<!-- Generated by graphviz version 11.0.0 (20240428.1522)
 -->
<!-- Title: set_iterator_value Pages: 1 -->
<svg width="410pt" height="78pt"
 viewBox="0.00 0.00 410.00 78.00" xmlns="http://www.w3.org/2000/svg" xmlns:xlink="http://www.w3.org/1999/xlink">
<g id="graph0" class="graph" transform="scale(1 1) rotate(0) translate(4 74)">
<title>set_iterator_value</title>
<!-- Node1 -->
<g id="Node000001" class="node">
<title>Node1</title>
<g id="a_Node000001"><a xlink:title="Přečtení hodnoty elementu z množiny pomocí iterátoru.">
<polygon fill="#999999" stroke="#666666" points="91.75,-42 0,-42 0,-22 91.75,-22 91.75,-42"/>
<text text-anchor="middle" x="45.88" y="-28.5" font-family="Helvetica,sans-Serif" font-size="10.00">set_iterator_value</text>
</a>
</g>
</g>
<!-- Node2 -->
<g id="Node000002" class="node">
<title>Node2</title>
<g id="a_Node000002"><a xlink:href="group___t_set_unsorted_flex_array.html#ga9e462daa460e7e102258837658e80ceb" target="_top" xlink:title="Přečtení hodnoty elementu z flexibilního pole.">
<polygon fill="white" stroke="#666666" points="231.5,-70 127.75,-70 127.75,-38 231.5,-38 231.5,-70"/>
<text text-anchor="start" x="135.75" y="-56.5" font-family="Helvetica,sans-Serif" font-size="10.00">set_flex_array_value</text>
<text text-anchor="middle" x="179.62" y="-44.5" font-family="Helvetica,sans-Serif" font-size="10.00">_at_pos</text>
</a>
</g>
</g>
<!-- Node1&#45;&gt;Node2 -->
<g id="edge1_Node000001_Node000002" class="edge">
<title>Node1&#45;&gt;Node2</title>
<g id="a_edge1_Node000001_Node000002"><a xlink:title=" ">
<path fill="none" stroke="#63b8ff" d="M92.22,-39.57C99.91,-40.86 108.01,-42.21 116.05,-43.55"/>
<polygon fill="#63b8ff" stroke="#63b8ff" points="115.39,-46.99 125.83,-45.18 116.54,-40.08 115.39,-46.99"/>
</a>
</g>
</g>
<!-- Node3 -->
<g id="Node000003" class="node">
<title>Node3</title>
<g id="a_Node000003"><a xlink:href="group___t_set_iterator.html#ga089f24c81ac3da7d1ac7ca24cc078dd8" target="_top" xlink:title="Zjištění platnosti iterátoru.">
<polygon fill="white" stroke="#666666" points="230.38,-20 128.88,-20 128.88,0 230.38,0 230.38,-20"/>
<text text-anchor="middle" x="179.62" y="-6.5" font-family="Helvetica,sans-Serif" font-size="10.00">set_iterator_is_valid</text>
</a>
</g>
</g>
<!-- Node1&#45;&gt;Node3 -->
<g id="edge2_Node000001_Node000003" class="edge">
<title>Node1&#45;&gt;Node3</title>
<g id="a_edge2_Node000001_Node000003"><a xlink:title=" ">
<path fill="none" stroke="#63b8ff" d="M92.22,-24.43C100.39,-23.06 109.04,-21.62 117.58,-20.19"/>
<polygon fill="#63b8ff" stroke="#63b8ff" points="117.91,-23.69 127.2,-18.59 116.76,-16.78 117.91,-23.69"/>
</a>
</g>
</g>
<!-- Node4 -->
<g id="Node000004" class="node">
<title>Node4</title>
<g id="a_Node000004"><a xlink:href="group___t_set_unsorted_flex_array.html#gad3346f67be35632c3b0fbd9ea616a0c1" target="_top" xlink:title="Zjištění platnosti pozice ve flexibilním poli.">
<polygon fill="white" stroke="#666666" points="402,-20 267.5,-20 267.5,0 402,0 402,-20"/>
<text text-anchor="middle" x="334.75" y="-6.5" font-family="Helvetica,sans-Serif" font-size="10.00">set_flex_array_is_valid_pos</text>
</a>
</g>
</g>
<!-- Node3&#45;&gt;Node4 -->
<g id="edge3_Node000003_Node000004" class="edge">
<title>Node3&#45;&gt;Node4</title>
<g id="a_edge3_Node000003_Node000004"><a xlink:title=" ">
<path fill="none" stroke="#63b8ff" d="M230.76,-10C238.74,-10 247.15,-10 255.59,-10"/>
<polygon fill="#63b8ff" stroke="#63b8ff" points="255.56,-13.5 265.56,-10 255.56,-6.5 255.56,-13.5"/>
</a>
</g>
</g>
</g>
</svg>
