<?xml version="1.0" encoding="UTF-8" standalone="no"?>
<!DOCTYPE svg PUBLIC "-//W3C//DTD SVG 1.1//EN"
 "http://www.w3.org/Graphics/SVG/1.1/DTD/svg11.dtd">
<!-- Generated by graphviz version 11.0.0 (20240428.1522)
 -->
<!-- Title: set_flex_array_destroy Pages: 1 -->
<svg width="436pt" height="47pt"
 viewBox="0.00 0.00 435.75 47.00" xmlns="http://www.w3.org/2000/svg" xmlns:xlink="http://www.w3.org/1999/xlink">
<g id="graph0" class="graph" transform="scale(1 1) rotate(0) translate(4 43)">
<title>set_flex_array_destroy</title>
<!-- Node1 -->
<g id="Node000001" class="node">
<title>Node1</title>
<g id="a_Node000001"><a xlink:title="Deinicializace flexibilního pole.">
<polygon fill="#999999" stroke="#666666" points="427.75,-39 313.5,-39 313.5,-19 427.75,-19 427.75,-39"/>
<text text-anchor="middle" x="370.62" y="-25.5" font-family="Helvetica,sans-Serif" font-size="10.00">set_flex_array_destroy</text>
</a>
</g>
</g>
<!-- Node2 -->
<g id="Node000002" class="node">
<title>Node2</title>
<g id="a_Node000002"><a xlink:href="group___t_set.html#ga8094d1ab68434b8413cd905895ff37ae" target="_top" xlink:title="Deinicializace množiny.">
<polygon fill="white" stroke="#666666" points="277.5,-39 210.5,-39 210.5,-19 277.5,-19 277.5,-39"/>
<text text-anchor="middle" x="244" y="-25.5" font-family="Helvetica,sans-Serif" font-size="10.00">set_destroy</text>
</a>
</g>
</g>
<!-- Node1&#45;&gt;Node2 -->
<g id="edge1_Node000001_Node000002" class="edge">
<title>Node1&#45;&gt;Node2</title>
<g id="a_edge1_Node000001_Node000002"><a xlink:title=" ">
<path fill="none" stroke="#63b8ff" d="M301.77,-29C293.44,-29 285.24,-29 277.78,-29"/>
<polygon fill="#63b8ff" stroke="#63b8ff" points="301.63,-32.5 311.63,-29 301.63,-25.5 301.63,-32.5"/>
</a>
</g>
</g>
<!-- Node3 -->
<g id="Node000003" class="node">
<title>Node3</title>
<g id="a_Node000003"><a xlink:href="group___main_program.html#ga0ddf1224851353fc92bfbff6f499fa97" target="_top" xlink:title=" ">
<polygon fill="white" stroke="#666666" points="37,-39 0,-39 0,-19 37,-19 37,-39"/>
<text text-anchor="middle" x="18.5" y="-25.5" font-family="Helvetica,sans-Serif" font-size="10.00">main</text>
</a>
</g>
</g>
<!-- Node2&#45;&gt;Node3 -->
<g id="edge2_Node000002_Node000003" class="edge">
<title>Node2&#45;&gt;Node3</title>
<g id="a_edge2_Node000002_Node000003"><a xlink:title=" ">
<path fill="none" stroke="#63b8ff" d="M198.73,-29C149.37,-29 71.93,-29 37.29,-29"/>
<polygon fill="#63b8ff" stroke="#63b8ff" points="198.51,-32.5 208.51,-29 198.51,-25.5 198.51,-32.5"/>
</a>
</g>
</g>
<!-- Node4 -->
<g id="Node000004" class="node">
<title>Node4</title>
<g id="a_Node000004"><a xlink:href="group___main_program.html#ga59363e824664d6f3ebb09b0cd5c44a28" target="_top" xlink:title=" ">
<polygon fill="white" stroke="#666666" points="174.5,-20 73,-20 73,0 174.5,0 174.5,-20"/>
<text text-anchor="middle" x="123.75" y="-6.5" font-family="Helvetica,sans-Serif" font-size="10.00">testset2_hardcoded</text>
</a>
</g>
</g>
<!-- Node2&#45;&gt;Node4 -->
<g id="edge3_Node000002_Node000004" class="edge">
<title>Node2&#45;&gt;Node4</title>
<g id="a_edge3_Node000002_Node000004"><a xlink:title=" ">
<path fill="none" stroke="#63b8ff" d="M198.88,-21.91C191.02,-20.65 182.78,-19.32 174.77,-18.04"/>
<polygon fill="#63b8ff" stroke="#63b8ff" points="198.14,-25.34 208.57,-23.47 199.25,-18.43 198.14,-25.34"/>
</a>
</g>
</g>
<!-- Node4&#45;&gt;Node3 -->
<g id="edge4_Node000004_Node000003" class="edge">
<title>Node4&#45;&gt;Node3</title>
<g id="a_edge4_Node000004_Node000003"><a xlink:title=" ">
<path fill="none" stroke="#63b8ff" d="M61.34,-21.3C52.52,-22.92 44.1,-24.47 37.15,-25.75"/>
<polygon fill="#63b8ff" stroke="#63b8ff" points="61.95,-24.75 71.15,-19.5 60.68,-17.86 61.95,-24.75"/>
</a>
</g>
</g>
</g>
</svg>
