<?xml version="1.0" encoding="UTF-8" standalone="no"?>
<!DOCTYPE svg PUBLIC "-//W3C//DTD SVG 1.1//EN"
 "http://www.w3.org/Graphics/SVG/1.1/DTD/svg11.dtd">
<!-- Generated by graphviz version 11.0.0 (20240428.1522)
 -->
<!-- Title: set_element_comparator Pages: 1 -->
<svg width="762pt" height="160pt"
 viewBox="0.00 0.00 761.75 160.00" xmlns="http://www.w3.org/2000/svg" xmlns:xlink="http://www.w3.org/1999/xlink">
<g id="graph0" class="graph" transform="scale(1 1) rotate(0) translate(4 156)">
<title>set_element_comparator</title>
<!-- Node1 -->
<g id="Node000001" class="node">
<title>Node1</title>
<g id="a_Node000001"><a xlink:title="Porovnání dvou elementů">
<polygon fill="#999999" stroke="#666666" points="753.75,-77 630.5,-77 630.5,-57 753.75,-57 753.75,-77"/>
<text text-anchor="middle" x="692.12" y="-63.5" font-family="Helvetica,sans-Serif" font-size="10.00">set_element_comparator</text>
</a>
</g>
</g>
<!-- Node2 -->
<g id="Node000002" class="node">
<title>Node2</title>
<g id="a_Node000002"><a xlink:href="group___t_set_unsorted_flex_array.html#ga5d5631db0bf286d944f4e538a072c2eb" target="_top" xlink:title="Funkce zjišťující, zda flexibilní pole obsahuje element o zadané hodnotě">
<polygon fill="white" stroke="#666666" points="594.5,-77 483.25,-77 483.25,-57 594.5,-57 594.5,-77"/>
<text text-anchor="middle" x="538.88" y="-63.5" font-family="Helvetica,sans-Serif" font-size="10.00">set_flex_array_search</text>
</a>
</g>
</g>
<!-- Node1&#45;&gt;Node2 -->
<g id="edge1_Node000001_Node000002" class="edge">
<title>Node1&#45;&gt;Node2</title>
<g id="a_edge1_Node000001_Node000002"><a xlink:title=" ">
<path fill="none" stroke="#63b8ff" d="M618.75,-67C610.71,-67 602.62,-67 594.84,-67"/>
<polygon fill="#63b8ff" stroke="#63b8ff" points="618.53,-70.5 628.53,-67 618.53,-63.5 618.53,-70.5"/>
</a>
</g>
</g>
<!-- Node3 -->
<g id="Node000003" class="node">
<title>Node3</title>
<g id="a_Node000003"><a xlink:href="group___t_set.html#ga1dab52afdffe1147063314f7cdc5a7c8" target="_top" xlink:title="Získání nového iterátoru ukazujícího na první element se zadanou hodnotou v množině,...">
<polygon fill="white" stroke="#666666" points="419.12,-134 369.38,-134 369.38,-114 419.12,-114 419.12,-134"/>
<text text-anchor="middle" x="394.25" y="-120.5" font-family="Helvetica,sans-Serif" font-size="10.00">set_find</text>
</a>
</g>
</g>
<!-- Node2&#45;&gt;Node3 -->
<g id="edge2_Node000002_Node000003" class="edge">
<title>Node2&#45;&gt;Node3</title>
<g id="a_edge2_Node000002_Node000003"><a xlink:title=" ">
<path fill="none" stroke="#63b8ff" d="M503.3,-81.94C486.47,-89.11 465.88,-97.69 447.25,-105 438.21,-108.54 428.21,-112.25 419.42,-115.44"/>
<polygon fill="#63b8ff" stroke="#63b8ff" points="504.56,-85.21 512.38,-78.06 501.8,-78.78 504.56,-85.21"/>
</a>
</g>
</g>
<!-- Node4 -->
<g id="Node000004" class="node">
<title>Node4</title>
<g id="a_Node000004"><a xlink:href="group___t_set_unsorted_flex_array.html#ga85a89d1ea648e9219f9c904727c8f7ef" target="_top" xlink:title="Odstranění elementu z flexibilního pole.">
<polygon fill="white" stroke="#666666" points="447.25,-96 341.25,-96 341.25,-76 447.25,-76 447.25,-96"/>
<text text-anchor="middle" x="394.25" y="-82.5" font-family="Helvetica,sans-Serif" font-size="10.00">set_flex_array_erase</text>
</a>
</g>
</g>
<!-- Node2&#45;&gt;Node4 -->
<g id="edge4_Node000002_Node000004" class="edge">
<title>Node2&#45;&gt;Node4</title>
<g id="a_edge4_Node000002_Node000004"><a xlink:title=" ">
<path fill="none" stroke="#63b8ff" d="M471.82,-75.8C463.74,-76.88 455.57,-77.96 447.73,-79.01"/>
<polygon fill="#63b8ff" stroke="#63b8ff" points="472.19,-79.28 481.64,-74.49 471.27,-72.34 472.19,-79.28"/>
</a>
</g>
</g>
<!-- Node8 -->
<g id="Node000008" class="node">
<title>Node8</title>
<g id="a_Node000008"><a xlink:href="group___t_set_unsorted_flex_array.html#gadd504f9127a4e850da202073bddd6024" target="_top" xlink:title="Vložení elementu do flexibilního pole.">
<polygon fill="white" stroke="#666666" points="447.25,-58 341.25,-58 341.25,-38 447.25,-38 447.25,-58"/>
<text text-anchor="middle" x="394.25" y="-44.5" font-family="Helvetica,sans-Serif" font-size="10.00">set_flex_array_insert</text>
</a>
</g>
</g>
<!-- Node2&#45;&gt;Node8 -->
<g id="edge8_Node000002_Node000008" class="edge">
<title>Node2&#45;&gt;Node8</title>
<g id="a_edge8_Node000002_Node000008"><a xlink:title=" ">
<path fill="none" stroke="#63b8ff" d="M471.82,-58.2C463.74,-57.12 455.57,-56.04 447.73,-54.99"/>
<polygon fill="#63b8ff" stroke="#63b8ff" points="471.27,-61.66 481.64,-59.51 472.19,-54.72 471.27,-61.66"/>
</a>
</g>
</g>
<!-- Node10 -->
<g id="Node000010" class="node">
<title>Node10</title>
<g id="a_Node000010"><a xlink:href="group___t_set.html#ga768d36614713a921e88985484ac63cc1" target="_top" xlink:title="Zjištění, zda množina obsahuje zadanou hodnotu elementu.">
<polygon fill="white" stroke="#666666" points="305.25,-20 210.5,-20 210.5,0 305.25,0 305.25,-20"/>
<text text-anchor="middle" x="257.88" y="-6.5" font-family="Helvetica,sans-Serif" font-size="10.00">set_is_element_of</text>
</a>
</g>
</g>
<!-- Node2&#45;&gt;Node10 -->
<g id="edge11_Node000002_Node000010" class="edge">
<title>Node2&#45;&gt;Node10</title>
<g id="a_edge11_Node000002_Node000010"><a xlink:title=" ">
<path fill="none" stroke="#63b8ff" d="M507.91,-51.78C490.61,-43.68 468.2,-34.32 447.25,-29 399.94,-16.98 344.13,-12.51 305.6,-10.88"/>
<polygon fill="#63b8ff" stroke="#63b8ff" points="506.06,-54.78 516.59,-55.96 509.1,-48.47 506.06,-54.78"/>
</a>
</g>
</g>
<!-- Node3&#45;&gt;Node3 -->
<g id="edge3_Node000003_Node000003" class="edge">
<title>Node3&#45;&gt;Node3</title>
<g id="a_edge3_Node000003_Node000003"><a xlink:title=" ">
<path fill="none" stroke="#63b8ff" d="M418.35,-145.44C415.25,-149.3 407.21,-152 394.25,-152 370.54,-152 363.32,-142.98 372.58,-134.34"/>
<polygon fill="#63b8ff" stroke="#63b8ff" points="421.8,-144.84 416.24,-135.82 414.97,-146.33 421.8,-144.84"/>
</a>
</g>
</g>
<!-- Node5 -->
<g id="Node000005" class="node">
<title>Node5</title>
<g id="a_Node000005"><a xlink:href="group___t_set.html#ga2a711b02282ff309c0d6a4fdcfbac738" target="_top" xlink:title="Odstranění elementu z množiny.">
<polygon fill="white" stroke="#666666" points="287.25,-96 228.5,-96 228.5,-76 287.25,-76 287.25,-96"/>
<text text-anchor="middle" x="257.88" y="-82.5" font-family="Helvetica,sans-Serif" font-size="10.00">set_erase</text>
</a>
</g>
</g>
<!-- Node4&#45;&gt;Node5 -->
<g id="edge5_Node000004_Node000005" class="edge">
<title>Node4&#45;&gt;Node5</title>
<g id="a_edge5_Node000004_Node000005"><a xlink:title=" ">
<path fill="none" stroke="#63b8ff" d="M329.72,-86C314.97,-86 299.98,-86 287.62,-86"/>
<polygon fill="#63b8ff" stroke="#63b8ff" points="329.4,-89.5 339.4,-86 329.4,-82.5 329.4,-89.5"/>
</a>
</g>
</g>
<!-- Node6 -->
<g id="Node000006" class="node">
<title>Node6</title>
<g id="a_Node000006"><a xlink:href="group___main_program.html#ga59363e824664d6f3ebb09b0cd5c44a28" target="_top" xlink:title=" ">
<polygon fill="white" stroke="#666666" points="174.5,-58 73,-58 73,-38 174.5,-38 174.5,-58"/>
<text text-anchor="middle" x="123.75" y="-44.5" font-family="Helvetica,sans-Serif" font-size="10.00">testset2_hardcoded</text>
</a>
</g>
</g>
<!-- Node5&#45;&gt;Node6 -->
<g id="edge6_Node000005_Node000006" class="edge">
<title>Node5&#45;&gt;Node6</title>
<g id="a_edge6_Node000005_Node000006"><a xlink:title=" ">
<path fill="none" stroke="#63b8ff" d="M217.25,-74.6C199.36,-69.46 178.38,-63.42 160.92,-58.4"/>
<polygon fill="#63b8ff" stroke="#63b8ff" points="216.17,-77.94 226.75,-77.34 218.11,-71.21 216.17,-77.94"/>
</a>
</g>
</g>
<!-- Node7 -->
<g id="Node000007" class="node">
<title>Node7</title>
<g id="a_Node000007"><a xlink:href="group___main_program.html#ga0ddf1224851353fc92bfbff6f499fa97" target="_top" xlink:title=" ">
<polygon fill="white" stroke="#666666" points="37,-58 0,-58 0,-38 37,-38 37,-58"/>
<text text-anchor="middle" x="18.5" y="-44.5" font-family="Helvetica,sans-Serif" font-size="10.00">main</text>
</a>
</g>
</g>
<!-- Node6&#45;&gt;Node7 -->
<g id="edge7_Node000006_Node000007" class="edge">
<title>Node6&#45;&gt;Node7</title>
<g id="a_edge7_Node000006_Node000007"><a xlink:title=" ">
<path fill="none" stroke="#63b8ff" d="M61.34,-48C52.52,-48 44.1,-48 37.15,-48"/>
<polygon fill="#63b8ff" stroke="#63b8ff" points="61.12,-51.5 71.12,-48 61.12,-44.5 61.12,-51.5"/>
</a>
</g>
</g>
<!-- Node9 -->
<g id="Node000009" class="node">
<title>Node9</title>
<g id="a_Node000009"><a xlink:href="group___t_set.html#ga0d1464cea78691ff9ad3dd1e32b55c60" target="_top" xlink:title="Vložení elementu do množiny.">
<polygon fill="white" stroke="#666666" points="287.25,-58 228.5,-58 228.5,-38 287.25,-38 287.25,-58"/>
<text text-anchor="middle" x="257.88" y="-44.5" font-family="Helvetica,sans-Serif" font-size="10.00">set_insert</text>
</a>
</g>
</g>
<!-- Node8&#45;&gt;Node9 -->
<g id="edge9_Node000008_Node000009" class="edge">
<title>Node8&#45;&gt;Node9</title>
<g id="a_edge9_Node000008_Node000009"><a xlink:title=" ">
<path fill="none" stroke="#63b8ff" d="M329.72,-48C314.97,-48 299.98,-48 287.62,-48"/>
<polygon fill="#63b8ff" stroke="#63b8ff" points="329.4,-51.5 339.4,-48 329.4,-44.5 329.4,-51.5"/>
</a>
</g>
</g>
<!-- Node9&#45;&gt;Node6 -->
<g id="edge10_Node000009_Node000006" class="edge">
<title>Node9&#45;&gt;Node6</title>
<g id="a_edge10_Node000009_Node000006"><a xlink:title=" ">
<path fill="none" stroke="#63b8ff" d="M217.06,-48C203.81,-48 188.88,-48 174.95,-48"/>
<polygon fill="#63b8ff" stroke="#63b8ff" points="216.69,-51.5 226.69,-48 216.69,-44.5 216.69,-51.5"/>
</a>
</g>
</g>
<!-- Node10&#45;&gt;Node6 -->
<g id="edge12_Node000010_Node000006" class="edge">
<title>Node10&#45;&gt;Node6</title>
<g id="a_edge12_Node000010_Node000006"><a xlink:title=" ">
<path fill="none" stroke="#63b8ff" d="M209.66,-23.58C193.68,-28.18 176.09,-33.23 161.08,-37.55"/>
<polygon fill="#63b8ff" stroke="#63b8ff" points="210.32,-27.03 218.97,-20.9 208.39,-20.3 210.32,-27.03"/>
</a>
</g>
</g>
</g>
</svg>
