<?xml version="1.0" encoding="UTF-8" standalone="no"?>
<!DOCTYPE svg PUBLIC "-//W3C//DTD SVG 1.1//EN"
 "http://www.w3.org/Graphics/SVG/1.1/DTD/svg11.dtd">
<!-- Generated by graphviz version 11.0.0 (20240428.1522)
 -->
<!-- Title: set_flex_array_is_valid_pos Pages: 1 -->
<svg width="864pt" height="362pt"
 viewBox="0.00 0.00 864.00 362.07" xmlns="http://www.w3.org/2000/svg" xmlns:xlink="http://www.w3.org/1999/xlink">
<g id="graph0" class="graph" transform="scale(1 1) rotate(0) translate(4 358.07)">
<title>set_flex_array_is_valid_pos</title>
<!-- Node1 -->
<g id="Node000001" class="node">
<title>Node1</title>
<g id="a_Node000001"><a xlink:title="Zjištění platnosti pozice ve flexibilním poli.">
<polygon fill="#999999" stroke="#666666" points="856,-203.07 721.5,-203.07 721.5,-183.07 856,-183.07 856,-203.07"/>
<text text-anchor="middle" x="788.75" y="-189.57" font-family="Helvetica,sans-Serif" font-size="10.00">set_flex_array_is_valid_pos</text>
</a>
</g>
</g>
<!-- Node2 -->
<g id="Node000002" class="node">
<title>Node2</title>
<g id="a_Node000002"><a xlink:href="group___t_set_iterator.html#ga089f24c81ac3da7d1ac7ca24cc078dd8" target="_top" xlink:title="Zjištění platnosti iterátoru.">
<polygon fill="white" stroke="#666666" points="685.5,-175.07 584,-175.07 584,-155.07 685.5,-155.07 685.5,-175.07"/>
<text text-anchor="middle" x="634.75" y="-161.57" font-family="Helvetica,sans-Serif" font-size="10.00">set_iterator_is_valid</text>
</a>
</g>
</g>
<!-- Node1&#45;&gt;Node2 -->
<g id="edge1_Node000001_Node000002" class="edge">
<title>Node1&#45;&gt;Node2</title>
<g id="a_edge1_Node000001_Node000002"><a xlink:title=" ">
<path fill="none" stroke="#63b8ff" d="M719.85,-180.56C708.43,-178.46 696.76,-176.31 685.89,-174.31"/>
<polygon fill="#63b8ff" stroke="#63b8ff" points="719.19,-184 729.66,-182.37 720.46,-177.12 719.19,-184"/>
</a>
</g>
</g>
<!-- Node13 -->
<g id="Node000013" class="node">
<title>Node13</title>
<g id="a_Node000013"><a xlink:href="group___t_set_iterator.html#ga6723a05c864198597ff49718020bd0d6" target="_top" xlink:title="Posunutí iterátoru vpřed.">
<polygon fill="white" stroke="#666666" points="546.12,-242.07 443.88,-242.07 443.88,-222.07 546.12,-222.07 546.12,-242.07"/>
<text text-anchor="middle" x="495" y="-228.57" font-family="Helvetica,sans-Serif" font-size="10.00">set_iterator_to_next</text>
</a>
</g>
</g>
<!-- Node1&#45;&gt;Node13 -->
<g id="edge30_Node000001_Node000013" class="edge">
<title>Node1&#45;&gt;Node13</title>
<g id="a_edge30_Node000001_Node000013"><a xlink:title=" ">
<path fill="none" stroke="#63b8ff" d="M710.02,-203.46C658.13,-210.4 591.41,-219.32 546.37,-225.34"/>
<polygon fill="#63b8ff" stroke="#63b8ff" points="710.23,-206.96 719.68,-202.17 709.31,-200.02 710.23,-206.96"/>
</a>
</g>
</g>
<!-- Node3 -->
<g id="Node000003" class="node">
<title>Node3</title>
<g id="a_Node000003"><a xlink:href="group___iterator_algorithms.html#ga1785c6060679dcab5e6781b66659dbf3" target="_top" xlink:title="Vyhledání prvního elementu množiny splňujícího zadaný predikát.">
<polygon fill="white" stroke="#666666" points="394.75,-336.07 335.25,-336.07 335.25,-316.07 394.75,-316.07 394.75,-336.07"/>
<text text-anchor="middle" x="365" y="-322.57" font-family="Helvetica,sans-Serif" font-size="10.00">set_find_if</text>
</a>
</g>
</g>
<!-- Node2&#45;&gt;Node3 -->
<g id="edge2_Node000002_Node000003" class="edge">
<title>Node2&#45;&gt;Node3</title>
<g id="a_edge2_Node000002_Node000003"><a xlink:title=" ">
<path fill="none" stroke="#63b8ff" d="M623.46,-185.34C609.69,-210.42 582.89,-252.68 548,-276.07 500.51,-307.91 433.2,-319.57 395.15,-323.77"/>
<polygon fill="#63b8ff" stroke="#63b8ff" points="626.41,-187.26 628,-176.78 620.22,-183.98 626.41,-187.26"/>
</a>
</g>
</g>
<!-- Node4 -->
<g id="Node000004" class="node">
<title>Node4</title>
<g id="a_Node000004"><a xlink:href="group___iterator_algorithms.html#ga8ca52ed8ac7c0be83a19c7ed10f813cd" target="_top" xlink:title="Vyhledání prvního elementu množiny nesplňujícího zadaný predikát.">
<polygon fill="white" stroke="#666666" points="404.12,-280.07 325.88,-280.07 325.88,-260.07 404.12,-260.07 404.12,-280.07"/>
<text text-anchor="middle" x="365" y="-266.57" font-family="Helvetica,sans-Serif" font-size="10.00">set_find_if_not</text>
</a>
</g>
</g>
<!-- Node2&#45;&gt;Node4 -->
<g id="edge4_Node000002_Node000004" class="edge">
<title>Node2&#45;&gt;Node4</title>
<g id="a_edge4_Node000002_Node000004"><a xlink:title=" ">
<path fill="none" stroke="#63b8ff" d="M620.41,-184.86C605.42,-205.3 579.09,-236.23 548,-251.07 502.27,-272.9 442.88,-274.9 404.59,-273.31"/>
<polygon fill="#63b8ff" stroke="#63b8ff" points="623.22,-186.95 626.13,-176.77 617.5,-182.92 623.22,-186.95"/>
</a>
</g>
</g>
<!-- Node5 -->
<g id="Node000005" class="node">
<title>Node5</title>
<g id="a_Node000005"><a xlink:href="group___iterator_algorithms.html#gab8ba369b42eda61d010f35df73be73db" target="_top" xlink:title="Zavolání zvolené funkce na každý element množiny od pozice určené iterátorem až do posledního element...">
<polygon fill="white" stroke="#666666" points="400.75,-242.07 329.25,-242.07 329.25,-222.07 400.75,-222.07 400.75,-242.07"/>
<text text-anchor="middle" x="365" y="-228.57" font-family="Helvetica,sans-Serif" font-size="10.00">set_for_each</text>
</a>
</g>
</g>
<!-- Node2&#45;&gt;Node5 -->
<g id="edge6_Node000002_Node000005" class="edge">
<title>Node2&#45;&gt;Node5</title>
<g id="a_edge6_Node000002_Node000005"><a xlink:title=" ">
<path fill="none" stroke="#63b8ff" d="M580.99,-178.27C527.75,-191.6 447.02,-211.79 401.14,-223.28"/>
<polygon fill="#63b8ff" stroke="#63b8ff" points="581.59,-181.73 590.45,-175.91 579.9,-174.94 581.59,-181.73"/>
</a>
</g>
</g>
<!-- Node9 -->
<g id="Node000009" class="node">
<title>Node9</title>
<g id="a_Node000009"><a xlink:href="group___main_program.html#ga59363e824664d6f3ebb09b0cd5c44a28" target="_top" xlink:title=" ">
<polygon fill="white" stroke="#666666" points="288,-72.07 186.5,-72.07 186.5,-52.07 288,-52.07 288,-72.07"/>
<text text-anchor="middle" x="237.25" y="-58.57" font-family="Helvetica,sans-Serif" font-size="10.00">testset2_hardcoded</text>
</a>
</g>
</g>
<!-- Node2&#45;&gt;Node9 -->
<g id="edge29_Node000002_Node000009" class="edge">
<title>Node2&#45;&gt;Node9</title>
<g id="a_edge29_Node000002_Node000009"><a xlink:title=" ">
<path fill="none" stroke="#63b8ff" d="M628.1,-143.63C618.14,-110.77 594.04,-49.05 548,-23.07 451,31.67 310.13,-26.6 258.33,-51.73"/>
<polygon fill="#63b8ff" stroke="#63b8ff" points="624.72,-144.56 630.82,-153.22 631.45,-142.64 624.72,-144.56"/>
</a>
</g>
</g>
<!-- Node10 -->
<g id="Node000010" class="node">
<title>Node10</title>
<g id="a_Node000010"><a xlink:href="group___iterator_algorithms.html#ga8ac257b3b58d1df45282efff565eb78f" target="_top" xlink:title="Zavolání zvolené funkce na prvních N elementů množiny od pozice určené iterátorem.">
<polygon fill="white" stroke="#666666" points="406,-148.07 324,-148.07 324,-128.07 406,-128.07 406,-148.07"/>
<text text-anchor="middle" x="365" y="-134.57" font-family="Helvetica,sans-Serif" font-size="10.00">set_for_each_n</text>
</a>
</g>
</g>
<!-- Node2&#45;&gt;Node10 -->
<g id="edge12_Node000002_Node000010" class="edge">
<title>Node2&#45;&gt;Node10</title>
<g id="a_edge12_Node000002_Node000010"><a xlink:title=" ">
<path fill="none" stroke="#63b8ff" d="M572.49,-158.89C521.46,-153.75 450.26,-146.57 406.19,-142.12"/>
<polygon fill="#63b8ff" stroke="#63b8ff" points="571.9,-162.35 582.2,-159.87 572.6,-155.39 571.9,-162.35"/>
</a>
</g>
</g>
<!-- Node11 -->
<g id="Node000011" class="node">
<title>Node11</title>
<g id="a_Node000011"><a xlink:href="group___iterator_algorithms.html#ga7dd39e89482104c1886a0c46fd5ec018" target="_top" xlink:title="Zavolání zvolené funkce na každý element množiny v zadaném rozsahu pozic určených dvěma iterátory.">
<polygon fill="white" stroke="#666666" points="402.25,-110.07 327.75,-110.07 327.75,-90.07 402.25,-90.07 402.25,-110.07"/>
<text text-anchor="middle" x="365" y="-96.57" font-family="Helvetica,sans-Serif" font-size="10.00">set_for_range</text>
</a>
</g>
</g>
<!-- Node2&#45;&gt;Node11 -->
<g id="edge14_Node000002_Node000011" class="edge">
<title>Node2&#45;&gt;Node11</title>
<g id="a_edge14_Node000002_Node000011"><a xlink:title=" ">
<path fill="none" stroke="#63b8ff" d="M585.03,-151.68C572.95,-148.45 560.02,-145.07 548,-142.07 497.82,-129.55 439.52,-116.33 402.69,-108.14"/>
<polygon fill="#63b8ff" stroke="#63b8ff" points="583.81,-154.98 594.37,-154.2 585.63,-148.22 583.81,-154.98"/>
</a>
</g>
</g>
<!-- Node12 -->
<g id="Node000012" class="node">
<title>Node12</title>
<g id="a_Node000012"><a xlink:href="group___t_set_iterator.html#ga9897d99975ad2adadb6ed86c9018560e" target="_top" xlink:title="Test shodnosti dvou iterátorů">
<polygon fill="white" stroke="#666666" points="548,-90.07 442,-90.07 442,-70.07 548,-70.07 548,-90.07"/>
<text text-anchor="middle" x="495" y="-76.57" font-family="Helvetica,sans-Serif" font-size="10.00">set_iterator_is_equal</text>
</a>
</g>
</g>
<!-- Node2&#45;&gt;Node12 -->
<g id="edge15_Node000002_Node000012" class="edge">
<title>Node2&#45;&gt;Node12</title>
<g id="a_edge15_Node000002_Node000012"><a xlink:title=" ">
<path fill="none" stroke="#63b8ff" d="M611.86,-147.78C594.97,-134.86 570.73,-117.24 548,-104.07 539.48,-99.13 529.78,-94.43 521.08,-90.51"/>
<polygon fill="#63b8ff" stroke="#63b8ff" points="609.65,-150.49 619.7,-153.84 613.93,-144.95 609.65,-150.49"/>
</a>
</g>
</g>
<!-- Node2&#45;&gt;Node13 -->
<g id="edge17_Node000002_Node000013" class="edge">
<title>Node2&#45;&gt;Node13</title>
<g id="a_edge17_Node000002_Node000013"><a xlink:title=" ">
<path fill="none" stroke="#63b8ff" d="M603.33,-180.63C586.99,-188.9 566.46,-199.18 548,-208.07 538.59,-212.6 528.15,-217.45 519.11,-221.6"/>
<polygon fill="#63b8ff" stroke="#63b8ff" points="604.72,-183.84 612.05,-176.19 601.55,-177.6 604.72,-183.84"/>
</a>
</g>
</g>
<!-- Node14 -->
<g id="Node000014" class="node">
<title>Node14</title>
<g id="a_Node000014"><a xlink:href="group___t_set_iterator.html#ga3928a980e2759ba130ce333e77f15fab" target="_top" xlink:title="Přečtení hodnoty elementu z množiny pomocí iterátoru.">
<polygon fill="white" stroke="#666666" points="540.88,-52.07 449.12,-52.07 449.12,-32.07 540.88,-32.07 540.88,-52.07"/>
<text text-anchor="middle" x="495" y="-38.57" font-family="Helvetica,sans-Serif" font-size="10.00">set_iterator_value</text>
</a>
</g>
</g>
<!-- Node2&#45;&gt;Node14 -->
<g id="edge24_Node000002_Node000014" class="edge">
<title>Node2&#45;&gt;Node14</title>
<g id="a_edge24_Node000002_Node000014"><a xlink:title=" ">
<path fill="none" stroke="#63b8ff" d="M621.98,-145.16C607.35,-121.97 580.3,-83.93 548,-61.07 543.21,-57.68 537.76,-54.83 532.22,-52.45"/>
<polygon fill="#63b8ff" stroke="#63b8ff" points="618.81,-146.67 627.02,-153.37 624.77,-143.01 618.81,-146.67"/>
</a>
</g>
</g>
<!-- Node3&#45;&gt;Node3 -->
<g id="edge3_Node000003_Node000003" class="edge">
<title>Node3&#45;&gt;Node3</title>
<g id="a_edge3_Node000003_Node000003"><a xlink:title=" ">
<path fill="none" stroke="#63b8ff" d="M387.58,-347.51C384.67,-351.37 377.14,-354.07 365,-354.07 342.79,-354.07 336.03,-345.05 344.7,-336.41"/>
<polygon fill="#63b8ff" stroke="#63b8ff" points="391.04,-346.98 385.6,-337.89 384.19,-348.39 391.04,-346.98"/>
</a>
</g>
</g>
<!-- Node4&#45;&gt;Node4 -->
<g id="edge5_Node000004_Node000004" class="edge">
<title>Node4&#45;&gt;Node4</title>
<g id="a_edge5_Node000004_Node000004"><a xlink:title=" ">
<path fill="none" stroke="#63b8ff" d="M387.58,-291.51C384.67,-295.37 377.14,-298.07 365,-298.07 342.79,-298.07 336.03,-289.05 344.7,-280.41"/>
<polygon fill="#63b8ff" stroke="#63b8ff" points="391.04,-290.98 385.6,-281.89 384.19,-292.39 391.04,-290.98"/>
</a>
</g>
</g>
<!-- Node6 -->
<g id="Node000006" class="node">
<title>Node6</title>
<g id="a_Node000006"><a xlink:href="testbench_8c.html#a068734a4e1d6209769e0c6b1675ca02b" target="_top" xlink:title="Provedení jednoho test z testovacího plánu na předaném ADT.">
<polygon fill="white" stroke="#666666" points="262.88,-110.07 211.62,-110.07 211.62,-90.07 262.88,-90.07 262.88,-110.07"/>
<text text-anchor="middle" x="237.25" y="-96.57" font-family="Helvetica,sans-Serif" font-size="10.00">test_run</text>
</a>
</g>
</g>
<!-- Node5&#45;&gt;Node6 -->
<g id="edge7_Node000005_Node000006" class="edge">
<title>Node5&#45;&gt;Node6</title>
<g id="a_edge7_Node000005_Node000006"><a xlink:title=" ">
<path fill="none" stroke="#63b8ff" d="M333.79,-215.57C330.36,-213.23 327.01,-210.71 324,-208.07 288.9,-177.28 257.52,-130.73 244.56,-110.3"/>
<polygon fill="#63b8ff" stroke="#63b8ff" points="331.89,-218.52 342.22,-220.87 335.61,-212.59 331.89,-218.52"/>
</a>
</g>
</g>
<!-- Node5&#45;&gt;Node9 -->
<g id="edge10_Node000005_Node000009" class="edge">
<title>Node5&#45;&gt;Node9</title>
<g id="a_edge10_Node000005_Node000009"><a xlink:title=" ">
<path fill="none" stroke="#63b8ff" d="M330.89,-215.19C328.34,-213.03 325.98,-210.66 324,-208.07 288.34,-161.48 327.61,-124.35 288,-81.07 284.88,-77.66 281.08,-74.86 276.99,-72.55"/>
<polygon fill="#63b8ff" stroke="#63b8ff" points="328.68,-217.92 338.87,-220.82 332.72,-212.2 328.68,-217.92"/>
</a>
</g>
</g>
<!-- Node7 -->
<g id="Node000007" class="node">
<title>Node7</title>
<g id="a_Node000007"><a xlink:href="testbench_8c.html#a2fa1559684d267665b1c2433208511d3" target="_top" xlink:title="Provedení všech testů zadaného testovacího plánu na předaném ADT.">
<polygon fill="white" stroke="#666666" points="150.5,-110.07 73,-110.07 73,-90.07 150.5,-90.07 150.5,-110.07"/>
<text text-anchor="middle" x="111.75" y="-96.57" font-family="Helvetica,sans-Serif" font-size="10.00">testbench_run</text>
</a>
</g>
</g>
<!-- Node6&#45;&gt;Node7 -->
<g id="edge8_Node000006_Node000007" class="edge">
<title>Node6&#45;&gt;Node7</title>
<g id="a_edge8_Node000006_Node000007"><a xlink:title=" ">
<path fill="none" stroke="#63b8ff" d="M200.02,-100.07C184.56,-100.07 166.51,-100.07 150.85,-100.07"/>
<polygon fill="#63b8ff" stroke="#63b8ff" points="199.74,-103.57 209.74,-100.07 199.74,-96.57 199.74,-103.57"/>
</a>
</g>
</g>
<!-- Node8 -->
<g id="Node000008" class="node">
<title>Node8</title>
<g id="a_Node000008"><a xlink:href="group___main_program.html#ga0ddf1224851353fc92bfbff6f499fa97" target="_top" xlink:title=" ">
<polygon fill="white" stroke="#666666" points="37,-91.07 0,-91.07 0,-71.07 37,-71.07 37,-91.07"/>
<text text-anchor="middle" x="18.5" y="-77.57" font-family="Helvetica,sans-Serif" font-size="10.00">main</text>
</a>
</g>
</g>
<!-- Node7&#45;&gt;Node8 -->
<g id="edge9_Node000007_Node000008" class="edge">
<title>Node7&#45;&gt;Node8</title>
<g id="a_edge9_Node000007_Node000008"><a xlink:title=" ">
<path fill="none" stroke="#63b8ff" d="M61.52,-89.82C52.79,-88 44.23,-86.22 37.14,-84.74"/>
<polygon fill="#63b8ff" stroke="#63b8ff" points="60.6,-93.2 71.1,-91.81 62.02,-86.35 60.6,-93.2"/>
</a>
</g>
</g>
<!-- Node9&#45;&gt;Node8 -->
<g id="edge11_Node000009_Node000008" class="edge">
<title>Node9&#45;&gt;Node8</title>
<g id="a_edge11_Node000009_Node000008"><a xlink:title=" ">
<path fill="none" stroke="#63b8ff" d="M175.02,-67.44C128.31,-71.53 67.08,-76.9 37.31,-79.51"/>
<polygon fill="#63b8ff" stroke="#63b8ff" points="175.09,-70.94 184.74,-66.58 174.48,-63.97 175.09,-70.94"/>
</a>
</g>
</g>
<!-- Node10&#45;&gt;Node10 -->
<g id="edge13_Node000010_Node000010" class="edge">
<title>Node10&#45;&gt;Node10</title>
<g id="a_edge13_Node000010_Node000010"><a xlink:title=" ">
<path fill="none" stroke="#63b8ff" d="M387.58,-159.51C384.67,-163.37 377.14,-166.07 365,-166.07 342.79,-166.07 336.03,-157.05 344.7,-148.41"/>
<polygon fill="#63b8ff" stroke="#63b8ff" points="391.04,-158.98 385.6,-149.89 384.19,-160.39 391.04,-158.98"/>
</a>
</g>
</g>
<!-- Node12&#45;&gt;Node11 -->
<g id="edge16_Node000012_Node000011" class="edge">
<title>Node12&#45;&gt;Node11</title>
<g id="a_edge16_Node000012_Node000011"><a xlink:title=" ">
<path fill="none" stroke="#63b8ff" d="M430.39,-90.01C420.82,-91.5 411.24,-93 402.51,-94.37"/>
<polygon fill="#63b8ff" stroke="#63b8ff" points="430.73,-93.5 440.07,-88.5 429.65,-86.58 430.73,-93.5"/>
</a>
</g>
</g>
<!-- Node13&#45;&gt;Node3 -->
<g id="edge18_Node000013_Node000003" class="edge">
<title>Node13&#45;&gt;Node3</title>
<g id="a_edge18_Node000013_Node000003"><a xlink:title=" ">
<path fill="none" stroke="#63b8ff" d="M475.62,-250.26C458.57,-266.5 431.97,-290.25 406,-307.07 401.22,-310.16 395.87,-313.05 390.66,-315.6"/>
<polygon fill="#63b8ff" stroke="#63b8ff" points="477.78,-253.04 482.53,-243.58 472.91,-248.01 477.78,-253.04"/>
</a>
</g>
</g>
<!-- Node13&#45;&gt;Node4 -->
<g id="edge19_Node000013_Node000004" class="edge">
<title>Node13&#45;&gt;Node4</title>
<g id="a_edge19_Node000013_Node000004"><a xlink:title=" ">
<path fill="none" stroke="#63b8ff" d="M447.82,-245.78C432.45,-250.34 415.6,-255.35 401.2,-259.62"/>
<polygon fill="#63b8ff" stroke="#63b8ff" points="448.64,-249.19 457.23,-242.98 446.65,-242.48 448.64,-249.19"/>
</a>
</g>
</g>
<!-- Node13&#45;&gt;Node5 -->
<g id="edge20_Node000013_Node000005" class="edge">
<title>Node13&#45;&gt;Node5</title>
<g id="a_edge20_Node000013_Node000005"><a xlink:title=" ">
<path fill="none" stroke="#63b8ff" d="M432.02,-232.07C421.45,-232.07 410.81,-232.07 401.25,-232.07"/>
<polygon fill="#63b8ff" stroke="#63b8ff" points="431.9,-235.57 441.9,-232.07 431.9,-228.57 431.9,-235.57"/>
</a>
</g>
</g>
<!-- Node13&#45;&gt;Node9 -->
<g id="edge23_Node000013_Node000009" class="edge">
<title>Node13&#45;&gt;Node9</title>
<g id="a_edge23_Node000013_Node000009"><a xlink:title=" ">
<path fill="none" stroke="#63b8ff" d="M438.13,-218.83C395.27,-207.7 340.69,-191.07 324,-175.07 291.71,-144.11 319.65,-112.69 288,-81.07 284.6,-77.67 280.53,-74.87 276.2,-72.56"/>
<polygon fill="#63b8ff" stroke="#63b8ff" points="437,-222.16 447.56,-221.24 438.73,-215.38 437,-222.16"/>
</a>
</g>
</g>
<!-- Node13&#45;&gt;Node10 -->
<g id="edge21_Node000013_Node000010" class="edge">
<title>Node13&#45;&gt;Node10</title>
<g id="a_edge21_Node000013_Node000010"><a xlink:title=" ">
<path fill="none" stroke="#63b8ff" d="M470.54,-214.84C444.14,-195.45 402.11,-164.59 380.25,-148.54"/>
<polygon fill="#63b8ff" stroke="#63b8ff" points="468.46,-217.66 478.59,-220.76 472.6,-212.01 468.46,-217.66"/>
</a>
</g>
</g>
<!-- Node13&#45;&gt;Node11 -->
<g id="edge22_Node000013_Node000011" class="edge">
<title>Node13&#45;&gt;Node11</title>
<g id="a_edge22_Node000013_Node000011"><a xlink:title=" ">
<path fill="none" stroke="#63b8ff" d="M482.46,-212.03C467.48,-187.46 439.28,-145.78 406,-119.07 401.92,-115.8 397.19,-112.92 392.44,-110.47"/>
<polygon fill="#63b8ff" stroke="#63b8ff" points="479.33,-213.61 487.45,-220.41 485.35,-210.03 479.33,-213.61"/>
</a>
</g>
</g>
<!-- Node14&#45;&gt;Node9 -->
<g id="edge28_Node000014_Node000009" class="edge">
<title>Node14&#45;&gt;Node9</title>
<g id="a_edge28_Node000014_Node000009"><a xlink:title=" ">
<path fill="none" stroke="#63b8ff" d="M437.44,-39.41C404.28,-38.6 361.65,-38.84 324,-43.07 308.54,-44.81 291.79,-48.18 277.23,-51.6"/>
<polygon fill="#63b8ff" stroke="#63b8ff" points="437.14,-42.9 447.24,-39.69 437.34,-35.91 437.14,-42.9"/>
</a>
</g>
</g>
<!-- Node15 -->
<g id="Node000015" class="node">
<title>Node15</title>
<g id="a_Node000015"><a xlink:href="testbench_8c.html#a68bb846e665ae25f0855b12907c6f7b0" target="_top" xlink:title="Vytisknutí hodnoty elementu v ADT pomocí iterátoru.">
<polygon fill="white" stroke="#666666" points="402.25,-72.07 327.75,-72.07 327.75,-52.07 402.25,-52.07 402.25,-72.07"/>
<text text-anchor="middle" x="365" y="-58.57" font-family="Helvetica,sans-Serif" font-size="10.00">print_element</text>
</a>
</g>
</g>
<!-- Node14&#45;&gt;Node15 -->
<g id="edge25_Node000014_Node000015" class="edge">
<title>Node14&#45;&gt;Node15</title>
<g id="a_edge25_Node000014_Node000015"><a xlink:title=" ">
<path fill="none" stroke="#63b8ff" d="M437.67,-50.87C425.82,-52.72 413.61,-54.63 402.71,-56.33"/>
<polygon fill="#63b8ff" stroke="#63b8ff" points="438.04,-54.36 447.38,-49.35 436.96,-47.44 438.04,-54.36"/>
</a>
</g>
</g>
<!-- Node15&#45;&gt;Node6 -->
<g id="edge26_Node000015_Node000006" class="edge">
<title>Node15&#45;&gt;Node6</title>
<g id="a_edge26_Node000015_Node000006"><a xlink:title=" ">
<path fill="none" stroke="#63b8ff" d="M318.37,-75.86C299.77,-81.48 279,-87.76 263.26,-92.51"/>
<polygon fill="#63b8ff" stroke="#63b8ff" points="319.3,-79.23 327.86,-72.99 317.27,-72.53 319.3,-79.23"/>
</a>
</g>
</g>
<!-- Node15&#45;&gt;Node9 -->
<g id="edge27_Node000015_Node000009" class="edge">
<title>Node15&#45;&gt;Node9</title>
<g id="a_edge27_Node000015_Node000009"><a xlink:title=" ">
<path fill="none" stroke="#63b8ff" d="M315.78,-62.07C306.79,-62.07 297.37,-62.07 288.33,-62.07"/>
<polygon fill="#63b8ff" stroke="#63b8ff" points="315.78,-65.57 325.78,-62.07 315.78,-58.57 315.78,-65.57"/>
</a>
</g>
</g>
</g>
</svg>
