<?xml version="1.0" encoding="UTF-8" standalone="no"?>
<!DOCTYPE svg PUBLIC "-//W3C//DTD SVG 1.1//EN"
 "http://www.w3.org/Graphics/SVG/1.1/DTD/svg11.dtd">
<!-- Generated by graphviz version 11.0.0 (20240428.1522)
 -->
<!-- Title: set_for_range Pages: 1 -->
<svg width="553pt" height="142pt"
 viewBox="0.00 0.00 552.75 142.00" xmlns="http://www.w3.org/2000/svg" xmlns:xlink="http://www.w3.org/1999/xlink">
<g id="graph0" class="graph" transform="scale(1 1) rotate(0) translate(4 138)">
<title>set_for_range</title>
<!-- Node1 -->
<g id="Node000001" class="node">
<title>Node1</title>
<g id="a_Node000001"><a xlink:title="Zavolání zvolené funkce na každý element množiny v zadaném rozsahu pozic určených dvěma iterátory.">
<polygon fill="#999999" stroke="#666666" points="74.5,-96 0,-96 0,-76 74.5,-76 74.5,-96"/>
<text text-anchor="middle" x="37.25" y="-82.5" font-family="Helvetica,sans-Serif" font-size="10.00">set_for_range</text>
</a>
</g>
</g>
<!-- Node2 -->
<g id="Node000002" class="node">
<title>Node2</title>
<g id="a_Node000002"><a xlink:href="group___t_set_iterator.html#ga9897d99975ad2adadb6ed86c9018560e" target="_top" xlink:title="Test shodnosti dvou iterátorů">
<polygon fill="white" stroke="#666666" points="216.5,-134 110.5,-134 110.5,-114 216.5,-114 216.5,-134"/>
<text text-anchor="middle" x="163.5" y="-120.5" font-family="Helvetica,sans-Serif" font-size="10.00">set_iterator_is_equal</text>
</a>
</g>
</g>
<!-- Node1&#45;&gt;Node2 -->
<g id="edge1_Node000001_Node000002" class="edge">
<title>Node1&#45;&gt;Node2</title>
<g id="a_edge1_Node000001_Node000002"><a xlink:title=" ">
<path fill="none" stroke="#63b8ff" d="M72.53,-96.48C86.38,-100.72 102.56,-105.67 117.35,-110.19"/>
<polygon fill="#63b8ff" stroke="#63b8ff" points="116.3,-113.53 126.88,-113.11 118.34,-106.84 116.3,-113.53"/>
</a>
</g>
</g>
<!-- Node3 -->
<g id="Node000003" class="node">
<title>Node3</title>
<g id="a_Node000003"><a xlink:href="group___t_set_iterator.html#ga089f24c81ac3da7d1ac7ca24cc078dd8" target="_top" xlink:title="Zjištění platnosti iterátoru.">
<polygon fill="white" stroke="#666666" points="364.12,-96 262.62,-96 262.62,-76 364.12,-76 364.12,-96"/>
<text text-anchor="middle" x="313.38" y="-82.5" font-family="Helvetica,sans-Serif" font-size="10.00">set_iterator_is_valid</text>
</a>
</g>
</g>
<!-- Node1&#45;&gt;Node3 -->
<g id="edge4_Node000001_Node000003" class="edge">
<title>Node1&#45;&gt;Node3</title>
<g id="a_edge4_Node000001_Node000003"><a xlink:title=" ">
<path fill="none" stroke="#63b8ff" d="M74.94,-86C119.92,-86 196.85,-86 250.93,-86"/>
<polygon fill="#63b8ff" stroke="#63b8ff" points="250.93,-89.5 260.93,-86 250.93,-82.5 250.93,-89.5"/>
</a>
</g>
</g>
<!-- Node5 -->
<g id="Node000005" class="node">
<title>Node5</title>
<g id="a_Node000005"><a xlink:href="group___t_set_iterator.html#ga6723a05c864198597ff49718020bd0d6" target="_top" xlink:title="Posunutí iterátoru vpřed.">
<polygon fill="white" stroke="#666666" points="214.62,-58 112.38,-58 112.38,-38 214.62,-38 214.62,-58"/>
<text text-anchor="middle" x="163.5" y="-44.5" font-family="Helvetica,sans-Serif" font-size="10.00">set_iterator_to_next</text>
</a>
</g>
</g>
<!-- Node1&#45;&gt;Node5 -->
<g id="edge5_Node000001_Node000005" class="edge">
<title>Node1&#45;&gt;Node5</title>
<g id="a_edge5_Node000001_Node000005"><a xlink:title=" ">
<path fill="none" stroke="#63b8ff" d="M72.53,-75.52C86.38,-71.28 102.56,-66.33 117.35,-61.81"/>
<polygon fill="#63b8ff" stroke="#63b8ff" points="118.34,-65.16 126.88,-58.89 116.3,-58.47 118.34,-65.16"/>
</a>
</g>
</g>
<!-- Node2&#45;&gt;Node3 -->
<g id="edge2_Node000002_Node000003" class="edge">
<title>Node2&#45;&gt;Node3</title>
<g id="a_edge2_Node000002_Node000003"><a xlink:title=" ">
<path fill="none" stroke="#63b8ff" d="M205.3,-113.52C222.43,-109.11 242.56,-103.94 260.71,-99.28"/>
<polygon fill="#63b8ff" stroke="#63b8ff" points="261.43,-102.71 270.24,-96.83 259.69,-95.93 261.43,-102.71"/>
</a>
</g>
</g>
<!-- Node4 -->
<g id="Node000004" class="node">
<title>Node4</title>
<g id="a_Node000004"><a xlink:href="group___t_set_unsorted_flex_array.html#gad3346f67be35632c3b0fbd9ea616a0c1" target="_top" xlink:title="Zjištění platnosti pozice ve flexibilním poli.">
<polygon fill="white" stroke="#666666" points="544.75,-77 410.25,-77 410.25,-57 544.75,-57 544.75,-77"/>
<text text-anchor="middle" x="477.5" y="-63.5" font-family="Helvetica,sans-Serif" font-size="10.00">set_flex_array_is_valid_pos</text>
</a>
</g>
</g>
<!-- Node3&#45;&gt;Node4 -->
<g id="edge3_Node000003_Node000004" class="edge">
<title>Node3&#45;&gt;Node4</title>
<g id="a_edge3_Node000003_Node000004"><a xlink:title=" ">
<path fill="none" stroke="#63b8ff" d="M364.34,-80.14C375.27,-78.86 387.09,-77.48 398.81,-76.1"/>
<polygon fill="#63b8ff" stroke="#63b8ff" points="398.96,-79.61 408.49,-74.97 398.15,-72.66 398.96,-79.61"/>
</a>
</g>
</g>
<!-- Node5&#45;&gt;Node3 -->
<g id="edge8_Node000005_Node000003" class="edge">
<title>Node5&#45;&gt;Node3</title>
<g id="a_edge8_Node000005_Node000003"><a xlink:title=" ">
<path fill="none" stroke="#63b8ff" d="M205.3,-58.48C222.43,-62.89 242.56,-68.06 260.71,-72.72"/>
<polygon fill="#63b8ff" stroke="#63b8ff" points="259.69,-76.07 270.24,-75.17 261.43,-69.29 259.69,-76.07"/>
</a>
</g>
</g>
<!-- Node5&#45;&gt;Node4 -->
<g id="edge6_Node000005_Node000004" class="edge">
<title>Node5&#45;&gt;Node4</title>
<g id="a_edge6_Node000005_Node000004"><a xlink:title=" ">
<path fill="none" stroke="#63b8ff" d="M214.97,-51.07C264.61,-54.1 341.08,-58.75 398.54,-62.25"/>
<polygon fill="#63b8ff" stroke="#63b8ff" points="398.06,-65.73 408.25,-62.84 398.48,-58.74 398.06,-65.73"/>
</a>
</g>
</g>
<!-- Node6 -->
<g id="Node000006" class="node">
<title>Node6</title>
<g id="a_Node000006"><a xlink:href="group___t_set_unsorted_flex_array.html#ga8bc0de187146b066ae844c2278b6e198" target="_top" xlink:title="Výpočet následující platné pozice ve flexibilním poli.">
<polygon fill="white" stroke="#666666" points="374.25,-20 252.5,-20 252.5,0 374.25,0 374.25,-20"/>
<text text-anchor="middle" x="313.38" y="-6.5" font-family="Helvetica,sans-Serif" font-size="10.00">set_flex_array_next_pos</text>
</a>
</g>
</g>
<!-- Node5&#45;&gt;Node6 -->
<g id="edge7_Node000005_Node000006" class="edge">
<title>Node5&#45;&gt;Node6</title>
<g id="a_edge7_Node000005_Node000006"><a xlink:title=" ">
<path fill="none" stroke="#63b8ff" d="M205.3,-37.52C222.43,-33.11 242.56,-27.94 260.71,-23.28"/>
<polygon fill="#63b8ff" stroke="#63b8ff" points="261.43,-26.71 270.24,-20.83 259.69,-19.93 261.43,-26.71"/>
</a>
</g>
</g>
</g>
</svg>
