<?xml version="1.0" encoding="UTF-8" standalone="no"?>
<!DOCTYPE svg PUBLIC "-//W3C//DTD SVG 1.1//EN"
 "http://www.w3.org/Graphics/SVG/1.1/DTD/svg11.dtd">
<!-- Generated by graphviz version 11.0.0 (20240428.1522)
 -->
<!-- Title: set_iterator_begin Pages: 1 -->
<svg width="264pt" height="46pt"
 viewBox="0.00 0.00 263.50 46.00" xmlns="http://www.w3.org/2000/svg" xmlns:xlink="http://www.w3.org/1999/xlink">
<g id="graph0" class="graph" transform="scale(1 1) rotate(0) translate(4 42)">
<title>set_iterator_begin</title>
<!-- Node1 -->
<g id="Node000001" class="node">
<title>Node1</title>
<g id="a_Node000001"><a xlink:title="Vytvoření nového iterátoru ukazujícího na první element množiny.">
<polygon fill="#999999" stroke="#666666" points="93.25,-20 0,-20 0,0 93.25,0 93.25,-20"/>
<text text-anchor="middle" x="46.62" y="-6.5" font-family="Helvetica,sans-Serif" font-size="10.00">set_iterator_begin</text>
</a>
</g>
</g>
<!-- Node1&#45;&gt;Node1 -->
<g id="edge2_Node000001_Node000001" class="edge">
<title>Node1&#45;&gt;Node1</title>
<g id="a_edge2_Node000001_Node000001"><a xlink:title=" ">
<path fill="none" stroke="#63b8ff" d="M23.47,-20.34C13.57,-28.98 21.29,-38 46.62,-38 60.48,-38 69.07,-35.3 72.39,-31.44"/>
<polygon fill="#63b8ff" stroke="#63b8ff" points="75.82,-30.75 70.13,-21.81 69,-32.35 75.82,-30.75"/>
</a>
</g>
</g>
<!-- Node2 -->
<g id="Node000002" class="node">
<title>Node2</title>
<g id="a_Node000002"><a xlink:href="group___t_set_unsorted_flex_array.html#ga24753753dacb74f17de6ba082505440c" target="_top" xlink:title="Výpočet první platné pozice ve flexibilním poli.">
<polygon fill="white" stroke="#666666" points="255.5,-20 129.25,-20 129.25,0 255.5,0 255.5,-20"/>
<text text-anchor="middle" x="192.38" y="-6.5" font-family="Helvetica,sans-Serif" font-size="10.00">set_flex_array_begin_pos</text>
</a>
</g>
</g>
<!-- Node1&#45;&gt;Node2 -->
<g id="edge1_Node000001_Node000002" class="edge">
<title>Node1&#45;&gt;Node2</title>
<g id="a_edge1_Node000001_Node000002"><a xlink:title=" ">
<path fill="none" stroke="#63b8ff" d="M93.5,-10C101.15,-10 109.26,-10 117.4,-10"/>
<polygon fill="#63b8ff" stroke="#63b8ff" points="117.38,-13.5 127.38,-10 117.38,-6.5 117.38,-13.5"/>
</a>
</g>
</g>
</g>
</svg>
