<?xml version="1.0" encoding="UTF-8" standalone="no"?>
<!DOCTYPE svg PUBLIC "-//W3C//DTD SVG 1.1//EN"
 "http://www.w3.org/Graphics/SVG/1.1/DTD/svg11.dtd">
<!-- Generated by graphviz version 11.0.0 (20240428.1522)
 -->
<!-- Title: set_find_if Pages: 1 -->
<svg width="534pt" height="104pt"
 viewBox="0.00 0.00 534.00 104.00" xmlns="http://www.w3.org/2000/svg" xmlns:xlink="http://www.w3.org/1999/xlink">
<g id="graph0" class="graph" transform="scale(1 1) rotate(0) translate(4 100)">
<title>set_find_if</title>
<!-- Node1 -->
<g id="Node000001" class="node">
<title>Node1</title>
<g id="a_Node000001"><a xlink:title="Vyhledání prvního elementu množiny splňujícího zadaný predikát.">
<polygon fill="#999999" stroke="#666666" points="59.5,-77 0,-77 0,-57 59.5,-57 59.5,-77"/>
<text text-anchor="middle" x="29.75" y="-63.5" font-family="Helvetica,sans-Serif" font-size="10.00">set_find_if</text>
</a>
</g>
</g>
<!-- Node1&#45;&gt;Node1 -->
<g id="edge1_Node000001_Node000001" class="edge">
<title>Node1&#45;&gt;Node1</title>
<g id="a_edge1_Node000001_Node000001"><a xlink:title=" ">
<path fill="none" stroke="#63b8ff" d="M11.18,-77.34C3.24,-85.98 9.43,-95 29.75,-95 40.86,-95 47.75,-92.3 50.41,-88.44"/>
<polygon fill="#63b8ff" stroke="#63b8ff" points="53.89,-88.01 48.6,-78.83 47.01,-89.3 53.89,-88.01"/>
</a>
</g>
</g>
<!-- Node2 -->
<g id="Node000002" class="node">
<title>Node2</title>
<g id="a_Node000002"><a xlink:href="group___t_set_iterator.html#ga089f24c81ac3da7d1ac7ca24cc078dd8" target="_top" xlink:title="Zjištění platnosti iterátoru.">
<polygon fill="white" stroke="#666666" points="345.38,-96 243.88,-96 243.88,-76 345.38,-76 345.38,-96"/>
<text text-anchor="middle" x="294.62" y="-82.5" font-family="Helvetica,sans-Serif" font-size="10.00">set_iterator_is_valid</text>
</a>
</g>
</g>
<!-- Node1&#45;&gt;Node2 -->
<g id="edge2_Node000001_Node000002" class="edge">
<title>Node1&#45;&gt;Node2</title>
<g id="a_edge2_Node000001_Node000002"><a xlink:title=" ">
<path fill="none" stroke="#63b8ff" d="M59.89,-69.11C101.32,-72.1 178.25,-77.66 232.51,-81.58"/>
<polygon fill="#63b8ff" stroke="#63b8ff" points="231.99,-85.05 242.22,-82.28 232.49,-78.07 231.99,-85.05"/>
</a>
</g>
</g>
<!-- Node4 -->
<g id="Node000004" class="node">
<title>Node4</title>
<g id="a_Node000004"><a xlink:href="group___t_set_iterator.html#ga6723a05c864198597ff49718020bd0d6" target="_top" xlink:title="Posunutí iterátoru vpřed.">
<polygon fill="white" stroke="#666666" points="197.75,-58 95.5,-58 95.5,-38 197.75,-38 197.75,-58"/>
<text text-anchor="middle" x="146.62" y="-44.5" font-family="Helvetica,sans-Serif" font-size="10.00">set_iterator_to_next</text>
</a>
</g>
</g>
<!-- Node1&#45;&gt;Node4 -->
<g id="edge4_Node000001_Node000004" class="edge">
<title>Node1&#45;&gt;Node4</title>
<g id="a_edge4_Node000001_Node000004"><a xlink:title=" ">
<path fill="none" stroke="#63b8ff" d="M59.74,-62.21C67.22,-60.97 75.57,-59.59 84.04,-58.19"/>
<polygon fill="#63b8ff" stroke="#63b8ff" points="84.4,-61.67 93.69,-56.59 83.26,-54.77 84.4,-61.67"/>
</a>
</g>
</g>
<!-- Node3 -->
<g id="Node000003" class="node">
<title>Node3</title>
<g id="a_Node000003"><a xlink:href="group___t_set_unsorted_flex_array.html#gad3346f67be35632c3b0fbd9ea616a0c1" target="_top" xlink:title="Zjištění platnosti pozice ve flexibilním poli.">
<polygon fill="white" stroke="#666666" points="526,-77 391.5,-77 391.5,-57 526,-57 526,-77"/>
<text text-anchor="middle" x="458.75" y="-63.5" font-family="Helvetica,sans-Serif" font-size="10.00">set_flex_array_is_valid_pos</text>
</a>
</g>
</g>
<!-- Node2&#45;&gt;Node3 -->
<g id="edge3_Node000002_Node000003" class="edge">
<title>Node2&#45;&gt;Node3</title>
<g id="a_edge3_Node000002_Node000003"><a xlink:title=" ">
<path fill="none" stroke="#63b8ff" d="M345.59,-80.14C356.52,-78.86 368.34,-77.48 380.06,-76.1"/>
<polygon fill="#63b8ff" stroke="#63b8ff" points="380.21,-79.61 389.74,-74.97 379.4,-72.66 380.21,-79.61"/>
</a>
</g>
</g>
<!-- Node4&#45;&gt;Node2 -->
<g id="edge7_Node000004_Node000002" class="edge">
<title>Node4&#45;&gt;Node2</title>
<g id="a_edge7_Node000004_Node000002"><a xlink:title=" ">
<path fill="none" stroke="#63b8ff" d="M187.91,-58.48C204.74,-62.87 224.5,-68.01 242.36,-72.66"/>
<polygon fill="#63b8ff" stroke="#63b8ff" points="241.45,-76.04 252.01,-75.17 243.21,-69.26 241.45,-76.04"/>
</a>
</g>
</g>
<!-- Node4&#45;&gt;Node3 -->
<g id="edge5_Node000004_Node000003" class="edge">
<title>Node4&#45;&gt;Node3</title>
<g id="a_edge5_Node000004_Node000003"><a xlink:title=" ">
<path fill="none" stroke="#63b8ff" d="M198.14,-51.09C247.36,-54.11 322.87,-58.74 379.8,-62.22"/>
<polygon fill="#63b8ff" stroke="#63b8ff" points="379.57,-65.72 389.77,-62.84 380,-58.73 379.57,-65.72"/>
</a>
</g>
</g>
<!-- Node5 -->
<g id="Node000005" class="node">
<title>Node5</title>
<g id="a_Node000005"><a xlink:href="group___t_set_unsorted_flex_array.html#ga8bc0de187146b066ae844c2278b6e198" target="_top" xlink:title="Výpočet následující platné pozice ve flexibilním poli.">
<polygon fill="white" stroke="#666666" points="355.5,-20 233.75,-20 233.75,0 355.5,0 355.5,-20"/>
<text text-anchor="middle" x="294.62" y="-6.5" font-family="Helvetica,sans-Serif" font-size="10.00">set_flex_array_next_pos</text>
</a>
</g>
</g>
<!-- Node4&#45;&gt;Node5 -->
<g id="edge6_Node000004_Node000005" class="edge">
<title>Node4&#45;&gt;Node5</title>
<g id="a_edge6_Node000004_Node000005"><a xlink:title=" ">
<path fill="none" stroke="#63b8ff" d="M187.91,-37.52C204.74,-33.13 224.5,-27.99 242.36,-23.34"/>
<polygon fill="#63b8ff" stroke="#63b8ff" points="243.21,-26.74 252.01,-20.83 241.45,-19.96 243.21,-26.74"/>
</a>
</g>
</g>
</g>
</svg>
