<?xml version="1.0" encoding="UTF-8" standalone="no"?>
<!DOCTYPE svg PUBLIC "-//W3C//DTD SVG 1.1//EN"
 "http://www.w3.org/Graphics/SVG/1.1/DTD/svg11.dtd">
<!-- Generated by graphviz version 11.0.0 (20240428.1522)
 -->
<!-- Title: set_flex_array_value_at_pos Pages: 1 -->
<svg width="674pt" height="66pt"
 viewBox="0.00 0.00 674.00 66.00" xmlns="http://www.w3.org/2000/svg" xmlns:xlink="http://www.w3.org/1999/xlink">
<g id="graph0" class="graph" transform="scale(1 1) rotate(0) translate(4 62)">
<title>set_flex_array_value_at_pos</title>
<!-- Node1 -->
<g id="Node000001" class="node">
<title>Node1</title>
<g id="a_Node000001"><a xlink:title="Přečtení hodnoty elementu z flexibilního pole.">
<polygon fill="#999999" stroke="#666666" points="666,-45 562.25,-45 562.25,-13 666,-13 666,-45"/>
<text text-anchor="start" x="570.25" y="-31.5" font-family="Helvetica,sans-Serif" font-size="10.00">set_flex_array_value</text>
<text text-anchor="middle" x="614.12" y="-19.5" font-family="Helvetica,sans-Serif" font-size="10.00">_at_pos</text>
</a>
</g>
</g>
<!-- Node2 -->
<g id="Node000002" class="node">
<title>Node2</title>
<g id="a_Node000002"><a xlink:href="group___t_set_iterator.html#ga3928a980e2759ba130ce333e77f15fab" target="_top" xlink:title="Přečtení hodnoty elementu z množiny pomocí iterátoru.">
<polygon fill="white" stroke="#666666" points="526.25,-39 434.5,-39 434.5,-19 526.25,-19 526.25,-39"/>
<text text-anchor="middle" x="480.38" y="-25.5" font-family="Helvetica,sans-Serif" font-size="10.00">set_iterator_value</text>
</a>
</g>
</g>
<!-- Node1&#45;&gt;Node2 -->
<g id="edge1_Node000001_Node000002" class="edge">
<title>Node1&#45;&gt;Node2</title>
<g id="a_edge1_Node000001_Node000002"><a xlink:title=" ">
<path fill="none" stroke="#63b8ff" d="M550.42,-29C542.29,-29 534.1,-29 526.34,-29"/>
<polygon fill="#63b8ff" stroke="#63b8ff" points="550.3,-32.5 560.3,-29 550.3,-25.5 550.3,-32.5"/>
</a>
</g>
</g>
<!-- Node3 -->
<g id="Node000003" class="node">
<title>Node3</title>
<g id="a_Node000003"><a xlink:href="testbench_8c.html#a68bb846e665ae25f0855b12907c6f7b0" target="_top" xlink:title="Vytisknutí hodnoty elementu v ADT pomocí iterátoru.">
<polygon fill="white" stroke="#666666" points="398.5,-58 324,-58 324,-38 398.5,-38 398.5,-58"/>
<text text-anchor="middle" x="361.25" y="-44.5" font-family="Helvetica,sans-Serif" font-size="10.00">print_element</text>
</a>
</g>
</g>
<!-- Node2&#45;&gt;Node3 -->
<g id="edge2_Node000002_Node000003" class="edge">
<title>Node2&#45;&gt;Node3</title>
<g id="a_edge2_Node000002_Node000003"><a xlink:title=" ">
<path fill="none" stroke="#63b8ff" d="M422.95,-38.15C414.71,-39.49 406.41,-40.84 398.71,-42.09"/>
<polygon fill="#63b8ff" stroke="#63b8ff" points="423.29,-41.64 432.6,-36.59 422.17,-34.73 423.29,-41.64"/>
</a>
</g>
</g>
<!-- Node7 -->
<g id="Node000007" class="node">
<title>Node7</title>
<g id="a_Node000007"><a xlink:href="group___main_program.html#ga59363e824664d6f3ebb09b0cd5c44a28" target="_top" xlink:title=" ">
<polygon fill="white" stroke="#666666" points="288,-20 186.5,-20 186.5,0 288,0 288,-20"/>
<text text-anchor="middle" x="237.25" y="-6.5" font-family="Helvetica,sans-Serif" font-size="10.00">testset2_hardcoded</text>
</a>
</g>
</g>
<!-- Node2&#45;&gt;Node7 -->
<g id="edge8_Node000002_Node000007" class="edge">
<title>Node2&#45;&gt;Node7</title>
<g id="a_edge8_Node000002_Node000007"><a xlink:title=" ">
<path fill="none" stroke="#63b8ff" d="M422.65,-24.53C381.93,-21.32 327.54,-17.04 288.39,-13.95"/>
<polygon fill="#63b8ff" stroke="#63b8ff" points="422.27,-28.01 432.51,-25.31 422.82,-21.03 422.27,-28.01"/>
</a>
</g>
</g>
<!-- Node4 -->
<g id="Node000004" class="node">
<title>Node4</title>
<g id="a_Node000004"><a xlink:href="testbench_8c.html#a068734a4e1d6209769e0c6b1675ca02b" target="_top" xlink:title="Provedení jednoho test z testovacího plánu na předaném ADT.">
<polygon fill="white" stroke="#666666" points="262.88,-58 211.62,-58 211.62,-38 262.88,-38 262.88,-58"/>
<text text-anchor="middle" x="237.25" y="-44.5" font-family="Helvetica,sans-Serif" font-size="10.00">test_run</text>
</a>
</g>
</g>
<!-- Node3&#45;&gt;Node4 -->
<g id="edge3_Node000003_Node000004" class="edge">
<title>Node3&#45;&gt;Node4</title>
<g id="a_edge3_Node000003_Node000004"><a xlink:title=" ">
<path fill="none" stroke="#63b8ff" d="M312.32,-48C295.54,-48 277.37,-48 263.23,-48"/>
<polygon fill="#63b8ff" stroke="#63b8ff" points="312.13,-51.5 322.13,-48 312.13,-44.5 312.13,-51.5"/>
</a>
</g>
</g>
<!-- Node3&#45;&gt;Node7 -->
<g id="edge6_Node000003_Node000007" class="edge">
<title>Node3&#45;&gt;Node7</title>
<g id="a_edge6_Node000003_Node000007"><a xlink:title=" ">
<path fill="none" stroke="#63b8ff" d="M315.8,-34.16C301.27,-29.63 285.39,-24.68 271.8,-20.45"/>
<polygon fill="#63b8ff" stroke="#63b8ff" points="314.56,-37.43 325.14,-37.07 316.64,-30.75 314.56,-37.43"/>
</a>
</g>
</g>
<!-- Node5 -->
<g id="Node000005" class="node">
<title>Node5</title>
<g id="a_Node000005"><a xlink:href="testbench_8c.html#a2fa1559684d267665b1c2433208511d3" target="_top" xlink:title="Provedení všech testů zadaného testovacího plánu na předaném ADT.">
<polygon fill="white" stroke="#666666" points="150.5,-58 73,-58 73,-38 150.5,-38 150.5,-58"/>
<text text-anchor="middle" x="111.75" y="-44.5" font-family="Helvetica,sans-Serif" font-size="10.00">testbench_run</text>
</a>
</g>
</g>
<!-- Node4&#45;&gt;Node5 -->
<g id="edge4_Node000004_Node000005" class="edge">
<title>Node4&#45;&gt;Node5</title>
<g id="a_edge4_Node000004_Node000005"><a xlink:title=" ">
<path fill="none" stroke="#63b8ff" d="M200.02,-48C184.56,-48 166.51,-48 150.85,-48"/>
<polygon fill="#63b8ff" stroke="#63b8ff" points="199.74,-51.5 209.74,-48 199.74,-44.5 199.74,-51.5"/>
</a>
</g>
</g>
<!-- Node6 -->
<g id="Node000006" class="node">
<title>Node6</title>
<g id="a_Node000006"><a xlink:href="group___main_program.html#ga0ddf1224851353fc92bfbff6f499fa97" target="_top" xlink:title=" ">
<polygon fill="white" stroke="#666666" points="37,-39 0,-39 0,-19 37,-19 37,-39"/>
<text text-anchor="middle" x="18.5" y="-25.5" font-family="Helvetica,sans-Serif" font-size="10.00">main</text>
</a>
</g>
</g>
<!-- Node5&#45;&gt;Node6 -->
<g id="edge5_Node000005_Node000006" class="edge">
<title>Node5&#45;&gt;Node6</title>
<g id="a_edge5_Node000005_Node000006"><a xlink:title=" ">
<path fill="none" stroke="#63b8ff" d="M61.52,-37.75C52.79,-35.93 44.23,-34.15 37.14,-32.67"/>
<polygon fill="#63b8ff" stroke="#63b8ff" points="60.6,-41.13 71.1,-39.74 62.02,-34.28 60.6,-41.13"/>
</a>
</g>
</g>
<!-- Node7&#45;&gt;Node6 -->
<g id="edge7_Node000007_Node000006" class="edge">
<title>Node7&#45;&gt;Node6</title>
<g id="a_edge7_Node000007_Node000006"><a xlink:title=" ">
<path fill="none" stroke="#63b8ff" d="M175.02,-15.37C128.31,-19.46 67.08,-24.83 37.31,-27.44"/>
<polygon fill="#63b8ff" stroke="#63b8ff" points="175.09,-18.87 184.74,-14.52 174.48,-11.9 175.09,-18.87"/>
</a>
</g>
</g>
</g>
</svg>
