<?xml version="1.0" encoding="UTF-8" standalone="no"?>
<!DOCTYPE svg PUBLIC "-//W3C//DTD SVG 1.1//EN"
 "http://www.w3.org/Graphics/SVG/1.1/DTD/svg11.dtd">
<!-- Generated by graphviz version 11.0.0 (20240428.1522)
 -->
<!-- Title: set_for_each_n Pages: 1 -->
<svg width="557pt" height="104pt"
 viewBox="0.00 0.00 556.50 104.00" xmlns="http://www.w3.org/2000/svg" xmlns:xlink="http://www.w3.org/1999/xlink">
<g id="graph0" class="graph" transform="scale(1 1) rotate(0) translate(4 100)">
<title>set_for_each_n</title>
<!-- Node1 -->
<g id="Node000001" class="node">
<title>Node1</title>
<g id="a_Node000001"><a xlink:title="Zavolání zvolené funkce na prvních N elementů množiny od pozice určené iterátorem.">
<polygon fill="#999999" stroke="#666666" points="82,-77 0,-77 0,-57 82,-57 82,-77"/>
<text text-anchor="middle" x="41" y="-63.5" font-family="Helvetica,sans-Serif" font-size="10.00">set_for_each_n</text>
</a>
</g>
</g>
<!-- Node1&#45;&gt;Node1 -->
<g id="edge1_Node000001_Node000001" class="edge">
<title>Node1&#45;&gt;Node1</title>
<g id="a_edge1_Node000001_Node000001"><a xlink:title=" ">
<path fill="none" stroke="#63b8ff" d="M20.64,-77.34C11.94,-85.98 18.73,-95 41,-95 53.18,-95 60.73,-92.3 63.65,-88.44"/>
<polygon fill="#63b8ff" stroke="#63b8ff" points="67.11,-87.91 61.66,-78.82 60.25,-89.32 67.11,-87.91"/>
</a>
</g>
</g>
<!-- Node2 -->
<g id="Node000002" class="node">
<title>Node2</title>
<g id="a_Node000002"><a xlink:href="group___t_set_iterator.html#ga089f24c81ac3da7d1ac7ca24cc078dd8" target="_top" xlink:title="Zjištění platnosti iterátoru.">
<polygon fill="white" stroke="#666666" points="367.88,-96 266.38,-96 266.38,-76 367.88,-76 367.88,-96"/>
<text text-anchor="middle" x="317.12" y="-82.5" font-family="Helvetica,sans-Serif" font-size="10.00">set_iterator_is_valid</text>
</a>
</g>
</g>
<!-- Node1&#45;&gt;Node2 -->
<g id="edge2_Node000001_Node000002" class="edge">
<title>Node1&#45;&gt;Node2</title>
<g id="a_edge2_Node000001_Node000002"><a xlink:title=" ">
<path fill="none" stroke="#63b8ff" d="M82.45,-69.8C127.96,-72.96 202.38,-78.12 255,-81.76"/>
<polygon fill="#63b8ff" stroke="#63b8ff" points="254.48,-85.24 264.69,-82.44 254.96,-78.25 254.48,-85.24"/>
</a>
</g>
</g>
<!-- Node4 -->
<g id="Node000004" class="node">
<title>Node4</title>
<g id="a_Node000004"><a xlink:href="group___t_set_iterator.html#ga6723a05c864198597ff49718020bd0d6" target="_top" xlink:title="Posunutí iterátoru vpřed.">
<polygon fill="white" stroke="#666666" points="220.25,-58 118,-58 118,-38 220.25,-38 220.25,-58"/>
<text text-anchor="middle" x="169.12" y="-44.5" font-family="Helvetica,sans-Serif" font-size="10.00">set_iterator_to_next</text>
</a>
</g>
</g>
<!-- Node1&#45;&gt;Node4 -->
<g id="edge4_Node000001_Node000004" class="edge">
<title>Node1&#45;&gt;Node4</title>
<g id="a_edge4_Node000001_Node000004"><a xlink:title=" ">
<path fill="none" stroke="#63b8ff" d="M82.25,-60.94C89.99,-59.77 98.25,-58.53 106.47,-57.29"/>
<polygon fill="#63b8ff" stroke="#63b8ff" points="106.76,-60.78 116.13,-55.83 105.72,-53.86 106.76,-60.78"/>
</a>
</g>
</g>
<!-- Node3 -->
<g id="Node000003" class="node">
<title>Node3</title>
<g id="a_Node000003"><a xlink:href="group___t_set_unsorted_flex_array.html#gad3346f67be35632c3b0fbd9ea616a0c1" target="_top" xlink:title="Zjištění platnosti pozice ve flexibilním poli.">
<polygon fill="white" stroke="#666666" points="548.5,-77 414,-77 414,-57 548.5,-57 548.5,-77"/>
<text text-anchor="middle" x="481.25" y="-63.5" font-family="Helvetica,sans-Serif" font-size="10.00">set_flex_array_is_valid_pos</text>
</a>
</g>
</g>
<!-- Node2&#45;&gt;Node3 -->
<g id="edge3_Node000002_Node000003" class="edge">
<title>Node2&#45;&gt;Node3</title>
<g id="a_edge3_Node000002_Node000003"><a xlink:title=" ">
<path fill="none" stroke="#63b8ff" d="M368.09,-80.14C379.02,-78.86 390.84,-77.48 402.56,-76.1"/>
<polygon fill="#63b8ff" stroke="#63b8ff" points="402.71,-79.61 412.24,-74.97 401.9,-72.66 402.71,-79.61"/>
</a>
</g>
</g>
<!-- Node4&#45;&gt;Node2 -->
<g id="edge7_Node000004_Node000002" class="edge">
<title>Node4&#45;&gt;Node2</title>
<g id="a_edge7_Node000004_Node000002"><a xlink:title=" ">
<path fill="none" stroke="#63b8ff" d="M210.41,-58.48C227.24,-62.87 247,-68.01 264.86,-72.66"/>
<polygon fill="#63b8ff" stroke="#63b8ff" points="263.95,-76.04 274.51,-75.17 265.71,-69.26 263.95,-76.04"/>
</a>
</g>
</g>
<!-- Node4&#45;&gt;Node3 -->
<g id="edge5_Node000004_Node000003" class="edge">
<title>Node4&#45;&gt;Node3</title>
<g id="a_edge5_Node000004_Node000003"><a xlink:title=" ">
<path fill="none" stroke="#63b8ff" d="M220.64,-51.09C269.86,-54.11 345.37,-58.74 402.3,-62.22"/>
<polygon fill="#63b8ff" stroke="#63b8ff" points="402.07,-65.72 412.27,-62.84 402.5,-58.73 402.07,-65.72"/>
</a>
</g>
</g>
<!-- Node5 -->
<g id="Node000005" class="node">
<title>Node5</title>
<g id="a_Node000005"><a xlink:href="group___t_set_unsorted_flex_array.html#ga8bc0de187146b066ae844c2278b6e198" target="_top" xlink:title="Výpočet následující platné pozice ve flexibilním poli.">
<polygon fill="white" stroke="#666666" points="378,-20 256.25,-20 256.25,0 378,0 378,-20"/>
<text text-anchor="middle" x="317.12" y="-6.5" font-family="Helvetica,sans-Serif" font-size="10.00">set_flex_array_next_pos</text>
</a>
</g>
</g>
<!-- Node4&#45;&gt;Node5 -->
<g id="edge6_Node000004_Node000005" class="edge">
<title>Node4&#45;&gt;Node5</title>
<g id="a_edge6_Node000004_Node000005"><a xlink:title=" ">
<path fill="none" stroke="#63b8ff" d="M210.41,-37.52C227.24,-33.13 247,-27.99 264.86,-23.34"/>
<polygon fill="#63b8ff" stroke="#63b8ff" points="265.71,-26.74 274.51,-20.83 263.95,-19.96 265.71,-26.74"/>
</a>
</g>
</g>
</g>
</svg>
