<?xml version="1.0" encoding="UTF-8" standalone="no"?>
<!DOCTYPE svg PUBLIC "-//W3C//DTD SVG 1.1//EN"
 "http://www.w3.org/Graphics/SVG/1.1/DTD/svg11.dtd">
<!-- Generated by graphviz version 11.0.0 (20240428.1522)
 -->
<!-- Title: set_element_store_file Pages: 1 -->
<svg width="530pt" height="66pt"
 viewBox="0.00 0.00 529.75 66.00" xmlns="http://www.w3.org/2000/svg" xmlns:xlink="http://www.w3.org/1999/xlink">
<g id="graph0" class="graph" transform="scale(1 1) rotate(0) translate(4 62)">
<title>set_element_store_file</title>
<!-- Node1 -->
<g id="Node000001" class="node">
<title>Node1</title>
<g id="a_Node000001"><a xlink:title="Uložení elementu do souboru.">
<polygon fill="#999999" stroke="#666666" points="521.75,-39 408.25,-39 408.25,-19 521.75,-19 521.75,-39"/>
<text text-anchor="middle" x="465" y="-25.5" font-family="Helvetica,sans-Serif" font-size="10.00">set_element_store_file</text>
</a>
</g>
</g>
<!-- Node2 -->
<g id="Node000002" class="node">
<title>Node2</title>
<g id="a_Node000002"><a xlink:href="testbench_8c.html#a68bb846e665ae25f0855b12907c6f7b0" target="_top" xlink:title="Vytisknutí hodnoty elementu v ADT pomocí iterátoru.">
<polygon fill="white" stroke="#666666" points="372.25,-20 297.75,-20 297.75,0 372.25,0 372.25,-20"/>
<text text-anchor="middle" x="335" y="-6.5" font-family="Helvetica,sans-Serif" font-size="10.00">print_element</text>
</a>
</g>
</g>
<!-- Node1&#45;&gt;Node2 -->
<g id="edge1_Node000001_Node000002" class="edge">
<title>Node1&#45;&gt;Node2</title>
<g id="a_edge1_Node000001_Node000002"><a xlink:title=" ">
<path fill="none" stroke="#63b8ff" d="M396.59,-18.99C388.33,-17.77 380.14,-16.55 372.58,-15.43"/>
<polygon fill="#63b8ff" stroke="#63b8ff" points="395.95,-22.44 406.36,-20.44 396.98,-15.51 395.95,-22.44"/>
</a>
</g>
</g>
<!-- Node3 -->
<g id="Node000003" class="node">
<title>Node3</title>
<g id="a_Node000003"><a xlink:href="testbench_8c.html#a068734a4e1d6209769e0c6b1675ca02b" target="_top" xlink:title="Provedení jednoho test z testovacího plánu na předaném ADT.">
<polygon fill="white" stroke="#666666" points="261.75,-58 210.5,-58 210.5,-38 261.75,-38 261.75,-58"/>
<text text-anchor="middle" x="236.12" y="-44.5" font-family="Helvetica,sans-Serif" font-size="10.00">test_run</text>
</a>
</g>
</g>
<!-- Node1&#45;&gt;Node3 -->
<g id="edge7_Node000001_Node000003" class="edge">
<title>Node1&#45;&gt;Node3</title>
<g id="a_edge7_Node000001_Node000003"><a xlink:title=" ">
<path fill="none" stroke="#63b8ff" d="M396.67,-34.64C351.33,-38.44 294.16,-43.22 262.02,-45.92"/>
<polygon fill="#63b8ff" stroke="#63b8ff" points="396.74,-38.15 406.41,-33.82 396.15,-31.17 396.74,-38.15"/>
</a>
</g>
</g>
<!-- Node2&#45;&gt;Node3 -->
<g id="edge2_Node000002_Node000003" class="edge">
<title>Node2&#45;&gt;Node3</title>
<g id="a_edge2_Node000002_Node000003"><a xlink:title=" ">
<path fill="none" stroke="#63b8ff" d="M296.56,-24.68C285.02,-29.21 272.59,-34.09 262.1,-38.2"/>
<polygon fill="#63b8ff" stroke="#63b8ff" points="297.83,-27.95 305.86,-21.04 295.28,-21.43 297.83,-27.95"/>
</a>
</g>
</g>
<!-- Node6 -->
<g id="Node000006" class="node">
<title>Node6</title>
<g id="a_Node000006"><a xlink:href="group___main_program.html#ga59363e824664d6f3ebb09b0cd5c44a28" target="_top" xlink:title=" ">
<polygon fill="white" stroke="#666666" points="174.5,-20 73,-20 73,0 174.5,0 174.5,-20"/>
<text text-anchor="middle" x="123.75" y="-6.5" font-family="Helvetica,sans-Serif" font-size="10.00">testset2_hardcoded</text>
</a>
</g>
</g>
<!-- Node2&#45;&gt;Node6 -->
<g id="edge5_Node000002_Node000006" class="edge">
<title>Node2&#45;&gt;Node6</title>
<g id="a_edge5_Node000002_Node000006"><a xlink:title=" ">
<path fill="none" stroke="#63b8ff" d="M286.28,-10C253,-10 208.68,-10 174.89,-10"/>
<polygon fill="#63b8ff" stroke="#63b8ff" points="286.04,-13.5 296.04,-10 286.04,-6.5 286.04,-13.5"/>
</a>
</g>
</g>
<!-- Node4 -->
<g id="Node000004" class="node">
<title>Node4</title>
<g id="a_Node000004"><a xlink:href="testbench_8c.html#a2fa1559684d267665b1c2433208511d3" target="_top" xlink:title="Provedení všech testů zadaného testovacího plánu na předaném ADT.">
<polygon fill="white" stroke="#666666" points="162.5,-58 85,-58 85,-38 162.5,-38 162.5,-58"/>
<text text-anchor="middle" x="123.75" y="-44.5" font-family="Helvetica,sans-Serif" font-size="10.00">testbench_run</text>
</a>
</g>
</g>
<!-- Node3&#45;&gt;Node4 -->
<g id="edge3_Node000003_Node000004" class="edge">
<title>Node3&#45;&gt;Node4</title>
<g id="a_edge3_Node000003_Node000004"><a xlink:title=" ">
<path fill="none" stroke="#63b8ff" d="M198.61,-48C187.09,-48 174.33,-48 162.7,-48"/>
<polygon fill="#63b8ff" stroke="#63b8ff" points="198.57,-51.5 208.57,-48 198.57,-44.5 198.57,-51.5"/>
</a>
</g>
</g>
<!-- Node5 -->
<g id="Node000005" class="node">
<title>Node5</title>
<g id="a_Node000005"><a xlink:href="group___main_program.html#ga0ddf1224851353fc92bfbff6f499fa97" target="_top" xlink:title=" ">
<polygon fill="white" stroke="#666666" points="37,-39 0,-39 0,-19 37,-19 37,-39"/>
<text text-anchor="middle" x="18.5" y="-25.5" font-family="Helvetica,sans-Serif" font-size="10.00">main</text>
</a>
</g>
</g>
<!-- Node4&#45;&gt;Node5 -->
<g id="edge4_Node000004_Node000005" class="edge">
<title>Node4&#45;&gt;Node5</title>
<g id="a_edge4_Node000004_Node000005"><a xlink:title=" ">
<path fill="none" stroke="#63b8ff" d="M73.37,-38.91C60.46,-36.54 47.35,-34.13 37.3,-32.28"/>
<polygon fill="#63b8ff" stroke="#63b8ff" points="72.64,-42.34 83.11,-40.71 73.91,-35.45 72.64,-42.34"/>
</a>
</g>
</g>
<!-- Node6&#45;&gt;Node5 -->
<g id="edge6_Node000006_Node000005" class="edge">
<title>Node6&#45;&gt;Node5</title>
<g id="a_edge6_Node000006_Node000005"><a xlink:title=" ">
<path fill="none" stroke="#63b8ff" d="M61.34,-21.3C52.52,-22.92 44.1,-24.47 37.15,-25.75"/>
<polygon fill="#63b8ff" stroke="#63b8ff" points="61.95,-24.75 71.15,-19.5 60.68,-17.86 61.95,-24.75"/>
</a>
</g>
</g>
</g>
</svg>
