<?xml version="1.0" encoding="UTF-8" standalone="no"?>
<!DOCTYPE svg PUBLIC "-//W3C//DTD SVG 1.1//EN"
 "http://www.w3.org/Graphics/SVG/1.1/DTD/svg11.dtd">
<!-- Generated by graphviz version 11.0.0 (20240428.1522)
 -->
<!-- Title: set_iterator_to_next Pages: 1 -->
<svg width="439pt" height="79pt"
 viewBox="0.00 0.00 438.50 79.17" xmlns="http://www.w3.org/2000/svg" xmlns:xlink="http://www.w3.org/1999/xlink">
<g id="graph0" class="graph" transform="scale(1 1) rotate(0) translate(4 75.17)">
<title>set_iterator_to_next</title>
<!-- Node1 -->
<g id="Node000001" class="node">
<title>Node1</title>
<g id="a_Node000001"><a xlink:title="Posunutí iterátoru vpřed.">
<polygon fill="#999999" stroke="#666666" points="102.25,-58 0,-58 0,-38 102.25,-38 102.25,-58"/>
<text text-anchor="middle" x="51.12" y="-44.5" font-family="Helvetica,sans-Serif" font-size="10.00">set_iterator_to_next</text>
</a>
</g>
</g>
<!-- Node2 -->
<g id="Node000002" class="node">
<title>Node2</title>
<g id="a_Node000002"><a xlink:href="group___t_set_unsorted_flex_array.html#gad3346f67be35632c3b0fbd9ea616a0c1" target="_top" xlink:title="Zjištění platnosti pozice ve flexibilním poli.">
<polygon fill="white" stroke="#666666" points="430.5,-58 296,-58 296,-38 430.5,-38 430.5,-58"/>
<text text-anchor="middle" x="363.25" y="-44.5" font-family="Helvetica,sans-Serif" font-size="10.00">set_flex_array_is_valid_pos</text>
</a>
</g>
</g>
<!-- Node1&#45;&gt;Node2 -->
<g id="edge1_Node000001_Node000002" class="edge">
<title>Node1&#45;&gt;Node2</title>
<g id="a_edge1_Node000001_Node000002"><a xlink:title=" ">
<path fill="none" stroke="#63b8ff" d="M90.84,-58.42C105.57,-61.88 122.57,-65.29 138.25,-67 192.04,-72.86 206.12,-71.96 260,-67 274.69,-65.65 290.41,-63.22 305.01,-60.55"/>
<polygon fill="#63b8ff" stroke="#63b8ff" points="305.27,-64.06 314.44,-58.75 303.96,-57.19 305.27,-64.06"/>
</a>
</g>
</g>
<!-- Node3 -->
<g id="Node000003" class="node">
<title>Node3</title>
<g id="a_Node000003"><a xlink:href="group___t_set_unsorted_flex_array.html#ga8bc0de187146b066ae844c2278b6e198" target="_top" xlink:title="Výpočet následující platné pozice ve flexibilním poli.">
<polygon fill="white" stroke="#666666" points="260,-58 138.25,-58 138.25,-38 260,-38 260,-58"/>
<text text-anchor="middle" x="199.12" y="-44.5" font-family="Helvetica,sans-Serif" font-size="10.00">set_flex_array_next_pos</text>
</a>
</g>
</g>
<!-- Node1&#45;&gt;Node3 -->
<g id="edge2_Node000001_Node000003" class="edge">
<title>Node1&#45;&gt;Node3</title>
<g id="a_edge2_Node000001_Node000003"><a xlink:title=" ">
<path fill="none" stroke="#63b8ff" d="M102.37,-48C110.16,-48 118.34,-48 126.49,-48"/>
<polygon fill="#63b8ff" stroke="#63b8ff" points="126.45,-51.5 136.45,-48 126.45,-44.5 126.45,-51.5"/>
</a>
</g>
</g>
<!-- Node4 -->
<g id="Node000004" class="node">
<title>Node4</title>
<g id="a_Node000004"><a xlink:href="group___t_set_iterator.html#ga089f24c81ac3da7d1ac7ca24cc078dd8" target="_top" xlink:title="Zjištění platnosti iterátoru.">
<polygon fill="white" stroke="#666666" points="249.88,-20 148.38,-20 148.38,0 249.88,0 249.88,-20"/>
<text text-anchor="middle" x="199.12" y="-6.5" font-family="Helvetica,sans-Serif" font-size="10.00">set_iterator_is_valid</text>
</a>
</g>
</g>
<!-- Node1&#45;&gt;Node4 -->
<g id="edge3_Node000001_Node000004" class="edge">
<title>Node1&#45;&gt;Node4</title>
<g id="a_edge3_Node000001_Node000004"><a xlink:title=" ">
<path fill="none" stroke="#63b8ff" d="M92.41,-37.52C109.24,-33.13 129,-27.99 146.86,-23.34"/>
<polygon fill="#63b8ff" stroke="#63b8ff" points="147.71,-26.74 156.51,-20.83 145.95,-19.96 147.71,-26.74"/>
</a>
</g>
</g>
<!-- Node4&#45;&gt;Node2 -->
<g id="edge4_Node000004_Node000002" class="edge">
<title>Node4&#45;&gt;Node2</title>
<g id="a_edge4_Node000004_Node000002"><a xlink:title=" ">
<path fill="none" stroke="#63b8ff" d="M244.86,-20.48C263.99,-24.97 286.54,-30.25 306.73,-34.99"/>
<polygon fill="#63b8ff" stroke="#63b8ff" points="305.66,-38.33 316.19,-37.2 307.25,-31.51 305.66,-38.33"/>
</a>
</g>
</g>
</g>
</svg>
