<?xml version="1.0" encoding="UTF-8" standalone="no"?>
<!DOCTYPE svg PUBLIC "-//W3C//DTD SVG 1.1//EN"
 "http://www.w3.org/Graphics/SVG/1.1/DTD/svg11.dtd">
<!-- Generated by graphviz version 11.0.0 (20240428.1522)
 -->
<!-- Title: set_erase Pages: 1 -->
<svg width="515pt" height="66pt"
 viewBox="0.00 0.00 515.25 66.00" xmlns="http://www.w3.org/2000/svg" xmlns:xlink="http://www.w3.org/1999/xlink">
<g id="graph0" class="graph" transform="scale(1 1) rotate(0) translate(4 62)">
<title>set_erase</title>
<!-- Node1 -->
<g id="Node000001" class="node">
<title>Node1</title>
<g id="a_Node000001"><a xlink:title="Odstranění elementu z množiny.">
<polygon fill="#999999" stroke="#666666" points="58.75,-39 0,-39 0,-19 58.75,-19 58.75,-39"/>
<text text-anchor="middle" x="29.38" y="-25.5" font-family="Helvetica,sans-Serif" font-size="10.00">set_erase</text>
</a>
</g>
</g>
<!-- Node2 -->
<g id="Node000002" class="node">
<title>Node2</title>
<g id="a_Node000002"><a xlink:href="group___t_set_unsorted_flex_array.html#ga85a89d1ea648e9219f9c904727c8f7ef" target="_top" xlink:title="Odstranění elementu z flexibilního pole.">
<polygon fill="white" stroke="#666666" points="200.75,-58 94.75,-58 94.75,-38 200.75,-38 200.75,-58"/>
<text text-anchor="middle" x="147.75" y="-44.5" font-family="Helvetica,sans-Serif" font-size="10.00">set_flex_array_erase</text>
</a>
</g>
</g>
<!-- Node1&#45;&gt;Node2 -->
<g id="edge1_Node000001_Node000002" class="edge">
<title>Node1&#45;&gt;Node2</title>
<g id="a_edge1_Node000001_Node000002"><a xlink:title=" ">
<path fill="none" stroke="#63b8ff" d="M59.14,-33.7C66.45,-34.89 74.61,-36.22 82.91,-37.58"/>
<polygon fill="#63b8ff" stroke="#63b8ff" points="82.35,-41.03 92.78,-39.19 83.47,-34.12 82.35,-41.03"/>
</a>
</g>
</g>
<!-- Node5 -->
<g id="Node000005" class="node">
<title>Node5</title>
<g id="a_Node000005"><a xlink:href="group___t_set.html#ga2f7fd9486a5c300158d70dc79c6c6c8f" target="_top" xlink:title="Zjištění, zda je množina prázdná">
<polygon fill="white" stroke="#666666" points="185,-20 110.5,-20 110.5,0 185,0 185,-20"/>
<text text-anchor="middle" x="147.75" y="-6.5" font-family="Helvetica,sans-Serif" font-size="10.00">set_is_empty</text>
</a>
</g>
</g>
<!-- Node1&#45;&gt;Node5 -->
<g id="edge4_Node000001_Node000005" class="edge">
<title>Node1&#45;&gt;Node5</title>
<g id="a_edge4_Node000001_Node000005"><a xlink:title=" ">
<path fill="none" stroke="#63b8ff" d="M59.14,-24.3C71.24,-22.33 85.63,-19.98 99.22,-17.76"/>
<polygon fill="#63b8ff" stroke="#63b8ff" points="99.59,-21.25 108.89,-16.18 98.46,-14.34 99.59,-21.25"/>
</a>
</g>
</g>
<!-- Node3 -->
<g id="Node000003" class="node">
<title>Node3</title>
<g id="a_Node000003"><a xlink:href="group___t_set_unsorted_flex_array.html#ga5d5631db0bf286d944f4e538a072c2eb" target="_top" xlink:title="Funkce zjišťující, zda flexibilní pole obsahuje element o zadané hodnotě">
<polygon fill="white" stroke="#666666" points="348,-58 236.75,-58 236.75,-38 348,-38 348,-58"/>
<text text-anchor="middle" x="292.38" y="-44.5" font-family="Helvetica,sans-Serif" font-size="10.00">set_flex_array_search</text>
</a>
</g>
</g>
<!-- Node2&#45;&gt;Node3 -->
<g id="edge2_Node000002_Node000003" class="edge">
<title>Node2&#45;&gt;Node3</title>
<g id="a_edge2_Node000002_Node000003"><a xlink:title=" ">
<path fill="none" stroke="#63b8ff" d="M201.05,-48C208.94,-48 217.16,-48 225.3,-48"/>
<polygon fill="#63b8ff" stroke="#63b8ff" points="225.17,-51.5 235.17,-48 225.17,-44.5 225.17,-51.5"/>
</a>
</g>
</g>
<!-- Node4 -->
<g id="Node000004" class="node">
<title>Node4</title>
<g id="a_Node000004"><a xlink:href="group___t_set_element.html#gad8cfc9a36f36c44c10b660c5b370f67e" target="_top" xlink:title="Porovnání dvou elementů">
<polygon fill="white" stroke="#666666" points="507.25,-58 384,-58 384,-38 507.25,-38 507.25,-58"/>
<text text-anchor="middle" x="445.62" y="-44.5" font-family="Helvetica,sans-Serif" font-size="10.00">set_element_comparator</text>
</a>
</g>
</g>
<!-- Node3&#45;&gt;Node4 -->
<g id="edge3_Node000003_Node000004" class="edge">
<title>Node3&#45;&gt;Node4</title>
<g id="a_edge3_Node000003_Node000004"><a xlink:title=" ">
<path fill="none" stroke="#63b8ff" d="M348.41,-48C356.22,-48 364.34,-48 372.41,-48"/>
<polygon fill="#63b8ff" stroke="#63b8ff" points="372.24,-51.5 382.24,-48 372.24,-44.5 372.24,-51.5"/>
</a>
</g>
</g>
<!-- Node6 -->
<g id="Node000006" class="node">
<title>Node6</title>
<g id="a_Node000006"><a xlink:href="group___t_set.html#ga213cfb714cece49d955fc452b2aeb186" target="_top" xlink:title="Přečtení počtu elementů množiny.">
<polygon fill="white" stroke="#666666" points="318.75,-20 266,-20 266,0 318.75,0 318.75,-20"/>
<text text-anchor="middle" x="292.38" y="-6.5" font-family="Helvetica,sans-Serif" font-size="10.00">set_size</text>
</a>
</g>
</g>
<!-- Node5&#45;&gt;Node6 -->
<g id="edge5_Node000005_Node000006" class="edge">
<title>Node5&#45;&gt;Node6</title>
<g id="a_edge5_Node000005_Node000006"><a xlink:title=" ">
<path fill="none" stroke="#63b8ff" d="M185.48,-10C206.55,-10 232.94,-10 254.1,-10"/>
<polygon fill="#63b8ff" stroke="#63b8ff" points="254.05,-13.5 264.05,-10 254.05,-6.5 254.05,-13.5"/>
</a>
</g>
</g>
</g>
</svg>
