<?xml version="1.0" encoding="UTF-8" standalone="no"?>
<!DOCTYPE svg PUBLIC "-//W3C//DTD SVG 1.1//EN"
 "http://www.w3.org/Graphics/SVG/1.1/DTD/svg11.dtd">
<!-- Generated by graphviz version 11.0.0 (20240428.1522)
 -->
<!-- Title: set_is_element_of Pages: 1 -->
<svg width="409pt" height="66pt"
 viewBox="0.00 0.00 409.25 66.00" xmlns="http://www.w3.org/2000/svg" xmlns:xlink="http://www.w3.org/1999/xlink">
<g id="graph0" class="graph" transform="scale(1 1) rotate(0) translate(4 62)">
<title>set_is_element_of</title>
<!-- Node1 -->
<g id="Node000001" class="node">
<title>Node1</title>
<g id="a_Node000001"><a xlink:title="Zjištění, zda množina obsahuje zadanou hodnotu elementu.">
<polygon fill="#999999" stroke="#666666" points="94.75,-39 0,-39 0,-19 94.75,-19 94.75,-39"/>
<text text-anchor="middle" x="47.38" y="-25.5" font-family="Helvetica,sans-Serif" font-size="10.00">set_is_element_of</text>
</a>
</g>
</g>
<!-- Node2 -->
<g id="Node000002" class="node">
<title>Node2</title>
<g id="a_Node000002"><a xlink:href="group___t_set_unsorted_flex_array.html#ga5d5631db0bf286d944f4e538a072c2eb" target="_top" xlink:title="Funkce zjišťující, zda flexibilní pole obsahuje element o zadané hodnotě">
<polygon fill="white" stroke="#666666" points="242,-58 130.75,-58 130.75,-38 242,-38 242,-58"/>
<text text-anchor="middle" x="186.38" y="-44.5" font-family="Helvetica,sans-Serif" font-size="10.00">set_flex_array_search</text>
</a>
</g>
</g>
<!-- Node1&#45;&gt;Node2 -->
<g id="edge1_Node000001_Node000002" class="edge">
<title>Node1&#45;&gt;Node2</title>
<g id="a_edge1_Node000001_Node000002"><a xlink:title=" ">
<path fill="none" stroke="#63b8ff" d="M95.14,-35.49C102.83,-36.55 110.93,-37.68 118.99,-38.79"/>
<polygon fill="#63b8ff" stroke="#63b8ff" points="118.43,-42.25 128.82,-40.16 119.39,-35.32 118.43,-42.25"/>
</a>
</g>
</g>
<!-- Node4 -->
<g id="Node000004" class="node">
<title>Node4</title>
<g id="a_Node000004"><a xlink:href="group___t_set.html#ga2f7fd9486a5c300158d70dc79c6c6c8f" target="_top" xlink:title="Zjištění, zda je množina prázdná">
<polygon fill="white" stroke="#666666" points="223.62,-20 149.12,-20 149.12,0 223.62,0 223.62,-20"/>
<text text-anchor="middle" x="186.38" y="-6.5" font-family="Helvetica,sans-Serif" font-size="10.00">set_is_empty</text>
</a>
</g>
</g>
<!-- Node1&#45;&gt;Node4 -->
<g id="edge3_Node000001_Node000004" class="edge">
<title>Node1&#45;&gt;Node4</title>
<g id="a_edge3_Node000001_Node000004"><a xlink:title=" ">
<path fill="none" stroke="#63b8ff" d="M95.14,-22.51C108.83,-20.62 123.8,-18.54 137.55,-16.63"/>
<polygon fill="#63b8ff" stroke="#63b8ff" points="137.84,-20.13 147.26,-15.29 136.88,-13.19 137.84,-20.13"/>
</a>
</g>
</g>
<!-- Node3 -->
<g id="Node000003" class="node">
<title>Node3</title>
<g id="a_Node000003"><a xlink:href="group___t_set_element.html#gad8cfc9a36f36c44c10b660c5b370f67e" target="_top" xlink:title="Porovnání dvou elementů">
<polygon fill="white" stroke="#666666" points="401.25,-58 278,-58 278,-38 401.25,-38 401.25,-58"/>
<text text-anchor="middle" x="339.62" y="-44.5" font-family="Helvetica,sans-Serif" font-size="10.00">set_element_comparator</text>
</a>
</g>
</g>
<!-- Node2&#45;&gt;Node3 -->
<g id="edge2_Node000002_Node000003" class="edge">
<title>Node2&#45;&gt;Node3</title>
<g id="a_edge2_Node000002_Node000003"><a xlink:title=" ">
<path fill="none" stroke="#63b8ff" d="M242.41,-48C250.22,-48 258.34,-48 266.41,-48"/>
<polygon fill="#63b8ff" stroke="#63b8ff" points="266.24,-51.5 276.24,-48 266.24,-44.5 266.24,-51.5"/>
</a>
</g>
</g>
<!-- Node5 -->
<g id="Node000005" class="node">
<title>Node5</title>
<g id="a_Node000005"><a xlink:href="group___t_set.html#ga213cfb714cece49d955fc452b2aeb186" target="_top" xlink:title="Přečtení počtu elementů množiny.">
<polygon fill="white" stroke="#666666" points="366,-20 313.25,-20 313.25,0 366,0 366,-20"/>
<text text-anchor="middle" x="339.62" y="-6.5" font-family="Helvetica,sans-Serif" font-size="10.00">set_size</text>
</a>
</g>
</g>
<!-- Node4&#45;&gt;Node5 -->
<g id="edge4_Node000004_Node000005" class="edge">
<title>Node4&#45;&gt;Node5</title>
<g id="a_edge4_Node000004_Node000005"><a xlink:title=" ">
<path fill="none" stroke="#63b8ff" d="M223.99,-10C247.47,-10 277.87,-10 301.46,-10"/>
<polygon fill="#63b8ff" stroke="#63b8ff" points="301.26,-13.5 311.26,-10 301.26,-6.5 301.26,-13.5"/>
</a>
</g>
</g>
</g>
</svg>
