<?xml version="1.0" encoding="UTF-8" standalone="no"?>
<!DOCTYPE svg PUBLIC "-//W3C//DTD SVG 1.1//EN"
 "http://www.w3.org/Graphics/SVG/1.1/DTD/svg11.dtd">
<!-- Generated by graphviz version 11.0.0 (20240428.1522)
 -->
<!-- Title: set_find Pages: 1 -->
<svg width="364pt" height="66pt"
 viewBox="0.00 0.00 364.25 66.00" xmlns="http://www.w3.org/2000/svg" xmlns:xlink="http://www.w3.org/1999/xlink">
<g id="graph0" class="graph" transform="scale(1 1) rotate(0) translate(4 62)">
<title>set_find</title>
<!-- Node1 -->
<g id="Node000001" class="node">
<title>Node1</title>
<g id="a_Node000001"><a xlink:title="Získání nového iterátoru ukazujícího na první element se zadanou hodnotou v množině,...">
<polygon fill="#999999" stroke="#666666" points="49.75,-39 0,-39 0,-19 49.75,-19 49.75,-39"/>
<text text-anchor="middle" x="24.88" y="-25.5" font-family="Helvetica,sans-Serif" font-size="10.00">set_find</text>
</a>
</g>
</g>
<!-- Node1&#45;&gt;Node1 -->
<g id="edge1_Node000001_Node000001" class="edge">
<title>Node1&#45;&gt;Node1</title>
<g id="a_edge1_Node000001_Node000001"><a xlink:title=" ">
<path fill="none" stroke="#63b8ff" d="M6.36,-39.34C-1.55,-47.98 4.62,-57 24.88,-57 35.95,-57 42.81,-54.3 45.47,-50.44"/>
<polygon fill="#63b8ff" stroke="#63b8ff" points="48.95,-50.01 43.66,-40.83 42.07,-51.3 48.95,-50.01"/>
</a>
</g>
</g>
<!-- Node2 -->
<g id="Node000002" class="node">
<title>Node2</title>
<g id="a_Node000002"><a xlink:href="group___t_set_unsorted_flex_array.html#ga5d5631db0bf286d944f4e538a072c2eb" target="_top" xlink:title="Funkce zjišťující, zda flexibilní pole obsahuje element o zadané hodnotě">
<polygon fill="white" stroke="#666666" points="197,-58 85.75,-58 85.75,-38 197,-38 197,-58"/>
<text text-anchor="middle" x="141.38" y="-44.5" font-family="Helvetica,sans-Serif" font-size="10.00">set_flex_array_search</text>
</a>
</g>
</g>
<!-- Node1&#45;&gt;Node2 -->
<g id="edge2_Node000001_Node000002" class="edge">
<title>Node1&#45;&gt;Node2</title>
<g id="a_edge2_Node000001_Node000002"><a xlink:title=" ">
<path fill="none" stroke="#63b8ff" d="M50.16,-33.03C57.37,-34.23 65.64,-35.6 74.18,-37.02"/>
<polygon fill="#63b8ff" stroke="#63b8ff" points="73.57,-40.46 84.01,-38.65 74.72,-33.56 73.57,-40.46"/>
</a>
</g>
</g>
<!-- Node4 -->
<g id="Node000004" class="node">
<title>Node4</title>
<g id="a_Node000004"><a xlink:href="group___t_set.html#ga2f7fd9486a5c300158d70dc79c6c6c8f" target="_top" xlink:title="Zjištění, zda je množina prázdná">
<polygon fill="white" stroke="#666666" points="178.62,-20 104.12,-20 104.12,0 178.62,0 178.62,-20"/>
<text text-anchor="middle" x="141.38" y="-6.5" font-family="Helvetica,sans-Serif" font-size="10.00">set_is_empty</text>
</a>
</g>
</g>
<!-- Node1&#45;&gt;Node4 -->
<g id="edge4_Node000001_Node000004" class="edge">
<title>Node1&#45;&gt;Node4</title>
<g id="a_edge4_Node000001_Node000004"><a xlink:title=" ">
<path fill="none" stroke="#63b8ff" d="M50.16,-24.97C62.61,-22.9 78.21,-20.32 92.93,-17.87"/>
<polygon fill="#63b8ff" stroke="#63b8ff" points="93.15,-21.38 102.45,-16.29 92.01,-14.48 93.15,-21.38"/>
</a>
</g>
</g>
<!-- Node3 -->
<g id="Node000003" class="node">
<title>Node3</title>
<g id="a_Node000003"><a xlink:href="group___t_set_element.html#gad8cfc9a36f36c44c10b660c5b370f67e" target="_top" xlink:title="Porovnání dvou elementů">
<polygon fill="white" stroke="#666666" points="356.25,-58 233,-58 233,-38 356.25,-38 356.25,-58"/>
<text text-anchor="middle" x="294.62" y="-44.5" font-family="Helvetica,sans-Serif" font-size="10.00">set_element_comparator</text>
</a>
</g>
</g>
<!-- Node2&#45;&gt;Node3 -->
<g id="edge3_Node000002_Node000003" class="edge">
<title>Node2&#45;&gt;Node3</title>
<g id="a_edge3_Node000002_Node000003"><a xlink:title=" ">
<path fill="none" stroke="#63b8ff" d="M197.41,-48C205.22,-48 213.34,-48 221.41,-48"/>
<polygon fill="#63b8ff" stroke="#63b8ff" points="221.24,-51.5 231.24,-48 221.24,-44.5 221.24,-51.5"/>
</a>
</g>
</g>
<!-- Node5 -->
<g id="Node000005" class="node">
<title>Node5</title>
<g id="a_Node000005"><a xlink:href="group___t_set.html#ga213cfb714cece49d955fc452b2aeb186" target="_top" xlink:title="Přečtení počtu elementů množiny.">
<polygon fill="white" stroke="#666666" points="321,-20 268.25,-20 268.25,0 321,0 321,-20"/>
<text text-anchor="middle" x="294.62" y="-6.5" font-family="Helvetica,sans-Serif" font-size="10.00">set_size</text>
</a>
</g>
</g>
<!-- Node4&#45;&gt;Node5 -->
<g id="edge5_Node000004_Node000005" class="edge">
<title>Node4&#45;&gt;Node5</title>
<g id="a_edge5_Node000004_Node000005"><a xlink:title=" ">
<path fill="none" stroke="#63b8ff" d="M178.99,-10C202.47,-10 232.87,-10 256.46,-10"/>
<polygon fill="#63b8ff" stroke="#63b8ff" points="256.26,-13.5 266.26,-10 256.26,-6.5 256.26,-13.5"/>
</a>
</g>
</g>
</g>
</svg>
