<?xml version="1.0" encoding="UTF-8" standalone="no"?>
<!DOCTYPE svg PUBLIC "-//W3C//DTD SVG 1.1//EN"
 "http://www.w3.org/Graphics/SVG/1.1/DTD/svg11.dtd">
<!-- Generated by graphviz version 11.0.0 (20240428.1522)
 -->
<!-- Title: main Pages: 1 -->
<svg width="917pt" height="578pt"
 viewBox="0.00 0.00 917.25 578.00" xmlns="http://www.w3.org/2000/svg" xmlns:xlink="http://www.w3.org/1999/xlink">
<g id="graph0" class="graph" transform="scale(1 1) rotate(0) translate(4 574)">
<title>main</title>
<!-- Node1 -->
<g id="Node000001" class="node">
<title>Node1</title>
<g id="a_Node000001"><a xlink:title=" ">
<polygon fill="#999999" stroke="#666666" points="37,-385 0,-385 0,-365 37,-365 37,-385"/>
<text text-anchor="middle" x="18.5" y="-371.5" font-family="Helvetica,sans-Serif" font-size="10.00">main</text>
</a>
</g>
</g>
<!-- Node2 -->
<g id="Node000002" class="node">
<title>Node2</title>
<g id="a_Node000002"><a xlink:href="group___t_set.html#ga8094d1ab68434b8413cd905895ff37ae" target="_top" xlink:title="Deinicializace množiny.">
<polygon fill="white" stroke="#666666" points="404.88,-570 337.88,-570 337.88,-550 404.88,-550 404.88,-570"/>
<text text-anchor="middle" x="371.38" y="-556.5" font-family="Helvetica,sans-Serif" font-size="10.00">set_destroy</text>
</a>
</g>
</g>
<!-- Node1&#45;&gt;Node2 -->
<g id="edge1_Node000001_Node000002" class="edge">
<title>Node1&#45;&gt;Node2</title>
<g id="a_edge1_Node000001_Node000002"><a xlink:title=" ">
<path fill="none" stroke="#63b8ff" d="M30.84,-385.35C41.3,-394.59 57.51,-408.15 73,-418 160.99,-473.95 274.42,-522.2 332.47,-545.37"/>
<polygon fill="#63b8ff" stroke="#63b8ff" points="330.98,-548.54 341.57,-548.97 333.56,-542.03 330.98,-548.54"/>
</a>
</g>
</g>
<!-- Node4 -->
<g id="Node000004" class="node">
<title>Node4</title>
<g id="a_Node000004"><a xlink:href="group___t_set.html#ga674fb4a9d4cac982bca65b8b264b04b5" target="_top" xlink:title="Inicializace prázdné množiny.">
<polygon fill="white" stroke="#666666" points="395.12,-286 347.62,-286 347.62,-266 395.12,-266 395.12,-286"/>
<text text-anchor="middle" x="371.38" y="-272.5" font-family="Helvetica,sans-Serif" font-size="10.00">set_init</text>
</a>
</g>
</g>
<!-- Node1&#45;&gt;Node4 -->
<g id="edge3_Node000001_Node000004" class="edge">
<title>Node1&#45;&gt;Node4</title>
<g id="a_edge3_Node000001_Node000004"><a xlink:title=" ">
<path fill="none" stroke="#63b8ff" d="M37.38,-369.95C92.92,-354.28 263.11,-306.26 336.31,-285.61"/>
<polygon fill="#63b8ff" stroke="#63b8ff" points="337.07,-289.03 345.74,-282.95 335.17,-282.3 337.07,-289.03"/>
</a>
</g>
</g>
<!-- Node5 -->
<g id="Node000005" class="node">
<title>Node5</title>
<g id="a_Node000005"><a xlink:href="testbench_8c.html#a2fa1559684d267665b1c2433208511d3" target="_top" xlink:title="Provedení všech testů zadaného testovacího plánu na předaném ADT.">
<polygon fill="white" stroke="#666666" points="150.5,-409 73,-409 73,-389 150.5,-389 150.5,-409"/>
<text text-anchor="middle" x="111.75" y="-395.5" font-family="Helvetica,sans-Serif" font-size="10.00">testbench_run</text>
</a>
</g>
</g>
<!-- Node1&#45;&gt;Node5 -->
<g id="edge4_Node000001_Node000005" class="edge">
<title>Node1&#45;&gt;Node5</title>
<g id="a_edge4_Node000001_Node000005"><a xlink:title=" ">
<path fill="none" stroke="#63b8ff" d="M37.09,-379.63C44.31,-381.53 53.05,-383.83 61.96,-386.17"/>
<polygon fill="#63b8ff" stroke="#63b8ff" points="60.79,-389.48 71.35,-388.64 62.57,-382.71 60.79,-389.48"/>
</a>
</g>
</g>
<!-- Node19 -->
<g id="Node000019" class="node">
<title>Node19</title>
<g id="a_Node000019"><a xlink:href="group___main_program.html#ga59363e824664d6f3ebb09b0cd5c44a28" target="_top" xlink:title=" ">
<polygon fill="white" stroke="#666666" points="288,-257 186.5,-257 186.5,-237 288,-237 288,-257"/>
<text text-anchor="middle" x="237.25" y="-243.5" font-family="Helvetica,sans-Serif" font-size="10.00">testset2_hardcoded</text>
</a>
</g>
</g>
<!-- Node1&#45;&gt;Node19 -->
<g id="edge23_Node000001_Node000019" class="edge">
<title>Node1&#45;&gt;Node19</title>
<g id="a_edge23_Node000001_Node000019"><a xlink:title=" ">
<path fill="none" stroke="#63b8ff" d="M35.82,-364.78C46.39,-358.21 60.46,-349.52 73,-342 120.21,-313.71 175.69,-281.68 208.3,-262.98"/>
<polygon fill="#63b8ff" stroke="#63b8ff" points="209.79,-266.15 216.73,-258.14 206.31,-260.08 209.79,-266.15"/>
</a>
</g>
</g>
<!-- Node3 -->
<g id="Node000003" class="node">
<title>Node3</title>
<g id="a_Node000003"><a xlink:href="group___t_set_unsorted_flex_array.html#gad077ee65d964556f86e5dfa4a680bd10" target="_top" xlink:title="Deinicializace flexibilního pole.">
<polygon fill="white" stroke="#666666" points="575,-570 460.75,-570 460.75,-550 575,-550 575,-570"/>
<text text-anchor="middle" x="517.88" y="-556.5" font-family="Helvetica,sans-Serif" font-size="10.00">set_flex_array_destroy</text>
</a>
</g>
</g>
<!-- Node2&#45;&gt;Node3 -->
<g id="edge2_Node000002_Node000003" class="edge">
<title>Node2&#45;&gt;Node3</title>
<g id="a_edge2_Node000002_Node000003"><a xlink:title=" ">
<path fill="none" stroke="#63b8ff" d="M405.16,-560C418.3,-560 433.94,-560 449.3,-560"/>
<polygon fill="#63b8ff" stroke="#63b8ff" points="448.88,-563.5 458.88,-560 448.88,-556.5 448.88,-563.5"/>
</a>
</g>
</g>
<!-- Node6 -->
<g id="Node000006" class="node">
<title>Node6</title>
<g id="a_Node000006"><a xlink:href="testbench_8c.html#a068734a4e1d6209769e0c6b1675ca02b" target="_top" xlink:title="Provedení jednoho test z testovacího plánu na předaném ADT.">
<polygon fill="white" stroke="#666666" points="262.88,-409 211.62,-409 211.62,-389 262.88,-389 262.88,-409"/>
<text text-anchor="middle" x="237.25" y="-395.5" font-family="Helvetica,sans-Serif" font-size="10.00">test_run</text>
</a>
</g>
</g>
<!-- Node5&#45;&gt;Node6 -->
<g id="edge5_Node000005_Node000006" class="edge">
<title>Node5&#45;&gt;Node6</title>
<g id="a_edge5_Node000005_Node000006"><a xlink:title=" ">
<path fill="none" stroke="#63b8ff" d="M150.81,-399C166.51,-399 184.62,-399 200.12,-399"/>
<polygon fill="#63b8ff" stroke="#63b8ff" points="199.86,-402.5 209.86,-399 199.86,-395.5 199.86,-402.5"/>
</a>
</g>
</g>
<!-- Node7 -->
<g id="Node000007" class="node">
<title>Node7</title>
<g id="a_Node000007"><a xlink:href="testbench_8c.html#aa291195ad453d2b1e29004cc2e043c01" target="_top" xlink:title=" ">
<polygon fill="white" stroke="#666666" points="405.25,-532 337.5,-532 337.5,-512 405.25,-512 405.25,-532"/>
<text text-anchor="middle" x="371.38" y="-518.5" font-family="Helvetica,sans-Serif" font-size="10.00">difftimespec</text>
</a>
</g>
</g>
<!-- Node6&#45;&gt;Node7 -->
<g id="edge6_Node000006_Node000007" class="edge">
<title>Node6&#45;&gt;Node7</title>
<g id="a_edge6_Node000006_Node000007"><a xlink:title=" ">
<path fill="none" stroke="#63b8ff" d="M245.22,-409.4C258.62,-428.8 289.71,-470.98 324,-498 327.77,-500.97 331.95,-503.73 336.23,-506.25"/>
<polygon fill="#63b8ff" stroke="#63b8ff" points="334.42,-509.25 344.88,-510.94 337.76,-503.1 334.42,-509.25"/>
</a>
</g>
</g>
<!-- Node8 -->
<g id="Node000008" class="node">
<title>Node8</title>
<g id="a_Node000008"><a xlink:href="testbench_8c.html#a68bb846e665ae25f0855b12907c6f7b0" target="_top" xlink:title="Vytisknutí hodnoty elementu v ADT pomocí iterátoru.">
<polygon fill="white" stroke="#666666" points="408.62,-456 334.12,-456 334.12,-436 408.62,-436 408.62,-456"/>
<text text-anchor="middle" x="371.38" y="-442.5" font-family="Helvetica,sans-Serif" font-size="10.00">print_element</text>
</a>
</g>
</g>
<!-- Node6&#45;&gt;Node8 -->
<g id="edge7_Node000006_Node000008" class="edge">
<title>Node6&#45;&gt;Node8</title>
<g id="a_edge7_Node000006_Node000008"><a xlink:title=" ">
<path fill="none" stroke="#63b8ff" d="M263.1,-407.84C282.03,-414.57 308.47,-423.98 330.37,-431.77"/>
<polygon fill="#63b8ff" stroke="#63b8ff" points="329,-435 339.6,-435.05 331.35,-428.4 329,-435"/>
</a>
</g>
</g>
<!-- Node9 -->
<g id="Node000009" class="node">
<title>Node9</title>
<g id="a_Node000009"><a xlink:href="group___t_set_element.html#ga3473fca967dede884b1c910838f2d8df" target="_top" xlink:title="Uložení elementu do souboru.">
<polygon fill="white" stroke="#666666" points="574.62,-475 461.12,-475 461.12,-455 574.62,-455 574.62,-475"/>
<text text-anchor="middle" x="517.88" y="-461.5" font-family="Helvetica,sans-Serif" font-size="10.00">set_element_store_file</text>
</a>
</g>
</g>
<!-- Node6&#45;&gt;Node9 -->
<g id="edge13_Node000006_Node000009" class="edge">
<title>Node6&#45;&gt;Node9</title>
<g id="a_edge13_Node000006_Node000009"><a xlink:title=" ">
<path fill="none" stroke="#63b8ff" d="M247.25,-409.34C261.62,-424.96 291.45,-453.93 324,-465 364.08,-478.64 411.61,-478.81 449.46,-475.48"/>
<polygon fill="#63b8ff" stroke="#63b8ff" points="449.76,-478.97 459.37,-474.5 449.07,-472 449.76,-478.97"/>
</a>
</g>
</g>
<!-- Node14 -->
<g id="Node000014" class="node">
<title>Node14</title>
<g id="a_Node000014"><a xlink:href="group___iterator_algorithms.html#gab8ba369b42eda61d010f35df73be73db" target="_top" xlink:title="Zavolání zvolené funkce na každý element množiny od pozice určené iterátorem až do posledního element...">
<polygon fill="white" stroke="#666666" points="407.12,-324 335.62,-324 335.62,-304 407.12,-304 407.12,-324"/>
<text text-anchor="middle" x="371.38" y="-310.5" font-family="Helvetica,sans-Serif" font-size="10.00">set_for_each</text>
</a>
</g>
</g>
<!-- Node6&#45;&gt;Node14 -->
<g id="edge14_Node000006_Node000014" class="edge">
<title>Node6&#45;&gt;Node14</title>
<g id="a_edge14_Node000006_Node000014"><a xlink:title=" ">
<path fill="none" stroke="#63b8ff" d="M258.9,-388.61C268.17,-383.54 279.02,-377.02 288,-370 306.08,-355.87 304.99,-345.84 324,-333 325.84,-331.76 327.77,-330.58 329.76,-329.45"/>
<polygon fill="#63b8ff" stroke="#63b8ff" points="331.27,-332.61 338.66,-325.01 328.15,-326.35 331.27,-332.61"/>
</a>
</g>
</g>
<!-- Node17 -->
<g id="Node000017" class="node">
<title>Node17</title>
<g id="a_Node000017"><a xlink:href="group___t_set_iterator.html#gab11bafbe7585e4bb0bd9ff2353d77765" target="_top" xlink:title="Vytvoření nového iterátoru ukazujícího na první element množiny.">
<polygon fill="white" stroke="#666666" points="418,-362 324.75,-362 324.75,-342 418,-342 418,-362"/>
<text text-anchor="middle" x="371.38" y="-348.5" font-family="Helvetica,sans-Serif" font-size="10.00">set_iterator_begin</text>
</a>
</g>
</g>
<!-- Node6&#45;&gt;Node17 -->
<g id="edge20_Node000006_Node000017" class="edge">
<title>Node6&#45;&gt;Node17</title>
<g id="a_edge20_Node000006_Node000017"><a xlink:title=" ">
<path fill="none" stroke="#63b8ff" d="M263.1,-390.16C282.03,-383.43 308.47,-374.02 330.37,-366.23"/>
<polygon fill="#63b8ff" stroke="#63b8ff" points="331.35,-369.6 339.6,-362.95 329,-363 331.35,-369.6"/>
</a>
</g>
</g>
<!-- Node8&#45;&gt;Node9 -->
<g id="edge8_Node000008_Node000009" class="edge">
<title>Node8&#45;&gt;Node9</title>
<g id="a_edge8_Node000008_Node000009"><a xlink:title=" ">
<path fill="none" stroke="#63b8ff" d="M408.84,-450.79C421.24,-452.43 435.53,-454.3 449.56,-456.15"/>
<polygon fill="#63b8ff" stroke="#63b8ff" points="448.85,-459.59 459.22,-457.42 449.76,-452.65 448.85,-459.59"/>
</a>
</g>
</g>
<!-- Node10 -->
<g id="Node000010" class="node">
<title>Node10</title>
<g id="a_Node000010"><a xlink:href="group___t_set_iterator.html#ga3928a980e2759ba130ce333e77f15fab" target="_top" xlink:title="Přečtení hodnoty elementu z množiny pomocí iterátoru.">
<polygon fill="white" stroke="#666666" points="563.75,-418 472,-418 472,-398 563.75,-398 563.75,-418"/>
<text text-anchor="middle" x="517.88" y="-404.5" font-family="Helvetica,sans-Serif" font-size="10.00">set_iterator_value</text>
</a>
</g>
</g>
<!-- Node8&#45;&gt;Node10 -->
<g id="edge9_Node000008_Node000010" class="edge">
<title>Node8&#45;&gt;Node10</title>
<g id="a_edge9_Node000008_Node000010"><a xlink:title=" ">
<path fill="none" stroke="#63b8ff" d="M408.84,-436.41C426.16,-431.86 447.15,-426.34 466.01,-421.38"/>
<polygon fill="#63b8ff" stroke="#63b8ff" points="466.88,-424.77 475.66,-418.84 465.1,-418 466.88,-424.77"/>
</a>
</g>
</g>
<!-- Node11 -->
<g id="Node000011" class="node">
<title>Node11</title>
<g id="a_Node000011"><a xlink:href="group___t_set_unsorted_flex_array.html#ga9e462daa460e7e102258837658e80ceb" target="_top" xlink:title="Přečtení hodnoty elementu z flexibilního pole.">
<polygon fill="white" stroke="#666666" points="729.75,-424 626,-424 626,-392 729.75,-392 729.75,-424"/>
<text text-anchor="start" x="634" y="-410.5" font-family="Helvetica,sans-Serif" font-size="10.00">set_flex_array_value</text>
<text text-anchor="middle" x="677.88" y="-398.5" font-family="Helvetica,sans-Serif" font-size="10.00">_at_pos</text>
</a>
</g>
</g>
<!-- Node10&#45;&gt;Node11 -->
<g id="edge10_Node000010_Node000011" class="edge">
<title>Node10&#45;&gt;Node11</title>
<g id="a_edge10_Node000010_Node000011"><a xlink:title=" ">
<path fill="none" stroke="#63b8ff" d="M564.15,-408C579.78,-408 597.59,-408 614.35,-408"/>
<polygon fill="#63b8ff" stroke="#63b8ff" points="614.24,-411.5 624.24,-408 614.24,-404.5 614.24,-411.5"/>
</a>
</g>
</g>
<!-- Node12 -->
<g id="Node000012" class="node">
<title>Node12</title>
<g id="a_Node000012"><a xlink:href="group___t_set_iterator.html#ga089f24c81ac3da7d1ac7ca24cc078dd8" target="_top" xlink:title="Zjištění platnosti iterátoru.">
<polygon fill="white" stroke="#666666" points="728.62,-248 627.12,-248 627.12,-228 728.62,-228 728.62,-248"/>
<text text-anchor="middle" x="677.88" y="-234.5" font-family="Helvetica,sans-Serif" font-size="10.00">set_iterator_is_valid</text>
</a>
</g>
</g>
<!-- Node10&#45;&gt;Node12 -->
<g id="edge11_Node000010_Node000012" class="edge">
<title>Node10&#45;&gt;Node12</title>
<g id="a_edge11_Node000010_Node000012"><a xlink:title=" ">
<path fill="none" stroke="#63b8ff" d="M541.05,-397.64C553.62,-391.1 569.15,-381.85 581,-371 618.24,-336.88 649.92,-286.16 665.85,-258.25"/>
<polygon fill="#63b8ff" stroke="#63b8ff" points="668.78,-260.18 670.6,-249.75 662.67,-256.77 668.78,-260.18"/>
</a>
</g>
</g>
<!-- Node13 -->
<g id="Node000013" class="node">
<title>Node13</title>
<g id="a_Node000013"><a xlink:href="group___t_set_unsorted_flex_array.html#gad3346f67be35632c3b0fbd9ea616a0c1" target="_top" xlink:title="Zjištění platnosti pozice ve flexibilním poli.">
<polygon fill="white" stroke="#666666" points="909.25,-210 774.75,-210 774.75,-190 909.25,-190 909.25,-210"/>
<text text-anchor="middle" x="842" y="-196.5" font-family="Helvetica,sans-Serif" font-size="10.00">set_flex_array_is_valid_pos</text>
</a>
</g>
</g>
<!-- Node12&#45;&gt;Node13 -->
<g id="edge12_Node000012_Node000013" class="edge">
<title>Node12&#45;&gt;Node13</title>
<g id="a_edge12_Node000012_Node000013"><a xlink:title=" ">
<path fill="none" stroke="#63b8ff" d="M723.61,-227.52C742.74,-223.03 765.29,-217.75 785.48,-213.01"/>
<polygon fill="#63b8ff" stroke="#63b8ff" points="786,-216.49 794.94,-210.8 784.41,-209.67 786,-216.49"/>
</a>
</g>
</g>
<!-- Node14&#45;&gt;Node12 -->
<g id="edge15_Node000014_Node000012" class="edge">
<title>Node14&#45;&gt;Node12</title>
<g id="a_edge15_Node000014_Node000012"><a xlink:title=" ">
<path fill="none" stroke="#63b8ff" d="M407.6,-305.21C460.73,-291.95 561.74,-266.74 623.81,-251.25"/>
<polygon fill="#63b8ff" stroke="#63b8ff" points="624.6,-254.65 633.45,-248.84 622.9,-247.86 624.6,-254.65"/>
</a>
</g>
</g>
<!-- Node15 -->
<g id="Node000015" class="node">
<title>Node15</title>
<g id="a_Node000015"><a xlink:href="group___t_set_iterator.html#ga6723a05c864198597ff49718020bd0d6" target="_top" xlink:title="Posunutí iterátoru vpřed.">
<polygon fill="white" stroke="#666666" points="569,-172 466.75,-172 466.75,-152 569,-152 569,-172"/>
<text text-anchor="middle" x="517.88" y="-158.5" font-family="Helvetica,sans-Serif" font-size="10.00">set_iterator_to_next</text>
</a>
</g>
</g>
<!-- Node14&#45;&gt;Node15 -->
<g id="edge16_Node000014_Node000015" class="edge">
<title>Node14&#45;&gt;Node15</title>
<g id="a_edge16_Node000014_Node000015"><a xlink:title=" ">
<path fill="none" stroke="#63b8ff" d="M404.58,-303.52C409.58,-301.14 414.5,-298.32 418.75,-295 459.31,-263.39 491.17,-210.86 506.63,-182.19"/>
<polygon fill="#63b8ff" stroke="#63b8ff" points="509.66,-183.96 511.2,-173.48 503.46,-180.71 509.66,-183.96"/>
</a>
</g>
</g>
<!-- Node15&#45;&gt;Node12 -->
<g id="edge19_Node000015_Node000012" class="edge">
<title>Node15&#45;&gt;Node12</title>
<g id="a_edge19_Node000015_Node000012"><a xlink:title=" ">
<path fill="none" stroke="#63b8ff" d="M552.53,-172.39C562.08,-176.02 572.26,-180.57 581,-186 599.44,-197.44 598.21,-208.13 617,-219 619.61,-220.51 622.35,-221.92 625.17,-223.22"/>
<polygon fill="#63b8ff" stroke="#63b8ff" points="623.62,-226.37 634.2,-226.95 626.29,-219.9 623.62,-226.37"/>
</a>
</g>
</g>
<!-- Node15&#45;&gt;Node13 -->
<g id="edge17_Node000015_Node000013" class="edge">
<title>Node15&#45;&gt;Node13</title>
<g id="a_edge17_Node000015_Node000013"><a xlink:title=" ">
<path fill="none" stroke="#63b8ff" d="M569.24,-164.95C613.91,-167.9 680.85,-173.14 738.75,-181 751.89,-182.78 765.9,-185.11 779.21,-187.52"/>
<polygon fill="#63b8ff" stroke="#63b8ff" points="778.23,-190.89 788.7,-189.27 779.5,-184.01 778.23,-190.89"/>
</a>
</g>
</g>
<!-- Node16 -->
<g id="Node000016" class="node">
<title>Node16</title>
<g id="a_Node000016"><a xlink:href="group___t_set_unsorted_flex_array.html#ga8bc0de187146b066ae844c2278b6e198" target="_top" xlink:title="Výpočet následující platné pozice ve flexibilním poli.">
<polygon fill="white" stroke="#666666" points="738.75,-210 617,-210 617,-190 738.75,-190 738.75,-210"/>
<text text-anchor="middle" x="677.88" y="-196.5" font-family="Helvetica,sans-Serif" font-size="10.00">set_flex_array_next_pos</text>
</a>
</g>
</g>
<!-- Node15&#45;&gt;Node16 -->
<g id="edge18_Node000015_Node000016" class="edge">
<title>Node15&#45;&gt;Node16</title>
<g id="a_edge18_Node000015_Node000016"><a xlink:title=" ">
<path fill="none" stroke="#63b8ff" d="M562.47,-172.48C581.03,-176.95 602.89,-182.21 622.49,-186.92"/>
<polygon fill="#63b8ff" stroke="#63b8ff" points="621.41,-190.26 631.95,-189.2 623.05,-183.45 621.41,-190.26"/>
</a>
</g>
</g>
<!-- Node17&#45;&gt;Node17 -->
<g id="edge22_Node000017_Node000017" class="edge">
<title>Node17&#45;&gt;Node17</title>
<g id="a_edge22_Node000017_Node000017"><a xlink:title=" ">
<path fill="none" stroke="#63b8ff" d="M350.06,-362.34C340.96,-370.98 348.06,-380 371.38,-380 384.13,-380 392.03,-377.3 395.08,-373.44"/>
<polygon fill="#63b8ff" stroke="#63b8ff" points="398.53,-372.86 393.01,-363.82 391.69,-374.33 398.53,-372.86"/>
</a>
</g>
</g>
<!-- Node18 -->
<g id="Node000018" class="node">
<title>Node18</title>
<g id="a_Node000018"><a xlink:href="group___t_set_unsorted_flex_array.html#ga24753753dacb74f17de6ba082505440c" target="_top" xlink:title="Výpočet první platné pozice ve flexibilním poli.">
<polygon fill="white" stroke="#666666" points="581,-362 454.75,-362 454.75,-342 581,-342 581,-362"/>
<text text-anchor="middle" x="517.88" y="-348.5" font-family="Helvetica,sans-Serif" font-size="10.00">set_flex_array_begin_pos</text>
</a>
</g>
</g>
<!-- Node17&#45;&gt;Node18 -->
<g id="edge21_Node000017_Node000018" class="edge">
<title>Node17&#45;&gt;Node18</title>
<g id="a_edge21_Node000017_Node000018"><a xlink:title=" ">
<path fill="none" stroke="#63b8ff" d="M418.49,-352C426.33,-352 434.64,-352 442.98,-352"/>
<polygon fill="#63b8ff" stroke="#63b8ff" points="442.81,-355.5 452.81,-352 442.81,-348.5 442.81,-355.5"/>
</a>
</g>
</g>
<!-- Node19&#45;&gt;Node2 -->
<g id="edge26_Node000019_Node000002" class="edge">
<title>Node19&#45;&gt;Node2</title>
<g id="a_edge26_Node000019_Node000002"><a xlink:title=" ">
<path fill="none" stroke="#63b8ff" d="M242.61,-257.18C251.94,-279.24 274.09,-333.21 288,-380 308.89,-450.28 276.71,-484.97 324,-541 325.27,-542.51 326.68,-543.9 328.2,-545.18"/>
<polygon fill="#63b8ff" stroke="#63b8ff" points="326.21,-548.06 336.51,-550.57 330.02,-542.19 326.21,-548.06"/>
</a>
</g>
</g>
<!-- Node19&#45;&gt;Node4 -->
<g id="edge34_Node000019_Node000004" class="edge">
<title>Node19&#45;&gt;Node4</title>
<g id="a_edge34_Node000019_Node000004"><a xlink:title=" ">
<path fill="none" stroke="#63b8ff" d="M285.95,-257.47C302.56,-261.12 320.85,-265.13 336.15,-268.49"/>
<polygon fill="#63b8ff" stroke="#63b8ff" points="335.19,-271.86 345.71,-270.59 336.69,-265.02 335.19,-271.86"/>
</a>
</g>
</g>
<!-- Node19&#45;&gt;Node8 -->
<g id="edge25_Node000019_Node000008" class="edge">
<title>Node19&#45;&gt;Node8</title>
<g id="a_edge25_Node000019_Node000008"><a xlink:title=" ">
<path fill="none" stroke="#63b8ff" d="M240.86,-257.42C248.69,-286.8 274.55,-371.45 324,-422 326.9,-424.96 330.24,-427.63 333.77,-430.01"/>
<polygon fill="#63b8ff" stroke="#63b8ff" points="331.7,-432.86 342.09,-434.91 335.25,-426.82 331.7,-432.86"/>
</a>
</g>
</g>
<!-- Node19&#45;&gt;Node10 -->
<g id="edge45_Node000019_Node000010" class="edge">
<title>Node19&#45;&gt;Node10</title>
<g id="a_edge45_Node000019_Node000010"><a xlink:title=" ">
<path fill="none" stroke="#63b8ff" d="M240.93,-257.12C248.63,-283.98 273.58,-357.19 324,-389 364.49,-414.55 419.56,-417.57 460.49,-415.21"/>
<polygon fill="#63b8ff" stroke="#63b8ff" points="460.66,-418.7 470.39,-414.5 460.16,-411.72 460.66,-418.7"/>
</a>
</g>
</g>
<!-- Node19&#45;&gt;Node12 -->
<g id="edge43_Node000019_Node000012" class="edge">
<title>Node19&#45;&gt;Node12</title>
<g id="a_edge43_Node000019_Node000012"><a xlink:title=" ">
<path fill="none" stroke="#63b8ff" d="M263.25,-236.52C280.08,-230.04 302.97,-222.35 324,-219 425.3,-202.88 544.8,-215.92 615.51,-226.91"/>
<polygon fill="#63b8ff" stroke="#63b8ff" points="614.94,-230.36 625.36,-228.48 616.04,-223.45 614.94,-230.36"/>
</a>
</g>
</g>
<!-- Node19&#45;&gt;Node14 -->
<g id="edge33_Node000019_Node000014" class="edge">
<title>Node19&#45;&gt;Node14</title>
<g id="a_edge33_Node000019_Node000014"><a xlink:title=" ">
<path fill="none" stroke="#63b8ff" d="M255.33,-257.37C272.41,-267.55 299.57,-283.21 324,-295 326.94,-296.42 330.01,-297.83 333.12,-299.2"/>
<polygon fill="#63b8ff" stroke="#63b8ff" points="331.68,-302.4 342.25,-303.1 334.43,-295.96 331.68,-302.4"/>
</a>
</g>
</g>
<!-- Node19&#45;&gt;Node15 -->
<g id="edge44_Node000019_Node000015" class="edge">
<title>Node19&#45;&gt;Node15</title>
<g id="a_edge44_Node000019_Node000015"><a xlink:title=" ">
<path fill="none" stroke="#63b8ff" d="M249.1,-236.51C264.41,-222.4 293.86,-197.73 324,-186 365.93,-169.69 416.51,-163.86 455.35,-162.01"/>
<polygon fill="#63b8ff" stroke="#63b8ff" points="455.12,-165.52 464.97,-161.64 454.84,-158.53 455.12,-165.52"/>
</a>
</g>
</g>
<!-- Node19&#45;&gt;Node17 -->
<g id="edge42_Node000019_Node000017" class="edge">
<title>Node19&#45;&gt;Node17</title>
<g id="a_edge42_Node000019_Node000017"><a xlink:title=" ">
<path fill="none" stroke="#63b8ff" d="M246.2,-257.33C260.23,-274.94 291.02,-311.02 324,-333 325.85,-334.23 327.78,-335.4 329.78,-336.52"/>
<polygon fill="#63b8ff" stroke="#63b8ff" points="328.17,-339.63 338.69,-340.94 331.29,-333.36 328.17,-339.63"/>
</a>
</g>
</g>
<!-- Node20 -->
<g id="Node000020" class="node">
<title>Node20</title>
<g id="a_Node000020"><a xlink:href="main__support_8h.html#a2d31e17cb6a745a38f21a15a8b9f6142" target="_top" xlink:title="Konverzní funkce z hodnoty typu bool na C&#45;řetězec.">
<polygon fill="white" stroke="#666666" points="412.38,-248 330.38,-248 330.38,-228 412.38,-228 412.38,-248"/>
<text text-anchor="middle" x="371.38" y="-234.5" font-family="Helvetica,sans-Serif" font-size="10.00">bool_to_cstring</text>
</a>
</g>
</g>
<!-- Node19&#45;&gt;Node20 -->
<g id="edge24_Node000019_Node000020" class="edge">
<title>Node19&#45;&gt;Node20</title>
<g id="a_edge24_Node000019_Node000020"><a xlink:title=" ">
<path fill="none" stroke="#63b8ff" d="M288.2,-243.6C298.29,-242.91 308.91,-242.19 319.05,-241.5"/>
<polygon fill="#63b8ff" stroke="#63b8ff" points="318.98,-245.01 328.72,-240.84 318.5,-238.03 318.98,-245.01"/>
</a>
</g>
</g>
<!-- Node21 -->
<g id="Node000021" class="node">
<title>Node21</title>
<g id="a_Node000021"><a xlink:href="group___t_set.html#ga2a711b02282ff309c0d6a4fdcfbac738" target="_top" xlink:title="Odstranění elementu z množiny.">
<polygon fill="white" stroke="#666666" points="400.75,-96 342,-96 342,-76 400.75,-76 400.75,-96"/>
<text text-anchor="middle" x="371.38" y="-82.5" font-family="Helvetica,sans-Serif" font-size="10.00">set_erase</text>
</a>
</g>
</g>
<!-- Node19&#45;&gt;Node21 -->
<g id="edge27_Node000019_Node000021" class="edge">
<title>Node19&#45;&gt;Node21</title>
<g id="a_edge27_Node000019_Node000021"><a xlink:title=" ">
<path fill="none" stroke="#63b8ff" d="M242.37,-236.78C252.74,-212.13 282.11,-148.6 324,-110 327.12,-107.13 330.64,-104.5 334.32,-102.13"/>
<polygon fill="#63b8ff" stroke="#63b8ff" points="335.99,-105.21 342.94,-97.21 332.52,-99.13 335.99,-105.21"/>
</a>
</g>
</g>
<!-- Node25 -->
<g id="Node000025" class="node">
<title>Node25</title>
<g id="a_Node000025"><a xlink:href="group___t_set.html#ga2f7fd9486a5c300158d70dc79c6c6c8f" target="_top" xlink:title="Zjištění, zda je množina prázdná">
<polygon fill="white" stroke="#666666" points="555.12,-134 480.62,-134 480.62,-114 555.12,-114 555.12,-134"/>
<text text-anchor="middle" x="517.88" y="-120.5" font-family="Helvetica,sans-Serif" font-size="10.00">set_is_empty</text>
</a>
</g>
</g>
<!-- Node19&#45;&gt;Node25 -->
<g id="edge41_Node000019_Node000025" class="edge">
<title>Node19&#45;&gt;Node25</title>
<g id="a_edge41_Node000019_Node000025"><a xlink:title=" ">
<path fill="none" stroke="#63b8ff" d="M245.39,-236.69C258.62,-218.45 288.82,-180.67 324,-162 369.41,-137.91 428.16,-129.01 468.83,-125.77"/>
<polygon fill="#63b8ff" stroke="#63b8ff" points="469.07,-129.26 478.8,-125.07 468.58,-122.28 469.07,-129.26"/>
</a>
</g>
</g>
<!-- Node27 -->
<g id="Node000027" class="node">
<title>Node27</title>
<g id="a_Node000027"><a xlink:href="group___t_set.html#ga0d1464cea78691ff9ad3dd1e32b55c60" target="_top" xlink:title="Vložení elementu do množiny.">
<polygon fill="white" stroke="#666666" points="400.75,-20 342,-20 342,0 400.75,0 400.75,-20"/>
<text text-anchor="middle" x="371.38" y="-6.5" font-family="Helvetica,sans-Serif" font-size="10.00">set_insert</text>
</a>
</g>
</g>
<!-- Node19&#45;&gt;Node27 -->
<g id="edge35_Node000019_Node000027" class="edge">
<title>Node19&#45;&gt;Node27</title>
<g id="a_edge35_Node000019_Node000027"><a xlink:title=" ">
<path fill="none" stroke="#63b8ff" d="M239.42,-236.81C243.85,-202.71 262.61,-91.26 324,-29 326.29,-26.68 328.91,-24.63 331.7,-22.82"/>
<polygon fill="#63b8ff" stroke="#63b8ff" points="333.13,-26.02 340.35,-18.27 329.87,-19.83 333.13,-26.02"/>
</a>
</g>
</g>
<!-- Node29 -->
<g id="Node000029" class="node">
<title>Node29</title>
<g id="a_Node000029"><a xlink:href="group___t_set.html#ga768d36614713a921e88985484ac63cc1" target="_top" xlink:title="Zjištění, zda množina obsahuje zadanou hodnotu elementu.">
<polygon fill="white" stroke="#666666" points="418.75,-58 324,-58 324,-38 418.75,-38 418.75,-58"/>
<text text-anchor="middle" x="371.38" y="-44.5" font-family="Helvetica,sans-Serif" font-size="10.00">set_is_element_of</text>
</a>
</g>
</g>
<!-- Node19&#45;&gt;Node29 -->
<g id="edge38_Node000019_Node000029" class="edge">
<title>Node19&#45;&gt;Node29</title>
<g id="a_edge38_Node000019_Node000029"><a xlink:title=" ">
<path fill="none" stroke="#63b8ff" d="M240.35,-236.92C247.09,-206.92 270.94,-117.19 324,-67 325.03,-66.02 326.12,-65.1 327.25,-64.21"/>
<polygon fill="#63b8ff" stroke="#63b8ff" points="328.77,-67.39 335.36,-59.1 325.04,-61.47 328.77,-67.39"/>
</a>
</g>
</g>
<!-- Node22 -->
<g id="Node000022" class="node">
<title>Node22</title>
<g id="a_Node000022"><a xlink:href="group___t_set_unsorted_flex_array.html#ga85a89d1ea648e9219f9c904727c8f7ef" target="_top" xlink:title="Odstranění elementu z flexibilního pole.">
<polygon fill="white" stroke="#666666" points="570.88,-96 464.88,-96 464.88,-76 570.88,-76 570.88,-96"/>
<text text-anchor="middle" x="517.88" y="-82.5" font-family="Helvetica,sans-Serif" font-size="10.00">set_flex_array_erase</text>
</a>
</g>
</g>
<!-- Node21&#45;&gt;Node22 -->
<g id="edge28_Node000021_Node000022" class="edge">
<title>Node21&#45;&gt;Node22</title>
<g id="a_edge28_Node000021_Node000022"><a xlink:title=" ">
<path fill="none" stroke="#63b8ff" d="M400.92,-86C415.84,-86 434.73,-86 452.92,-86"/>
<polygon fill="#63b8ff" stroke="#63b8ff" points="452.89,-89.5 462.89,-86 452.89,-82.5 452.89,-89.5"/>
</a>
</g>
</g>
<!-- Node21&#45;&gt;Node25 -->
<g id="edge31_Node000021_Node000025" class="edge">
<title>Node21&#45;&gt;Node25</title>
<g id="a_edge31_Node000021_Node000025"><a xlink:title=" ">
<path fill="none" stroke="#63b8ff" d="M400.92,-93.51C420.34,-98.61 446.51,-105.5 469.07,-111.43"/>
<polygon fill="#63b8ff" stroke="#63b8ff" points="468.12,-114.8 478.69,-113.96 469.9,-108.03 468.12,-114.8"/>
</a>
</g>
</g>
<!-- Node23 -->
<g id="Node000023" class="node">
<title>Node23</title>
<g id="a_Node000023"><a xlink:href="group___t_set_unsorted_flex_array.html#ga5d5631db0bf286d944f4e538a072c2eb" target="_top" xlink:title="Funkce zjišťující, zda flexibilní pole obsahuje element o zadané hodnotě">
<polygon fill="white" stroke="#666666" points="733.5,-58 622.25,-58 622.25,-38 733.5,-38 733.5,-58"/>
<text text-anchor="middle" x="677.88" y="-44.5" font-family="Helvetica,sans-Serif" font-size="10.00">set_flex_array_search</text>
</a>
</g>
</g>
<!-- Node22&#45;&gt;Node23 -->
<g id="edge29_Node000022_Node000023" class="edge">
<title>Node22&#45;&gt;Node23</title>
<g id="a_edge29_Node000022_Node000023"><a xlink:title=" ">
<path fill="none" stroke="#63b8ff" d="M562.47,-75.52C581.03,-71.05 602.89,-65.79 622.49,-61.08"/>
<polygon fill="#63b8ff" stroke="#63b8ff" points="623.05,-64.55 631.95,-58.8 621.41,-57.74 623.05,-64.55"/>
</a>
</g>
</g>
<!-- Node24 -->
<g id="Node000024" class="node">
<title>Node24</title>
<g id="a_Node000024"><a xlink:href="group___t_set_element.html#gad8cfc9a36f36c44c10b660c5b370f67e" target="_top" xlink:title="Porovnání dvou elementů">
<polygon fill="white" stroke="#666666" points="903.62,-58 780.38,-58 780.38,-38 903.62,-38 903.62,-58"/>
<text text-anchor="middle" x="842" y="-44.5" font-family="Helvetica,sans-Serif" font-size="10.00">set_element_comparator</text>
</a>
</g>
</g>
<!-- Node23&#45;&gt;Node24 -->
<g id="edge30_Node000023_Node000024" class="edge">
<title>Node23&#45;&gt;Node24</title>
<g id="a_edge30_Node000023_Node000024"><a xlink:title=" ">
<path fill="none" stroke="#63b8ff" d="M733.76,-48C745.04,-48 757.08,-48 768.86,-48"/>
<polygon fill="#63b8ff" stroke="#63b8ff" points="768.53,-51.5 778.53,-48 768.53,-44.5 768.53,-51.5"/>
</a>
</g>
</g>
<!-- Node26 -->
<g id="Node000026" class="node">
<title>Node26</title>
<g id="a_Node000026"><a xlink:href="group___t_set.html#ga213cfb714cece49d955fc452b2aeb186" target="_top" xlink:title="Přečtení počtu elementů množiny.">
<polygon fill="white" stroke="#666666" points="704.25,-134 651.5,-134 651.5,-114 704.25,-114 704.25,-134"/>
<text text-anchor="middle" x="677.88" y="-120.5" font-family="Helvetica,sans-Serif" font-size="10.00">set_size</text>
</a>
</g>
</g>
<!-- Node25&#45;&gt;Node26 -->
<g id="edge32_Node000025_Node000026" class="edge">
<title>Node25&#45;&gt;Node26</title>
<g id="a_edge32_Node000025_Node000026"><a xlink:title=" ">
<path fill="none" stroke="#63b8ff" d="M555.52,-124C580.86,-124 614.46,-124 639.87,-124"/>
<polygon fill="#63b8ff" stroke="#63b8ff" points="639.76,-127.5 649.76,-124 639.76,-120.5 639.76,-127.5"/>
</a>
</g>
</g>
<!-- Node28 -->
<g id="Node000028" class="node">
<title>Node28</title>
<g id="a_Node000028"><a xlink:href="group___t_set_unsorted_flex_array.html#gadd504f9127a4e850da202073bddd6024" target="_top" xlink:title="Vložení elementu do flexibilního pole.">
<polygon fill="white" stroke="#666666" points="570.88,-20 464.88,-20 464.88,0 570.88,0 570.88,-20"/>
<text text-anchor="middle" x="517.88" y="-6.5" font-family="Helvetica,sans-Serif" font-size="10.00">set_flex_array_insert</text>
</a>
</g>
</g>
<!-- Node27&#45;&gt;Node28 -->
<g id="edge36_Node000027_Node000028" class="edge">
<title>Node27&#45;&gt;Node28</title>
<g id="a_edge36_Node000027_Node000028"><a xlink:title=" ">
<path fill="none" stroke="#63b8ff" d="M400.92,-10C415.84,-10 434.73,-10 452.92,-10"/>
<polygon fill="#63b8ff" stroke="#63b8ff" points="452.89,-13.5 462.89,-10 452.89,-6.5 452.89,-13.5"/>
</a>
</g>
</g>
<!-- Node28&#45;&gt;Node23 -->
<g id="edge37_Node000028_Node000023" class="edge">
<title>Node28&#45;&gt;Node23</title>
<g id="a_edge37_Node000028_Node000023"><a xlink:title=" ">
<path fill="none" stroke="#63b8ff" d="M562.47,-20.48C581.03,-24.95 602.89,-30.21 622.49,-34.92"/>
<polygon fill="#63b8ff" stroke="#63b8ff" points="621.41,-38.26 631.95,-37.2 623.05,-31.45 621.41,-38.26"/>
</a>
</g>
</g>
<!-- Node29&#45;&gt;Node23 -->
<g id="edge39_Node000029_Node000023" class="edge">
<title>Node29&#45;&gt;Node23</title>
<g id="a_edge39_Node000029_Node000023"><a xlink:title=" ">
<path fill="none" stroke="#63b8ff" d="M418.95,-48C470.11,-48 552.66,-48 610.56,-48"/>
<polygon fill="#63b8ff" stroke="#63b8ff" points="610.28,-51.5 620.28,-48 610.28,-44.5 610.28,-51.5"/>
</a>
</g>
</g>
<!-- Node29&#45;&gt;Node25 -->
<g id="edge40_Node000029_Node000025" class="edge">
<title>Node29&#45;&gt;Node25</title>
<g id="a_edge40_Node000029_Node000025"><a xlink:title=" ">
<path fill="none" stroke="#63b8ff" d="M403.26,-58.5C408.64,-60.92 414.01,-63.75 418.75,-67 437.94,-80.15 434.97,-92.75 454.75,-105 459.36,-107.86 464.43,-110.31 469.63,-112.41"/>
<polygon fill="#63b8ff" stroke="#63b8ff" points="468.34,-115.67 478.94,-115.74 470.7,-109.08 468.34,-115.67"/>
</a>
</g>
</g>
</g>
</svg>
