<?xml version="1.0" encoding="UTF-8" standalone="no"?>
<!DOCTYPE svg PUBLIC "-//W3C//DTD SVG 1.1//EN"
 "http://www.w3.org/Graphics/SVG/1.1/DTD/svg11.dtd">
<!-- Generated by graphviz version 11.0.0 (20240428.1522)
 -->
<!-- Title: set_insert Pages: 1 -->
<svg width="515pt" height="28pt"
 viewBox="0.00 0.00 515.25 28.00" xmlns="http://www.w3.org/2000/svg" xmlns:xlink="http://www.w3.org/1999/xlink">
<g id="graph0" class="graph" transform="scale(1 1) rotate(0) translate(4 24)">
<title>set_insert</title>
<!-- Node1 -->
<g id="Node000001" class="node">
<title>Node1</title>
<g id="a_Node000001"><a xlink:title="Vložení elementu do množiny.">
<polygon fill="#999999" stroke="#666666" points="58.75,-20 0,-20 0,0 58.75,0 58.75,-20"/>
<text text-anchor="middle" x="29.38" y="-6.5" font-family="Helvetica,sans-Serif" font-size="10.00">set_insert</text>
</a>
</g>
</g>
<!-- Node2 -->
<g id="Node000002" class="node">
<title>Node2</title>
<g id="a_Node000002"><a xlink:href="group___t_set_unsorted_flex_array.html#gadd504f9127a4e850da202073bddd6024" target="_top" xlink:title="Vložení elementu do flexibilního pole.">
<polygon fill="white" stroke="#666666" points="200.75,-20 94.75,-20 94.75,0 200.75,0 200.75,-20"/>
<text text-anchor="middle" x="147.75" y="-6.5" font-family="Helvetica,sans-Serif" font-size="10.00">set_flex_array_insert</text>
</a>
</g>
</g>
<!-- Node1&#45;&gt;Node2 -->
<g id="edge1_Node000001_Node000002" class="edge">
<title>Node1&#45;&gt;Node2</title>
<g id="a_edge1_Node000001_Node000002"><a xlink:title=" ">
<path fill="none" stroke="#63b8ff" d="M59.14,-10C66.45,-10 74.61,-10 82.91,-10"/>
<polygon fill="#63b8ff" stroke="#63b8ff" points="82.76,-13.5 92.76,-10 82.76,-6.5 82.76,-13.5"/>
</a>
</g>
</g>
<!-- Node3 -->
<g id="Node000003" class="node">
<title>Node3</title>
<g id="a_Node000003"><a xlink:href="group___t_set_unsorted_flex_array.html#ga5d5631db0bf286d944f4e538a072c2eb" target="_top" xlink:title="Funkce zjišťující, zda flexibilní pole obsahuje element o zadané hodnotě">
<polygon fill="white" stroke="#666666" points="348,-20 236.75,-20 236.75,0 348,0 348,-20"/>
<text text-anchor="middle" x="292.38" y="-6.5" font-family="Helvetica,sans-Serif" font-size="10.00">set_flex_array_search</text>
</a>
</g>
</g>
<!-- Node2&#45;&gt;Node3 -->
<g id="edge2_Node000002_Node000003" class="edge">
<title>Node2&#45;&gt;Node3</title>
<g id="a_edge2_Node000002_Node000003"><a xlink:title=" ">
<path fill="none" stroke="#63b8ff" d="M201.05,-10C208.94,-10 217.16,-10 225.3,-10"/>
<polygon fill="#63b8ff" stroke="#63b8ff" points="225.17,-13.5 235.17,-10 225.17,-6.5 225.17,-13.5"/>
</a>
</g>
</g>
<!-- Node4 -->
<g id="Node000004" class="node">
<title>Node4</title>
<g id="a_Node000004"><a xlink:href="group___t_set_element.html#gad8cfc9a36f36c44c10b660c5b370f67e" target="_top" xlink:title="Porovnání dvou elementů">
<polygon fill="white" stroke="#666666" points="507.25,-20 384,-20 384,0 507.25,0 507.25,-20"/>
<text text-anchor="middle" x="445.62" y="-6.5" font-family="Helvetica,sans-Serif" font-size="10.00">set_element_comparator</text>
</a>
</g>
</g>
<!-- Node3&#45;&gt;Node4 -->
<g id="edge3_Node000003_Node000004" class="edge">
<title>Node3&#45;&gt;Node4</title>
<g id="a_edge3_Node000003_Node000004"><a xlink:title=" ">
<path fill="none" stroke="#63b8ff" d="M348.41,-10C356.22,-10 364.34,-10 372.41,-10"/>
<polygon fill="#63b8ff" stroke="#63b8ff" points="372.24,-13.5 382.24,-10 372.24,-6.5 372.24,-13.5"/>
</a>
</g>
</g>
</g>
</svg>
