<?xml version="1.0" encoding="UTF-8" standalone="no"?>
<!DOCTYPE svg PUBLIC "-//W3C//DTD SVG 1.1//EN"
 "http://www.w3.org/Graphics/SVG/1.1/DTD/svg11.dtd">
<!-- Generated by graphviz version 11.0.0 (20240428.1522)
 -->
<!-- Title: set_for_each Pages: 1 -->
<svg width="546pt" height="104pt"
 viewBox="0.00 0.00 546.00 104.00" xmlns="http://www.w3.org/2000/svg" xmlns:xlink="http://www.w3.org/1999/xlink">
<g id="graph0" class="graph" transform="scale(1 1) rotate(0) translate(4 100)">
<title>set_for_each</title>
<!-- Node1 -->
<g id="Node000001" class="node">
<title>Node1</title>
<g id="a_Node000001"><a xlink:title="Zavolání zvolené funkce na každý element množiny od pozice určené iterátorem až do posledního element...">
<polygon fill="#999999" stroke="#666666" points="71.5,-77 0,-77 0,-57 71.5,-57 71.5,-77"/>
<text text-anchor="middle" x="35.75" y="-63.5" font-family="Helvetica,sans-Serif" font-size="10.00">set_for_each</text>
</a>
</g>
</g>
<!-- Node2 -->
<g id="Node000002" class="node">
<title>Node2</title>
<g id="a_Node000002"><a xlink:href="group___t_set_iterator.html#ga089f24c81ac3da7d1ac7ca24cc078dd8" target="_top" xlink:title="Zjištění platnosti iterátoru.">
<polygon fill="white" stroke="#666666" points="357.38,-96 255.88,-96 255.88,-76 357.38,-76 357.38,-96"/>
<text text-anchor="middle" x="306.62" y="-82.5" font-family="Helvetica,sans-Serif" font-size="10.00">set_iterator_is_valid</text>
</a>
</g>
</g>
<!-- Node1&#45;&gt;Node2 -->
<g id="edge1_Node000001_Node000002" class="edge">
<title>Node1&#45;&gt;Node2</title>
<g id="a_edge1_Node000001_Node000002"><a xlink:title=" ">
<path fill="none" stroke="#63b8ff" d="M71.9,-69.48C115.66,-72.58 191.14,-77.91 244.47,-81.68"/>
<polygon fill="#63b8ff" stroke="#63b8ff" points="244.1,-85.16 254.32,-82.37 244.59,-78.18 244.1,-85.16"/>
</a>
</g>
</g>
<!-- Node4 -->
<g id="Node000004" class="node">
<title>Node4</title>
<g id="a_Node000004"><a xlink:href="group___t_set_iterator.html#ga6723a05c864198597ff49718020bd0d6" target="_top" xlink:title="Posunutí iterátoru vpřed.">
<polygon fill="white" stroke="#666666" points="209.75,-58 107.5,-58 107.5,-38 209.75,-38 209.75,-58"/>
<text text-anchor="middle" x="158.62" y="-44.5" font-family="Helvetica,sans-Serif" font-size="10.00">set_iterator_to_next</text>
</a>
</g>
</g>
<!-- Node1&#45;&gt;Node4 -->
<g id="edge3_Node000001_Node000004" class="edge">
<title>Node1&#45;&gt;Node4</title>
<g id="a_edge3_Node000001_Node000004"><a xlink:title=" ">
<path fill="none" stroke="#63b8ff" d="M71.71,-61.5C79.29,-60.31 87.51,-59.02 95.78,-57.72"/>
<polygon fill="#63b8ff" stroke="#63b8ff" points="96.18,-61.2 105.51,-56.19 95.09,-54.29 96.18,-61.2"/>
</a>
</g>
</g>
<!-- Node3 -->
<g id="Node000003" class="node">
<title>Node3</title>
<g id="a_Node000003"><a xlink:href="group___t_set_unsorted_flex_array.html#gad3346f67be35632c3b0fbd9ea616a0c1" target="_top" xlink:title="Zjištění platnosti pozice ve flexibilním poli.">
<polygon fill="white" stroke="#666666" points="538,-77 403.5,-77 403.5,-57 538,-57 538,-77"/>
<text text-anchor="middle" x="470.75" y="-63.5" font-family="Helvetica,sans-Serif" font-size="10.00">set_flex_array_is_valid_pos</text>
</a>
</g>
</g>
<!-- Node2&#45;&gt;Node3 -->
<g id="edge2_Node000002_Node000003" class="edge">
<title>Node2&#45;&gt;Node3</title>
<g id="a_edge2_Node000002_Node000003"><a xlink:title=" ">
<path fill="none" stroke="#63b8ff" d="M357.59,-80.14C368.52,-78.86 380.34,-77.48 392.06,-76.1"/>
<polygon fill="#63b8ff" stroke="#63b8ff" points="392.21,-79.61 401.74,-74.97 391.4,-72.66 392.21,-79.61"/>
</a>
</g>
</g>
<!-- Node4&#45;&gt;Node2 -->
<g id="edge6_Node000004_Node000002" class="edge">
<title>Node4&#45;&gt;Node2</title>
<g id="a_edge6_Node000004_Node000002"><a xlink:title=" ">
<path fill="none" stroke="#63b8ff" d="M199.91,-58.48C216.74,-62.87 236.5,-68.01 254.36,-72.66"/>
<polygon fill="#63b8ff" stroke="#63b8ff" points="253.45,-76.04 264.01,-75.17 255.21,-69.26 253.45,-76.04"/>
</a>
</g>
</g>
<!-- Node4&#45;&gt;Node3 -->
<g id="edge4_Node000004_Node000003" class="edge">
<title>Node4&#45;&gt;Node3</title>
<g id="a_edge4_Node000004_Node000003"><a xlink:title=" ">
<path fill="none" stroke="#63b8ff" d="M210.14,-51.09C259.36,-54.11 334.87,-58.74 391.8,-62.22"/>
<polygon fill="#63b8ff" stroke="#63b8ff" points="391.57,-65.72 401.77,-62.84 392,-58.73 391.57,-65.72"/>
</a>
</g>
</g>
<!-- Node5 -->
<g id="Node000005" class="node">
<title>Node5</title>
<g id="a_Node000005"><a xlink:href="group___t_set_unsorted_flex_array.html#ga8bc0de187146b066ae844c2278b6e198" target="_top" xlink:title="Výpočet následující platné pozice ve flexibilním poli.">
<polygon fill="white" stroke="#666666" points="367.5,-20 245.75,-20 245.75,0 367.5,0 367.5,-20"/>
<text text-anchor="middle" x="306.62" y="-6.5" font-family="Helvetica,sans-Serif" font-size="10.00">set_flex_array_next_pos</text>
</a>
</g>
</g>
<!-- Node4&#45;&gt;Node5 -->
<g id="edge5_Node000004_Node000005" class="edge">
<title>Node4&#45;&gt;Node5</title>
<g id="a_edge5_Node000004_Node000005"><a xlink:title=" ">
<path fill="none" stroke="#63b8ff" d="M199.91,-37.52C216.74,-33.13 236.5,-27.99 254.36,-23.34"/>
<polygon fill="#63b8ff" stroke="#63b8ff" points="255.21,-26.74 264.01,-20.83 253.45,-19.96 255.21,-26.74"/>
</a>
</g>
</g>
</g>
</svg>
