<?xml version="1.0" encoding="UTF-8" standalone="no"?>
<!DOCTYPE svg PUBLIC "-//W3C//DTD SVG 1.1//EN"
 "http://www.w3.org/Graphics/SVG/1.1/DTD/svg11.dtd">
<!-- Generated by graphviz version 11.0.0 (20240428.1522)
 -->
<!-- Title: set_find_if_not Pages: 1 -->
<svg width="553pt" height="104pt"
 viewBox="0.00 0.00 552.75 104.00" xmlns="http://www.w3.org/2000/svg" xmlns:xlink="http://www.w3.org/1999/xlink">
<g id="graph0" class="graph" transform="scale(1 1) rotate(0) translate(4 100)">
<title>set_find_if_not</title>
<!-- Node1 -->
<g id="Node000001" class="node">
<title>Node1</title>
<g id="a_Node000001"><a xlink:title="Vyhledání prvního elementu množiny nesplňujícího zadaný predikát.">
<polygon fill="#999999" stroke="#666666" points="78.25,-77 0,-77 0,-57 78.25,-57 78.25,-77"/>
<text text-anchor="middle" x="39.12" y="-63.5" font-family="Helvetica,sans-Serif" font-size="10.00">set_find_if_not</text>
</a>
</g>
</g>
<!-- Node1&#45;&gt;Node1 -->
<g id="edge1_Node000001_Node000001" class="edge">
<title>Node1&#45;&gt;Node1</title>
<g id="a_edge1_Node000001_Node000001"><a xlink:title=" ">
<path fill="none" stroke="#63b8ff" d="M19.07,-77.34C10.49,-85.98 17.18,-95 39.12,-95 51.13,-95 58.56,-92.3 61.44,-88.44"/>
<polygon fill="#63b8ff" stroke="#63b8ff" points="64.91,-87.93 59.49,-78.82 58.05,-89.32 64.91,-87.93"/>
</a>
</g>
</g>
<!-- Node2 -->
<g id="Node000002" class="node">
<title>Node2</title>
<g id="a_Node000002"><a xlink:href="group___t_set_iterator.html#ga089f24c81ac3da7d1ac7ca24cc078dd8" target="_top" xlink:title="Zjištění platnosti iterátoru.">
<polygon fill="white" stroke="#666666" points="364.12,-96 262.62,-96 262.62,-76 364.12,-76 364.12,-96"/>
<text text-anchor="middle" x="313.38" y="-82.5" font-family="Helvetica,sans-Serif" font-size="10.00">set_iterator_is_valid</text>
</a>
</g>
</g>
<!-- Node1&#45;&gt;Node2 -->
<g id="edge2_Node000001_Node000002" class="edge">
<title>Node1&#45;&gt;Node2</title>
<g id="a_edge2_Node000001_Node000002"><a xlink:title=" ">
<path fill="none" stroke="#63b8ff" d="M78.55,-69.68C123.48,-72.82 198.41,-78.05 251.33,-81.74"/>
<polygon fill="#63b8ff" stroke="#63b8ff" points="250.87,-85.22 261.09,-82.42 251.36,-78.23 250.87,-85.22"/>
</a>
</g>
</g>
<!-- Node4 -->
<g id="Node000004" class="node">
<title>Node4</title>
<g id="a_Node000004"><a xlink:href="group___t_set_iterator.html#ga6723a05c864198597ff49718020bd0d6" target="_top" xlink:title="Posunutí iterátoru vpřed.">
<polygon fill="white" stroke="#666666" points="216.5,-58 114.25,-58 114.25,-38 216.5,-38 216.5,-58"/>
<text text-anchor="middle" x="165.38" y="-44.5" font-family="Helvetica,sans-Serif" font-size="10.00">set_iterator_to_next</text>
</a>
</g>
</g>
<!-- Node1&#45;&gt;Node4 -->
<g id="edge4_Node000001_Node000004" class="edge">
<title>Node1&#45;&gt;Node4</title>
<g id="a_edge4_Node000001_Node000004"><a xlink:title=" ">
<path fill="none" stroke="#63b8ff" d="M78.42,-61.14C86.16,-59.96 94.49,-58.69 102.81,-57.41"/>
<polygon fill="#63b8ff" stroke="#63b8ff" points="103.23,-60.89 112.58,-55.92 102.17,-53.97 103.23,-60.89"/>
</a>
</g>
</g>
<!-- Node3 -->
<g id="Node000003" class="node">
<title>Node3</title>
<g id="a_Node000003"><a xlink:href="group___t_set_unsorted_flex_array.html#gad3346f67be35632c3b0fbd9ea616a0c1" target="_top" xlink:title="Zjištění platnosti pozice ve flexibilním poli.">
<polygon fill="white" stroke="#666666" points="544.75,-77 410.25,-77 410.25,-57 544.75,-57 544.75,-77"/>
<text text-anchor="middle" x="477.5" y="-63.5" font-family="Helvetica,sans-Serif" font-size="10.00">set_flex_array_is_valid_pos</text>
</a>
</g>
</g>
<!-- Node2&#45;&gt;Node3 -->
<g id="edge3_Node000002_Node000003" class="edge">
<title>Node2&#45;&gt;Node3</title>
<g id="a_edge3_Node000002_Node000003"><a xlink:title=" ">
<path fill="none" stroke="#63b8ff" d="M364.34,-80.14C375.27,-78.86 387.09,-77.48 398.81,-76.1"/>
<polygon fill="#63b8ff" stroke="#63b8ff" points="398.96,-79.61 408.49,-74.97 398.15,-72.66 398.96,-79.61"/>
</a>
</g>
</g>
<!-- Node4&#45;&gt;Node2 -->
<g id="edge7_Node000004_Node000002" class="edge">
<title>Node4&#45;&gt;Node2</title>
<g id="a_edge7_Node000004_Node000002"><a xlink:title=" ">
<path fill="none" stroke="#63b8ff" d="M206.66,-58.48C223.49,-62.87 243.25,-68.01 261.11,-72.66"/>
<polygon fill="#63b8ff" stroke="#63b8ff" points="260.2,-76.04 270.76,-75.17 261.96,-69.26 260.2,-76.04"/>
</a>
</g>
</g>
<!-- Node4&#45;&gt;Node3 -->
<g id="edge5_Node000004_Node000003" class="edge">
<title>Node4&#45;&gt;Node3</title>
<g id="a_edge5_Node000004_Node000003"><a xlink:title=" ">
<path fill="none" stroke="#63b8ff" d="M216.89,-51.09C266.11,-54.11 341.62,-58.74 398.55,-62.22"/>
<polygon fill="#63b8ff" stroke="#63b8ff" points="398.32,-65.72 408.52,-62.84 398.75,-58.73 398.32,-65.72"/>
</a>
</g>
</g>
<!-- Node5 -->
<g id="Node000005" class="node">
<title>Node5</title>
<g id="a_Node000005"><a xlink:href="group___t_set_unsorted_flex_array.html#ga8bc0de187146b066ae844c2278b6e198" target="_top" xlink:title="Výpočet následující platné pozice ve flexibilním poli.">
<polygon fill="white" stroke="#666666" points="374.25,-20 252.5,-20 252.5,0 374.25,0 374.25,-20"/>
<text text-anchor="middle" x="313.38" y="-6.5" font-family="Helvetica,sans-Serif" font-size="10.00">set_flex_array_next_pos</text>
</a>
</g>
</g>
<!-- Node4&#45;&gt;Node5 -->
<g id="edge6_Node000004_Node000005" class="edge">
<title>Node4&#45;&gt;Node5</title>
<g id="a_edge6_Node000004_Node000005"><a xlink:title=" ">
<path fill="none" stroke="#63b8ff" d="M206.66,-37.52C223.49,-33.13 243.25,-27.99 261.11,-23.34"/>
<polygon fill="#63b8ff" stroke="#63b8ff" points="261.96,-26.74 270.76,-20.83 260.2,-19.96 261.96,-26.74"/>
</a>
</g>
</g>
</g>
</svg>
