<?xml version="1.0" encoding="UTF-8" standalone="no"?>
<!DOCTYPE svg PUBLIC "-//W3C//DTD SVG 1.1//EN"
 "http://www.w3.org/Graphics/SVG/1.1/DTD/svg11.dtd">
<!-- Generated by graphviz version 11.0.0 (20240428.1522)
 -->
<!-- Title: main_support.h Pages: 1 -->
<svg width="188pt" height="84pt"
 viewBox="0.00 0.00 187.50 84.00" xmlns="http://www.w3.org/2000/svg" xmlns:xlink="http://www.w3.org/1999/xlink">
<g id="graph0" class="graph" transform="scale(1 1) rotate(0) translate(4 80)">
<title>main_support.h</title>
<!-- Node1 -->
<g id="Node000001" class="node">
<title>Node1</title>
<g id="a_Node000001"><a xlink:title="Soubor pro multiplatformní podporu programu v různých OS.">
<polygon fill="#999999" stroke="#666666" points="126,-76 43.25,-76 43.25,-56 126,-56 126,-76"/>
<text text-anchor="middle" x="84.62" y="-62.5" font-family="Helvetica,sans-Serif" font-size="10.00">main_support.h</text>
</a>
</g>
</g>
<!-- Node2 -->
<g id="Node000002" class="node">
<title>Node2</title>
<g id="a_Node000002"><a xlink:title=" ">
<polygon fill="#e0e0e0" stroke="#999999" points="45.25,-20 0,-20 0,0 45.25,0 45.25,-20"/>
<text text-anchor="middle" x="22.62" y="-6.5" font-family="Helvetica,sans-Serif" font-size="10.00">stdio.h</text>
</a>
</g>
</g>
<!-- Node1&#45;&gt;Node2 -->
<g id="edge1_Node000001_Node000002" class="edge">
<title>Node1&#45;&gt;Node2</title>
<g id="a_edge1_Node000001_Node000002"><a xlink:title=" ">
<path fill="none" stroke="#63b8ff" d="M73.83,-55.59C65.02,-47.93 52.37,-36.91 41.85,-27.75"/>
<polygon fill="#63b8ff" stroke="#63b8ff" points="44.28,-25.22 34.44,-21.29 39.68,-30.5 44.28,-25.22"/>
</a>
</g>
</g>
<!-- Node3 -->
<g id="Node000003" class="node">
<title>Node3</title>
<g id="a_Node000003"><a xlink:title=" ">
<polygon fill="#e0e0e0" stroke="#999999" points="106.12,-20 63.12,-20 63.12,0 106.12,0 106.12,-20"/>
<text text-anchor="middle" x="84.62" y="-6.5" font-family="Helvetica,sans-Serif" font-size="10.00">time.h</text>
</a>
</g>
</g>
<!-- Node1&#45;&gt;Node3 -->
<g id="edge2_Node000001_Node000003" class="edge">
<title>Node1&#45;&gt;Node3</title>
<g id="a_edge2_Node000001_Node000003"><a xlink:title=" ">
<path fill="none" stroke="#63b8ff" d="M84.62,-55.59C84.62,-49.01 84.62,-39.96 84.62,-31.73"/>
<polygon fill="#63b8ff" stroke="#63b8ff" points="88.13,-31.81 84.63,-21.81 81.13,-31.81 88.13,-31.81"/>
</a>
</g>
</g>
<!-- Node4 -->
<g id="Node000004" class="node">
<title>Node4</title>
<g id="a_Node000004"><a xlink:title=" ">
<polygon fill="#e0e0e0" stroke="#999999" points="179.5,-20 123.75,-20 123.75,0 179.5,0 179.5,-20"/>
<text text-anchor="middle" x="151.62" y="-6.5" font-family="Helvetica,sans-Serif" font-size="10.00">stdbool.h</text>
</a>
</g>
</g>
<!-- Node1&#45;&gt;Node4 -->
<g id="edge3_Node000001_Node000004" class="edge">
<title>Node1&#45;&gt;Node4</title>
<g id="a_edge3_Node000001_Node000004"><a xlink:title=" ">
<path fill="none" stroke="#63b8ff" d="M96.3,-55.59C105.9,-47.85 119.75,-36.69 131.19,-27.47"/>
<polygon fill="#63b8ff" stroke="#63b8ff" points="133.32,-30.25 138.91,-21.25 128.93,-24.8 133.32,-30.25"/>
</a>
</g>
</g>
</g>
</svg>
