<?xml version="1.0" encoding="UTF-8" standalone="no"?>
<!DOCTYPE svg PUBLIC "-//W3C//DTD SVG 1.1//EN"
 "http://www.w3.org/Graphics/SVG/1.1/DTD/svg11.dtd">
<!-- Generated by graphviz version 11.0.0 (20240428.1522)
 -->
<!-- Title: main.c Pages: 1 -->
<svg width="451pt" height="308pt"
 viewBox="0.00 0.00 451.25 308.00" xmlns="http://www.w3.org/2000/svg" xmlns:xlink="http://www.w3.org/1999/xlink">
<g id="graph0" class="graph" transform="scale(1 1) rotate(0) translate(4 304)">
<title>main.c</title>
<!-- Node1 -->
<g id="Node000001" class="node">
<title>Node1</title>
<g id="a_Node000001"><a xlink:title="Hlavní program pro testování ADT TSet &#45; (realizace množiny pomocí nesetříděného pole).">
<polygon fill="#999999" stroke="#666666" points="160.62,-300 115.38,-300 115.38,-280 160.62,-280 160.62,-300"/>
<text text-anchor="middle" x="138" y="-286.5" font-family="Helvetica,sans-Serif" font-size="10.00">main.c</text>
</a>
</g>
</g>
<!-- Node2 -->
<g id="Node000002" class="node">
<title>Node2</title>
<g id="a_Node000002"><a xlink:title=" ">
<polygon fill="#e0e0e0" stroke="#999999" points="110.62,-20 65.38,-20 65.38,0 110.62,0 110.62,-20"/>
<text text-anchor="middle" x="88" y="-6.5" font-family="Helvetica,sans-Serif" font-size="10.00">stdio.h</text>
</a>
</g>
</g>
<!-- Node1&#45;&gt;Node2 -->
<g id="edge1_Node000001_Node000002" class="edge">
<title>Node1&#45;&gt;Node2</title>
<g id="a_edge1_Node000001_Node000002"><a xlink:title=" ">
<path fill="none" stroke="#63b8ff" d="M114.9,-282.34C75.62,-269.44 0,-237.06 0,-179 0,-179 0,-179 0,-121 0,-90.9 1.06,-80.17 19,-56 28.42,-43.32 42.56,-33.2 55.59,-25.8"/>
<polygon fill="#63b8ff" stroke="#63b8ff" points="57.15,-28.93 64.35,-21.15 53.88,-22.74 57.15,-28.93"/>
</a>
</g>
</g>
<!-- Node3 -->
<g id="Node000003" class="node">
<title>Node3</title>
<g id="a_Node000003"><a xlink:href="testbench_8h.html" target="_top" xlink:title="Definice testbench API pro testování operací zvoleného ADT.">
<polygon fill="white" stroke="#666666" points="171.5,-244 104.5,-244 104.5,-224 171.5,-224 171.5,-244"/>
<text text-anchor="middle" x="138" y="-230.5" font-family="Helvetica,sans-Serif" font-size="10.00">testbench.h</text>
</a>
</g>
</g>
<!-- Node1&#45;&gt;Node3 -->
<g id="edge2_Node000001_Node000003" class="edge">
<title>Node1&#45;&gt;Node3</title>
<g id="a_edge2_Node000001_Node000003"><a xlink:title=" ">
<path fill="none" stroke="#63b8ff" d="M138,-279.59C138,-273.01 138,-263.96 138,-255.73"/>
<polygon fill="#63b8ff" stroke="#63b8ff" points="141.5,-255.81 138,-245.81 134.5,-255.81 141.5,-255.81"/>
</a>
</g>
</g>
<!-- Node5 -->
<g id="Node000005" class="node">
<title>Node5</title>
<g id="a_Node000005"><a xlink:href="_t_set_8h.html" target="_top" xlink:title="Definice typu Set &#45; (realizace množiny pomocí nesetříděného flexibilního dynamicky alokovaného pole).">
<polygon fill="white" stroke="#666666" points="229.25,-188 184.75,-188 184.75,-168 229.25,-168 229.25,-188"/>
<text text-anchor="middle" x="207" y="-174.5" font-family="Helvetica,sans-Serif" font-size="10.00">TSet.h</text>
</a>
</g>
</g>
<!-- Node1&#45;&gt;Node5 -->
<g id="edge17_Node000001_Node000005" class="edge">
<title>Node1&#45;&gt;Node5</title>
<g id="a_edge17_Node000001_Node000005"><a xlink:title=" ">
<path fill="none" stroke="#63b8ff" d="M149.12,-279.59C158.62,-271.09 172.11,-257.81 181,-244 189.96,-230.07 196.75,-212.55 201.14,-199.21"/>
<polygon fill="#63b8ff" stroke="#63b8ff" points="204.44,-200.39 204.04,-189.8 197.75,-198.33 204.44,-200.39"/>
</a>
</g>
</g>
<!-- Node12 -->
<g id="Node000012" class="node">
<title>Node12</title>
<g id="a_Node000012"><a xlink:href="main__support_8h.html" target="_top" xlink:title="Soubor pro multiplatformní podporu programu v různých OS.">
<polygon fill="white" stroke="#666666" points="110.38,-76 27.62,-76 27.62,-56 110.38,-56 110.38,-76"/>
<text text-anchor="middle" x="69" y="-62.5" font-family="Helvetica,sans-Serif" font-size="10.00">main_support.h</text>
</a>
</g>
</g>
<!-- Node1&#45;&gt;Node12 -->
<g id="edge18_Node000001_Node000012" class="edge">
<title>Node1&#45;&gt;Node12</title>
<g id="a_edge18_Node000001_Node000012"><a xlink:title=" ">
<path fill="none" stroke="#63b8ff" d="M125.96,-279.66C116.21,-271.4 102.99,-258.43 96,-244 70.76,-191.91 67.95,-121.95 68.3,-87.68"/>
<polygon fill="#63b8ff" stroke="#63b8ff" points="71.79,-87.99 68.51,-77.91 64.79,-87.83 71.79,-87.99"/>
</a>
</g>
</g>
<!-- Node14 -->
<g id="Node000014" class="node">
<title>Node14</title>
<g id="a_Node000014"><a xlink:href="testplan__set2_8h.html" target="_top" xlink:title=" ">
<polygon fill="white" stroke="#666666" points="310.38,-244 227.62,-244 227.62,-224 310.38,-224 310.38,-244"/>
<text text-anchor="middle" x="269" y="-230.5" font-family="Helvetica,sans-Serif" font-size="10.00">testplan_set2.h</text>
</a>
</g>
</g>
<!-- Node1&#45;&gt;Node14 -->
<g id="edge22_Node000001_Node000014" class="edge">
<title>Node1&#45;&gt;Node14</title>
<g id="a_edge22_Node000001_Node000014"><a xlink:title=" ">
<path fill="none" stroke="#63b8ff" d="M160.82,-279.59C181.45,-271.09 212.08,-258.46 235.49,-248.81"/>
<polygon fill="#63b8ff" stroke="#63b8ff" points="236.69,-252.1 244.6,-245.06 234.02,-245.63 236.69,-252.1"/>
</a>
</g>
</g>
<!-- Node4 -->
<g id="Node000004" class="node">
<title>Node4</title>
<g id="a_Node000004"><a xlink:title=" ">
<polygon fill="#e0e0e0" stroke="#999999" points="203.88,-20 148.12,-20 148.12,0 203.88,0 203.88,-20"/>
<text text-anchor="middle" x="176" y="-6.5" font-family="Helvetica,sans-Serif" font-size="10.00">stdbool.h</text>
</a>
</g>
</g>
<!-- Node3&#45;&gt;Node4 -->
<g id="edge3_Node000003_Node000004" class="edge">
<title>Node3&#45;&gt;Node4</title>
<g id="a_edge3_Node000003_Node000004"><a xlink:title=" ">
<path fill="none" stroke="#63b8ff" d="M139.58,-223.74C145.23,-190.74 164.48,-78.31 172.47,-31.61"/>
<polygon fill="#63b8ff" stroke="#63b8ff" points="175.92,-32.23 174.15,-21.79 169.02,-31.05 175.92,-32.23"/>
</a>
</g>
</g>
<!-- Node3&#45;&gt;Node5 -->
<g id="edge4_Node000003_Node000005" class="edge">
<title>Node3&#45;&gt;Node5</title>
<g id="a_edge4_Node000003_Node000005"><a xlink:title=" ">
<path fill="none" stroke="#63b8ff" d="M150.02,-223.59C160.01,-215.77 174.46,-204.46 186.31,-195.19"/>
<polygon fill="#63b8ff" stroke="#63b8ff" points="188.21,-198.15 193.93,-189.23 183.89,-192.64 188.21,-198.15"/>
</a>
</g>
</g>
<!-- Node5&#45;&gt;Node4 -->
<g id="edge5_Node000005_Node000004" class="edge">
<title>Node5&#45;&gt;Node4</title>
<g id="a_edge5_Node000005_Node000004"><a xlink:title=" ">
<path fill="none" stroke="#63b8ff" d="M205.24,-167.6C200.36,-141.46 186.55,-67.48 179.8,-31.36"/>
<polygon fill="#63b8ff" stroke="#63b8ff" points="183.29,-30.97 178.01,-21.79 176.41,-32.26 183.29,-30.97"/>
</a>
</g>
</g>
<!-- Node6 -->
<g id="Node000006" class="node">
<title>Node6</title>
<g id="a_Node000006"><a xlink:title=" ">
<polygon fill="#e0e0e0" stroke="#999999" points="254.25,-76 203.75,-76 203.75,-56 254.25,-56 254.25,-76"/>
<text text-anchor="middle" x="229" y="-62.5" font-family="Helvetica,sans-Serif" font-size="10.00">stddef.h</text>
</a>
</g>
</g>
<!-- Node5&#45;&gt;Node6 -->
<g id="edge6_Node000005_Node000006" class="edge">
<title>Node5&#45;&gt;Node6</title>
<g id="a_edge6_Node000005_Node000006"><a xlink:title=" ">
<path fill="none" stroke="#63b8ff" d="M208.88,-167.62C212.42,-149.92 220.15,-111.24 224.94,-87.32"/>
<polygon fill="#63b8ff" stroke="#63b8ff" points="228.3,-88.33 226.83,-77.84 221.44,-86.96 228.3,-88.33"/>
</a>
</g>
</g>
<!-- Node7 -->
<g id="Node000007" class="node">
<title>Node7</title>
<g id="a_Node000007"><a xlink:href="_t_set_unsorted_flex_array_8h.html" target="_top" xlink:title="Deklarace typu SetUnsortedFlexArray a jeho API pro realizaci množiny pomocí nesetříděného flexibilníh...">
<polygon fill="white" stroke="#666666" points="367.75,-132 242.25,-132 242.25,-112 367.75,-112 367.75,-132"/>
<text text-anchor="middle" x="305" y="-118.5" font-family="Helvetica,sans-Serif" font-size="10.00">TSetUnsortedFlexArray.h</text>
</a>
</g>
</g>
<!-- Node5&#45;&gt;Node7 -->
<g id="edge7_Node000005_Node000007" class="edge">
<title>Node5&#45;&gt;Node7</title>
<g id="a_edge7_Node000005_Node000007"><a xlink:title=" ">
<path fill="none" stroke="#63b8ff" d="M224.07,-167.59C238.88,-159.44 260.57,-147.48 277.77,-138"/>
<polygon fill="#63b8ff" stroke="#63b8ff" points="279.4,-141.1 286.47,-133.21 276.02,-134.97 279.4,-141.1"/>
</a>
</g>
</g>
<!-- Node11 -->
<g id="Node000011" class="node">
<title>Node11</title>
<g id="a_Node000011"><a xlink:title=" ">
<polygon fill="#e0e0e0" stroke="#999999" points="443.25,-20 392.75,-20 392.75,0 443.25,0 443.25,-20"/>
<text text-anchor="middle" x="418" y="-6.5" font-family="Helvetica,sans-Serif" font-size="10.00">check.h</text>
</a>
</g>
</g>
<!-- Node5&#45;&gt;Node11 -->
<g id="edge16_Node000005_Node000011" class="edge">
<title>Node5&#45;&gt;Node11</title>
<g id="a_edge16_Node000005_Node000011"><a xlink:title=" ">
<path fill="none" stroke="#63b8ff" d="M229.53,-177.2C265.2,-176.3 334.94,-169.46 377,-132 406.17,-106.02 414.61,-58.52 417.04,-31.41"/>
<polygon fill="#63b8ff" stroke="#63b8ff" points="420.51,-31.95 417.69,-21.73 413.52,-31.47 420.51,-31.95"/>
</a>
</g>
</g>
<!-- Node7&#45;&gt;Node4 -->
<g id="edge8_Node000007_Node000004" class="edge">
<title>Node7&#45;&gt;Node4</title>
<g id="a_edge8_Node000007_Node000004"><a xlink:title=" ">
<path fill="none" stroke="#63b8ff" d="M300.83,-111.51C294.39,-97.79 280.9,-72.26 263,-56 248.54,-42.87 229.55,-32.47 213,-24.98"/>
<polygon fill="#63b8ff" stroke="#63b8ff" points="214.5,-21.82 203.93,-21.09 211.74,-28.25 214.5,-21.82"/>
</a>
</g>
</g>
<!-- Node7&#45;&gt;Node6 -->
<g id="edge9_Node000007_Node000006" class="edge">
<title>Node7&#45;&gt;Node6</title>
<g id="a_edge9_Node000007_Node000006"><a xlink:title=" ">
<path fill="none" stroke="#63b8ff" d="M291.76,-111.59C280.71,-103.74 264.72,-92.38 251.64,-83.09"/>
<polygon fill="#63b8ff" stroke="#63b8ff" points="253.75,-80.3 243.58,-77.36 249.7,-86 253.75,-80.3"/>
</a>
</g>
</g>
<!-- Node8 -->
<g id="Node000008" class="node">
<title>Node8</title>
<g id="a_Node000008"><a xlink:href="_t_set_element_8h.html" target="_top" xlink:title="Definice typu Basic SetElement a implementace API.">
<polygon fill="white" stroke="#666666" points="390.25,-76 309.75,-76 309.75,-56 390.25,-56 390.25,-76"/>
<text text-anchor="middle" x="350" y="-62.5" font-family="Helvetica,sans-Serif" font-size="10.00">TSetElement.h</text>
</a>
</g>
</g>
<!-- Node7&#45;&gt;Node8 -->
<g id="edge10_Node000007_Node000008" class="edge">
<title>Node7&#45;&gt;Node8</title>
<g id="a_edge10_Node000007_Node000008"><a xlink:title=" ">
<path fill="none" stroke="#63b8ff" d="M312.84,-111.59C318.97,-104.24 327.67,-93.8 335.11,-84.87"/>
<polygon fill="#63b8ff" stroke="#63b8ff" points="337.57,-87.38 341.28,-77.46 332.19,-82.9 337.57,-87.38"/>
</a>
</g>
</g>
<!-- Node8&#45;&gt;Node2 -->
<g id="edge11_Node000008_Node000002" class="edge">
<title>Node8&#45;&gt;Node2</title>
<g id="a_edge11_Node000008_Node000002"><a xlink:title=" ">
<path fill="none" stroke="#63b8ff" d="M309.35,-56.62C257.83,-46 169.96,-27.89 121.88,-17.98"/>
<polygon fill="#63b8ff" stroke="#63b8ff" points="122.83,-14.61 112.33,-16.01 121.42,-21.46 122.83,-14.61"/>
</a>
</g>
</g>
<!-- Node8&#45;&gt;Node4 -->
<g id="edge13_Node000008_Node000004" class="edge">
<title>Node8&#45;&gt;Node4</title>
<g id="a_edge13_Node000008_Node000004"><a xlink:title=" ">
<path fill="none" stroke="#63b8ff" d="M319.69,-55.59C290.6,-46.57 246.53,-32.89 214.87,-23.06"/>
<polygon fill="#63b8ff" stroke="#63b8ff" points="216.27,-19.83 205.68,-20.21 214.19,-26.52 216.27,-19.83"/>
</a>
</g>
</g>
<!-- Node9 -->
<g id="Node000009" class="node">
<title>Node9</title>
<g id="a_Node000009"><a xlink:title=" ">
<polygon fill="#e0e0e0" stroke="#999999" points="305.75,-20 258.25,-20 258.25,0 305.75,0 305.75,-20"/>
<text text-anchor="middle" x="282" y="-6.5" font-family="Helvetica,sans-Serif" font-size="10.00">stdlib.h</text>
</a>
</g>
</g>
<!-- Node8&#45;&gt;Node9 -->
<g id="edge12_Node000008_Node000009" class="edge">
<title>Node8&#45;&gt;Node9</title>
<g id="a_edge12_Node000008_Node000009"><a xlink:title=" ">
<path fill="none" stroke="#63b8ff" d="M338.16,-55.59C328.31,-47.77 314.07,-36.46 302.39,-27.19"/>
<polygon fill="#63b8ff" stroke="#63b8ff" points="304.9,-24.72 294.89,-21.24 300.55,-30.2 304.9,-24.72"/>
</a>
</g>
</g>
<!-- Node10 -->
<g id="Node000010" class="node">
<title>Node10</title>
<g id="a_Node000010"><a xlink:title=" ">
<polygon fill="#e0e0e0" stroke="#999999" points="374.62,-20 323.38,-20 323.38,0 374.62,0 374.62,-20"/>
<text text-anchor="middle" x="349" y="-6.5" font-family="Helvetica,sans-Serif" font-size="10.00">assert.h</text>
</a>
</g>
</g>
<!-- Node8&#45;&gt;Node10 -->
<g id="edge14_Node000008_Node000010" class="edge">
<title>Node8&#45;&gt;Node10</title>
<g id="a_edge14_Node000008_Node000010"><a xlink:title=" ">
<path fill="none" stroke="#63b8ff" d="M349.83,-55.59C349.7,-49.01 349.54,-39.96 349.38,-31.73"/>
<polygon fill="#63b8ff" stroke="#63b8ff" points="352.88,-31.75 349.2,-21.81 345.89,-31.87 352.88,-31.75"/>
</a>
</g>
</g>
<!-- Node8&#45;&gt;Node11 -->
<g id="edge15_Node000008_Node000011" class="edge">
<title>Node8&#45;&gt;Node11</title>
<g id="a_edge15_Node000008_Node000011"><a xlink:title=" ">
<path fill="none" stroke="#63b8ff" d="M361.84,-55.59C371.69,-47.77 385.93,-36.46 397.61,-27.19"/>
<polygon fill="#63b8ff" stroke="#63b8ff" points="399.45,-30.2 405.11,-21.24 395.1,-24.72 399.45,-30.2"/>
</a>
</g>
</g>
<!-- Node12&#45;&gt;Node2 -->
<g id="edge19_Node000012_Node000002" class="edge">
<title>Node12&#45;&gt;Node2</title>
<g id="a_edge19_Node000012_Node000002"><a xlink:title=" ">
<path fill="none" stroke="#63b8ff" d="M72.31,-55.59C74.68,-48.86 77.96,-39.53 80.91,-31.15"/>
<polygon fill="#63b8ff" stroke="#63b8ff" points="84.21,-32.32 84.23,-21.73 77.61,-30 84.21,-32.32"/>
</a>
</g>
</g>
<!-- Node12&#45;&gt;Node4 -->
<g id="edge21_Node000012_Node000004" class="edge">
<title>Node12&#45;&gt;Node4</title>
<g id="a_edge21_Node000012_Node000004"><a xlink:title=" ">
<path fill="none" stroke="#63b8ff" d="M87.64,-55.59C104.03,-47.32 128.16,-35.14 147.06,-25.6"/>
<polygon fill="#63b8ff" stroke="#63b8ff" points="148.51,-28.79 155.87,-21.16 145.36,-22.54 148.51,-28.79"/>
</a>
</g>
</g>
<!-- Node13 -->
<g id="Node000013" class="node">
<title>Node13</title>
<g id="a_Node000013"><a xlink:title=" ">
<polygon fill="#e0e0e0" stroke="#999999" points="47.5,-20 4.5,-20 4.5,0 47.5,0 47.5,-20"/>
<text text-anchor="middle" x="26" y="-6.5" font-family="Helvetica,sans-Serif" font-size="10.00">time.h</text>
</a>
</g>
</g>
<!-- Node12&#45;&gt;Node13 -->
<g id="edge20_Node000012_Node000013" class="edge">
<title>Node12&#45;&gt;Node13</title>
<g id="a_edge20_Node000012_Node000013"><a xlink:title=" ">
<path fill="none" stroke="#63b8ff" d="M61.51,-55.59C55.71,-48.32 47.51,-38.02 40.45,-29.15"/>
<polygon fill="#63b8ff" stroke="#63b8ff" points="43.31,-27.12 34.35,-21.48 37.84,-31.49 43.31,-27.12"/>
</a>
</g>
</g>
</g>
</svg>
