<?xml version="1.0" encoding="UTF-8" standalone="no"?>
<!DOCTYPE svg PUBLIC "-//W3C//DTD SVG 1.1//EN"
 "http://www.w3.org/Graphics/SVG/1.1/DTD/svg11.dtd">
<!-- Generated by graphviz version 11.0.0 (20240428.1522)
 -->
<!-- Title: TSetIterator Pages: 1 -->
<svg width="123pt" height="288pt"
 viewBox="0.00 0.00 123.00 288.00" xmlns="http://www.w3.org/2000/svg" xmlns:xlink="http://www.w3.org/1999/xlink">
<g id="graph0" class="graph" transform="scale(1 1) rotate(0) translate(4 284)">
<title>TSetIterator</title>
<!-- Node1 -->
<g id="Node000001" class="node">
<title>Node1</title>
<g id="a_Node000001"><a xlink:title="Definice typu SetIterator.">
<polygon fill="#999999" stroke="none" points="90.5,-52 24.5,-52 24.5,0 90.5,0 90.5,-52"/>
<text text-anchor="start" x="32.38" y="-38.5" font-family="Helvetica,sans-Serif" font-size="10.00">TSetIterator</text>
<text text-anchor="start" x="28.5" y="-22.5" font-family="Helvetica,sans-Serif" font-size="10.00">+</text>
<text text-anchor="start" x="38.5" y="-22.5" font-family="Helvetica,sans-Serif" font-size="10.00">size_t iPos</text>
<text text-anchor="start" x="56" y="-6.5" font-family="Helvetica,sans-Serif" font-size="10.00"> </text>
<polygon fill="#666666" stroke="#666666" points="24.5,-34 24.5,-34 90.5,-34 90.5,-34 24.5,-34"/>
<polygon fill="#666666" stroke="#666666" points="24.5,-18 24.5,-18 36.5,-18 36.5,-18 24.5,-18"/>
<polygon fill="#666666" stroke="#666666" points="36.5,-18 36.5,-18 90.5,-18 90.5,-18 36.5,-18"/>
<polygon fill="none" stroke="#666666" points="24.5,0 24.5,-52 90.5,-52 90.5,0 24.5,0"/>
</a>
</g>
</g>
<!-- Node2 -->
<g id="Node000002" class="node">
<title>Node2</title>
<g id="a_Node000002"><a xlink:href="group___t_set.html#struct_t_set" target="_top" xlink:title="Definice typu Set.">
<polygon fill="white" stroke="none" points="92,-158 23,-158 23,-106 92,-106 92,-158"/>
<text text-anchor="start" x="47.38" y="-144.5" font-family="Helvetica,sans-Serif" font-size="10.00">TSet</text>
<text text-anchor="start" x="27" y="-128.5" font-family="Helvetica,sans-Serif" font-size="10.00">+</text>
<text text-anchor="start" x="37" y="-128.5" font-family="Helvetica,sans-Serif" font-size="10.00">size_t iSize</text>
<text text-anchor="start" x="56" y="-112.5" font-family="Helvetica,sans-Serif" font-size="10.00"> </text>
<polygon fill="#666666" stroke="#666666" points="23,-140 23,-140 92,-140 92,-140 23,-140"/>
<polygon fill="#666666" stroke="#666666" points="23,-124 23,-124 35,-124 35,-124 23,-124"/>
<polygon fill="#666666" stroke="#666666" points="35,-124 35,-124 92,-124 92,-124 35,-124"/>
<polygon fill="none" stroke="#666666" points="23,-106 23,-158 92,-158 92,-106 23,-106"/>
</a>
</g>
</g>
<!-- Node2&#45;&gt;Node1 -->
<g id="edge1_Node000001_Node000002" class="edge">
<title>Node2&#45;&gt;Node1</title>
<g id="a_edge1_Node000001_Node000002"><a xlink:title=" ">
<path fill="none" stroke="#63b8ff" d="M57.5,-106.09C57.5,-93.61 57.5,-78.25 57.5,-64.39"/>
<polygon fill="none" stroke="#63b8ff" points="57.5,-64.61 53.5,-58.61 57.5,-52.61 61.5,-58.61 57.5,-64.61"/>
</a>
</g>
<text text-anchor="start" x="60.5" y="-75.5" font-family="Helvetica,sans-Serif" font-size="10.00" fill="grey">+iSet</text>
</g>
<!-- Node3 -->
<g id="Node000003" class="node">
<title>Node3</title>
<g id="a_Node000003"><a xlink:href="struct_t_set_unsorted_flex_array.html" target="_top" xlink:title="Úplná definice privátního typu SetUnsortedFlexArray.">
<polygon fill="white" stroke="none" points="115,-280 0,-280 0,-212 115,-212 115,-280"/>
<text text-anchor="start" x="6.88" y="-266.5" font-family="Helvetica,sans-Serif" font-size="10.00">TSetUnsortedFlexArray</text>
<text text-anchor="start" x="4" y="-250.5" font-family="Helvetica,sans-Serif" font-size="10.00">+</text>
<text text-anchor="start" x="14" y="-250.5" font-family="Helvetica,sans-Serif" font-size="10.00">size_t iCapacity</text>
<text text-anchor="start" x="4" y="-234.5" font-family="Helvetica,sans-Serif" font-size="10.00">+</text>
<text text-anchor="start" x="14" y="-234.5" font-family="Helvetica,sans-Serif" font-size="10.00">TSetElement iElement</text>
<text text-anchor="start" x="56" y="-218.5" font-family="Helvetica,sans-Serif" font-size="10.00"> </text>
<polygon fill="#666666" stroke="#666666" points="0,-262 0,-262 115,-262 115,-262 0,-262"/>
<polygon fill="#666666" stroke="#666666" points="0,-230 0,-230 12,-230 12,-230 0,-230"/>
<polygon fill="#666666" stroke="#666666" points="12,-230 12,-230 115,-230 115,-230 12,-230"/>
<polygon fill="none" stroke="#666666" points="0,-212 0,-280 115,-280 115,-212 0,-212"/>
</a>
</g>
</g>
<!-- Node3&#45;&gt;Node2 -->
<g id="edge2_Node000002_Node000003" class="edge">
<title>Node3&#45;&gt;Node2</title>
<g id="a_edge2_Node000002_Node000003"><a xlink:title=" ">
<path fill="none" stroke="#63b8ff" d="M57.5,-212C57.5,-199.03 57.5,-184.07 57.5,-170.68"/>
<polygon fill="none" stroke="#63b8ff" points="57.5,-170.84 53.5,-164.84 57.5,-158.84 61.5,-164.84 57.5,-170.84"/>
</a>
</g>
<text text-anchor="start" x="60.5" y="-181.5" font-family="Helvetica,sans-Serif" font-size="10.00" fill="grey">+iFlexArray</text>
</g>
</g>
</svg>
