<?xml version="1.0" encoding="UTF-8" standalone="no"?>
<!DOCTYPE svg PUBLIC "-//W3C//DTD SVG 1.1//EN"
 "http://www.w3.org/Graphics/SVG/1.1/DTD/svg11.dtd">
<!-- Generated by graphviz version 11.0.0 (20240428.1522)
 -->
<!-- Title: TTestPlan Pages: 1 -->
<svg width="398pt" height="246pt"
 viewBox="0.00 0.00 397.50 246.00" xmlns="http://www.w3.org/2000/svg" xmlns:xlink="http://www.w3.org/1999/xlink">
<g id="graph0" class="graph" transform="scale(1 1) rotate(0) translate(4 242)">
<title>TTestPlan</title>
<!-- Node1 -->
<g id="Node000001" class="node">
<title>Node1</title>
<g id="a_Node000001"><a xlink:title="Typ TestPlan slouží k uchování položek definující jeden test testovacího plánu.">
<polygon fill="#999999" stroke="none" points="245.5,-116 130.5,-116 130.5,0 245.5,0 245.5,-116"/>
<text text-anchor="start" x="166.25" y="-102.5" font-family="Helvetica,sans-Serif" font-size="10.00">TTestPlan</text>
<text text-anchor="start" x="134.5" y="-86.5" font-family="Helvetica,sans-Serif" font-size="10.00">+</text>
<text text-anchor="start" x="144.5" y="-86.5" font-family="Helvetica,sans-Serif" font-size="10.00">const char * iMessage</text>
<text text-anchor="start" x="134.5" y="-70.5" font-family="Helvetica,sans-Serif" font-size="10.00">+</text>
<text text-anchor="start" x="144.5" y="-70.5" font-family="Helvetica,sans-Serif" font-size="10.00">bool iListOperations</text>
<text text-anchor="start" x="134.5" y="-54.5" font-family="Helvetica,sans-Serif" font-size="10.00">+</text>
<text text-anchor="start" x="144.5" y="-54.5" font-family="Helvetica,sans-Serif" font-size="10.00">bool iReportBefore</text>
<text text-anchor="start" x="134.5" y="-38.5" font-family="Helvetica,sans-Serif" font-size="10.00">+</text>
<text text-anchor="start" x="144.5" y="-38.5" font-family="Helvetica,sans-Serif" font-size="10.00">bool iReportAfter</text>
<text text-anchor="start" x="134.5" y="-22.5" font-family="Helvetica,sans-Serif" font-size="10.00">+</text>
<text text-anchor="start" x="144.5" y="-22.5" font-family="Helvetica,sans-Serif" font-size="10.00">bool iMemoryStats</text>
<text text-anchor="start" x="186.5" y="-6.5" font-family="Helvetica,sans-Serif" font-size="10.00"> </text>
<polygon fill="#666666" stroke="#666666" points="130.5,-98 130.5,-98 245.5,-98 245.5,-98 130.5,-98"/>
<polygon fill="#666666" stroke="#666666" points="130.5,-18 130.5,-18 142.5,-18 142.5,-18 130.5,-18"/>
<polygon fill="#666666" stroke="#666666" points="142.5,-18 142.5,-18 245.5,-18 245.5,-18 142.5,-18"/>
<polygon fill="none" stroke="#666666" points="130.5,0 130.5,-116 245.5,-116 245.5,0 130.5,0"/>
</a>
</g>
</g>
<!-- Node2 -->
<g id="Node000002" class="node">
<title>Node2</title>
<g id="a_Node000002"><a xlink:href="struct_t_test_operation.html" target="_top" xlink:title="Typ TestOperation slouží k uchování názvu a adresy funkce reprezentující testovanou operaci.">
<polygon fill="white" stroke="none" points="110,-238 0,-238 0,-170 110,-170 110,-238"/>
<text text-anchor="start" x="22" y="-224.5" font-family="Helvetica,sans-Serif" font-size="10.00">TTestOperation</text>
<text text-anchor="start" x="4" y="-208.5" font-family="Helvetica,sans-Serif" font-size="10.00">+</text>
<text text-anchor="start" x="14" y="-208.5" font-family="Helvetica,sans-Serif" font-size="10.00">const char * iFuncStr</text>
<text text-anchor="start" x="4" y="-192.5" font-family="Helvetica,sans-Serif" font-size="10.00">+</text>
<text text-anchor="start" x="14" y="-192.5" font-family="Helvetica,sans-Serif" font-size="10.00">TTestFunc * iFunc</text>
<text text-anchor="start" x="53.5" y="-176.5" font-family="Helvetica,sans-Serif" font-size="10.00"> </text>
<polygon fill="#666666" stroke="#666666" points="0,-220 0,-220 110,-220 110,-220 0,-220"/>
<polygon fill="#666666" stroke="#666666" points="0,-188 0,-188 12,-188 12,-188 0,-188"/>
<polygon fill="#666666" stroke="#666666" points="12,-188 12,-188 110,-188 110,-188 12,-188"/>
<polygon fill="none" stroke="#666666" points="0,-170 0,-238 110,-238 110,-170 0,-170"/>
</a>
</g>
</g>
<!-- Node2&#45;&gt;Node1 -->
<g id="edge1_Node000001_Node000002" class="edge">
<title>Node2&#45;&gt;Node1</title>
<g id="a_edge1_Node000001_Node000002"><a xlink:title=" ">
<path fill="none" stroke="#63b8ff" d="M85.18,-170.32C97.61,-156.87 112.48,-140.77 127,-125.05"/>
<polygon fill="none" stroke="#63b8ff" points="126.73,-125.34 127.86,-118.21 134.87,-116.52 133.74,-123.64 126.73,-125.34"/>
</a>
</g>
<text text-anchor="start" x="121" y="-139.5" font-family="Helvetica,sans-Serif" font-size="10.00" fill="grey">+iOperation</text>
</g>
<!-- Node3 -->
<g id="Node000003" class="node">
<title>Node3</title>
<g id="a_Node000003"><a xlink:href="struct_t_test_inputs.html" target="_top" xlink:title="Typ TestInputs slouží k uchování pole se vstupními hodnotami pro jednotlivé testovací operace.">
<polygon fill="white" stroke="none" points="248,-238 128,-238 128,-170 248,-170 248,-238"/>
<text text-anchor="start" x="162.88" y="-224.5" font-family="Helvetica,sans-Serif" font-size="10.00">TTestInputs</text>
<text text-anchor="start" x="132" y="-208.5" font-family="Helvetica,sans-Serif" font-size="10.00">+</text>
<text text-anchor="start" x="142" y="-208.5" font-family="Helvetica,sans-Serif" font-size="10.00">size_t iSize</text>
<text text-anchor="start" x="132" y="-192.5" font-family="Helvetica,sans-Serif" font-size="10.00">+</text>
<text text-anchor="start" x="142" y="-192.5" font-family="Helvetica,sans-Serif" font-size="10.00">TTestFuncInput iValues</text>
<text text-anchor="start" x="186.5" y="-176.5" font-family="Helvetica,sans-Serif" font-size="10.00"> </text>
<polygon fill="#666666" stroke="#666666" points="128,-220 128,-220 248,-220 248,-220 128,-220"/>
<polygon fill="#666666" stroke="#666666" points="128,-188 128,-188 140,-188 140,-188 128,-188"/>
<polygon fill="#666666" stroke="#666666" points="140,-188 140,-188 248,-188 248,-188 140,-188"/>
<polygon fill="none" stroke="#666666" points="128,-170 128,-238 248,-238 248,-170 128,-170"/>
</a>
</g>
</g>
<!-- Node3&#45;&gt;Node1 -->
<g id="edge2_Node000001_Node000003" class="edge">
<title>Node3&#45;&gt;Node1</title>
<g id="a_edge2_Node000001_Node000003"><a xlink:title=" ">
<path fill="none" stroke="#63b8ff" d="M188,-170.32C188,-157.87 188,-143.16 188,-128.58"/>
<polygon fill="none" stroke="#63b8ff" points="188,-128.76 184,-122.76 188,-116.76 192,-122.76 188,-128.76"/>
</a>
</g>
<text text-anchor="start" x="191" y="-139.5" font-family="Helvetica,sans-Serif" font-size="10.00" fill="grey">+iInputs</text>
</g>
<!-- Node4 -->
<g id="Node000004" class="node">
<title>Node4</title>
<g id="a_Node000004"><a xlink:href="struct_t_test_output.html" target="_top" xlink:title="Typ TestOutput slouží k uchování pole s očekávanými výstupními hodnotami z jednotlivých testovacích o...">
<polygon fill="white" stroke="none" points="389.5,-238 266.5,-238 266.5,-170 389.5,-170 389.5,-238"/>
<text text-anchor="start" x="301.38" y="-224.5" font-family="Helvetica,sans-Serif" font-size="10.00">TTestOutput</text>
<text text-anchor="start" x="270.5" y="-208.5" font-family="Helvetica,sans-Serif" font-size="10.00">+</text>
<text text-anchor="start" x="280.5" y="-208.5" font-family="Helvetica,sans-Serif" font-size="10.00">size_t iSize</text>
<text text-anchor="start" x="270.5" y="-192.5" font-family="Helvetica,sans-Serif" font-size="10.00">+</text>
<text text-anchor="start" x="280.5" y="-192.5" font-family="Helvetica,sans-Serif" font-size="10.00">TTestFuncOutput iValue</text>
<text text-anchor="start" x="326.5" y="-176.5" font-family="Helvetica,sans-Serif" font-size="10.00"> </text>
<polygon fill="#666666" stroke="#666666" points="266.5,-220 266.5,-220 389.5,-220 389.5,-220 266.5,-220"/>
<polygon fill="#666666" stroke="#666666" points="266.5,-188 266.5,-188 278.5,-188 278.5,-188 266.5,-188"/>
<polygon fill="#666666" stroke="#666666" points="278.5,-188 278.5,-188 389.5,-188 389.5,-188 278.5,-188"/>
<polygon fill="none" stroke="#666666" points="266.5,-170 266.5,-238 389.5,-238 389.5,-170 266.5,-170"/>
</a>
</g>
</g>
<!-- Node4&#45;&gt;Node1 -->
<g id="edge3_Node000001_Node000004" class="edge">
<title>Node4&#45;&gt;Node1</title>
<g id="a_edge3_Node000001_Node000004"><a xlink:title=" ">
<path fill="none" stroke="#63b8ff" d="M296.23,-170.32C283.15,-156.87 267.49,-140.77 252.21,-125.05"/>
<polygon fill="none" stroke="#63b8ff" points="252.27,-125.11 245.22,-123.59 243.91,-116.5 250.96,-118.02 252.27,-125.11"/>
</a>
</g>
<text text-anchor="start" x="277" y="-139.5" font-family="Helvetica,sans-Serif" font-size="10.00" fill="grey">+iOutput</text>
</g>
</g>
</svg>
