<?xml version="1.0" encoding="UTF-8" standalone="no"?>
<!DOCTYPE svg PUBLIC "-//W3C//DTD SVG 1.1//EN"
 "http://www.w3.org/Graphics/SVG/1.1/DTD/svg11.dtd">
<!-- Generated by graphviz version 11.0.0 (20240428.1522)
 -->
<!-- Title: TSet Pages: 1 -->
<svg width="123pt" height="182pt"
 viewBox="0.00 0.00 123.00 182.00" xmlns="http://www.w3.org/2000/svg" xmlns:xlink="http://www.w3.org/1999/xlink">
<g id="graph0" class="graph" transform="scale(1 1) rotate(0) translate(4 178)">
<title>TSet</title>
<!-- Node1 -->
<g id="Node000001" class="node">
<title>Node1</title>
<g id="a_Node000001"><a xlink:title="Definice typu Set.">
<polygon fill="#999999" stroke="none" points="92,-52 23,-52 23,0 92,0 92,-52"/>
<text text-anchor="start" x="47.38" y="-38.5" font-family="Helvetica,sans-Serif" font-size="10.00">TSet</text>
<text text-anchor="start" x="27" y="-22.5" font-family="Helvetica,sans-Serif" font-size="10.00">+</text>
<text text-anchor="start" x="37" y="-22.5" font-family="Helvetica,sans-Serif" font-size="10.00">size_t iSize</text>
<text text-anchor="start" x="56" y="-6.5" font-family="Helvetica,sans-Serif" font-size="10.00"> </text>
<polygon fill="#666666" stroke="#666666" points="23,-34 23,-34 92,-34 92,-34 23,-34"/>
<polygon fill="#666666" stroke="#666666" points="23,-18 23,-18 35,-18 35,-18 23,-18"/>
<polygon fill="#666666" stroke="#666666" points="35,-18 35,-18 92,-18 92,-18 35,-18"/>
<polygon fill="none" stroke="#666666" points="23,0 23,-52 92,-52 92,0 23,0"/>
</a>
</g>
</g>
<!-- Node2 -->
<g id="Node000002" class="node">
<title>Node2</title>
<g id="a_Node000002"><a xlink:href="struct_t_set_unsorted_flex_array.html" target="_top" xlink:title="Úplná definice privátního typu SetUnsortedFlexArray.">
<polygon fill="white" stroke="none" points="115,-174 0,-174 0,-106 115,-106 115,-174"/>
<text text-anchor="start" x="6.88" y="-160.5" font-family="Helvetica,sans-Serif" font-size="10.00">TSetUnsortedFlexArray</text>
<text text-anchor="start" x="4" y="-144.5" font-family="Helvetica,sans-Serif" font-size="10.00">+</text>
<text text-anchor="start" x="14" y="-144.5" font-family="Helvetica,sans-Serif" font-size="10.00">size_t iCapacity</text>
<text text-anchor="start" x="4" y="-128.5" font-family="Helvetica,sans-Serif" font-size="10.00">+</text>
<text text-anchor="start" x="14" y="-128.5" font-family="Helvetica,sans-Serif" font-size="10.00">TSetElement iElement</text>
<text text-anchor="start" x="56" y="-112.5" font-family="Helvetica,sans-Serif" font-size="10.00"> </text>
<polygon fill="#666666" stroke="#666666" points="0,-156 0,-156 115,-156 115,-156 0,-156"/>
<polygon fill="#666666" stroke="#666666" points="0,-124 0,-124 12,-124 12,-124 0,-124"/>
<polygon fill="#666666" stroke="#666666" points="12,-124 12,-124 115,-124 115,-124 12,-124"/>
<polygon fill="none" stroke="#666666" points="0,-106 0,-174 115,-174 115,-106 0,-106"/>
</a>
</g>
</g>
<!-- Node2&#45;&gt;Node1 -->
<g id="edge1_Node000001_Node000002" class="edge">
<title>Node2&#45;&gt;Node1</title>
<g id="a_edge1_Node000001_Node000002"><a xlink:title=" ">
<path fill="none" stroke="#63b8ff" d="M57.5,-106C57.5,-93.03 57.5,-78.07 57.5,-64.68"/>
<polygon fill="none" stroke="#63b8ff" points="57.5,-64.84 53.5,-58.84 57.5,-52.84 61.5,-58.84 57.5,-64.84"/>
</a>
</g>
<text text-anchor="start" x="60.5" y="-75.5" font-family="Helvetica,sans-Serif" font-size="10.00" fill="grey">+iFlexArray</text>
</g>
</g>
</svg>
