<?xml version="1.0" encoding="UTF-8" standalone="no"?>
<!DOCTYPE svg PUBLIC "-//W3C//DTD SVG 1.1//EN"
 "http://www.w3.org/Graphics/SVG/1.1/DTD/svg11.dtd">
<!-- Generated by graphviz version 11.0.0 (20240428.1522)
 -->
<!-- Title: TSetUnsortedFlexArray Pages: 1 -->
<svg width="123pt" height="76pt"
 viewBox="0.00 0.00 123.00 76.00" xmlns="http://www.w3.org/2000/svg" xmlns:xlink="http://www.w3.org/1999/xlink">
<g id="graph0" class="graph" transform="scale(1 1) rotate(0) translate(4 72)">
<title>TSetUnsortedFlexArray</title>
<!-- Node1 -->
<g id="Node000001" class="node">
<title>Node1</title>
<g id="a_Node000001"><a xlink:title="Úplná definice privátního typu SetUnsortedFlexArray.">
<polygon fill="#999999" stroke="none" points="115,-68 0,-68 0,0 115,0 115,-68"/>
<text text-anchor="start" x="6.88" y="-54.5" font-family="Helvetica,sans-Serif" font-size="10.00">TSetUnsortedFlexArray</text>
<text text-anchor="start" x="4" y="-38.5" font-family="Helvetica,sans-Serif" font-size="10.00">+</text>
<text text-anchor="start" x="14" y="-38.5" font-family="Helvetica,sans-Serif" font-size="10.00">size_t iCapacity</text>
<text text-anchor="start" x="4" y="-22.5" font-family="Helvetica,sans-Serif" font-size="10.00">+</text>
<text text-anchor="start" x="14" y="-22.5" font-family="Helvetica,sans-Serif" font-size="10.00">TSetElement iElement</text>
<text text-anchor="start" x="56" y="-6.5" font-family="Helvetica,sans-Serif" font-size="10.00"> </text>
<polygon fill="#666666" stroke="#666666" points="0,-50 0,-50 115,-50 115,-50 0,-50"/>
<polygon fill="#666666" stroke="#666666" points="0,-18 0,-18 12,-18 12,-18 0,-18"/>
<polygon fill="#666666" stroke="#666666" points="12,-18 12,-18 115,-18 115,-18 12,-18"/>
<polygon fill="none" stroke="#666666" points="0,0 0,-68 115,-68 115,0 0,0"/>
</a>
</g>
</g>
</g>
</svg>
