<?xml version="1.0" encoding="UTF-8" standalone="no"?>
<!DOCTYPE svg PUBLIC "-//W3C//DTD SVG 1.1//EN"
 "http://www.w3.org/Graphics/SVG/1.1/DTD/svg11.dtd">
<!-- Generated by graphviz version 11.0.0 (20240428.1522)
 -->
<!-- Title: testbench_run Pages: 1 -->
<svg width="793pt" height="218pt"
 viewBox="0.00 0.00 792.50 218.00" xmlns="http://www.w3.org/2000/svg" xmlns:xlink="http://www.w3.org/1999/xlink">
<g id="graph0" class="graph" transform="scale(1 1) rotate(0) translate(4 214)">
<title>testbench_run</title>
<!-- Node1 -->
<g id="Node000001" class="node">
<title>Node1</title>
<g id="a_Node000001"><a xlink:title="Provedení všech testů zadaného testovacího plánu na předaném ADT.">
<polygon fill="#999999" stroke="#666666" points="77.5,-134 0,-134 0,-114 77.5,-114 77.5,-134"/>
<text text-anchor="middle" x="38.75" y="-120.5" font-family="Helvetica,sans-Serif" font-size="10.00">testbench_run</text>
</a>
</g>
</g>
<!-- Node2 -->
<g id="Node000002" class="node">
<title>Node2</title>
<g id="a_Node000002"><a xlink:href="testbench_8c.html#a068734a4e1d6209769e0c6b1675ca02b" target="_top" xlink:title="Provedení jednoho test z testovacího plánu na předaném ADT.">
<polygon fill="white" stroke="#666666" points="164.75,-134 113.5,-134 113.5,-114 164.75,-114 164.75,-134"/>
<text text-anchor="middle" x="139.12" y="-120.5" font-family="Helvetica,sans-Serif" font-size="10.00">test_run</text>
</a>
</g>
</g>
<!-- Node1&#45;&gt;Node2 -->
<g id="edge1_Node000001_Node000002" class="edge">
<title>Node1&#45;&gt;Node2</title>
<g id="a_edge1_Node000001_Node000002"><a xlink:title=" ">
<path fill="none" stroke="#63b8ff" d="M77.78,-124C85.68,-124 93.99,-124 101.82,-124"/>
<polygon fill="#63b8ff" stroke="#63b8ff" points="101.73,-127.5 111.73,-124 101.73,-120.5 101.73,-127.5"/>
</a>
</g>
</g>
<!-- Node3 -->
<g id="Node000003" class="node">
<title>Node3</title>
<g id="a_Node000003"><a xlink:href="testbench_8c.html#aa291195ad453d2b1e29004cc2e043c01" target="_top" xlink:title=" ">
<polygon fill="white" stroke="#666666" points="281.25,-210 213.5,-210 213.5,-190 281.25,-190 281.25,-210"/>
<text text-anchor="middle" x="247.38" y="-196.5" font-family="Helvetica,sans-Serif" font-size="10.00">difftimespec</text>
</a>
</g>
</g>
<!-- Node2&#45;&gt;Node3 -->
<g id="edge2_Node000002_Node000003" class="edge">
<title>Node2&#45;&gt;Node3</title>
<g id="a_edge2_Node000002_Node000003"><a xlink:title=" ">
<path fill="none" stroke="#63b8ff" d="M150.7,-134.37C162.35,-145.48 181.94,-163.22 200.75,-176 205.03,-178.91 209.7,-181.73 214.38,-184.35"/>
<polygon fill="#63b8ff" stroke="#63b8ff" points="212.64,-187.39 223.11,-189.01 215.94,-181.21 212.64,-187.39"/>
</a>
</g>
</g>
<!-- Node4 -->
<g id="Node000004" class="node">
<title>Node4</title>
<g id="a_Node000004"><a xlink:href="testbench_8c.html#a68bb846e665ae25f0855b12907c6f7b0" target="_top" xlink:title="Vytisknutí hodnoty elementu v ADT pomocí iterátoru.">
<polygon fill="white" stroke="#666666" points="284.62,-134 210.12,-134 210.12,-114 284.62,-114 284.62,-134"/>
<text text-anchor="middle" x="247.38" y="-120.5" font-family="Helvetica,sans-Serif" font-size="10.00">print_element</text>
</a>
</g>
</g>
<!-- Node2&#45;&gt;Node4 -->
<g id="edge3_Node000002_Node000004" class="edge">
<title>Node2&#45;&gt;Node4</title>
<g id="a_edge3_Node000002_Node000004"><a xlink:title=" ">
<path fill="none" stroke="#63b8ff" d="M165.04,-124C175.06,-124 186.98,-124 198.56,-124"/>
<polygon fill="#63b8ff" stroke="#63b8ff" points="198.43,-127.5 208.43,-124 198.43,-120.5 198.43,-127.5"/>
</a>
</g>
</g>
<!-- Node5 -->
<g id="Node000005" class="node">
<title>Node5</title>
<g id="a_Node000005"><a xlink:href="group___t_set_element.html#ga3473fca967dede884b1c910838f2d8df" target="_top" xlink:title="Uložení elementu do souboru.">
<polygon fill="white" stroke="#666666" points="449.88,-172 336.38,-172 336.38,-152 449.88,-152 449.88,-172"/>
<text text-anchor="middle" x="393.12" y="-158.5" font-family="Helvetica,sans-Serif" font-size="10.00">set_element_store_file</text>
</a>
</g>
</g>
<!-- Node2&#45;&gt;Node5 -->
<g id="edge9_Node000002_Node000005" class="edge">
<title>Node2&#45;&gt;Node5</title>
<g id="a_edge9_Node000002_Node000005"><a xlink:title=" ">
<path fill="none" stroke="#63b8ff" d="M165.19,-133.12C176,-136.72 188.86,-140.57 200.75,-143 241.51,-151.32 287.94,-156.04 324.85,-158.7"/>
<polygon fill="#63b8ff" stroke="#63b8ff" points="324.26,-162.17 334.47,-159.35 324.74,-155.18 324.26,-162.17"/>
</a>
</g>
</g>
<!-- Node10 -->
<g id="Node000010" class="node">
<title>Node10</title>
<g id="a_Node000010"><a xlink:href="group___iterator_algorithms.html#gab8ba369b42eda61d010f35df73be73db" target="_top" xlink:title="Zavolání zvolené funkce na každý element množiny od pozice určené iterátorem až do posledního element...">
<polygon fill="white" stroke="#666666" points="283.12,-96 211.62,-96 211.62,-76 283.12,-76 283.12,-96"/>
<text text-anchor="middle" x="247.38" y="-82.5" font-family="Helvetica,sans-Serif" font-size="10.00">set_for_each</text>
</a>
</g>
</g>
<!-- Node2&#45;&gt;Node10 -->
<g id="edge10_Node000002_Node000010" class="edge">
<title>Node2&#45;&gt;Node10</title>
<g id="a_edge10_Node000002_Node000010"><a xlink:title=" ">
<path fill="none" stroke="#63b8ff" d="M165.04,-115.09C177.33,-110.69 192.46,-105.28 206.33,-100.32"/>
<polygon fill="#63b8ff" stroke="#63b8ff" points="207.43,-103.64 215.67,-96.98 205.08,-97.05 207.43,-103.64"/>
</a>
</g>
</g>
<!-- Node13 -->
<g id="Node000013" class="node">
<title>Node13</title>
<g id="a_Node000013"><a xlink:href="group___t_set_iterator.html#gab11bafbe7585e4bb0bd9ff2353d77765" target="_top" xlink:title="Vytvoření nového iterátoru ukazujícího na první element množiny.">
<polygon fill="white" stroke="#666666" points="294,-30 200.75,-30 200.75,-10 294,-10 294,-30"/>
<text text-anchor="middle" x="247.38" y="-16.5" font-family="Helvetica,sans-Serif" font-size="10.00">set_iterator_begin</text>
</a>
</g>
</g>
<!-- Node2&#45;&gt;Node13 -->
<g id="edge16_Node000002_Node000013" class="edge">
<title>Node2&#45;&gt;Node13</title>
<g id="a_edge16_Node000002_Node000013"><a xlink:title=" ">
<path fill="none" stroke="#63b8ff" d="M150.7,-113.65C168.68,-96.05 205.42,-60.08 227.78,-38.2"/>
<polygon fill="#63b8ff" stroke="#63b8ff" points="230.06,-40.87 234.76,-31.37 225.17,-35.86 230.06,-40.87"/>
</a>
</g>
</g>
<!-- Node4&#45;&gt;Node5 -->
<g id="edge4_Node000004_Node000005" class="edge">
<title>Node4&#45;&gt;Node5</title>
<g id="a_edge4_Node000004_Node000005"><a xlink:title=" ">
<path fill="none" stroke="#63b8ff" d="M285.02,-133.69C302.19,-138.22 322.91,-143.7 341.54,-148.63"/>
<polygon fill="#63b8ff" stroke="#63b8ff" points="340.49,-151.97 351.05,-151.14 342.28,-145.2 340.49,-151.97"/>
</a>
</g>
</g>
<!-- Node6 -->
<g id="Node000006" class="node">
<title>Node6</title>
<g id="a_Node000006"><a xlink:href="group___t_set_iterator.html#ga3928a980e2759ba130ce333e77f15fab" target="_top" xlink:title="Přečtení hodnoty elementu z množiny pomocí iterátoru.">
<polygon fill="white" stroke="#666666" points="439,-134 347.25,-134 347.25,-114 439,-114 439,-134"/>
<text text-anchor="middle" x="393.12" y="-120.5" font-family="Helvetica,sans-Serif" font-size="10.00">set_iterator_value</text>
</a>
</g>
</g>
<!-- Node4&#45;&gt;Node6 -->
<g id="edge5_Node000004_Node000006" class="edge">
<title>Node4&#45;&gt;Node6</title>
<g id="a_edge5_Node000004_Node000006"><a xlink:title=" ">
<path fill="none" stroke="#63b8ff" d="M285.02,-124C300.3,-124 318.39,-124 335.32,-124"/>
<polygon fill="#63b8ff" stroke="#63b8ff" points="335.29,-127.5 345.29,-124 335.29,-120.5 335.29,-127.5"/>
</a>
</g>
</g>
<!-- Node7 -->
<g id="Node000007" class="node">
<title>Node7</title>
<g id="a_Node000007"><a xlink:href="group___t_set_unsorted_flex_array.html#ga9e462daa460e7e102258837658e80ceb" target="_top" xlink:title="Přečtení hodnoty elementu z flexibilního pole.">
<polygon fill="white" stroke="#666666" points="605,-146 501.25,-146 501.25,-114 605,-114 605,-146"/>
<text text-anchor="start" x="509.25" y="-132.5" font-family="Helvetica,sans-Serif" font-size="10.00">set_flex_array_value</text>
<text text-anchor="middle" x="553.12" y="-120.5" font-family="Helvetica,sans-Serif" font-size="10.00">_at_pos</text>
</a>
</g>
</g>
<!-- Node6&#45;&gt;Node7 -->
<g id="edge6_Node000006_Node000007" class="edge">
<title>Node6&#45;&gt;Node7</title>
<g id="a_edge6_Node000006_Node000007"><a xlink:title=" ">
<path fill="none" stroke="#63b8ff" d="M439.4,-125.72C455.03,-126.31 472.84,-126.99 489.6,-127.63"/>
<polygon fill="#63b8ff" stroke="#63b8ff" points="489.37,-131.12 499.49,-128 489.63,-124.12 489.37,-131.12"/>
</a>
</g>
</g>
<!-- Node8 -->
<g id="Node000008" class="node">
<title>Node8</title>
<g id="a_Node000008"><a xlink:href="group___t_set_iterator.html#ga089f24c81ac3da7d1ac7ca24cc078dd8" target="_top" xlink:title="Zjištění platnosti iterátoru.">
<polygon fill="white" stroke="#666666" points="603.88,-96 502.38,-96 502.38,-76 603.88,-76 603.88,-96"/>
<text text-anchor="middle" x="553.12" y="-82.5" font-family="Helvetica,sans-Serif" font-size="10.00">set_iterator_is_valid</text>
</a>
</g>
</g>
<!-- Node6&#45;&gt;Node8 -->
<g id="edge7_Node000006_Node000008" class="edge">
<title>Node6&#45;&gt;Node8</title>
<g id="a_edge7_Node000006_Node000008"><a xlink:title=" ">
<path fill="none" stroke="#63b8ff" d="M437.72,-113.52C456.28,-109.05 478.14,-103.79 497.74,-99.08"/>
<polygon fill="#63b8ff" stroke="#63b8ff" points="498.3,-102.55 507.2,-96.8 496.66,-95.74 498.3,-102.55"/>
</a>
</g>
</g>
<!-- Node9 -->
<g id="Node000009" class="node">
<title>Node9</title>
<g id="a_Node000009"><a xlink:href="group___t_set_unsorted_flex_array.html#gad3346f67be35632c3b0fbd9ea616a0c1" target="_top" xlink:title="Zjištění platnosti pozice ve flexibilním poli.">
<polygon fill="white" stroke="#666666" points="784.5,-77 650,-77 650,-57 784.5,-57 784.5,-77"/>
<text text-anchor="middle" x="717.25" y="-63.5" font-family="Helvetica,sans-Serif" font-size="10.00">set_flex_array_is_valid_pos</text>
</a>
</g>
</g>
<!-- Node8&#45;&gt;Node9 -->
<g id="edge8_Node000008_Node000009" class="edge">
<title>Node8&#45;&gt;Node9</title>
<g id="a_edge8_Node000008_Node000009"><a xlink:title=" ">
<path fill="none" stroke="#63b8ff" d="M604.09,-80.14C615.02,-78.86 626.84,-77.48 638.56,-76.1"/>
<polygon fill="#63b8ff" stroke="#63b8ff" points="638.71,-79.61 648.24,-74.97 637.9,-72.66 638.71,-79.61"/>
</a>
</g>
</g>
<!-- Node10&#45;&gt;Node8 -->
<g id="edge11_Node000010_Node000008" class="edge">
<title>Node10&#45;&gt;Node8</title>
<g id="a_edge11_Node000010_Node000008"><a xlink:title=" ">
<path fill="none" stroke="#63b8ff" d="M283.52,-86C334.16,-86 428.42,-86 490.72,-86"/>
<polygon fill="#63b8ff" stroke="#63b8ff" points="490.45,-89.5 500.45,-86 490.45,-82.5 490.45,-89.5"/>
</a>
</g>
</g>
<!-- Node11 -->
<g id="Node000011" class="node">
<title>Node11</title>
<g id="a_Node000011"><a xlink:href="group___t_set_iterator.html#ga6723a05c864198597ff49718020bd0d6" target="_top" xlink:title="Posunutí iterátoru vpřed.">
<polygon fill="white" stroke="#666666" points="444.25,-58 342,-58 342,-38 444.25,-38 444.25,-58"/>
<text text-anchor="middle" x="393.12" y="-44.5" font-family="Helvetica,sans-Serif" font-size="10.00">set_iterator_to_next</text>
</a>
</g>
</g>
<!-- Node10&#45;&gt;Node11 -->
<g id="edge12_Node000010_Node000011" class="edge">
<title>Node10&#45;&gt;Node11</title>
<g id="a_edge12_Node000010_Node000011"><a xlink:title=" ">
<path fill="none" stroke="#63b8ff" d="M283.54,-76.7C300.98,-72.09 322.36,-66.44 341.53,-61.38"/>
<polygon fill="#63b8ff" stroke="#63b8ff" points="342.27,-64.8 351.04,-58.86 340.48,-58.03 342.27,-64.8"/>
</a>
</g>
</g>
<!-- Node11&#45;&gt;Node8 -->
<g id="edge15_Node000011_Node000008" class="edge">
<title>Node11&#45;&gt;Node8</title>
<g id="a_edge15_Node000011_Node000008"><a xlink:title=" ">
<path fill="none" stroke="#63b8ff" d="M437.72,-58.48C456.28,-62.95 478.14,-68.21 497.74,-72.92"/>
<polygon fill="#63b8ff" stroke="#63b8ff" points="496.66,-76.26 507.2,-75.2 498.3,-69.45 496.66,-76.26"/>
</a>
</g>
</g>
<!-- Node11&#45;&gt;Node9 -->
<g id="edge13_Node000011_Node000009" class="edge">
<title>Node11&#45;&gt;Node9</title>
<g id="a_edge13_Node000011_Node000009"><a xlink:title=" ">
<path fill="none" stroke="#63b8ff" d="M444.46,-50.97C496.32,-54.03 577.88,-58.84 638.13,-62.39"/>
<polygon fill="#63b8ff" stroke="#63b8ff" points="637.81,-65.88 647.99,-62.97 638.22,-58.89 637.81,-65.88"/>
</a>
</g>
</g>
<!-- Node12 -->
<g id="Node000012" class="node">
<title>Node12</title>
<g id="a_Node000012"><a xlink:href="group___t_set_unsorted_flex_array.html#ga8bc0de187146b066ae844c2278b6e198" target="_top" xlink:title="Výpočet následující platné pozice ve flexibilním poli.">
<polygon fill="white" stroke="#666666" points="614,-20 492.25,-20 492.25,0 614,0 614,-20"/>
<text text-anchor="middle" x="553.12" y="-6.5" font-family="Helvetica,sans-Serif" font-size="10.00">set_flex_array_next_pos</text>
</a>
</g>
</g>
<!-- Node11&#45;&gt;Node12 -->
<g id="edge14_Node000011_Node000012" class="edge">
<title>Node11&#45;&gt;Node12</title>
<g id="a_edge14_Node000011_Node000012"><a xlink:title=" ">
<path fill="none" stroke="#63b8ff" d="M437.72,-37.52C456.28,-33.05 478.14,-27.79 497.74,-23.08"/>
<polygon fill="#63b8ff" stroke="#63b8ff" points="498.3,-26.55 507.2,-20.8 496.66,-19.74 498.3,-26.55"/>
</a>
</g>
</g>
<!-- Node13&#45;&gt;Node13 -->
<g id="edge18_Node000013_Node000013" class="edge">
<title>Node13&#45;&gt;Node13</title>
<g id="a_edge18_Node000013_Node000013"><a xlink:title=" ">
<path fill="none" stroke="#63b8ff" d="M230.18,-30.34C222.82,-38.98 228.56,-48 247.38,-48 257.67,-48 264.04,-45.3 266.51,-41.44"/>
<polygon fill="#63b8ff" stroke="#63b8ff" points="270,-41.08 264.83,-31.83 263.1,-42.28 270,-41.08"/>
</a>
</g>
</g>
<!-- Node14 -->
<g id="Node000014" class="node">
<title>Node14</title>
<g id="a_Node000014"><a xlink:href="group___t_set_unsorted_flex_array.html#ga24753753dacb74f17de6ba082505440c" target="_top" xlink:title="Výpočet první platné pozice ve flexibilním poli.">
<polygon fill="white" stroke="#666666" points="456.25,-20 330,-20 330,0 456.25,0 456.25,-20"/>
<text text-anchor="middle" x="393.12" y="-6.5" font-family="Helvetica,sans-Serif" font-size="10.00">set_flex_array_begin_pos</text>
</a>
</g>
</g>
<!-- Node13&#45;&gt;Node14 -->
<g id="edge17_Node000013_Node000014" class="edge">
<title>Node13&#45;&gt;Node14</title>
<g id="a_edge17_Node000013_Node000014"><a xlink:title=" ">
<path fill="none" stroke="#63b8ff" d="M294.25,-16.81C301.99,-16.27 310.2,-15.7 318.43,-15.13"/>
<polygon fill="#63b8ff" stroke="#63b8ff" points="318.4,-18.64 328.13,-14.45 317.91,-11.65 318.4,-18.64"/>
</a>
</g>
</g>
</g>
</svg>
