<?xml version="1.0" encoding="UTF-8" standalone="no"?>
<!DOCTYPE svg PUBLIC "-//W3C//DTD SVG 1.1//EN"
 "http://www.w3.org/Graphics/SVG/1.1/DTD/svg11.dtd">
<!-- Generated by graphviz version 11.0.0 (20240428.1522)
 -->
<!-- Title: testbench.h Pages: 1 -->
<svg width="138pt" height="84pt"
 viewBox="0.00 0.00 138.12 84.00" xmlns="http://www.w3.org/2000/svg" xmlns:xlink="http://www.w3.org/1999/xlink">
<g id="graph0" class="graph" transform="scale(1 1) rotate(0) translate(4 80)">
<title>testbench.h</title>
<!-- Node1 -->
<g id="Node000001" class="node">
<title>Node1</title>
<g id="a_Node000001"><a xlink:title="Definice testbench API pro testování operací zvoleného ADT.">
<polygon fill="#999999" stroke="#666666" points="93.12,-76 26.12,-76 26.12,-56 93.12,-56 93.12,-76"/>
<text text-anchor="middle" x="59.62" y="-62.5" font-family="Helvetica,sans-Serif" font-size="10.00">testbench.h</text>
</a>
</g>
</g>
<!-- Node2 -->
<g id="Node000002" class="node">
<title>Node2</title>
<g id="a_Node000002"><a xlink:href="main_8c.html" target="_top" xlink:title="Hlavní program pro testování ADT TSet &#45; (realizace množiny pomocí nesetříděného pole).">
<polygon fill="white" stroke="#666666" points="45.25,-20 0,-20 0,0 45.25,0 45.25,-20"/>
<text text-anchor="middle" x="22.62" y="-6.5" font-family="Helvetica,sans-Serif" font-size="10.00">main.c</text>
</a>
</g>
</g>
<!-- Node1&#45;&gt;Node2 -->
<g id="edge1_Node000001_Node000002" class="edge">
<title>Node1&#45;&gt;Node2</title>
<g id="a_edge1_Node000001_Node000002"><a xlink:title=" ">
<path fill="none" stroke="#63b8ff" d="M46.71,-46.15C40.72,-37.4 33.86,-27.39 29,-20.3"/>
<polygon fill="#63b8ff" stroke="#63b8ff" points="43.78,-48.07 52.32,-54.35 49.56,-44.12 43.78,-48.07"/>
</a>
</g>
</g>
<!-- Node3 -->
<g id="Node000003" class="node">
<title>Node3</title>
<g id="a_Node000003"><a xlink:href="testbench_8c.html" target="_top" xlink:title="Implementace testbench API pro testování operací zvoleného ADT.">
<polygon fill="white" stroke="#666666" points="130.12,-20 63.12,-20 63.12,0 130.12,0 130.12,-20"/>
<text text-anchor="middle" x="96.62" y="-6.5" font-family="Helvetica,sans-Serif" font-size="10.00">testbench.c</text>
</a>
</g>
</g>
<!-- Node1&#45;&gt;Node3 -->
<g id="edge2_Node000001_Node000003" class="edge">
<title>Node1&#45;&gt;Node3</title>
<g id="a_edge2_Node000001_Node000003"><a xlink:title=" ">
<path fill="none" stroke="#63b8ff" d="M72.54,-46.15C78.53,-37.4 85.39,-27.39 90.25,-20.3"/>
<polygon fill="#63b8ff" stroke="#63b8ff" points="69.69,-44.12 66.93,-54.35 75.47,-48.07 69.69,-44.12"/>
</a>
</g>
</g>
</g>
</svg>
