<?xml version="1.0" encoding="UTF-8" standalone="no"?>
<!DOCTYPE svg PUBLIC "-//W3C//DTD SVG 1.1//EN"
 "http://www.w3.org/Graphics/SVG/1.1/DTD/svg11.dtd">
<!-- Generated by graphviz version 11.0.0 (20240428.1522)
 -->
<!-- Title: testbench.c Pages: 1 -->
<svg width="345pt" height="308pt"
 viewBox="0.00 0.00 344.50 308.00" xmlns="http://www.w3.org/2000/svg" xmlns:xlink="http://www.w3.org/1999/xlink">
<g id="graph0" class="graph" transform="scale(1 1) rotate(0) translate(4 304)">
<title>testbench.c</title>
<!-- Node1 -->
<g id="Node000001" class="node">
<title>Node1</title>
<g id="a_Node000001"><a xlink:title="Implementace testbench API pro testování operací zvoleného ADT.">
<polygon fill="#999999" stroke="#666666" points="265.12,-300 198.12,-300 198.12,-280 265.12,-280 265.12,-300"/>
<text text-anchor="middle" x="231.62" y="-286.5" font-family="Helvetica,sans-Serif" font-size="10.00">testbench.c</text>
</a>
</g>
</g>
<!-- Node2 -->
<g id="Node000002" class="node">
<title>Node2</title>
<g id="a_Node000002"><a xlink:title=" ">
<polygon fill="#e0e0e0" stroke="#999999" points="45.25,-20 0,-20 0,0 45.25,0 45.25,-20"/>
<text text-anchor="middle" x="22.62" y="-6.5" font-family="Helvetica,sans-Serif" font-size="10.00">stdio.h</text>
</a>
</g>
</g>
<!-- Node1&#45;&gt;Node2 -->
<g id="edge1_Node000001_Node000002" class="edge">
<title>Node1&#45;&gt;Node2</title>
<g id="a_edge1_Node000001_Node000002"><a xlink:title=" ">
<path fill="none" stroke="#63b8ff" d="M197.93,-285.43C141.89,-277.43 35.62,-252.55 35.62,-179 35.62,-179 35.62,-179 35.62,-121 35.62,-89.65 30.35,-53.63 26.52,-31.59"/>
<polygon fill="#63b8ff" stroke="#63b8ff" points="29.99,-31.08 24.76,-21.86 23.1,-32.33 29.99,-31.08"/>
</a>
</g>
</g>
<!-- Node3 -->
<g id="Node000003" class="node">
<title>Node3</title>
<g id="a_Node000003"><a xlink:title=" ">
<polygon fill="#e0e0e0" stroke="#999999" points="326.12,-244 283.12,-244 283.12,-224 326.12,-224 326.12,-244"/>
<text text-anchor="middle" x="304.62" y="-230.5" font-family="Helvetica,sans-Serif" font-size="10.00">time.h</text>
</a>
</g>
</g>
<!-- Node1&#45;&gt;Node3 -->
<g id="edge2_Node000001_Node000003" class="edge">
<title>Node1&#45;&gt;Node3</title>
<g id="a_edge2_Node000001_Node000003"><a xlink:title=" ">
<path fill="none" stroke="#63b8ff" d="M244.34,-279.59C255.02,-271.7 270.5,-260.24 283.11,-250.92"/>
<polygon fill="#63b8ff" stroke="#63b8ff" points="284.88,-253.96 290.84,-245.2 280.72,-248.33 284.88,-253.96"/>
</a>
</g>
</g>
<!-- Node4 -->
<g id="Node000004" class="node">
<title>Node4</title>
<g id="a_Node000004"><a xlink:href="testbench_8h.html" target="_top" xlink:title="Definice testbench API pro testování operací zvoleného ADT.">
<polygon fill="white" stroke="#666666" points="265.12,-244 198.12,-244 198.12,-224 265.12,-224 265.12,-244"/>
<text text-anchor="middle" x="231.62" y="-230.5" font-family="Helvetica,sans-Serif" font-size="10.00">testbench.h</text>
</a>
</g>
</g>
<!-- Node1&#45;&gt;Node4 -->
<g id="edge3_Node000001_Node000004" class="edge">
<title>Node1&#45;&gt;Node4</title>
<g id="a_edge3_Node000001_Node000004"><a xlink:title=" ">
<path fill="none" stroke="#63b8ff" d="M231.62,-279.59C231.62,-273.01 231.62,-263.96 231.62,-255.73"/>
<polygon fill="#63b8ff" stroke="#63b8ff" points="235.13,-255.81 231.63,-245.81 228.13,-255.81 235.13,-255.81"/>
</a>
</g>
</g>
<!-- Node5 -->
<g id="Node000005" class="node">
<title>Node5</title>
<g id="a_Node000005"><a xlink:title=" ">
<polygon fill="#e0e0e0" stroke="#999999" points="336.5,-20 280.75,-20 280.75,0 336.5,0 336.5,-20"/>
<text text-anchor="middle" x="308.62" y="-6.5" font-family="Helvetica,sans-Serif" font-size="10.00">stdbool.h</text>
</a>
</g>
</g>
<!-- Node4&#45;&gt;Node5 -->
<g id="edge4_Node000004_Node000005" class="edge">
<title>Node4&#45;&gt;Node5</title>
<g id="a_edge4_Node000004_Node000005"><a xlink:title=" ">
<path fill="none" stroke="#63b8ff" d="M239.63,-223.57C258.65,-200.38 305.91,-137.97 318.62,-76 321.69,-61.08 318.84,-44.07 315.42,-31.19"/>
<polygon fill="#63b8ff" stroke="#63b8ff" points="318.81,-30.32 312.57,-21.76 312.11,-32.34 318.81,-30.32"/>
</a>
</g>
</g>
<!-- Node6 -->
<g id="Node000006" class="node">
<title>Node6</title>
<g id="a_Node000006"><a xlink:href="_t_set_8h.html" target="_top" xlink:title="Definice typu Set &#45; (realizace množiny pomocí nesetříděného flexibilního dynamicky alokovaného pole).">
<polygon fill="white" stroke="#666666" points="253.88,-188 209.38,-188 209.38,-168 253.88,-168 253.88,-188"/>
<text text-anchor="middle" x="231.62" y="-174.5" font-family="Helvetica,sans-Serif" font-size="10.00">TSet.h</text>
</a>
</g>
</g>
<!-- Node4&#45;&gt;Node6 -->
<g id="edge5_Node000004_Node000006" class="edge">
<title>Node4&#45;&gt;Node6</title>
<g id="a_edge5_Node000004_Node000006"><a xlink:title=" ">
<path fill="none" stroke="#63b8ff" d="M231.62,-223.59C231.62,-217.01 231.62,-207.96 231.62,-199.73"/>
<polygon fill="#63b8ff" stroke="#63b8ff" points="235.13,-199.81 231.63,-189.81 228.13,-199.81 235.13,-199.81"/>
</a>
</g>
</g>
<!-- Node6&#45;&gt;Node5 -->
<g id="edge6_Node000006_Node000005" class="edge">
<title>Node6&#45;&gt;Node5</title>
<g id="a_edge6_Node000006_Node000005"><a xlink:title=" ">
<path fill="none" stroke="#63b8ff" d="M242.06,-167.71C251.36,-159.08 264.95,-145.54 274.62,-132 290.92,-109.19 295.95,-102.96 303.62,-76 307.71,-61.63 308.92,-44.8 309.12,-31.86"/>
<polygon fill="#63b8ff" stroke="#63b8ff" points="312.62,-31.96 309.07,-21.98 305.62,-31.99 312.62,-31.96"/>
</a>
</g>
</g>
<!-- Node7 -->
<g id="Node000007" class="node">
<title>Node7</title>
<g id="a_Node000007"><a xlink:title=" ">
<polygon fill="#e0e0e0" stroke="#999999" points="294.88,-76 244.38,-76 244.38,-56 294.88,-56 294.88,-76"/>
<text text-anchor="middle" x="269.62" y="-62.5" font-family="Helvetica,sans-Serif" font-size="10.00">stddef.h</text>
</a>
</g>
</g>
<!-- Node6&#45;&gt;Node7 -->
<g id="edge7_Node000006_Node000007" class="edge">
<title>Node6&#45;&gt;Node7</title>
<g id="a_edge7_Node000006_Node000007"><a xlink:title=" ">
<path fill="none" stroke="#63b8ff" d="M238.75,-167.53C244.98,-158.77 253.76,-145.16 258.62,-132 263.92,-117.67 266.69,-100.61 268.12,-87.56"/>
<polygon fill="#63b8ff" stroke="#63b8ff" points="271.6,-87.88 269.01,-77.61 264.63,-87.26 271.6,-87.88"/>
</a>
</g>
</g>
<!-- Node8 -->
<g id="Node000008" class="node">
<title>Node8</title>
<g id="a_Node000008"><a xlink:href="_t_set_unsorted_flex_array_8h.html" target="_top" xlink:title="Deklarace typu SetUnsortedFlexArray a jeho API pro realizaci množiny pomocí nesetříděného flexibilníh...">
<polygon fill="white" stroke="#666666" points="249.38,-132 123.88,-132 123.88,-112 249.38,-112 249.38,-132"/>
<text text-anchor="middle" x="186.62" y="-118.5" font-family="Helvetica,sans-Serif" font-size="10.00">TSetUnsortedFlexArray.h</text>
</a>
</g>
</g>
<!-- Node6&#45;&gt;Node8 -->
<g id="edge8_Node000006_Node000008" class="edge">
<title>Node6&#45;&gt;Node8</title>
<g id="a_edge8_Node000006_Node000008"><a xlink:title=" ">
<path fill="none" stroke="#63b8ff" d="M223.79,-167.59C217.66,-160.24 208.95,-149.8 201.51,-140.87"/>
<polygon fill="#63b8ff" stroke="#63b8ff" points="204.43,-138.9 195.34,-133.46 199.06,-143.38 204.43,-138.9"/>
</a>
</g>
</g>
<!-- Node12 -->
<g id="Node000012" class="node">
<title>Node12</title>
<g id="a_Node000012"><a xlink:title=" ">
<polygon fill="#e0e0e0" stroke="#999999" points="113.88,-20 63.38,-20 63.38,0 113.88,0 113.88,-20"/>
<text text-anchor="middle" x="88.62" y="-6.5" font-family="Helvetica,sans-Serif" font-size="10.00">check.h</text>
</a>
</g>
</g>
<!-- Node6&#45;&gt;Node12 -->
<g id="edge17_Node000006_Node000012" class="edge">
<title>Node6&#45;&gt;Node12</title>
<g id="a_edge17_Node000006_Node000012"><a xlink:title=" ">
<path fill="none" stroke="#63b8ff" d="M209.26,-174.49C182.85,-170.32 139.37,-159.5 114.62,-132 89.55,-104.13 86.58,-58.06 87.23,-31.53"/>
<polygon fill="#63b8ff" stroke="#63b8ff" points="90.71,-31.91 87.68,-21.75 83.72,-31.58 90.71,-31.91"/>
</a>
</g>
</g>
<!-- Node8&#45;&gt;Node5 -->
<g id="edge9_Node000008_Node000005" class="edge">
<title>Node8&#45;&gt;Node5</title>
<g id="a_edge9_Node000008_Node000005"><a xlink:title=" ">
<path fill="none" stroke="#63b8ff" d="M192.04,-111.74C200.23,-98.3 216.82,-73.13 235.62,-56 248.74,-44.06 265.45,-33.49 279.57,-25.6"/>
<polygon fill="#63b8ff" stroke="#63b8ff" points="280.84,-28.9 287.98,-21.07 277.51,-22.73 280.84,-28.9"/>
</a>
</g>
</g>
<!-- Node8&#45;&gt;Node7 -->
<g id="edge10_Node000008_Node000007" class="edge">
<title>Node8&#45;&gt;Node7</title>
<g id="a_edge10_Node000008_Node000007"><a xlink:title=" ">
<path fill="none" stroke="#63b8ff" d="M201.08,-111.59C213.38,-103.59 231.3,-91.93 245.73,-82.54"/>
<polygon fill="#63b8ff" stroke="#63b8ff" points="247.31,-85.69 253.79,-77.3 243.5,-79.82 247.31,-85.69"/>
</a>
</g>
</g>
<!-- Node9 -->
<g id="Node000009" class="node">
<title>Node9</title>
<g id="a_Node000009"><a xlink:href="_t_set_element_8h.html" target="_top" xlink:title="Definice typu Basic SetElement a implementace API.">
<polygon fill="white" stroke="#666666" points="188.88,-76 108.38,-76 108.38,-56 188.88,-56 188.88,-76"/>
<text text-anchor="middle" x="148.62" y="-62.5" font-family="Helvetica,sans-Serif" font-size="10.00">TSetElement.h</text>
</a>
</g>
</g>
<!-- Node8&#45;&gt;Node9 -->
<g id="edge11_Node000008_Node000009" class="edge">
<title>Node8&#45;&gt;Node9</title>
<g id="a_edge11_Node000008_Node000009"><a xlink:title=" ">
<path fill="none" stroke="#63b8ff" d="M180.01,-111.59C174.94,-104.39 167.79,-94.23 161.6,-85.43"/>
<polygon fill="#63b8ff" stroke="#63b8ff" points="164.66,-83.7 156.04,-77.54 158.93,-87.73 164.66,-83.7"/>
</a>
</g>
</g>
<!-- Node9&#45;&gt;Node2 -->
<g id="edge12_Node000009_Node000002" class="edge">
<title>Node9&#45;&gt;Node2</title>
<g id="a_edge12_Node000009_Node000002"><a xlink:title=" ">
<path fill="none" stroke="#63b8ff" d="M126.68,-55.59C106.92,-47.13 77.63,-34.58 55.16,-24.94"/>
<polygon fill="#63b8ff" stroke="#63b8ff" points="56.71,-21.8 46.13,-21.08 53.95,-28.23 56.71,-21.8"/>
</a>
</g>
</g>
<!-- Node9&#45;&gt;Node5 -->
<g id="edge14_Node000009_Node000005" class="edge">
<title>Node9&#45;&gt;Node5</title>
<g id="a_edge14_Node000009_Node000005"><a xlink:title=" ">
<path fill="none" stroke="#63b8ff" d="M176.49,-55.59C202.38,-46.86 241.15,-33.77 270.01,-24.03"/>
<polygon fill="#63b8ff" stroke="#63b8ff" points="270.75,-27.48 279.1,-20.96 268.51,-20.85 270.75,-27.48"/>
</a>
</g>
</g>
<!-- Node10 -->
<g id="Node000010" class="node">
<title>Node10</title>
<g id="a_Node000010"><a xlink:title=" ">
<polygon fill="#e0e0e0" stroke="#999999" points="179.38,-20 131.88,-20 131.88,0 179.38,0 179.38,-20"/>
<text text-anchor="middle" x="155.62" y="-6.5" font-family="Helvetica,sans-Serif" font-size="10.00">stdlib.h</text>
</a>
</g>
</g>
<!-- Node9&#45;&gt;Node10 -->
<g id="edge13_Node000009_Node000010" class="edge">
<title>Node9&#45;&gt;Node10</title>
<g id="a_edge13_Node000009_Node000010"><a xlink:title=" ">
<path fill="none" stroke="#63b8ff" d="M149.84,-55.59C150.71,-48.93 151.9,-39.75 152.98,-31.44"/>
<polygon fill="#63b8ff" stroke="#63b8ff" points="156.41,-32.17 154.23,-21.8 149.47,-31.27 156.41,-32.17"/>
</a>
</g>
</g>
<!-- Node11 -->
<g id="Node000011" class="node">
<title>Node11</title>
<g id="a_Node000011"><a xlink:title=" ">
<polygon fill="#e0e0e0" stroke="#999999" points="248.25,-20 197,-20 197,0 248.25,0 248.25,-20"/>
<text text-anchor="middle" x="222.62" y="-6.5" font-family="Helvetica,sans-Serif" font-size="10.00">assert.h</text>
</a>
</g>
</g>
<!-- Node9&#45;&gt;Node11 -->
<g id="edge15_Node000009_Node000011" class="edge">
<title>Node9&#45;&gt;Node11</title>
<g id="a_edge15_Node000009_Node000011"><a xlink:title=" ">
<path fill="none" stroke="#63b8ff" d="M161.51,-55.59C172.34,-47.7 188.04,-36.24 200.81,-26.92"/>
<polygon fill="#63b8ff" stroke="#63b8ff" points="202.65,-29.91 208.66,-21.19 198.52,-24.26 202.65,-29.91"/>
</a>
</g>
</g>
<!-- Node9&#45;&gt;Node12 -->
<g id="edge16_Node000009_Node000012" class="edge">
<title>Node9&#45;&gt;Node12</title>
<g id="a_edge16_Node000009_Node000012"><a xlink:title=" ">
<path fill="none" stroke="#63b8ff" d="M138.17,-55.59C129.66,-47.93 117.41,-36.91 107.23,-27.75"/>
<polygon fill="#63b8ff" stroke="#63b8ff" points="109.86,-25.4 100.08,-21.31 105.17,-30.6 109.86,-25.4"/>
</a>
</g>
</g>
</g>
</svg>
