<?xml version="1.0" encoding="UTF-8" standalone="no"?>
<!DOCTYPE svg PUBLIC "-//W3C//DTD SVG 1.1//EN"
 "http://www.w3.org/Graphics/SVG/1.1/DTD/svg11.dtd">
<!-- Generated by graphviz version 11.0.0 (20240428.1522)
 -->
<!-- Title: test_run Pages: 1 -->
<svg width="679pt" height="218pt"
 viewBox="0.00 0.00 679.00 218.00" xmlns="http://www.w3.org/2000/svg" xmlns:xlink="http://www.w3.org/1999/xlink">
<g id="graph0" class="graph" transform="scale(1 1) rotate(0) translate(4 214)">
<title>test_run</title>
<!-- Node1 -->
<g id="Node000001" class="node">
<title>Node1</title>
<g id="a_Node000001"><a xlink:title="Provedení jednoho test z testovacího plánu na předaném ADT.">
<polygon fill="#999999" stroke="#666666" points="51.25,-134 0,-134 0,-114 51.25,-114 51.25,-134"/>
<text text-anchor="middle" x="25.62" y="-120.5" font-family="Helvetica,sans-Serif" font-size="10.00">test_run</text>
</a>
</g>
</g>
<!-- Node2 -->
<g id="Node000002" class="node">
<title>Node2</title>
<g id="a_Node000002"><a xlink:href="testbench_8c.html#aa291195ad453d2b1e29004cc2e043c01" target="_top" xlink:title=" ">
<polygon fill="white" stroke="#666666" points="167.75,-210 100,-210 100,-190 167.75,-190 167.75,-210"/>
<text text-anchor="middle" x="133.88" y="-196.5" font-family="Helvetica,sans-Serif" font-size="10.00">difftimespec</text>
</a>
</g>
</g>
<!-- Node1&#45;&gt;Node2 -->
<g id="edge1_Node000001_Node000002" class="edge">
<title>Node1&#45;&gt;Node2</title>
<g id="a_edge1_Node000001_Node000002"><a xlink:title=" ">
<path fill="none" stroke="#63b8ff" d="M37.2,-134.37C48.85,-145.48 68.44,-163.22 87.25,-176 91.53,-178.91 96.2,-181.73 100.88,-184.35"/>
<polygon fill="#63b8ff" stroke="#63b8ff" points="99.14,-187.39 109.61,-189.01 102.44,-181.21 99.14,-187.39"/>
</a>
</g>
</g>
<!-- Node3 -->
<g id="Node000003" class="node">
<title>Node3</title>
<g id="a_Node000003"><a xlink:href="testbench_8c.html#a68bb846e665ae25f0855b12907c6f7b0" target="_top" xlink:title="Vytisknutí hodnoty elementu v ADT pomocí iterátoru.">
<polygon fill="white" stroke="#666666" points="171.12,-134 96.62,-134 96.62,-114 171.12,-114 171.12,-134"/>
<text text-anchor="middle" x="133.88" y="-120.5" font-family="Helvetica,sans-Serif" font-size="10.00">print_element</text>
</a>
</g>
</g>
<!-- Node1&#45;&gt;Node3 -->
<g id="edge2_Node000001_Node000003" class="edge">
<title>Node1&#45;&gt;Node3</title>
<g id="a_edge2_Node000001_Node000003"><a xlink:title=" ">
<path fill="none" stroke="#63b8ff" d="M51.54,-124C61.56,-124 73.48,-124 85.06,-124"/>
<polygon fill="#63b8ff" stroke="#63b8ff" points="84.93,-127.5 94.93,-124 84.93,-120.5 84.93,-127.5"/>
</a>
</g>
</g>
<!-- Node4 -->
<g id="Node000004" class="node">
<title>Node4</title>
<g id="a_Node000004"><a xlink:href="group___t_set_element.html#ga3473fca967dede884b1c910838f2d8df" target="_top" xlink:title="Uložení elementu do souboru.">
<polygon fill="white" stroke="#666666" points="336.38,-172 222.88,-172 222.88,-152 336.38,-152 336.38,-172"/>
<text text-anchor="middle" x="279.62" y="-158.5" font-family="Helvetica,sans-Serif" font-size="10.00">set_element_store_file</text>
</a>
</g>
</g>
<!-- Node1&#45;&gt;Node4 -->
<g id="edge8_Node000001_Node000004" class="edge">
<title>Node1&#45;&gt;Node4</title>
<g id="a_edge8_Node000001_Node000004"><a xlink:title=" ">
<path fill="none" stroke="#63b8ff" d="M51.69,-133.12C62.5,-136.72 75.36,-140.57 87.25,-143 128.01,-151.32 174.44,-156.04 211.35,-158.7"/>
<polygon fill="#63b8ff" stroke="#63b8ff" points="210.76,-162.17 220.97,-159.35 211.24,-155.18 210.76,-162.17"/>
</a>
</g>
</g>
<!-- Node9 -->
<g id="Node000009" class="node">
<title>Node9</title>
<g id="a_Node000009"><a xlink:href="group___iterator_algorithms.html#gab8ba369b42eda61d010f35df73be73db" target="_top" xlink:title="Zavolání zvolené funkce na každý element množiny od pozice určené iterátorem až do posledního element...">
<polygon fill="white" stroke="#666666" points="169.62,-96 98.12,-96 98.12,-76 169.62,-76 169.62,-96"/>
<text text-anchor="middle" x="133.88" y="-82.5" font-family="Helvetica,sans-Serif" font-size="10.00">set_for_each</text>
</a>
</g>
</g>
<!-- Node1&#45;&gt;Node9 -->
<g id="edge9_Node000001_Node000009" class="edge">
<title>Node1&#45;&gt;Node9</title>
<g id="a_edge9_Node000001_Node000009"><a xlink:title=" ">
<path fill="none" stroke="#63b8ff" d="M51.54,-115.09C63.83,-110.69 78.96,-105.28 92.83,-100.32"/>
<polygon fill="#63b8ff" stroke="#63b8ff" points="93.93,-103.64 102.17,-96.98 91.58,-97.05 93.93,-103.64"/>
</a>
</g>
</g>
<!-- Node12 -->
<g id="Node000012" class="node">
<title>Node12</title>
<g id="a_Node000012"><a xlink:href="group___t_set_iterator.html#gab11bafbe7585e4bb0bd9ff2353d77765" target="_top" xlink:title="Vytvoření nového iterátoru ukazujícího na první element množiny.">
<polygon fill="white" stroke="#666666" points="180.5,-30 87.25,-30 87.25,-10 180.5,-10 180.5,-30"/>
<text text-anchor="middle" x="133.88" y="-16.5" font-family="Helvetica,sans-Serif" font-size="10.00">set_iterator_begin</text>
</a>
</g>
</g>
<!-- Node1&#45;&gt;Node12 -->
<g id="edge15_Node000001_Node000012" class="edge">
<title>Node1&#45;&gt;Node12</title>
<g id="a_edge15_Node000001_Node000012"><a xlink:title=" ">
<path fill="none" stroke="#63b8ff" d="M37.2,-113.65C55.18,-96.05 91.92,-60.08 114.28,-38.2"/>
<polygon fill="#63b8ff" stroke="#63b8ff" points="116.56,-40.87 121.26,-31.37 111.67,-35.86 116.56,-40.87"/>
</a>
</g>
</g>
<!-- Node3&#45;&gt;Node4 -->
<g id="edge3_Node000003_Node000004" class="edge">
<title>Node3&#45;&gt;Node4</title>
<g id="a_edge3_Node000003_Node000004"><a xlink:title=" ">
<path fill="none" stroke="#63b8ff" d="M171.52,-133.69C188.69,-138.22 209.41,-143.7 228.04,-148.63"/>
<polygon fill="#63b8ff" stroke="#63b8ff" points="226.99,-151.97 237.55,-151.14 228.78,-145.2 226.99,-151.97"/>
</a>
</g>
</g>
<!-- Node5 -->
<g id="Node000005" class="node">
<title>Node5</title>
<g id="a_Node000005"><a xlink:href="group___t_set_iterator.html#ga3928a980e2759ba130ce333e77f15fab" target="_top" xlink:title="Přečtení hodnoty elementu z množiny pomocí iterátoru.">
<polygon fill="white" stroke="#666666" points="325.5,-134 233.75,-134 233.75,-114 325.5,-114 325.5,-134"/>
<text text-anchor="middle" x="279.62" y="-120.5" font-family="Helvetica,sans-Serif" font-size="10.00">set_iterator_value</text>
</a>
</g>
</g>
<!-- Node3&#45;&gt;Node5 -->
<g id="edge4_Node000003_Node000005" class="edge">
<title>Node3&#45;&gt;Node5</title>
<g id="a_edge4_Node000003_Node000005"><a xlink:title=" ">
<path fill="none" stroke="#63b8ff" d="M171.52,-124C186.8,-124 204.89,-124 221.82,-124"/>
<polygon fill="#63b8ff" stroke="#63b8ff" points="221.79,-127.5 231.79,-124 221.79,-120.5 221.79,-127.5"/>
</a>
</g>
</g>
<!-- Node6 -->
<g id="Node000006" class="node">
<title>Node6</title>
<g id="a_Node000006"><a xlink:href="group___t_set_unsorted_flex_array.html#ga9e462daa460e7e102258837658e80ceb" target="_top" xlink:title="Přečtení hodnoty elementu z flexibilního pole.">
<polygon fill="white" stroke="#666666" points="491.5,-146 387.75,-146 387.75,-114 491.5,-114 491.5,-146"/>
<text text-anchor="start" x="395.75" y="-132.5" font-family="Helvetica,sans-Serif" font-size="10.00">set_flex_array_value</text>
<text text-anchor="middle" x="439.62" y="-120.5" font-family="Helvetica,sans-Serif" font-size="10.00">_at_pos</text>
</a>
</g>
</g>
<!-- Node5&#45;&gt;Node6 -->
<g id="edge5_Node000005_Node000006" class="edge">
<title>Node5&#45;&gt;Node6</title>
<g id="a_edge5_Node000005_Node000006"><a xlink:title=" ">
<path fill="none" stroke="#63b8ff" d="M325.9,-125.72C341.53,-126.31 359.34,-126.99 376.1,-127.63"/>
<polygon fill="#63b8ff" stroke="#63b8ff" points="375.87,-131.12 385.99,-128 376.13,-124.12 375.87,-131.12"/>
</a>
</g>
</g>
<!-- Node7 -->
<g id="Node000007" class="node">
<title>Node7</title>
<g id="a_Node000007"><a xlink:href="group___t_set_iterator.html#ga089f24c81ac3da7d1ac7ca24cc078dd8" target="_top" xlink:title="Zjištění platnosti iterátoru.">
<polygon fill="white" stroke="#666666" points="490.38,-96 388.88,-96 388.88,-76 490.38,-76 490.38,-96"/>
<text text-anchor="middle" x="439.62" y="-82.5" font-family="Helvetica,sans-Serif" font-size="10.00">set_iterator_is_valid</text>
</a>
</g>
</g>
<!-- Node5&#45;&gt;Node7 -->
<g id="edge6_Node000005_Node000007" class="edge">
<title>Node5&#45;&gt;Node7</title>
<g id="a_edge6_Node000005_Node000007"><a xlink:title=" ">
<path fill="none" stroke="#63b8ff" d="M324.22,-113.52C342.78,-109.05 364.64,-103.79 384.24,-99.08"/>
<polygon fill="#63b8ff" stroke="#63b8ff" points="384.8,-102.55 393.7,-96.8 383.16,-95.74 384.8,-102.55"/>
</a>
</g>
</g>
<!-- Node8 -->
<g id="Node000008" class="node">
<title>Node8</title>
<g id="a_Node000008"><a xlink:href="group___t_set_unsorted_flex_array.html#gad3346f67be35632c3b0fbd9ea616a0c1" target="_top" xlink:title="Zjištění platnosti pozice ve flexibilním poli.">
<polygon fill="white" stroke="#666666" points="671,-77 536.5,-77 536.5,-57 671,-57 671,-77"/>
<text text-anchor="middle" x="603.75" y="-63.5" font-family="Helvetica,sans-Serif" font-size="10.00">set_flex_array_is_valid_pos</text>
</a>
</g>
</g>
<!-- Node7&#45;&gt;Node8 -->
<g id="edge7_Node000007_Node000008" class="edge">
<title>Node7&#45;&gt;Node8</title>
<g id="a_edge7_Node000007_Node000008"><a xlink:title=" ">
<path fill="none" stroke="#63b8ff" d="M490.59,-80.14C501.52,-78.86 513.34,-77.48 525.06,-76.1"/>
<polygon fill="#63b8ff" stroke="#63b8ff" points="525.21,-79.61 534.74,-74.97 524.4,-72.66 525.21,-79.61"/>
</a>
</g>
</g>
<!-- Node9&#45;&gt;Node7 -->
<g id="edge10_Node000009_Node000007" class="edge">
<title>Node9&#45;&gt;Node7</title>
<g id="a_edge10_Node000009_Node000007"><a xlink:title=" ">
<path fill="none" stroke="#63b8ff" d="M170.02,-86C220.66,-86 314.92,-86 377.22,-86"/>
<polygon fill="#63b8ff" stroke="#63b8ff" points="376.95,-89.5 386.95,-86 376.95,-82.5 376.95,-89.5"/>
</a>
</g>
</g>
<!-- Node10 -->
<g id="Node000010" class="node">
<title>Node10</title>
<g id="a_Node000010"><a xlink:href="group___t_set_iterator.html#ga6723a05c864198597ff49718020bd0d6" target="_top" xlink:title="Posunutí iterátoru vpřed.">
<polygon fill="white" stroke="#666666" points="330.75,-58 228.5,-58 228.5,-38 330.75,-38 330.75,-58"/>
<text text-anchor="middle" x="279.62" y="-44.5" font-family="Helvetica,sans-Serif" font-size="10.00">set_iterator_to_next</text>
</a>
</g>
</g>
<!-- Node9&#45;&gt;Node10 -->
<g id="edge11_Node000009_Node000010" class="edge">
<title>Node9&#45;&gt;Node10</title>
<g id="a_edge11_Node000009_Node000010"><a xlink:title=" ">
<path fill="none" stroke="#63b8ff" d="M170.04,-76.7C187.48,-72.09 208.86,-66.44 228.03,-61.38"/>
<polygon fill="#63b8ff" stroke="#63b8ff" points="228.77,-64.8 237.54,-58.86 226.98,-58.03 228.77,-64.8"/>
</a>
</g>
</g>
<!-- Node10&#45;&gt;Node7 -->
<g id="edge14_Node000010_Node000007" class="edge">
<title>Node10&#45;&gt;Node7</title>
<g id="a_edge14_Node000010_Node000007"><a xlink:title=" ">
<path fill="none" stroke="#63b8ff" d="M324.22,-58.48C342.78,-62.95 364.64,-68.21 384.24,-72.92"/>
<polygon fill="#63b8ff" stroke="#63b8ff" points="383.16,-76.26 393.7,-75.2 384.8,-69.45 383.16,-76.26"/>
</a>
</g>
</g>
<!-- Node10&#45;&gt;Node8 -->
<g id="edge12_Node000010_Node000008" class="edge">
<title>Node10&#45;&gt;Node8</title>
<g id="a_edge12_Node000010_Node000008"><a xlink:title=" ">
<path fill="none" stroke="#63b8ff" d="M330.96,-50.97C382.82,-54.03 464.38,-58.84 524.63,-62.39"/>
<polygon fill="#63b8ff" stroke="#63b8ff" points="524.31,-65.88 534.49,-62.97 524.72,-58.89 524.31,-65.88"/>
</a>
</g>
</g>
<!-- Node11 -->
<g id="Node000011" class="node">
<title>Node11</title>
<g id="a_Node000011"><a xlink:href="group___t_set_unsorted_flex_array.html#ga8bc0de187146b066ae844c2278b6e198" target="_top" xlink:title="Výpočet následující platné pozice ve flexibilním poli.">
<polygon fill="white" stroke="#666666" points="500.5,-20 378.75,-20 378.75,0 500.5,0 500.5,-20"/>
<text text-anchor="middle" x="439.62" y="-6.5" font-family="Helvetica,sans-Serif" font-size="10.00">set_flex_array_next_pos</text>
</a>
</g>
</g>
<!-- Node10&#45;&gt;Node11 -->
<g id="edge13_Node000010_Node000011" class="edge">
<title>Node10&#45;&gt;Node11</title>
<g id="a_edge13_Node000010_Node000011"><a xlink:title=" ">
<path fill="none" stroke="#63b8ff" d="M324.22,-37.52C342.78,-33.05 364.64,-27.79 384.24,-23.08"/>
<polygon fill="#63b8ff" stroke="#63b8ff" points="384.8,-26.55 393.7,-20.8 383.16,-19.74 384.8,-26.55"/>
</a>
</g>
</g>
<!-- Node12&#45;&gt;Node12 -->
<g id="edge17_Node000012_Node000012" class="edge">
<title>Node12&#45;&gt;Node12</title>
<g id="a_edge17_Node000012_Node000012"><a xlink:title=" ">
<path fill="none" stroke="#63b8ff" d="M116.68,-30.34C109.32,-38.98 115.06,-48 133.88,-48 144.17,-48 150.54,-45.3 153.01,-41.44"/>
<polygon fill="#63b8ff" stroke="#63b8ff" points="156.5,-41.08 151.33,-31.83 149.6,-42.28 156.5,-41.08"/>
</a>
</g>
</g>
<!-- Node13 -->
<g id="Node000013" class="node">
<title>Node13</title>
<g id="a_Node000013"><a xlink:href="group___t_set_unsorted_flex_array.html#ga24753753dacb74f17de6ba082505440c" target="_top" xlink:title="Výpočet první platné pozice ve flexibilním poli.">
<polygon fill="white" stroke="#666666" points="342.75,-20 216.5,-20 216.5,0 342.75,0 342.75,-20"/>
<text text-anchor="middle" x="279.62" y="-6.5" font-family="Helvetica,sans-Serif" font-size="10.00">set_flex_array_begin_pos</text>
</a>
</g>
</g>
<!-- Node12&#45;&gt;Node13 -->
<g id="edge16_Node000012_Node000013" class="edge">
<title>Node12&#45;&gt;Node13</title>
<g id="a_edge16_Node000012_Node000013"><a xlink:title=" ">
<path fill="none" stroke="#63b8ff" d="M180.75,-16.81C188.49,-16.27 196.7,-15.7 204.93,-15.13"/>
<polygon fill="#63b8ff" stroke="#63b8ff" points="204.9,-18.64 214.63,-14.45 204.41,-11.65 204.9,-18.64"/>
</a>
</g>
</g>
</g>
</svg>
