<?xml version="1.0" encoding="UTF-8" standalone="no"?>
<!DOCTYPE svg PUBLIC "-//W3C//DTD SVG 1.1//EN"
 "http://www.w3.org/Graphics/SVG/1.1/DTD/svg11.dtd">
<!-- Generated by graphviz version 11.0.0 (20240428.1522)
 -->
<!-- Title: testbench.h Pages: 1 -->
<svg width="336pt" height="252pt"
 viewBox="0.00 0.00 335.75 252.00" xmlns="http://www.w3.org/2000/svg" xmlns:xlink="http://www.w3.org/1999/xlink">
<g id="graph0" class="graph" transform="scale(1 1) rotate(0) translate(4 248)">
<title>testbench.h</title>
<!-- Node1 -->
<g id="Node000001" class="node">
<title>Node1</title>
<g id="a_Node000001"><a xlink:title="Definice testbench API pro testování operací zvoleného ADT.">
<polygon fill="#999999" stroke="#666666" points="67,-244 0,-244 0,-224 67,-224 67,-244"/>
<text text-anchor="middle" x="33.5" y="-230.5" font-family="Helvetica,sans-Serif" font-size="10.00">testbench.h</text>
</a>
</g>
</g>
<!-- Node2 -->
<g id="Node000002" class="node">
<title>Node2</title>
<g id="a_Node000002"><a xlink:title=" ">
<polygon fill="#e0e0e0" stroke="#999999" points="61.38,-20 5.62,-20 5.62,0 61.38,0 61.38,-20"/>
<text text-anchor="middle" x="33.5" y="-6.5" font-family="Helvetica,sans-Serif" font-size="10.00">stdbool.h</text>
</a>
</g>
</g>
<!-- Node1&#45;&gt;Node2 -->
<g id="edge1_Node000001_Node000002" class="edge">
<title>Node1&#45;&gt;Node2</title>
<g id="a_edge1_Node000001_Node000002"><a xlink:title=" ">
<path fill="none" stroke="#63b8ff" d="M33.5,-223.74C33.5,-190.74 33.5,-78.31 33.5,-31.61"/>
<polygon fill="#63b8ff" stroke="#63b8ff" points="37,-31.81 33.5,-21.81 30,-31.81 37,-31.81"/>
</a>
</g>
</g>
<!-- Node3 -->
<g id="Node000003" class="node">
<title>Node3</title>
<g id="a_Node000003"><a xlink:href="_t_set_8h.html" target="_top" xlink:title="Definice typu Set &#45; (realizace množiny pomocí nesetříděného flexibilního dynamicky alokovaného pole).">
<polygon fill="white" stroke="#666666" points="93.75,-188 49.25,-188 49.25,-168 93.75,-168 93.75,-188"/>
<text text-anchor="middle" x="71.5" y="-174.5" font-family="Helvetica,sans-Serif" font-size="10.00">TSet.h</text>
</a>
</g>
</g>
<!-- Node1&#45;&gt;Node3 -->
<g id="edge2_Node000001_Node000003" class="edge">
<title>Node1&#45;&gt;Node3</title>
<g id="a_edge2_Node000001_Node000003"><a xlink:title=" ">
<path fill="none" stroke="#63b8ff" d="M40.12,-223.59C45.19,-216.39 52.34,-206.23 58.53,-197.43"/>
<polygon fill="#63b8ff" stroke="#63b8ff" points="61.19,-199.73 64.09,-189.54 55.47,-195.7 61.19,-199.73"/>
</a>
</g>
</g>
<!-- Node3&#45;&gt;Node2 -->
<g id="edge3_Node000003_Node000002" class="edge">
<title>Node3&#45;&gt;Node2</title>
<g id="a_edge3_Node000003_Node000002"><a xlink:title=" ">
<path fill="none" stroke="#63b8ff" d="M69.35,-167.6C63.37,-141.46 46.43,-67.48 38.16,-31.36"/>
<polygon fill="#63b8ff" stroke="#63b8ff" points="41.61,-30.74 35.97,-21.77 34.79,-32.3 41.61,-30.74"/>
</a>
</g>
</g>
<!-- Node4 -->
<g id="Node000004" class="node">
<title>Node4</title>
<g id="a_Node000004"><a xlink:title=" ">
<polygon fill="#e0e0e0" stroke="#999999" points="111.75,-76 61.25,-76 61.25,-56 111.75,-56 111.75,-76"/>
<text text-anchor="middle" x="86.5" y="-62.5" font-family="Helvetica,sans-Serif" font-size="10.00">stddef.h</text>
</a>
</g>
</g>
<!-- Node3&#45;&gt;Node4 -->
<g id="edge4_Node000003_Node000004" class="edge">
<title>Node3&#45;&gt;Node4</title>
<g id="a_edge4_Node000003_Node000004"><a xlink:title=" ">
<path fill="none" stroke="#63b8ff" d="M72.78,-167.62C75.18,-150.01 80.42,-111.59 83.68,-87.65"/>
<polygon fill="#63b8ff" stroke="#63b8ff" points="87.14,-88.24 85.02,-77.85 80.2,-87.29 87.14,-88.24"/>
</a>
</g>
</g>
<!-- Node5 -->
<g id="Node000005" class="node">
<title>Node5</title>
<g id="a_Node000005"><a xlink:href="_t_set_unsorted_flex_array_8h.html" target="_top" xlink:title="Deklarace typu SetUnsortedFlexArray a jeho API pro realizaci množiny pomocí nesetříděného flexibilníh...">
<polygon fill="white" stroke="#666666" points="225.25,-132 99.75,-132 99.75,-112 225.25,-112 225.25,-132"/>
<text text-anchor="middle" x="162.5" y="-118.5" font-family="Helvetica,sans-Serif" font-size="10.00">TSetUnsortedFlexArray.h</text>
</a>
</g>
</g>
<!-- Node3&#45;&gt;Node5 -->
<g id="edge5_Node000003_Node000005" class="edge">
<title>Node3&#45;&gt;Node5</title>
<g id="a_edge5_Node000003_Node000005"><a xlink:title=" ">
<path fill="none" stroke="#63b8ff" d="M87.35,-167.59C100.97,-159.51 120.86,-147.71 136.76,-138.27"/>
<polygon fill="#63b8ff" stroke="#63b8ff" points="138.41,-141.37 145.22,-133.25 134.84,-135.35 138.41,-141.37"/>
</a>
</g>
</g>
<!-- Node10 -->
<g id="Node000010" class="node">
<title>Node10</title>
<g id="a_Node000010"><a xlink:title=" ">
<polygon fill="#e0e0e0" stroke="#999999" points="327.75,-20 277.25,-20 277.25,0 327.75,0 327.75,-20"/>
<text text-anchor="middle" x="302.5" y="-6.5" font-family="Helvetica,sans-Serif" font-size="10.00">check.h</text>
</a>
</g>
</g>
<!-- Node3&#45;&gt;Node10 -->
<g id="edge14_Node000003_Node000010" class="edge">
<title>Node3&#45;&gt;Node10</title>
<g id="a_edge14_Node000003_Node000010"><a xlink:title=" ">
<path fill="none" stroke="#63b8ff" d="M94.22,-176.13C128.14,-173.73 192.54,-164.84 234.5,-132 268.07,-105.73 287.72,-57.98 296.65,-30.99"/>
<polygon fill="#63b8ff" stroke="#63b8ff" points="299.93,-32.23 299.56,-21.64 293.25,-30.15 299.93,-32.23"/>
</a>
</g>
</g>
<!-- Node5&#45;&gt;Node2 -->
<g id="edge6_Node000005_Node000002" class="edge">
<title>Node5&#45;&gt;Node2</title>
<g id="a_edge6_Node000005_Node000002"><a xlink:title=" ">
<path fill="none" stroke="#63b8ff" d="M158.33,-111.51C151.89,-97.79 138.4,-72.26 120.5,-56 106.04,-42.87 87.05,-32.47 70.5,-24.98"/>
<polygon fill="#63b8ff" stroke="#63b8ff" points="72,-21.82 61.43,-21.09 69.24,-28.25 72,-21.82"/>
</a>
</g>
</g>
<!-- Node5&#45;&gt;Node4 -->
<g id="edge7_Node000005_Node000004" class="edge">
<title>Node5&#45;&gt;Node4</title>
<g id="a_edge7_Node000005_Node000004"><a xlink:title=" ">
<path fill="none" stroke="#63b8ff" d="M149.26,-111.59C138.21,-103.74 122.22,-92.38 109.14,-83.09"/>
<polygon fill="#63b8ff" stroke="#63b8ff" points="111.25,-80.3 101.08,-77.36 107.2,-86 111.25,-80.3"/>
</a>
</g>
</g>
<!-- Node6 -->
<g id="Node000006" class="node">
<title>Node6</title>
<g id="a_Node000006"><a xlink:href="_t_set_element_8h.html" target="_top" xlink:title="Definice typu Basic SetElement a implementace API.">
<polygon fill="white" stroke="#666666" points="247.75,-76 167.25,-76 167.25,-56 247.75,-56 247.75,-76"/>
<text text-anchor="middle" x="207.5" y="-62.5" font-family="Helvetica,sans-Serif" font-size="10.00">TSetElement.h</text>
</a>
</g>
</g>
<!-- Node5&#45;&gt;Node6 -->
<g id="edge8_Node000005_Node000006" class="edge">
<title>Node5&#45;&gt;Node6</title>
<g id="a_edge8_Node000005_Node000006"><a xlink:title=" ">
<path fill="none" stroke="#63b8ff" d="M170.34,-111.59C176.47,-104.24 185.17,-93.8 192.61,-84.87"/>
<polygon fill="#63b8ff" stroke="#63b8ff" points="195.07,-87.38 198.78,-77.46 189.69,-82.9 195.07,-87.38"/>
</a>
</g>
</g>
<!-- Node6&#45;&gt;Node2 -->
<g id="edge11_Node000006_Node000002" class="edge">
<title>Node6&#45;&gt;Node2</title>
<g id="a_edge11_Node000006_Node000002"><a xlink:title=" ">
<path fill="none" stroke="#63b8ff" d="M177.19,-55.59C148.1,-46.57 104.03,-32.89 72.37,-23.06"/>
<polygon fill="#63b8ff" stroke="#63b8ff" points="73.77,-19.83 63.18,-20.21 71.69,-26.52 73.77,-19.83"/>
</a>
</g>
</g>
<!-- Node7 -->
<g id="Node000007" class="node">
<title>Node7</title>
<g id="a_Node000007"><a xlink:title=" ">
<polygon fill="#e0e0e0" stroke="#999999" points="125.12,-20 79.88,-20 79.88,0 125.12,0 125.12,-20"/>
<text text-anchor="middle" x="102.5" y="-6.5" font-family="Helvetica,sans-Serif" font-size="10.00">stdio.h</text>
</a>
</g>
</g>
<!-- Node6&#45;&gt;Node7 -->
<g id="edge9_Node000006_Node000007" class="edge">
<title>Node6&#45;&gt;Node7</title>
<g id="a_edge9_Node000006_Node000007"><a xlink:title=" ">
<path fill="none" stroke="#63b8ff" d="M189.21,-55.59C173.2,-47.36 149.67,-35.26 131.16,-25.74"/>
<polygon fill="#63b8ff" stroke="#63b8ff" points="132.77,-22.63 122.28,-21.17 129.57,-28.86 132.77,-22.63"/>
</a>
</g>
</g>
<!-- Node8 -->
<g id="Node000008" class="node">
<title>Node8</title>
<g id="a_Node000008"><a xlink:title=" ">
<polygon fill="#e0e0e0" stroke="#999999" points="190.25,-20 142.75,-20 142.75,0 190.25,0 190.25,-20"/>
<text text-anchor="middle" x="166.5" y="-6.5" font-family="Helvetica,sans-Serif" font-size="10.00">stdlib.h</text>
</a>
</g>
</g>
<!-- Node6&#45;&gt;Node8 -->
<g id="edge10_Node000006_Node000008" class="edge">
<title>Node6&#45;&gt;Node8</title>
<g id="a_edge10_Node000006_Node000008"><a xlink:title=" ">
<path fill="none" stroke="#63b8ff" d="M200.36,-55.59C194.89,-48.39 187.18,-38.23 180.49,-29.43"/>
<polygon fill="#63b8ff" stroke="#63b8ff" points="183.31,-27.35 174.48,-21.5 177.73,-31.58 183.31,-27.35"/>
</a>
</g>
</g>
<!-- Node9 -->
<g id="Node000009" class="node">
<title>Node9</title>
<g id="a_Node000009"><a xlink:title=" ">
<polygon fill="#e0e0e0" stroke="#999999" points="259.12,-20 207.88,-20 207.88,0 259.12,0 259.12,-20"/>
<text text-anchor="middle" x="233.5" y="-6.5" font-family="Helvetica,sans-Serif" font-size="10.00">assert.h</text>
</a>
</g>
</g>
<!-- Node6&#45;&gt;Node9 -->
<g id="edge12_Node000006_Node000009" class="edge">
<title>Node6&#45;&gt;Node9</title>
<g id="a_edge12_Node000006_Node000009"><a xlink:title=" ">
<path fill="none" stroke="#63b8ff" d="M212.03,-55.59C215.35,-48.7 219.97,-39.1 224.08,-30.57"/>
<polygon fill="#63b8ff" stroke="#63b8ff" points="227.18,-32.19 228.37,-21.66 220.87,-29.15 227.18,-32.19"/>
</a>
</g>
</g>
<!-- Node6&#45;&gt;Node10 -->
<g id="edge13_Node000006_Node000010" class="edge">
<title>Node6&#45;&gt;Node10</title>
<g id="a_edge13_Node000006_Node000010"><a xlink:title=" ">
<path fill="none" stroke="#63b8ff" d="M224.05,-55.59C238.4,-47.44 259.43,-35.48 276.1,-26"/>
<polygon fill="#63b8ff" stroke="#63b8ff" points="277.54,-29.21 284.51,-21.23 274.08,-23.13 277.54,-29.21"/>
</a>
</g>
</g>
</g>
</svg>
