<?xml version="1.0" encoding="UTF-8" standalone="no"?>
<!DOCTYPE svg PUBLIC "-//W3C//DTD SVG 1.1//EN"
 "http://www.w3.org/Graphics/SVG/1.1/DTD/svg11.dtd">
<!-- Generated by graphviz version 11.0.0 (20240428.1522)
 -->
<!-- Title: print_element Pages: 1 -->
<svg width="542pt" height="88pt"
 viewBox="0.00 0.00 542.25 88.00" xmlns="http://www.w3.org/2000/svg" xmlns:xlink="http://www.w3.org/1999/xlink">
<g id="graph0" class="graph" transform="scale(1 1) rotate(0) translate(4 84)">
<title>print_element</title>
<!-- Node1 -->
<g id="Node000001" class="node">
<title>Node1</title>
<g id="a_Node000001"><a xlink:title="Vytisknutí hodnoty elementu v ADT pomocí iterátoru.">
<polygon fill="#999999" stroke="#666666" points="74.5,-61 0,-61 0,-41 74.5,-41 74.5,-61"/>
<text text-anchor="middle" x="37.25" y="-47.5" font-family="Helvetica,sans-Serif" font-size="10.00">print_element</text>
</a>
</g>
</g>
<!-- Node2 -->
<g id="Node000002" class="node">
<title>Node2</title>
<g id="a_Node000002"><a xlink:href="group___t_set_element.html#ga3473fca967dede884b1c910838f2d8df" target="_top" xlink:title="Uložení elementu do souboru.">
<polygon fill="white" stroke="#666666" points="224,-80 110.5,-80 110.5,-60 224,-60 224,-80"/>
<text text-anchor="middle" x="167.25" y="-66.5" font-family="Helvetica,sans-Serif" font-size="10.00">set_element_store_file</text>
</a>
</g>
</g>
<!-- Node1&#45;&gt;Node2 -->
<g id="edge1_Node000001_Node000002" class="edge">
<title>Node1&#45;&gt;Node2</title>
<g id="a_edge1_Node000001_Node000002"><a xlink:title=" ">
<path fill="none" stroke="#63b8ff" d="M74.93,-56.44C82.55,-57.58 90.8,-58.8 99.13,-60.04"/>
<polygon fill="#63b8ff" stroke="#63b8ff" points="98.57,-63.49 108.97,-61.5 99.59,-56.57 98.57,-63.49"/>
</a>
</g>
</g>
<!-- Node3 -->
<g id="Node000003" class="node">
<title>Node3</title>
<g id="a_Node000003"><a xlink:href="group___t_set_iterator.html#ga3928a980e2759ba130ce333e77f15fab" target="_top" xlink:title="Přečtení hodnoty elementu z množiny pomocí iterátoru.">
<polygon fill="white" stroke="#666666" points="213.12,-42 121.38,-42 121.38,-22 213.12,-22 213.12,-42"/>
<text text-anchor="middle" x="167.25" y="-28.5" font-family="Helvetica,sans-Serif" font-size="10.00">set_iterator_value</text>
</a>
</g>
</g>
<!-- Node1&#45;&gt;Node3 -->
<g id="edge2_Node000001_Node000003" class="edge">
<title>Node1&#45;&gt;Node3</title>
<g id="a_edge2_Node000001_Node000003"><a xlink:title=" ">
<path fill="none" stroke="#63b8ff" d="M74.93,-45.56C85.79,-43.94 97.94,-42.14 109.75,-40.39"/>
<polygon fill="#63b8ff" stroke="#63b8ff" points="110.04,-43.88 119.42,-38.95 109.01,-36.96 110.04,-43.88"/>
</a>
</g>
</g>
<!-- Node4 -->
<g id="Node000004" class="node">
<title>Node4</title>
<g id="a_Node000004"><a xlink:href="group___t_set_unsorted_flex_array.html#ga9e462daa460e7e102258837658e80ceb" target="_top" xlink:title="Přečtení hodnoty elementu z flexibilního pole.">
<polygon fill="white" stroke="#666666" points="363.75,-70 260,-70 260,-38 363.75,-38 363.75,-70"/>
<text text-anchor="start" x="268" y="-56.5" font-family="Helvetica,sans-Serif" font-size="10.00">set_flex_array_value</text>
<text text-anchor="middle" x="311.88" y="-44.5" font-family="Helvetica,sans-Serif" font-size="10.00">_at_pos</text>
</a>
</g>
</g>
<!-- Node3&#45;&gt;Node4 -->
<g id="edge3_Node000003_Node000004" class="edge">
<title>Node3&#45;&gt;Node4</title>
<g id="a_edge3_Node000003_Node000004"><a xlink:title=" ">
<path fill="none" stroke="#63b8ff" d="M213.38,-38.96C224.51,-40.68 236.63,-42.55 248.42,-44.37"/>
<polygon fill="#63b8ff" stroke="#63b8ff" points="247.67,-47.79 258.09,-45.86 248.74,-40.87 247.67,-47.79"/>
</a>
</g>
</g>
<!-- Node5 -->
<g id="Node000005" class="node">
<title>Node5</title>
<g id="a_Node000005"><a xlink:href="group___t_set_iterator.html#ga089f24c81ac3da7d1ac7ca24cc078dd8" target="_top" xlink:title="Zjištění platnosti iterátoru.">
<polygon fill="white" stroke="#666666" points="362.62,-20 261.12,-20 261.12,0 362.62,0 362.62,-20"/>
<text text-anchor="middle" x="311.88" y="-6.5" font-family="Helvetica,sans-Serif" font-size="10.00">set_iterator_is_valid</text>
</a>
</g>
</g>
<!-- Node3&#45;&gt;Node5 -->
<g id="edge4_Node000003_Node000005" class="edge">
<title>Node3&#45;&gt;Node5</title>
<g id="a_edge4_Node000003_Node000005"><a xlink:title=" ">
<path fill="none" stroke="#63b8ff" d="M213.38,-25.04C224.94,-23.26 237.56,-21.31 249.78,-19.42"/>
<polygon fill="#63b8ff" stroke="#63b8ff" points="250,-22.93 259.35,-17.95 248.93,-16.01 250,-22.93"/>
</a>
</g>
</g>
<!-- Node6 -->
<g id="Node000006" class="node">
<title>Node6</title>
<g id="a_Node000006"><a xlink:href="group___t_set_unsorted_flex_array.html#gad3346f67be35632c3b0fbd9ea616a0c1" target="_top" xlink:title="Zjištění platnosti pozice ve flexibilním poli.">
<polygon fill="white" stroke="#666666" points="534.25,-20 399.75,-20 399.75,0 534.25,0 534.25,-20"/>
<text text-anchor="middle" x="467" y="-6.5" font-family="Helvetica,sans-Serif" font-size="10.00">set_flex_array_is_valid_pos</text>
</a>
</g>
</g>
<!-- Node5&#45;&gt;Node6 -->
<g id="edge5_Node000005_Node000006" class="edge">
<title>Node5&#45;&gt;Node6</title>
<g id="a_edge5_Node000005_Node000006"><a xlink:title=" ">
<path fill="none" stroke="#63b8ff" d="M363.01,-10C370.99,-10 379.4,-10 387.84,-10"/>
<polygon fill="#63b8ff" stroke="#63b8ff" points="387.81,-13.5 397.81,-10 387.81,-6.5 387.81,-13.5"/>
</a>
</g>
</g>
</g>
</svg>
